<svg width="58" height="58" viewBox="0 0 58 58" fill="none" xmlns="http://www.w3.org/2000/svg">
<path d="M28.5952 54.8657C43.1011 54.8657 54.8604 43.1064 54.8604 28.6006C54.8604 14.0948 43.1011 2.33545 28.5952 2.33545C14.0894 2.33545 2.33008 14.0948 2.33008 28.6006C2.33008 43.1064 14.0894 54.8657 28.5952 54.8657Z" fill="url(#paint0_linear_300_453)"/>
<path d="M51.1459 22.5515C47.8087 10.0968 35.0067 2.70562 22.552 6.04286C10.0973 9.38009 2.70611 22.182 6.04334 34.6367C9.38058 47.0914 22.1825 54.4826 34.6372 51.1454C47.0919 47.8082 54.4831 35.0063 51.1459 22.5515Z" fill="url(#paint1_linear_300_453)"/>
<g filter="url(#filter0_d_300_453)">
<path d="M27.0039 22.2406C27.3206 22.1406 27.6789 22.0573 28.0789 21.9906C28.4956 21.924 28.8706 21.8906 29.2039 21.8906C29.5873 21.8906 29.9539 21.9323 30.3039 22.0156C30.6706 22.0823 30.9956 22.2073 31.2789 22.3906C31.5623 22.5573 31.7873 22.7906 31.9539 23.0906C32.1206 23.3906 32.2039 23.7656 32.2039 24.2156V30.8656H34.4289C34.5289 31.049 34.6289 31.2906 34.7289 31.5906C34.8289 31.8906 34.8789 32.2073 34.8789 32.5406C34.8789 33.174 34.7373 33.624 34.4539 33.8906C34.1706 34.1573 33.8123 34.2906 33.3789 34.2906H32.2039V37.2406C32.0206 37.274 31.7456 37.3156 31.3789 37.3656C31.0123 37.4323 30.6623 37.4656 30.3289 37.4656C29.9623 37.4656 29.6373 37.449 29.3539 37.4156C29.0706 37.3823 28.8289 37.3073 28.6289 37.1906C28.4456 37.0573 28.3039 36.874 28.2039 36.6406C28.1039 36.4073 28.0539 36.0906 28.0539 35.6906V34.2906H21.7789C21.3956 34.0906 21.0623 33.799 20.7789 33.4156C20.5123 33.0156 20.3789 32.5323 20.3789 31.9656C20.3789 31.649 20.4206 31.299 20.5039 30.9156C20.5873 30.5323 20.7289 30.199 20.9289 29.9156L27.0039 22.2406ZM28.2789 26.1656H28.2039L24.8789 30.8656H28.2789V26.1656Z" fill="#544545"/>
</g>
<defs>
<filter id="filter0_d_300_453" x="13.3789" y="14.8906" width="28.5" height="29.5752" filterUnits="userSpaceOnUse" color-interpolation-filters="sRGB">
<feFlood flood-opacity="0" result="BackgroundImageFix"/>
<feColorMatrix in="SourceAlpha" type="matrix" values="0 0 0 0 0 0 0 0 0 0 0 0 0 0 0 0 0 0 127 0" result="hardAlpha"/>
<feOffset/>
<feGaussianBlur stdDeviation="3.5"/>
<feComposite in2="hardAlpha" operator="out"/>
<feColorMatrix type="matrix" values="0 0 0 0 1 0 0 0 0 0.826135 0 0 0 0 0.640278 0 0 0 0.7 0"/>
<feBlend mode="normal" in2="BackgroundImageFix" result="effect1_dropShadow_300_453"/>
<feBlend mode="normal" in="SourceGraphic" in2="effect1_dropShadow_300_453" result="shape"/>
</filter>
<linearGradient id="paint0_linear_300_453" x1="41.3094" y1="5.6247" x2="15.8753" y2="51.5848" gradientUnits="userSpaceOnUse">
<stop stop-color="#F4E7D6"/>
<stop offset="1" stop-color="#E6CF9D"/>
</linearGradient>
<linearGradient id="paint1_linear_300_453" x1="5.94245" y1="22.9636" x2="51.2552" y2="34.2277" gradientUnits="userSpaceOnUse">
<stop stop-color="#F4E7D6"/>
<stop offset="1" stop-color="#E6CF9D"/>
</linearGradient>
</defs>
</svg>
