<svg width="744" height="59" viewBox="0 0 744 59" fill="none" xmlns="http://www.w3.org/2000/svg">
<path d="M0 29.5C0 13.2076 13.2076 0 29.5 0H714.5C730.792 0 744 13.2076 744 29.5C744 45.7924 730.792 59 714.5 59H29.5C13.2076 59 0 45.7924 0 29.5Z" fill="#E5D4BE"/>
<path d="M14 29C14 19.6112 21.6112 12 31 12H713C722.389 12 730 19.6112 730 29C730 38.3888 722.389 46 713 46H31C21.6112 46 14 38.3888 14 29Z" fill="#A98B8D"/>
<rect x="14" y="12" width="571" height="34" rx="17" fill="#FFA818"/>
<circle cx="574.5" cy="30.5" r="21.5" fill="#FFA818" stroke="white" stroke-width="8"/>
</svg>
