<svg width="68" height="68" viewBox="0 0 68 68" fill="none" xmlns="http://www.w3.org/2000/svg">
<path d="M33.6629 67.3257C52.2543 67.3257 67.3257 52.2543 67.3257 33.6629C67.3257 15.0714 52.2543 0 33.6629 0C15.0714 0 0 15.0714 0 33.6629C0 52.2543 15.0714 67.3257 33.6629 67.3257Z" fill="url(#paint0_linear_300_441)"/>
<path d="M33.6846 63.5954C50.2052 63.5954 63.5978 50.2028 63.5978 33.6822C63.5978 17.1616 50.2052 3.76904 33.6846 3.76904C17.1641 3.76904 3.77148 17.1616 3.77148 33.6822C3.77148 50.2028 17.1641 63.5954 33.6846 63.5954Z" fill="url(#paint1_linear_300_441)"/>
<g filter="url(#filter0_d_300_441)">
<path d="M32.2769 20.5844C33.7969 20.5844 35.1435 20.7844 36.3169 21.1844C37.4902 21.5577 38.4902 22.0777 39.3169 22.7444C40.1435 23.4111 40.7702 24.1977 41.1969 25.1044C41.6235 26.0111 41.8369 26.9844 41.8369 28.0244C41.8369 30.8244 40.2502 33.4911 37.0769 36.0244L31.8369 40.2244H41.4369C41.5969 40.5177 41.7435 40.8911 41.8769 41.3444C42.0369 41.7977 42.1169 42.2911 42.1169 42.8244C42.1169 43.7844 41.9035 44.4777 41.4769 44.9044C41.0502 45.3044 40.4902 45.5044 39.7969 45.5044H25.9169C25.3302 45.1044 24.8635 44.5977 24.5169 43.9844C24.1969 43.3444 24.0369 42.5977 24.0369 41.7444C24.0369 40.8377 24.2235 40.0777 24.5969 39.4644C24.9702 38.8244 25.3835 38.3177 25.8369 37.9444L31.3569 33.2244C32.0502 32.6377 32.6235 32.1177 33.0769 31.6644C33.5302 31.1844 33.8902 30.7577 34.1569 30.3844C34.4502 30.0111 34.6502 29.6644 34.7569 29.3444C34.8902 29.0244 34.9569 28.7177 34.9569 28.4244C34.9569 27.6777 34.6235 27.0911 33.9569 26.6644C33.3169 26.2377 32.5169 26.0244 31.5569 26.0244C30.4902 26.0244 29.5302 26.1977 28.6769 26.5444C27.8502 26.8644 27.1569 27.2111 26.5969 27.5844C26.1435 27.2644 25.7702 26.8644 25.4769 26.3844C25.1835 25.9044 25.0369 25.3444 25.0369 24.7044C25.0369 23.3177 25.6902 22.2911 26.9969 21.6244C28.3035 20.9311 30.0635 20.5844 32.2769 20.5844Z" fill="#FFF9F9"/>
</g>
<defs>
<filter id="filter0_d_300_441" x="17.0371" y="13.5845" width="32.0801" height="38.9199" filterUnits="userSpaceOnUse" color-interpolation-filters="sRGB">
<feFlood flood-opacity="0" result="BackgroundImageFix"/>
<feColorMatrix in="SourceAlpha" type="matrix" values="0 0 0 0 0 0 0 0 0 0 0 0 0 0 0 0 0 0 127 0" result="hardAlpha"/>
<feOffset/>
<feGaussianBlur stdDeviation="3.5"/>
<feComposite in2="hardAlpha" operator="out"/>
<feColorMatrix type="matrix" values="0 0 0 0 0.640278 0 0 0 0 0.814144 0 0 0 0 1 0 0 0 0.7 0"/>
<feBlend mode="normal" in2="BackgroundImageFix" result="effect1_dropShadow_300_441"/>
<feBlend mode="normal" in="SourceGraphic" in2="effect1_dropShadow_300_441" result="shape"/>
</filter>
<linearGradient id="paint0_linear_300_441" x1="14.7889" y1="64.2479" x2="42.6156" y2="0.349745" gradientUnits="userSpaceOnUse">
<stop stop-color="#744FC2"/>
<stop offset="1" stop-color="#CDC8EE"/>
</linearGradient>
<linearGradient id="paint1_linear_300_441" x1="12.727" y1="10.6558" x2="55.4975" y2="56.5182" gradientUnits="userSpaceOnUse">
<stop stop-color="#744FC2"/>
<stop offset="1" stop-color="#CDC8EE"/>
</linearGradient>
</defs>
</svg>
