<svg width="626" height="561" viewBox="0 0 626 561" fill="none" xmlns="http://www.w3.org/2000/svg">
<g filter="url(#filter0_ddi_369_217)">
<path d="M359.579 173.771C357.686 163.072 361.766 152.104 370.178 145.277C373.523 142.562 380.11 139.458 384.252 138.645C394.497 136.633 405.613 140.85 412.032 149.185C414.496 152.384 417.102 158.691 417.607 162.677C418.786 171.973 415.216 182 408.266 188.913C406.413 190.757 404.876 191.781 401.133 193.666C395.53 196.486 392.317 197.231 386.491 197.059C381.104 196.901 373.71 194.124 369.673 190.743C364.074 186.056 360.77 180.499 359.579 173.771Z" fill="url(#paint0_linear_369_217)"/>
<path d="M220.215 243.212C223.054 235.667 229.462 228.297 237.701 223.104C239.056 222.249 241.823 220.92 243.851 220.149C256.135 215.48 268.211 217.55 279.091 226.19C286.738 232.263 291.001 238.359 299.355 255.163C309.892 276.362 312.466 280.848 317.884 287.448C329.768 301.923 345.019 305.551 356.559 296.647C362.4 292.14 367.643 285.042 377.037 268.923C387.62 250.763 392.917 243.286 399.41 237.341C406.042 231.269 411.442 228.676 421.061 226.945C435.237 224.394 443.959 225.535 469.423 233.27C485.933 238.285 491.854 239.725 501.001 240.947C511.465 242.344 517.225 241.6 525.605 237.767C531.692 234.982 533.257 233.949 544.778 225.103C558.832 214.313 569.942 210.064 583.417 210.326C599.202 210.633 611.416 215.135 621.807 224.475C623.776 226.243 627.892 230.328 630.955 233.551C639.316 242.348 642.292 244.651 648.182 246.884C654.085 249.121 658.619 249.507 665.188 248.332C670.928 247.306 674.279 245.801 677.721 242.702C682.488 238.409 685.062 233.287 688.957 220.34C694.012 203.544 698.316 194.672 704.805 187.672C717.25 174.25 734.405 167.44 748.665 170.259C763.042 173.102 775.615 185.374 777.116 198.03C778.614 210.661 772.771 223.93 759.794 237.368C753.073 244.328 745.303 249.743 733.308 255.824C720.694 262.219 714.634 266.279 707.002 273.448C703.149 277.066 698.047 283.228 695.562 287.265C691.537 293.8 688.973 302.647 689.315 308.816C690.308 326.786 706.096 336.808 722.032 329.587C727.054 327.311 729.487 325.354 734.317 319.703C739.918 313.149 742.677 310.71 747.801 307.78C757.124 302.451 765.832 301.018 772.664 303.689C777.109 305.427 781.076 309.908 783.16 315.546C786.714 325.163 781.234 334.799 766.943 344.063C764.789 345.458 761.322 347.379 759.236 348.331C750.803 352.182 747.049 355.79 744.708 362.291C741.6 370.922 743.572 383.009 749.395 391.024C752.916 395.869 759.008 399.847 770.224 404.622C787.995 412.187 796.733 420.422 803.994 436.445C808.573 446.551 809.098 450.146 808.301 465.933C807.594 479.938 808.731 487.64 812.873 496.915C814.85 501.341 815.558 502.524 817.223 504.183C825.613 512.542 839.117 513.859 864.559 508.799C878.345 506.057 884.411 506.104 891.82 509.01C898.1 511.473 902.395 515.6 905.263 521.931C909.738 531.806 908.967 541.888 903.159 549.436C897.201 557.18 884.485 563.027 872.086 563.723C865.84 564.073 860.192 563.09 851.163 560.08C832.78 553.953 819.632 551.823 808.595 553.184C805.65 553.548 804.049 554.054 799.914 555.927C795.026 558.142 794.764 558.321 792.638 560.91C791.089 562.794 790.255 564.362 789.838 566.169C788.757 570.858 789.348 573.94 794.348 589.701C797.911 600.928 798.573 608.456 796.659 615.943C794.192 625.591 788.886 631.393 779.138 635.103C776.862 635.97 770.698 637.787 765.44 639.142C750.565 642.975 744.531 645.96 739.917 651.767C735.524 657.296 735.045 667.048 738.689 676.784C741.563 684.463 746.407 691.235 754.454 698.825C761.673 705.635 764.484 709.291 768.081 716.551C770.565 721.565 771.235 723.331 772.083 727.104C773.319 732.6 773.232 739.75 771.874 744.161C768.164 756.217 755.041 764.349 740.289 763.731C733.786 763.459 723.785 759.998 717.006 755.674C712.196 752.606 705.451 746.918 701.059 742.226C690.404 730.84 676.853 725.367 661.473 726.236C653.747 726.672 645.815 728.73 637.719 732.399C624.857 738.227 615.369 747.056 604.343 763.458C602.618 766.022 599.299 770.976 596.966 774.466C591.995 781.902 584.687 790.959 580.833 794.46C575.083 799.683 572.247 801.477 563.468 805.445C555.958 808.84 554.806 809.243 550.262 810.061C541.599 811.619 534.962 811.059 527.316 808.124C521.685 805.962 516.828 802.895 506.504 794.983C496.326 787.183 491.322 784.124 485.26 781.999C475.064 778.424 462.157 780.153 452.241 786.422C438.555 795.073 432.025 810.482 431.542 835.268C431.202 852.633 430.422 858.197 427.046 867.332C423.135 877.91 417.033 886.196 408.534 892.466C407.064 893.55 403.688 895.401 400.759 896.728C387.126 902.905 375.187 900.885 365.978 890.841C363.465 888.101 362.745 886.986 361.044 883.196C359.317 879.351 359.003 878.197 358.69 874.541C358.093 867.572 359.679 860.299 363.511 852.432C366.719 845.845 369.734 841.319 377.22 831.849C385.555 821.307 388.863 816.013 391.981 808.226C396.946 795.829 397.52 785.808 393.905 774.656C391.4 766.928 385.287 758.248 378.249 752.427C370.743 746.218 362.274 744.063 352.309 745.825C350.343 746.173 345.495 747.564 341.536 748.917C329.562 753.008 326.228 754.008 322.745 754.553C313.296 756.03 306.564 753.68 299.824 746.55C294.666 741.094 292.271 735.36 292.04 727.915C291.977 725.883 292.312 720.898 292.786 716.839C293.863 707.599 293.964 705.231 293.463 701.005C292.736 694.878 289.041 688.292 283.866 683.9C281.039 681.499 276.646 680.223 269.294 679.666C261.614 679.085 257.031 677.583 253.55 674.508C249.518 670.945 248.159 668.9 244.632 661.093L241.391 653.917L239.393 643.127C237.128 630.895 236.097 627.516 233.26 623.023C230.337 618.395 227.592 615.618 224.611 614.274C221.311 612.786 214.942 612.532 209.924 613.69C204.977 614.831 192.206 620.629 181.957 626.387C170.465 632.843 164.647 634.352 156.549 632.977C151.143 632.059 146.986 629.886 143.635 626.225C140.151 622.42 137.273 615.881 136.648 610.355C135.353 598.902 142.107 588.727 154.821 582.977C163.194 579.191 169.671 578.27 183.373 578.917C197.14 579.567 205.904 577.848 214.313 572.846C226.109 565.831 231.384 555.668 228.611 545.298C226.433 537.15 217.145 528.564 205.222 523.675C196.464 520.085 188.668 518.631 176.696 518.354C167.11 518.133 162.757 516.38 159.187 511.302C156.491 507.469 155.776 501.464 157.407 496.358C159.428 490.03 165.278 485.037 171.97 483.932C177.537 483.012 182.891 484.008 191.435 487.552C199.385 490.85 205.035 491.77 212.73 491.019C219.903 490.319 227.433 486.994 231.067 482.923C236.587 476.74 237.736 469.051 235.962 450.174C234.915 439.042 235.024 429.816 236.264 424.589C238.448 415.381 244.8 406.941 255.031 399.651C257.869 397.629 259.97 396.368 272.856 388.951C289.09 379.607 296.626 371.321 300.954 358.055C303.03 351.692 303.878 344.819 303.308 338.984C302.881 334.61 302.637 333.733 300.563 329.113C297.836 323.041 295.286 319.784 289.609 315.121C283.396 310.019 277.84 306.818 259.851 297.981C247.631 291.978 240.38 287.133 233.185 280.164C220.196 267.581 215.78 255.001 220.215 243.212Z" fill="url(#paint1_linear_369_217)"/>
<path d="M539.3 112.247C539.433 107.951 541.853 103.656 545.747 100.805C551.13 96.8638 558.473 97.0395 563.209 101.222C566.138 103.809 568.191 108.614 568.185 112.87C568.177 119.258 564.823 124.105 558.949 126.218C551.455 128.914 543.998 125.713 540.649 118.364C539.455 115.743 539.224 114.698 539.3 112.247Z" fill="url(#paint2_linear_369_217)"/>
<path d="M457.197 148.916C459.216 146.021 462.573 142.796 465.883 140.571C470.643 137.372 479.104 134.352 486.445 133.233C496.915 131.637 512.31 133.001 522.432 136.421C543.96 143.696 551.97 161.202 543.777 183.071C539.436 194.658 530.911 205.296 520.727 211.835C512.36 217.205 502.746 218.237 492.962 214.816C482.727 211.236 470.505 201.595 462.181 190.534C458.261 185.326 453.382 174.827 452.615 169.951C451.497 162.842 453.318 154.477 457.197 148.916Z" fill="url(#paint3_linear_369_217)"/>
<path d="M124.13 463.81C124.425 458.512 126.934 453.839 131.004 451.005C141.4 443.767 157.289 456.208 153.174 468.363C151.727 472.636 149.691 474.655 144.824 476.644C141.57 477.974 140.415 478.224 137.884 478.145C134.479 478.039 130.949 476.83 128.705 474.999C127.59 474.09 126.79 472.854 125.589 470.185C124.197 467.089 123.996 466.211 124.13 463.81Z" fill="url(#paint4_linear_369_217)"/>
<path d="M454.002 825.765C455.19 818.444 459.635 811.045 465.284 806.986C472.06 802.117 481.694 800.785 489.458 803.644C495.74 805.957 499.867 809.819 502.671 816.007C507.284 826.185 504.661 836.4 495.485 843.99C492.076 846.809 481.997 851.36 478.003 851.884C471.047 852.796 465.297 851.386 460.95 847.701C458.458 845.589 458.207 845.22 456.142 840.612C453.557 834.846 453.074 831.49 454.002 825.765Z" fill="url(#paint5_linear_369_217)"/>
<path d="M813.019 706.103C813.168 696.822 817.305 689.516 825.788 683.554C829.623 680.858 835.709 678.39 840.769 677.479C842.837 677.106 846.972 676.89 849.957 676.999C854.679 677.171 856.147 677.482 861.252 679.392C866.08 681.199 867.722 682.082 870.51 684.375C876.417 689.23 880.106 695.593 881.351 703.071C884.018 719.091 873.47 735.747 857.181 741.235C844.805 745.404 831.243 741.797 822.066 731.894C819.773 729.419 819.173 728.426 816.696 722.998C813.467 715.923 812.903 713.334 813.019 706.103Z" fill="url(#paint6_linear_369_217)"/>
<path d="M520.099 861.55C514.346 857.204 514.449 848.422 520.32 842.744C526.061 837.19 535.18 839.442 538.927 847.34C540.665 851.004 540.797 854.062 539.356 857.261C538.013 860.241 535.502 862.395 532.216 863.389C527.979 864.669 523.285 863.957 520.099 861.55Z" fill="url(#paint7_linear_369_217)"/>
</g>
<path d="M459.859 797.548C460.933 790.909 464.96 784.199 470.078 780.52C476.218 776.106 484.95 774.901 491.987 777.497C497.682 779.596 501.425 783.101 503.968 788.714C508.152 797.947 505.778 807.21 497.464 814.091C494.375 816.646 485.242 820.771 481.621 821.244C475.318 822.069 470.105 820.788 466.164 817.445C463.904 815.529 463.677 815.194 461.804 811.014C459.459 805.783 459.02 802.74 459.859 797.548Z" fill="white" fill-opacity="0.5"/>
<path d="M785.22 689.141C785.352 680.723 789.099 674.098 796.786 668.693C800.261 666.25 805.776 664.014 810.362 663.189C812.236 662.851 815.984 662.657 818.689 662.757C822.97 662.914 824.3 663.196 828.928 664.931C833.304 666.571 834.793 667.373 837.321 669.453C842.676 673.858 846.022 679.631 847.153 686.413C849.575 700.944 840.021 716.046 825.259 721.018C814.043 724.795 801.749 721.519 793.428 712.534C791.349 710.289 790.805 709.388 788.558 704.465C785.629 698.047 785.118 695.699 785.22 689.141Z" fill="white" fill-opacity="0.5"/>
<path d="M519.779 830.026C514.564 826.082 514.654 818.117 519.973 812.969C525.175 807.934 533.441 809.98 536.839 817.144C538.416 820.468 538.537 823.241 537.231 826.142C536.015 828.844 533.74 830.797 530.762 831.697C526.923 832.857 522.668 832.21 519.779 830.026Z" fill="white" fill-opacity="0.5"/>
<path fill-rule="evenodd" clip-rule="evenodd" d="M371.362 317.627C324.589 331.894 324.902 361.273 320.984 373.303C311.346 402.894 261.931 402.321 254.798 432.452C250.919 448.84 278.503 472.195 266.33 485.842C249.414 504.807 244.624 514.83 250.199 528.327C251.992 532.668 253.963 537.44 255.478 543.101C257.995 552.506 249.699 560.905 242.528 568.081C236.653 575.229 230.297 592.753 251.875 605.657C254.578 606.877 257.067 609.396 259.717 613.595C262.29 617.671 263.226 620.735 265.283 631.83L267.097 641.618L270.038 648.127C273.237 655.209 274.47 657.063 278.125 660.296C281.281 663.087 285.436 664.45 292.396 664.98C299.06 665.488 303.042 666.647 305.606 668.824C310.297 672.81 313.649 678.784 314.31 684.342C314.766 688.175 314.675 690.323 313.701 698.702C313.273 702.383 312.971 706.904 313.029 708.747C313.241 715.5 315.414 720.701 320.091 725.651C326.202 732.12 332.305 734.254 340.868 732.917C344.025 732.425 347.046 731.519 357.898 727.812C361.485 726.586 365.879 725.326 367.661 725.011C376.692 723.417 384.369 725.374 391.175 731.008C397.555 736.29 403.099 744.164 405.372 751.174C408.652 761.289 408.135 770.378 403.639 781.62C400.816 788.681 397.819 793.482 390.268 803.04C383.486 811.626 380.756 815.73 377.85 821.703C374.38 828.837 372.945 835.432 373.488 841.753C373.773 845.069 374.057 846.116 375.624 849.604C377.167 853.041 377.82 854.053 380.099 856.54C388.449 865.652 399.271 867.488 411.626 861.89C414.279 860.687 417.339 859.01 418.67 858.027C426.372 852.343 431.9 844.831 435.441 835.238C438.498 826.954 439.203 821.908 439.505 806.159C439.935 783.68 445.848 769.706 458.25 761.864C467.235 756.182 478.933 754.618 488.176 757.864C493.671 759.794 498.207 762.57 507.435 769.647C516.795 776.827 521.198 779.61 526.303 781.572C533.234 784.237 539.249 784.748 547.1 783.337C551.219 782.597 552.262 782.232 559.069 779.155C567.025 775.559 569.594 773.933 574.804 769.198C578.296 766.024 584.917 757.812 589.419 751.07C591.533 747.905 594.54 743.414 596.102 741.088C606.09 726.216 614.687 718.212 626.342 712.93C633.68 709.605 640.868 707.742 647.871 707.349C661.81 706.566 674.094 711.535 683.755 721.864C687.737 726.121 693.852 731.283 698.213 734.067C704.359 737.991 713.425 741.133 719.319 741.382C732.69 741.947 744.582 734.577 747.941 723.643C749.169 719.643 749.246 713.159 748.124 708.173C747.354 704.751 746.746 703.149 744.493 698.601C741.23 692.016 738.681 688.698 732.136 682.52C724.84 675.633 720.447 669.489 717.84 662.524C714.534 653.693 714.964 644.848 718.944 639.835C723.124 634.57 728.592 631.864 742.073 628.393C746.839 627.166 752.425 625.52 754.488 624.735C763.322 621.373 768.129 616.113 770.361 607.363C772.094 600.573 771.491 593.746 768.258 583.562C763.721 569.266 763.185 566.47 764.163 562.218C764.54 560.58 765.295 559.158 766.698 557.449C768.625 555.102 768.862 554.94 773.291 552.933C777.039 551.235 778.49 550.777 781.159 550.448C791.162 549.217 803.08 551.153 819.743 556.716C827.928 559.449 833.047 560.342 838.708 560.027C849.946 559.4 861.47 554.102 866.868 547.081C872.129 540.236 872.825 531.093 868.765 522.135C866.163 516.392 862.27 512.648 856.576 510.412C849.86 507.774 844.362 507.729 831.868 510.211C808.809 514.792 796.57 513.593 788.962 506.009C787.453 504.504 786.811 503.43 785.018 499.415C781.26 491.002 780.227 484.016 780.863 471.315C781.58 456.996 781.103 453.736 776.949 444.569C770.363 430.034 762.44 422.562 746.33 415.695C736.163 411.361 730.64 407.751 727.448 403.356C722.167 396.084 720.376 385.121 723.189 377.294C725.309 371.399 728.711 368.128 736.353 364.638C738.242 363.776 741.385 362.034 743.336 360.769C756.286 352.373 761.25 343.635 758.025 334.912C756.134 329.797 752.537 325.732 748.508 324.154C742.315 321.73 734.423 323.027 725.975 327.857C721.331 330.511 718.832 332.723 713.757 338.665C709.381 343.789 707.177 345.563 702.625 347.625C688.184 354.169 673.871 345.074 672.965 328.776C672.653 323.181 674.974 315.158 678.619 309.232C680.871 305.572 685.493 299.984 688.984 296.704C695.899 290.206 701.39 286.526 712.821 280.73C723.691 275.218 730.732 270.31 736.821 264C748.579 251.816 753.87 239.784 752.508 228.328C751.143 216.848 739.743 205.714 726.711 203.131C713.785 200.569 698.239 206.74 686.964 218.909C681.085 225.255 677.186 233.3 672.611 248.532C669.085 260.273 666.753 264.918 662.434 268.809C659.316 271.619 656.279 272.983 651.077 273.912C645.123 274.975 641.013 274.624 635.663 272.592C630.323 270.565 627.625 268.475 620.044 260.494C617.267 257.57 613.534 253.864 611.75 252.259C602.328 243.785 591.256 239.698 576.949 239.414C564.736 239.172 554.668 243.022 541.933 252.804C531.493 260.823 530.076 261.759 524.56 264.282C516.966 267.756 511.746 268.429 502.261 267.158C493.969 266.047 488.603 264.739 473.637 260.185C450.554 253.161 442.649 252.123 429.801 254.432C421.083 255.999 416.189 258.349 410.181 263.854C395.52 277.285 389.991 311.945 371.362 317.627Z" fill="white" fill-opacity="0.5"/>
<defs>
<filter id="filter0_ddi_369_217" x="112.095" y="85.9629" width="808.048" height="842.266" filterUnits="userSpaceOnUse" color-interpolation-filters="sRGB">
<feFlood flood-opacity="0" result="BackgroundImageFix"/>
<feColorMatrix in="SourceAlpha" type="matrix" values="0 0 0 0 0 0 0 0 0 0 0 0 0 0 0 0 0 0 127 0" result="hardAlpha"/>
<feOffset dy="16"/>
<feGaussianBlur stdDeviation="6"/>
<feComposite in2="hardAlpha" operator="out"/>
<feColorMatrix type="matrix" values="0 0 0 0 0 0 0 0 0 0 0 0 0 0 0 0 0 0 0.4 0"/>
<feBlend mode="normal" in2="BackgroundImageFix" result="effect1_dropShadow_369_217"/>
<feColorMatrix in="SourceAlpha" type="matrix" values="0 0 0 0 0 0 0 0 0 0 0 0 0 0 0 0 0 0 127 0" result="hardAlpha"/>
<feOffset/>
<feGaussianBlur stdDeviation="6"/>
<feComposite in2="hardAlpha" operator="out"/>
<feColorMatrix type="matrix" values="0 0 0 0 0.711767 0 0 0 0 0.513402 0 0 0 0 0.41422 0 0 0 1 0"/>
<feBlend mode="normal" in2="effect1_dropShadow_369_217" result="effect2_dropShadow_369_217"/>
<feBlend mode="normal" in="SourceGraphic" in2="effect2_dropShadow_369_217" result="shape"/>
<feColorMatrix in="SourceAlpha" type="matrix" values="0 0 0 0 0 0 0 0 0 0 0 0 0 0 0 0 0 0 127 0" result="hardAlpha"/>
<feOffset/>
<feGaussianBlur stdDeviation="5.7"/>
<feComposite in2="hardAlpha" operator="arithmetic" k2="-1" k3="1"/>
<feColorMatrix type="matrix" values="0 0 0 0 1 0 0 0 0 1 0 0 0 0 1 0 0 0 1 0"/>
<feBlend mode="normal" in2="shape" result="effect3_innerShadow_369_217"/>
</filter>
<linearGradient id="paint0_linear_369_217" x1="57.1722" y1="331.616" x2="1079.68" y2="731.585" gradientUnits="userSpaceOnUse">
<stop stop-color="white"/>
<stop offset="0.539599" stop-color="#FFC68D"/>
<stop offset="1" stop-color="#823C20"/>
</linearGradient>
<linearGradient id="paint1_linear_369_217" x1="57.1722" y1="331.616" x2="1079.68" y2="731.585" gradientUnits="userSpaceOnUse">
<stop stop-color="white"/>
<stop offset="0.539599" stop-color="#FFC68D"/>
<stop offset="1" stop-color="#823C20"/>
</linearGradient>
<linearGradient id="paint2_linear_369_217" x1="57.1722" y1="331.616" x2="1079.68" y2="731.585" gradientUnits="userSpaceOnUse">
<stop stop-color="white"/>
<stop offset="0.539599" stop-color="#FFC68D"/>
<stop offset="1" stop-color="#823C20"/>
</linearGradient>
<linearGradient id="paint3_linear_369_217" x1="57.1722" y1="331.616" x2="1079.68" y2="731.585" gradientUnits="userSpaceOnUse">
<stop stop-color="white"/>
<stop offset="0.539599" stop-color="#FFC68D"/>
<stop offset="1" stop-color="#823C20"/>
</linearGradient>
<linearGradient id="paint4_linear_369_217" x1="57.1722" y1="331.616" x2="1079.68" y2="731.585" gradientUnits="userSpaceOnUse">
<stop stop-color="white"/>
<stop offset="0.539599" stop-color="#FFC68D"/>
<stop offset="1" stop-color="#823C20"/>
</linearGradient>
<linearGradient id="paint5_linear_369_217" x1="57.1722" y1="331.616" x2="1079.68" y2="731.585" gradientUnits="userSpaceOnUse">
<stop stop-color="white"/>
<stop offset="0.539599" stop-color="#FFC68D"/>
<stop offset="1" stop-color="#823C20"/>
</linearGradient>
<linearGradient id="paint6_linear_369_217" x1="57.1722" y1="331.616" x2="1079.68" y2="731.585" gradientUnits="userSpaceOnUse">
<stop stop-color="white"/>
<stop offset="0.539599" stop-color="#FFC68D"/>
<stop offset="1" stop-color="#823C20"/>
</linearGradient>
<linearGradient id="paint7_linear_369_217" x1="57.1722" y1="331.616" x2="1079.68" y2="731.585" gradientUnits="userSpaceOnUse">
<stop stop-color="white"/>
<stop offset="0.539599" stop-color="#FFC68D"/>
<stop offset="1" stop-color="#823C20"/>
</linearGradient>
</defs>
</svg>
