<svg width="377" height="356" viewBox="0 0 377 356" fill="none" xmlns="http://www.w3.org/2000/svg">
<g filter="url(#filter0_ddi_305_272)">
<path d="M316.904 167.162C322.21 172.144 324.419 179.665 322.642 186.701C321.936 189.499 319.646 193.806 317.75 195.903C313.059 201.09 305.404 203.284 298.617 201.386C296.012 200.657 292.085 198.318 290.216 196.382C285.856 191.866 283.751 185.054 284.708 178.558C284.964 176.826 285.378 175.66 286.631 173.148C288.506 169.388 289.931 167.7 293.126 165.456C296.081 163.381 301.161 161.907 304.683 162.102C309.567 162.372 313.568 164.029 316.904 167.162Z" fill="url(#paint0_linear_305_272)" fill-opacity="0.2" shape-rendering="crispEdges"/>
<path d="M363.841 74.0211C365.344 79.2077 364.86 85.7322 362.522 91.8219C362.137 92.8238 361.185 94.6469 360.406 95.8734C355.687 103.304 348.377 107.035 339.075 106.762C332.537 106.57 327.805 105.008 316.585 99.3404C302.431 92.1906 299.251 90.8157 293.697 89.4466C281.517 86.4441 271.879 90.6127 269.256 100.018C267.93 104.778 267.962 110.688 269.385 123.104C270.987 137.092 271.143 143.229 270.043 149.022C268.919 154.939 267.061 158.496 262.594 163.281C256.01 170.334 250.873 173.219 234.107 179.279C223.237 183.208 219.484 184.809 214.085 187.821C207.91 191.267 205.118 193.976 202.158 199.393C200.008 203.328 199.583 204.509 196.948 213.875C193.733 225.301 189.475 232.035 182.14 237.297C173.547 243.461 165.188 245.944 155.867 245.098C154.102 244.939 150.255 244.398 147.319 243.896C139.306 242.528 136.786 242.486 132.73 243.649C128.666 244.815 126.078 246.426 123.024 249.691C120.355 252.543 119.161 254.694 118.557 257.737C117.72 261.952 118.392 265.732 121.494 274.242C125.516 285.281 126.764 291.767 126.088 298.125C124.793 310.317 118.318 320.849 109.536 325.054C100.681 329.294 89.0147 327.75 83.1346 321.561C77.2662 315.384 75.0811 305.922 76.656 293.508C77.4719 287.078 79.4703 281.057 83.4681 272.984C87.6722 264.495 89.2959 259.887 90.5172 252.98C91.1336 249.494 91.4003 244.142 91.1154 240.979C90.6545 235.859 88.4833 230.084 85.8264 226.91C78.0881 217.666 65.5984 218.619 59.9428 228.883C58.1603 232.118 57.6396 234.144 57.314 239.113C56.9362 244.875 56.4337 247.29 54.8586 250.917C51.993 257.514 47.8953 261.775 43.1581 263.081C40.0766 263.931 36.1513 263.117 32.7722 260.927C27.0092 257.192 26.086 249.824 30.0399 239.123C30.636 237.511 31.7264 235.09 32.4635 233.743C35.4445 228.295 36.0125 224.854 34.6619 220.427C32.8688 214.55 26.9641 208.855 20.6257 206.889C16.794 205.7 11.9301 206.009 3.99771 207.944C-8.57147 211.01 -16.562 210.095 -26.8827 204.409C-33.392 200.822 -35.1151 199.104 -41.0177 190.313C-46.2535 182.515 -49.9517 178.838 -55.8934 175.522C-58.7287 173.939 -59.5831 173.588 -61.1413 173.366C-68.9952 172.245 -76.7691 176.952 -88.3921 189.869C-94.6902 196.868 -97.9639 199.275 -103.105 200.686C-107.462 201.883 -111.421 201.39 -115.499 199.144C-121.86 195.639 -125.488 189.92 -125.398 183.541C-125.306 176.997 -120.827 168.761 -114.453 163.416C-111.242 160.724 -107.817 158.986 -101.766 156.981C-89.4451 152.898 -81.5359 148.769 -76.1598 143.613C-74.7252 142.237 -74.0689 141.324 -72.6013 138.66C-70.8666 135.512 -70.798 135.311 -70.6947 133.07C-70.6195 131.438 -70.8006 130.262 -71.3015 129.125C-72.6015 126.176 -74.1547 124.759 -83.1568 118.307C-89.57 113.711 -92.9437 109.937 -94.9186 105.152C-97.4634 98.9858 -96.943 93.7453 -93.2001 87.8459C-92.3261 86.4685 -89.7472 83.0216 -87.4691 80.1863C-81.0241 72.1654 -78.9833 68.1444 -78.8359 63.1779C-78.6954 58.4501 -82.349 53.0252 -88.2078 49.2623C-92.829 46.2943 -98.1435 44.6025 -105.505 43.7562C-112.109 42.9969 -115.083 42.1619 -119.924 39.7089C-123.268 38.0147 -124.335 37.3357 -126.303 35.6513C-129.17 33.1976 -131.99 29.326 -133.03 26.4149C-135.874 18.458 -132.092 8.83283 -123.929 3.24919C-120.331 0.787951 -113.576 -1.3651 -108.205 -1.76313C-104.394 -2.04556 -98.4937 -1.6976 -94.256 -0.940819C-83.9737 0.896196 -74.5077 -1.60031 -66.6037 -8.23323C-62.6328 -11.5652 -59.2018 -15.8498 -56.3284 -21.0649C-51.7639 -29.3492 -50.213 -37.891 -50.873 -51.1132C-50.976 -53.1805 -51.1811 -57.1697 -51.3285 -59.9779C-51.6429 -65.9607 -51.3529 -73.7513 -50.6888 -77.1748C-49.6976 -82.2827 -48.8953 -84.3824 -45.7758 -90.0318C-43.107 -94.8652 -42.6508 -95.5428 -40.54 -97.8038C-36.5167 -102.114 -32.7308 -104.474 -27.4511 -105.965C-23.5626 -107.063 -19.7272 -107.364 -11.0147 -107.259C-2.426 -107.154 1.48553 -107.519 5.59034 -108.81C12.4947 -110.979 18.7273 -117.082 21.5345 -124.422C25.4092 -134.552 22.7345 -145.438 13.056 -158.932C6.27508 -168.386 4.46308 -171.684 2.6122 -177.939C0.468864 -185.183 0.421112 -192.076 2.46739 -198.849C2.82122 -200.019 3.89089 -202.366 4.93018 -204.252C9.76859 -213.034 16.985 -216.737 25.9536 -215.04C28.4006 -214.577 29.2341 -214.267 31.6665 -212.916C34.1348 -211.546 34.7658 -211.052 36.3998 -209.216C39.5145 -205.715 41.5795 -201.177 42.6779 -195.419C43.5975 -190.598 43.7948 -186.961 43.5746 -178.878C43.3294 -169.88 43.6772 -165.712 45.126 -160.284C47.4327 -151.641 51.1427 -146.034 57.5538 -141.499C61.9969 -138.357 68.7575 -136.151 74.8677 -135.849C81.3847 -135.527 86.7936 -137.767 91.4337 -142.707C92.3496 -143.682 94.3931 -146.373 95.9747 -148.686C100.759 -155.683 102.147 -157.556 103.798 -159.245C108.276 -163.826 112.83 -165.264 119.306 -164.141C124.261 -163.282 127.845 -161.165 130.955 -157.263C131.803 -156.198 133.622 -153.389 134.996 -151.02C138.122 -145.631 139.017 -144.32 140.981 -142.253C143.828 -139.257 148.451 -137.204 152.989 -136.922C155.469 -136.768 158.337 -137.845 162.506 -140.494C166.859 -143.261 169.921 -144.293 173.022 -144.038C176.614 -143.743 178.163 -143.191 183.186 -140.416L187.802 -137.865L193.201 -132.877C199.321 -127.221 201.229 -125.821 204.553 -124.548C207.977 -123.237 210.563 -122.848 212.701 -123.322C215.069 -123.846 218.588 -126.264 220.816 -128.897C223.013 -131.493 227.541 -139.725 230.732 -146.924C234.31 -154.996 236.826 -158.138 241.723 -160.648C244.992 -162.323 248.094 -162.823 251.36 -162.203C254.755 -161.557 258.921 -159.203 261.472 -156.488C266.759 -150.862 267.215 -142.694 262.698 -134.512C259.724 -129.122 256.618 -126.031 249.006 -120.884C241.358 -115.713 237.345 -111.277 234.838 -105.221C231.321 -96.727 232.566 -89.1585 238.211 -84.7064C242.648 -81.2078 251.074 -80.3247 259.432 -82.4823C265.57 -84.067 270.337 -86.4128 276.872 -91.0647C282.104 -94.7896 285.143 -95.5942 289.095 -94.301C292.078 -93.325 294.869 -90.3899 296.042 -86.9964C297.495 -82.79 296.357 -77.7655 293.21 -74.4894C290.591 -71.7637 287.319 -70.1514 281.313 -68.6271C275.725 -67.209 272.325 -65.4371 268.497 -61.9487C264.929 -58.6969 262.222 -53.8939 261.904 -50.252C261.421 -44.721 263.887 -40.1349 272.409 -30.7171C277.434 -25.1636 281.074 -20.1694 282.505 -16.8678C285.025 -11.051 285.001 -3.97513 282.434 4.03887C281.722 6.26131 281.1 7.78079 277.16 16.9269C272.195 28.4505 271.474 35.9179 274.471 44.7715C275.909 49.0184 278.209 53.0464 280.854 55.9486C282.837 58.1244 283.32 58.4972 286.285 60.1444C290.183 62.3091 292.857 63.0345 297.773 63.2603C303.153 63.5071 307.418 62.9969 320.613 60.5258C329.577 58.8471 335.411 58.5393 342.066 59.3942C354.081 60.9378 361.494 65.9171 363.841 74.0211Z" fill="url(#paint1_linear_305_272)" fill-opacity="0.2" shape-rendering="crispEdges"/>
<path d="M245.138 272.235C246.79 274.594 247.213 277.869 246.267 280.96C244.958 285.233 240.948 288.083 236.73 287.738C234.121 287.524 231.093 285.769 229.389 283.483C226.832 280.052 226.688 276.107 228.993 272.617C231.933 268.166 237.218 266.893 241.962 269.494C243.653 270.422 244.196 270.89 245.138 272.235Z" fill="url(#paint2_linear_305_272)" fill-opacity="0.2" shape-rendering="crispEdges"/>
<path d="M274.49 219.639C274.568 222.002 274.06 225.079 273.175 227.6C271.904 231.225 268.575 236.238 265.084 239.782C260.107 244.837 251.299 250.278 244.496 252.501C230.028 257.229 218.71 251.047 214.338 236.028C212.021 228.07 212.33 218.943 215.174 211.351C217.509 205.115 222.255 200.706 228.876 198.619C235.804 196.436 246.227 196.709 255.129 199.306C259.32 200.529 266.148 204.206 268.515 206.515C271.965 209.881 274.342 215.1 274.49 219.639Z" fill="url(#paint3_linear_305_272)" fill-opacity="0.2" shape-rendering="crispEdges"/>
<path d="M326.948 -82.8741C328.914 -79.9131 329.442 -76.3995 328.394 -73.2468C325.718 -65.1949 312.203 -65.4996 309.538 -73.672C308.601 -76.5445 308.884 -78.4444 310.698 -81.4628C311.911 -83.4812 312.43 -84.0787 313.82 -85.0513C315.69 -86.36 318.068 -87.126 320.006 -87.0438C320.97 -87.0029 321.895 -86.6606 323.609 -85.7097C325.597 -84.6065 326.057 -84.2162 326.948 -82.8741Z" fill="url(#paint4_linear_305_272)" fill-opacity="0.2" shape-rendering="crispEdges"/>
<path d="M4.81432 -144.827C7.11212 -140.422 7.69405 -134.669 6.29052 -130.227C4.60695 -124.897 -0.0286864 -120.32 -5.34067 -118.741C-9.63881 -117.463 -13.4025 -117.88 -17.3881 -120.076C-23.9442 -123.689 -26.6324 -130.221 -24.7519 -137.973C-24.0532 -140.852 -20.4699 -147.336 -18.5367 -149.219C-15.1703 -152.497 -11.5193 -154.045 -7.70938 -153.812C-5.52497 -153.678 -5.24255 -153.58 -2.28703 -151.936C1.41196 -149.878 3.01698 -148.271 4.81432 -144.827Z" fill="url(#paint5_linear_305_272)" fill-opacity="0.2" shape-rendering="crispEdges"/>
<path d="M-139.848 63.3335C-136.207 68.3732 -135.497 73.9526 -137.658 80.5531C-138.635 83.5372 -140.911 87.3015 -143.261 89.8194C-144.221 90.8486 -146.353 92.6222 -147.999 93.7609C-150.601 95.5622 -151.513 95.9837 -155.019 97.0057C-158.334 97.9722 -159.569 98.1564 -161.984 98.0444C-167.1 97.8073 -171.632 95.8724 -175.298 92.3588C-183.152 84.8321 -184.171 71.6656 -177.631 62.19C-172.662 54.9901 -163.938 51.4878 -155.043 53.1221C-152.821 53.5305 -152.101 53.8227 -148.595 55.742C-144.026 58.2439 -142.685 59.407 -139.848 63.3335Z" fill="url(#paint6_linear_305_272)" fill-opacity="0.2" shape-rendering="crispEdges"/>
<path d="M-45.0008 -137.526C-40.1713 -137.501 -36.705 -132.747 -37.5784 -127.347C-38.4324 -122.064 -44.2285 -119.617 -49.4056 -122.352C-51.8073 -123.621 -53.1045 -125.209 -53.6135 -127.504C-54.0876 -129.641 -53.6045 -131.804 -52.2395 -133.654C-50.4796 -136.04 -47.6753 -137.54 -45.0008 -137.526Z" fill="url(#paint7_linear_305_272)" fill-opacity="0.2" shape-rendering="crispEdges"/>
</g>
<defs>
<filter id="filter0_ddi_305_272" x="-193.936" y="-227.441" width="570.637" height="582.885" filterUnits="userSpaceOnUse" color-interpolation-filters="sRGB">
<feFlood flood-opacity="0" result="BackgroundImageFix"/>
<feColorMatrix in="SourceAlpha" type="matrix" values="0 0 0 0 0 0 0 0 0 0 0 0 0 0 0 0 0 0 127 0" result="hardAlpha"/>
<feOffset dy="16"/>
<feGaussianBlur stdDeviation="6"/>
<feComposite in2="hardAlpha" operator="out"/>
<feColorMatrix type="matrix" values="0 0 0 0 0 0 0 0 0 0 0 0 0 0 0 0 0 0 0.4 0"/>
<feBlend mode="normal" in2="BackgroundImageFix" result="effect1_dropShadow_305_272"/>
<feColorMatrix in="SourceAlpha" type="matrix" values="0 0 0 0 0 0 0 0 0 0 0 0 0 0 0 0 0 0 127 0" result="hardAlpha"/>
<feOffset/>
<feGaussianBlur stdDeviation="6"/>
<feComposite in2="hardAlpha" operator="out"/>
<feColorMatrix type="matrix" values="0 0 0 0 0.711767 0 0 0 0 0.513402 0 0 0 0 0.41422 0 0 0 1 0"/>
<feBlend mode="normal" in2="effect1_dropShadow_305_272" result="effect2_dropShadow_305_272"/>
<feBlend mode="normal" in="SourceGraphic" in2="effect2_dropShadow_305_272" result="shape"/>
<feColorMatrix in="SourceAlpha" type="matrix" values="0 0 0 0 0 0 0 0 0 0 0 0 0 0 0 0 0 0 127 0" result="hardAlpha"/>
<feOffset/>
<feGaussianBlur stdDeviation="5.7"/>
<feComposite in2="hardAlpha" operator="arithmetic" k2="-1" k3="1"/>
<feColorMatrix type="matrix" values="0 0 0 0 1 0 0 0 0 1 0 0 0 0 1 0 0 0 1 0"/>
<feBlend mode="normal" in2="shape" result="effect3_innerShadow_305_272"/>
</filter>
<linearGradient id="paint0_linear_305_272" x1="340.682" y1="204.912" x2="-162.897" y2="-319.069" gradientUnits="userSpaceOnUse">
<stop stop-color="white"/>
<stop offset="0.539599" stop-color="#FFC68D"/>
<stop offset="1" stop-color="#823C20"/>
</linearGradient>
<linearGradient id="paint1_linear_305_272" x1="340.682" y1="204.912" x2="-162.897" y2="-319.069" gradientUnits="userSpaceOnUse">
<stop stop-color="white"/>
<stop offset="0.539599" stop-color="#FFC68D"/>
<stop offset="1" stop-color="#823C20"/>
</linearGradient>
<linearGradient id="paint2_linear_305_272" x1="340.682" y1="204.912" x2="-162.897" y2="-319.069" gradientUnits="userSpaceOnUse">
<stop stop-color="white"/>
<stop offset="0.539599" stop-color="#FFC68D"/>
<stop offset="1" stop-color="#823C20"/>
</linearGradient>
<linearGradient id="paint3_linear_305_272" x1="340.682" y1="204.912" x2="-162.897" y2="-319.069" gradientUnits="userSpaceOnUse">
<stop stop-color="white"/>
<stop offset="0.539599" stop-color="#FFC68D"/>
<stop offset="1" stop-color="#823C20"/>
</linearGradient>
<linearGradient id="paint4_linear_305_272" x1="340.682" y1="204.912" x2="-162.897" y2="-319.069" gradientUnits="userSpaceOnUse">
<stop stop-color="white"/>
<stop offset="0.539599" stop-color="#FFC68D"/>
<stop offset="1" stop-color="#823C20"/>
</linearGradient>
<linearGradient id="paint5_linear_305_272" x1="340.682" y1="204.912" x2="-162.897" y2="-319.069" gradientUnits="userSpaceOnUse">
<stop stop-color="white"/>
<stop offset="0.539599" stop-color="#FFC68D"/>
<stop offset="1" stop-color="#823C20"/>
</linearGradient>
<linearGradient id="paint6_linear_305_272" x1="340.682" y1="204.912" x2="-162.897" y2="-319.069" gradientUnits="userSpaceOnUse">
<stop stop-color="white"/>
<stop offset="0.539599" stop-color="#FFC68D"/>
<stop offset="1" stop-color="#823C20"/>
</linearGradient>
<linearGradient id="paint7_linear_305_272" x1="340.682" y1="204.912" x2="-162.897" y2="-319.069" gradientUnits="userSpaceOnUse">
<stop stop-color="white"/>
<stop offset="0.539599" stop-color="#FFC68D"/>
<stop offset="1" stop-color="#823C20"/>
</linearGradient>
</defs>
</svg>
