<svg width="514" height="476" viewBox="0 0 514 476" fill="none" xmlns="http://www.w3.org/2000/svg">
<g opacity="0.7" filter="url(#filter0_ddddii_305_271)">
<path d="M247.579 88.7709C245.686 78.0711 249.766 67.1033 258.178 60.2766C261.523 57.5616 268.11 54.4572 272.252 53.6441C282.497 51.6324 293.613 55.8499 300.032 64.1846C302.496 67.3839 305.102 73.6902 305.607 77.6764C306.786 86.9724 303.216 97 296.266 103.913C294.413 105.756 292.876 106.78 289.133 108.665C283.53 111.486 280.317 112.23 274.491 112.059C269.104 111.9 261.71 109.123 257.673 105.743C252.074 101.055 248.77 95.4982 247.579 88.7709Z" fill="url(#paint0_linear_305_271)" fill-opacity="0.1" shape-rendering="crispEdges"/>
<path d="M108.215 158.212C111.054 150.667 117.462 143.297 125.701 138.104C127.056 137.249 129.823 135.92 131.851 135.149C144.135 130.479 156.211 132.55 167.091 141.19C174.738 147.262 179.001 153.358 187.355 170.163C197.892 191.361 200.466 195.847 205.884 202.447C217.768 216.923 233.019 220.55 244.559 211.647C250.4 207.14 255.643 200.042 265.037 183.923C275.62 165.763 280.917 158.286 287.41 152.341C294.042 146.269 299.442 143.676 309.061 141.944C323.237 139.393 331.959 140.534 357.423 148.269C373.933 153.285 379.854 154.724 389.001 155.946C399.465 157.344 405.225 156.6 413.605 152.766C419.692 149.981 421.257 148.949 432.778 140.103C446.832 129.312 457.942 125.064 471.417 125.326C487.202 125.633 499.416 130.134 509.807 139.474C511.776 141.243 515.892 145.327 518.955 148.551C527.316 157.347 530.292 159.65 536.182 161.883C542.085 164.121 546.619 164.507 553.188 163.332C558.928 162.306 562.279 160.8 565.721 157.701C570.488 153.409 573.062 148.287 576.957 135.339C582.012 118.543 586.316 109.671 592.805 102.672C605.25 89.2497 622.405 82.4394 636.665 85.2589C651.042 88.1017 663.615 100.373 665.116 113.03C666.614 125.661 660.771 138.929 647.794 152.368C641.073 159.327 633.303 164.742 621.308 170.824C608.694 177.219 602.634 181.279 595.002 188.447C591.149 192.065 586.047 198.227 583.562 202.265C579.537 208.8 576.973 217.646 577.315 223.815C578.308 241.785 594.096 251.807 610.032 244.586C615.054 242.31 617.487 240.353 622.317 234.702C627.918 228.148 630.677 225.709 635.801 222.78C645.124 217.451 653.832 216.018 660.664 218.689C665.109 220.426 669.076 224.907 671.16 230.546C674.714 240.162 669.234 249.799 654.943 259.062C652.789 260.458 649.322 262.379 647.236 263.331C638.803 267.182 635.049 270.789 632.708 277.291C629.6 285.921 631.572 298.009 637.395 306.024C640.916 310.869 647.008 314.847 658.224 319.621C675.995 327.186 684.733 335.421 691.994 351.444C696.573 361.55 697.098 365.145 696.301 380.933C695.594 394.937 696.731 402.639 700.873 411.914C702.85 416.34 703.558 417.524 705.223 419.182C713.613 427.542 727.117 428.859 752.559 423.799C766.345 421.057 772.411 421.104 779.82 424.009C786.1 426.473 790.395 430.6 793.263 436.93C797.738 446.806 796.967 456.887 791.159 464.436C785.201 472.18 772.485 478.026 760.086 478.722C753.84 479.072 748.192 478.089 739.163 475.08C720.78 468.952 707.632 466.822 696.595 468.184C693.65 468.547 692.049 469.053 687.914 470.927C683.026 473.142 682.764 473.321 680.638 475.909C679.089 477.794 678.255 479.362 677.838 481.169C676.757 485.857 677.348 488.94 682.348 504.7C685.911 515.928 686.573 523.455 684.659 530.942C682.192 540.591 676.886 546.393 667.138 550.103C664.862 550.969 658.698 552.787 653.44 554.141C638.565 557.974 632.531 560.959 627.917 566.767C623.524 572.295 623.045 582.048 626.689 591.783C629.563 599.462 634.407 606.235 642.454 613.825C649.673 620.634 652.484 624.291 656.081 631.55C658.565 636.564 659.235 638.33 660.083 642.103C661.319 647.6 661.232 654.749 659.874 659.16C656.164 671.217 643.041 679.348 628.289 678.731C621.786 678.459 611.785 674.998 605.006 670.674C600.196 667.606 593.451 661.917 589.059 657.225C578.404 645.84 564.853 640.366 549.473 641.235C541.747 641.671 533.815 643.729 525.719 647.398C512.857 653.226 503.369 662.055 492.343 678.457C490.618 681.022 487.299 685.976 484.966 689.466C479.995 696.901 472.687 705.959 468.833 709.459C463.083 714.682 460.247 716.476 451.468 720.445C443.958 723.84 442.806 724.243 438.262 725.06C429.599 726.619 422.962 726.059 415.316 723.123C409.685 720.961 404.828 717.895 394.504 709.982C384.326 702.182 379.322 699.124 373.26 696.999C363.064 693.423 350.157 695.152 340.241 701.421C326.555 710.073 320.025 725.482 319.542 750.267C319.202 767.633 318.422 773.196 315.046 782.331C311.135 792.909 305.033 801.195 296.534 807.466C295.064 808.549 291.688 810.4 288.759 811.727C275.126 817.905 263.187 815.884 253.978 805.841C251.465 803.1 250.745 801.985 249.044 798.196C247.317 794.351 247.003 793.197 246.69 789.54C246.093 782.571 247.679 775.299 251.511 767.431C254.719 760.844 257.734 756.319 265.22 746.849C273.555 736.307 276.863 731.012 279.981 723.226C284.946 710.829 285.52 700.808 281.905 689.656C279.4 681.928 273.287 673.248 266.249 667.427C258.743 661.218 250.274 659.062 240.309 660.824C238.343 661.172 233.495 662.563 229.536 663.916C217.562 668.008 214.228 669.008 210.745 669.552C201.296 671.03 194.564 668.679 187.824 661.55C182.666 656.094 180.271 650.36 180.04 642.915C179.977 640.882 180.312 635.898 180.786 631.838C181.863 622.599 181.964 620.231 181.463 616.005C180.736 609.878 177.041 603.291 171.866 598.899C169.039 596.499 164.646 595.223 157.294 594.666C149.614 594.084 145.031 592.582 141.55 589.507C137.518 585.944 136.159 583.9 132.632 576.093L129.391 568.917L127.393 558.126C125.128 545.894 124.097 542.515 121.26 538.022C118.337 533.394 115.592 530.618 112.611 529.274C109.311 527.785 102.942 527.532 97.9238 528.69C92.9767 529.831 80.2062 535.629 69.957 541.387C58.4648 547.843 52.6474 549.352 44.5488 547.977C39.1428 547.058 34.986 544.885 31.635 541.225C28.1515 537.419 25.2726 530.881 24.6478 525.354C23.3531 513.902 30.107 503.727 42.8206 497.977C51.1938 494.19 57.6707 493.269 71.373 493.916C85.1402 494.567 93.9037 492.847 102.313 487.846C114.109 480.831 119.384 470.667 116.611 460.298C114.433 452.15 105.145 443.564 93.2217 438.675C84.4645 435.085 76.6676 433.63 64.6956 433.354C55.1097 433.132 50.7571 431.379 47.1865 426.301C44.4914 422.468 43.7762 416.464 45.4066 411.358C47.4281 405.029 53.2784 400.037 59.9698 398.932C65.5369 398.012 70.8906 399.008 79.4352 402.552C87.3851 405.85 93.0346 406.769 100.73 406.018C107.903 405.318 115.433 401.994 119.067 397.922C124.587 391.739 125.736 384.051 123.962 365.173C122.915 354.041 123.024 344.816 124.264 339.589C126.448 330.381 132.8 321.94 143.031 314.65C145.869 312.629 147.97 311.367 160.856 303.951C177.09 294.607 184.626 286.321 188.954 273.055C191.03 266.691 191.878 259.819 191.308 253.984C190.881 249.61 190.637 248.733 188.563 244.113C185.836 238.041 183.286 234.784 177.609 230.121C171.396 225.018 165.84 221.817 147.851 212.98C135.631 206.977 128.38 202.132 121.185 195.163C108.196 182.58 103.78 170.001 108.215 158.212Z" fill="url(#paint1_linear_305_271)" fill-opacity="0.1" shape-rendering="crispEdges"/>
<path d="M427.3 27.2469C427.433 22.9503 429.853 18.6551 433.747 15.8041C439.13 11.8634 446.473 12.039 451.209 16.2213C454.138 18.8083 456.191 23.6131 456.185 27.8695C456.177 34.2576 452.823 39.1046 446.949 41.2177C439.455 43.9137 431.998 40.7129 428.649 33.3633C427.455 30.7425 427.224 29.6973 427.3 27.2469Z" fill="url(#paint2_linear_305_271)" fill-opacity="0.1" shape-rendering="crispEdges"/>
<path d="M345.197 63.9159C347.216 61.0208 350.573 57.7956 353.883 55.571C358.643 52.3717 367.104 49.352 374.445 48.2326C384.915 46.6362 400.31 48.0001 410.432 51.4206C431.96 58.6958 439.97 76.2015 431.777 98.0701C427.436 109.658 418.911 120.296 408.727 126.834C400.36 132.205 390.746 133.237 380.962 129.815C370.727 126.235 358.505 116.594 350.181 105.533C346.261 100.325 341.382 89.8266 340.615 84.9507C339.497 77.8414 341.318 69.4766 345.197 63.9159Z" fill="url(#paint3_linear_305_271)" fill-opacity="0.1" shape-rendering="crispEdges"/>
<path d="M12.1297 378.809C12.4252 373.512 14.9339 368.838 19.0041 366.004C29.3997 358.766 45.2891 371.208 41.1737 383.363C39.7274 387.635 37.6911 389.655 32.8244 391.643C29.5705 392.973 28.4148 393.223 25.8839 393.145C22.4787 393.039 18.9493 391.829 16.705 389.999C15.5897 389.089 14.7897 387.854 13.5894 385.185C12.197 382.088 11.9961 381.21 12.1297 378.809Z" fill="url(#paint4_linear_305_271)" fill-opacity="0.1" shape-rendering="crispEdges"/>
<path d="M342.002 740.764C343.19 733.444 347.635 726.044 353.284 721.985C360.06 717.116 369.694 715.784 377.458 718.643C383.74 720.956 387.867 724.819 390.671 731.006C395.284 741.185 392.661 751.4 383.485 758.989C380.076 761.808 369.997 766.359 366.003 766.883C359.047 767.796 353.297 766.385 348.95 762.701C346.458 760.588 346.207 760.219 344.142 755.612C341.557 749.845 341.074 746.489 342.002 740.764Z" fill="url(#paint5_linear_305_271)" fill-opacity="0.1" shape-rendering="crispEdges"/>
<path d="M701.019 621.103C701.168 611.822 705.305 604.515 713.788 598.553C717.623 595.858 723.709 593.39 728.769 592.478C730.837 592.106 734.972 591.89 737.957 591.999C742.679 592.17 744.147 592.481 749.252 594.392C754.08 596.198 755.722 597.082 758.51 599.374C764.417 604.229 768.106 610.593 769.351 618.071C772.018 634.091 761.47 650.746 745.181 656.234C732.805 660.404 719.243 656.796 710.066 646.893C707.773 644.419 707.173 643.426 704.696 637.998C701.467 630.923 700.903 628.334 701.019 621.103Z" fill="url(#paint6_linear_305_271)" fill-opacity="0.1" shape-rendering="crispEdges"/>
<path d="M408.099 776.55C402.346 772.204 402.449 763.421 408.32 757.744C414.061 752.189 423.18 754.442 426.927 762.34C428.665 766.004 428.797 769.062 427.356 772.26C426.013 775.24 423.502 777.395 420.216 778.388C415.979 779.669 411.285 778.957 408.099 776.55Z" fill="url(#paint7_linear_305_271)" fill-opacity="0.1" shape-rendering="crispEdges"/>
</g>
<defs>
<filter id="filter0_ddddii_305_271" x="0.0947266" y="0.962402" width="808.048" height="842.266" filterUnits="userSpaceOnUse" color-interpolation-filters="sRGB">
<feFlood flood-opacity="0" result="BackgroundImageFix"/>
<feColorMatrix in="SourceAlpha" type="matrix" values="0 0 0 0 0 0 0 0 0 0 0 0 0 0 0 0 0 0 127 0" result="hardAlpha"/>
<feOffset dy="16"/>
<feGaussianBlur stdDeviation="6"/>
<feComposite in2="hardAlpha" operator="out"/>
<feColorMatrix type="matrix" values="0 0 0 0 0 0 0 0 0 0 0 0 0 0 0 0 0 0 0.4 0"/>
<feBlend mode="normal" in2="BackgroundImageFix" result="effect1_dropShadow_305_271"/>
<feColorMatrix in="SourceAlpha" type="matrix" values="0 0 0 0 0 0 0 0 0 0 0 0 0 0 0 0 0 0 127 0" result="hardAlpha"/>
<feOffset/>
<feGaussianBlur stdDeviation="6"/>
<feComposite in2="hardAlpha" operator="out"/>
<feColorMatrix type="matrix" values="0 0 0 0 0.711767 0 0 0 0 0.513402 0 0 0 0 0.41422 0 0 0 1 0"/>
<feBlend mode="normal" in2="effect1_dropShadow_305_271" result="effect2_dropShadow_305_271"/>
<feColorMatrix in="SourceAlpha" type="matrix" values="0 0 0 0 0 0 0 0 0 0 0 0 0 0 0 0 0 0 127 0" result="hardAlpha"/>
<feOffset dy="16"/>
<feGaussianBlur stdDeviation="6"/>
<feComposite in2="hardAlpha" operator="out"/>
<feColorMatrix type="matrix" values="0 0 0 0 0 0 0 0 0 0 0 0 0 0 0 0 0 0 0.4 0"/>
<feBlend mode="normal" in2="effect2_dropShadow_305_271" result="effect3_dropShadow_305_271"/>
<feColorMatrix in="SourceAlpha" type="matrix" values="0 0 0 0 0 0 0 0 0 0 0 0 0 0 0 0 0 0 127 0" result="hardAlpha"/>
<feOffset/>
<feGaussianBlur stdDeviation="6"/>
<feComposite in2="hardAlpha" operator="out"/>
<feColorMatrix type="matrix" values="0 0 0 0 0.711767 0 0 0 0 0.513402 0 0 0 0 0.41422 0 0 0 1 0"/>
<feBlend mode="normal" in2="effect3_dropShadow_305_271" result="effect4_dropShadow_305_271"/>
<feBlend mode="normal" in="SourceGraphic" in2="effect4_dropShadow_305_271" result="shape"/>
<feColorMatrix in="SourceAlpha" type="matrix" values="0 0 0 0 0 0 0 0 0 0 0 0 0 0 0 0 0 0 127 0" result="hardAlpha"/>
<feOffset/>
<feGaussianBlur stdDeviation="5.7"/>
<feComposite in2="hardAlpha" operator="arithmetic" k2="-1" k3="1"/>
<feColorMatrix type="matrix" values="0 0 0 0 1 0 0 0 0 1 0 0 0 0 1 0 0 0 1 0"/>
<feBlend mode="normal" in2="shape" result="effect5_innerShadow_305_271"/>
<feColorMatrix in="SourceAlpha" type="matrix" values="0 0 0 0 0 0 0 0 0 0 0 0 0 0 0 0 0 0 127 0" result="hardAlpha"/>
<feOffset/>
<feGaussianBlur stdDeviation="5.7"/>
<feComposite in2="hardAlpha" operator="arithmetic" k2="-1" k3="1"/>
<feColorMatrix type="matrix" values="0 0 0 0 1 0 0 0 0 1 0 0 0 0 1 0 0 0 1 0"/>
<feBlend mode="normal" in2="effect5_innerShadow_305_271" result="effect6_innerShadow_305_271"/>
</filter>
<linearGradient id="paint0_linear_305_271" x1="-54.8278" y1="246.616" x2="967.676" y2="646.584" gradientUnits="userSpaceOnUse">
<stop stop-color="white"/>
<stop offset="0.539599" stop-color="#FFC68D"/>
<stop offset="1" stop-color="#823C20"/>
</linearGradient>
<linearGradient id="paint1_linear_305_271" x1="-54.8278" y1="246.616" x2="967.676" y2="646.584" gradientUnits="userSpaceOnUse">
<stop stop-color="white"/>
<stop offset="0.539599" stop-color="#FFC68D"/>
<stop offset="1" stop-color="#823C20"/>
</linearGradient>
<linearGradient id="paint2_linear_305_271" x1="-54.8278" y1="246.616" x2="967.676" y2="646.584" gradientUnits="userSpaceOnUse">
<stop stop-color="white"/>
<stop offset="0.539599" stop-color="#FFC68D"/>
<stop offset="1" stop-color="#823C20"/>
</linearGradient>
<linearGradient id="paint3_linear_305_271" x1="-54.8278" y1="246.616" x2="967.676" y2="646.584" gradientUnits="userSpaceOnUse">
<stop stop-color="white"/>
<stop offset="0.539599" stop-color="#FFC68D"/>
<stop offset="1" stop-color="#823C20"/>
</linearGradient>
<linearGradient id="paint4_linear_305_271" x1="-54.8278" y1="246.616" x2="967.676" y2="646.584" gradientUnits="userSpaceOnUse">
<stop stop-color="white"/>
<stop offset="0.539599" stop-color="#FFC68D"/>
<stop offset="1" stop-color="#823C20"/>
</linearGradient>
<linearGradient id="paint5_linear_305_271" x1="-54.8278" y1="246.616" x2="967.676" y2="646.584" gradientUnits="userSpaceOnUse">
<stop stop-color="white"/>
<stop offset="0.539599" stop-color="#FFC68D"/>
<stop offset="1" stop-color="#823C20"/>
</linearGradient>
<linearGradient id="paint6_linear_305_271" x1="-54.8278" y1="246.616" x2="967.676" y2="646.584" gradientUnits="userSpaceOnUse">
<stop stop-color="white"/>
<stop offset="0.539599" stop-color="#FFC68D"/>
<stop offset="1" stop-color="#823C20"/>
</linearGradient>
<linearGradient id="paint7_linear_305_271" x1="-54.8278" y1="246.616" x2="967.676" y2="646.584" gradientUnits="userSpaceOnUse">
<stop stop-color="white"/>
<stop offset="0.539599" stop-color="#FFC68D"/>
<stop offset="1" stop-color="#823C20"/>
</linearGradient>
</defs>
</svg>
