<svg width="426" height="190" viewBox="0 0 426 190" fill="none" xmlns="http://www.w3.org/2000/svg">
<g filter="url(#filter0_ddi_304_36)">
<path d="M213.346 12.7939C221.045 12.7939 226.195 22.1331 236.494 40.8105L239.159 45.6426C242.086 50.9499 243.549 53.6035 245.831 55.3545C248.113 57.1054 250.954 57.7557 256.638 59.0557L261.812 60.2393C281.812 64.8138 291.812 67.1008 294.191 74.835C296.571 82.5691 289.753 90.6283 276.118 106.746L272.591 110.916C268.716 115.496 266.779 117.786 265.907 120.619C265.036 123.452 265.329 126.508 265.915 132.619L266.064 134.179C260.89 135.429 255.49 136.091 249.937 136.091C249.642 136.091 249.348 136.09 249.055 136.086C249.349 136.09 249.644 136.092 249.938 136.092C255.491 136.092 260.891 135.43 266.065 134.18L266.449 138.183C268.511 159.687 269.541 170.44 263.312 175.22C257.084 180 247.72 175.642 228.994 166.926L224.15 164.671C218.829 162.194 216.168 160.956 213.348 160.956C210.527 160.956 207.866 162.194 202.545 164.671L197.7 166.926C178.974 175.642 169.611 180 163.382 175.22C157.154 170.44 158.185 159.687 160.246 138.184L160.779 132.619C161.365 126.509 161.658 123.453 160.786 120.62C159.915 117.787 157.977 115.497 154.103 110.917L150.575 106.747C136.94 90.6294 130.123 82.57 132.502 74.8359C134.881 67.1018 144.882 64.8148 164.882 60.2402L170.056 59.0566C175.739 57.7568 178.581 57.1063 180.862 55.3555C181.182 55.1102 181.486 54.847 181.779 54.5615L181.78 54.5596C181.752 54.5869 181.723 54.6127 181.694 54.6396C183.537 52.8862 184.978 50.2763 187.533 45.6426L190.198 40.8105C200.497 22.1334 205.647 12.7942 213.346 12.7939ZM241.255 135.545C243.799 135.867 246.387 136.05 249.01 136.085C246.387 136.05 243.799 135.867 241.255 135.545ZM228.969 132.816C232.842 134.062 236.863 134.972 240.999 135.512C236.863 134.972 232.842 134.062 228.969 132.816ZM224.13 131.057C225.457 131.597 226.804 132.097 228.17 132.555C226.804 132.097 225.457 131.597 224.13 131.057ZM214.327 126.115C217.246 127.893 220.306 129.457 223.485 130.79C220.306 129.458 217.246 127.893 214.327 126.115ZM206.479 120.555C207.243 121.18 208.02 121.789 208.811 122.381C208.02 121.789 207.243 121.18 206.479 120.555ZM204.021 118.445C204.446 118.828 204.877 119.205 205.312 119.577C204.877 119.205 204.446 118.828 204.021 118.445ZM181.225 55.0596C181.105 55.1602 180.985 55.2595 180.861 55.3545C180.985 55.2595 181.105 55.1602 181.225 55.0596ZM181.312 54.9854C181.283 55.0104 181.254 55.0349 181.225 55.0596C181.254 55.0349 181.283 55.0104 181.312 54.9854ZM181.665 54.667C181.549 54.7764 181.432 54.8824 181.312 54.9854C181.432 54.8824 181.549 54.7764 181.665 54.667ZM181.694 54.6396C181.685 54.6489 181.675 54.6578 181.665 54.667C181.675 54.6578 181.685 54.6489 181.694 54.6396Z" fill="url(#paint0_linear_304_36)" fill-opacity="0.5"/>
</g>
<g filter="url(#filter1_ddi_304_36)">
<path d="M368.192 42.9023C372.516 42.9025 375.408 48.1474 381.192 58.6367L382.689 61.3506C384.333 64.3308 385.154 65.8213 386.436 66.8047C387.717 67.788 389.313 68.1538 392.505 68.8838L395.411 69.5479C406.643 72.1169 412.259 73.4017 413.596 77.7451C414.932 82.0887 411.104 86.6151 403.446 95.667L401.465 98.0088C399.289 100.581 398.2 101.867 397.711 103.458C397.221 105.049 397.387 106.765 397.716 110.197L397.8 111.073C397.255 111.205 396.705 111.325 396.151 111.434C395.598 111.542 395.04 111.638 394.479 111.722C393.917 111.806 393.351 111.878 392.782 111.938C392.593 111.957 392.402 111.976 392.212 111.993C391.259 112.078 390.296 112.129 389.325 112.144L388.742 112.147C391.861 112.147 394.894 111.776 397.8 111.074L398.016 113.322C399.173 125.399 399.752 131.438 396.254 134.122C392.756 136.807 387.497 134.36 376.98 129.465L374.26 128.198C371.271 126.807 369.776 126.111 368.192 126.111C366.609 126.111 365.114 126.807 362.126 128.198L359.405 129.465C348.888 134.36 343.63 136.807 340.132 134.122C336.634 131.438 337.212 125.399 338.37 113.322L338.67 110.197C338.999 106.765 339.163 105.049 338.674 103.458C338.184 101.867 337.096 100.581 334.92 98.0088L332.939 95.667C325.282 86.615 321.453 82.0887 322.789 77.7451C324.125 73.4018 329.742 72.1169 340.974 69.5479L343.88 68.8838C347.072 68.1537 348.668 67.7881 349.949 66.8047H349.948C350.031 66.7415 350.111 66.676 350.189 66.6084C350.235 66.5692 350.279 66.5282 350.324 66.4873C350.307 66.5026 350.29 66.5172 350.273 66.5322C350.329 66.4825 350.385 66.4323 350.439 66.3799C350.436 66.3834 350.432 66.3871 350.429 66.3906C350.44 66.38 350.452 66.3701 350.463 66.3594L350.464 66.3584C350.456 66.366 350.447 66.3724 350.439 66.3799C351.463 65.3953 352.271 63.9329 353.695 61.3506L355.191 58.6367C360.976 48.1472 363.868 42.9023 368.192 42.9023ZM371.071 107.855C371.257 107.951 371.445 108.043 371.632 108.136C371.163 107.903 370.698 107.664 370.24 107.412L371.071 107.855ZM357.96 96.8105C358.126 97.0285 358.294 97.2447 358.464 97.459C358.294 97.2447 358.126 97.0285 357.96 96.8105ZM350.273 66.5322C350.248 66.5547 350.224 66.5777 350.198 66.5996C350.224 66.5777 350.248 66.5547 350.273 66.5322Z" fill="url(#paint1_linear_304_36)" fill-opacity="0.5"/>
</g>
<g filter="url(#filter2_ddi_304_36)">
<path d="M57.665 42.9023C61.9889 42.9025 64.8808 48.1474 70.665 58.6367L72.1621 61.3506C73.8055 64.3308 74.6271 65.8213 75.9082 66.8047C77.1896 67.788 78.7859 68.1538 81.9775 68.8838L84.8838 69.5479C96.116 72.1169 101.732 73.4017 103.068 77.7451C104.405 82.0887 100.576 86.6151 92.9189 95.667L90.9375 98.0088C88.7616 100.581 87.6731 101.867 87.1836 103.458C86.6941 105.049 86.8595 106.765 87.1885 110.197L87.2725 111.073C86.7275 111.205 86.1776 111.325 85.624 111.434C85.0705 111.542 84.5128 111.638 83.9512 111.722C83.3896 111.806 82.8241 111.878 82.2549 111.938C82.0652 111.957 81.8751 111.976 81.6846 111.993C80.7318 112.078 79.7691 112.129 78.7979 112.144L78.2148 112.147C81.3335 112.147 84.3666 111.776 87.2725 111.074L87.4883 113.322C88.646 125.399 89.2244 131.438 85.7266 134.122C82.2284 136.807 76.9699 134.36 66.4531 129.465L63.7324 128.198C60.7439 126.807 59.249 126.111 57.665 126.111C56.0813 126.111 54.5869 126.807 51.5986 128.198L48.8779 129.465C38.3612 134.36 33.1026 136.807 29.6045 134.122C26.1066 131.438 26.6851 125.399 27.8428 113.322L28.1426 110.197C28.4715 106.765 28.6359 105.049 28.1465 103.458C27.657 101.867 26.5684 100.581 24.3926 98.0088L22.4121 95.667C14.7546 86.615 10.9255 82.0887 12.2617 77.7451C13.5981 73.4018 19.2143 72.1169 30.4463 69.5479L33.3525 68.8838C36.5444 68.1537 38.1404 67.7881 39.4219 66.8047H39.4209C39.5032 66.7415 39.5833 66.676 39.6621 66.6084C39.7079 66.5692 39.7521 66.5282 39.7969 66.4873C39.7802 66.5026 39.7629 66.5172 39.7461 66.5322C39.8019 66.4825 39.8576 66.4323 39.9121 66.3799C39.9085 66.3834 39.905 66.3871 39.9014 66.3906C39.9125 66.38 39.9245 66.3701 39.9355 66.3594L39.9365 66.3584C39.9288 66.366 39.9199 66.3724 39.9121 66.3799C40.9357 65.3953 41.744 63.9329 43.168 61.3506L44.6641 58.6367C50.4483 48.1472 53.3411 42.9023 57.665 42.9023ZM60.5439 107.855C60.7294 107.951 60.9173 108.043 61.1045 108.136C60.6358 107.903 60.1707 107.664 59.7129 107.412L60.5439 107.855ZM47.4326 96.8105C47.5985 97.0285 47.7663 97.2447 47.9365 97.459C47.7663 97.2447 47.5985 97.0285 47.4326 96.8105ZM39.7461 66.5322C39.7209 66.5547 39.6964 66.5777 39.6709 66.5996C39.6964 66.5777 39.7209 66.5547 39.7461 66.5322Z" fill="url(#paint2_linear_304_36)" fill-opacity="0.5"/>
<path d="M57.665 42.9023C61.9889 42.9025 64.8808 48.1474 70.665 58.6367L72.1621 61.3506C73.8055 64.3308 74.6271 65.8213 75.9082 66.8047C77.1896 67.788 78.7859 68.1538 81.9775 68.8838L84.8838 69.5479C96.116 72.1169 101.732 73.4017 103.068 77.7451C104.405 82.0887 100.576 86.6151 92.9189 95.667L90.9375 98.0088C88.7616 100.581 87.6731 101.867 87.1836 103.458C86.6941 105.049 86.8595 106.765 87.1885 110.197L87.2725 111.073C86.7275 111.205 86.1776 111.325 85.624 111.434C85.0705 111.542 84.5128 111.638 83.9512 111.722C83.3896 111.806 82.8241 111.878 82.2549 111.938C82.0652 111.957 81.8751 111.976 81.6846 111.993C80.7318 112.078 79.7691 112.129 78.7979 112.144L78.2148 112.147C81.3335 112.147 84.3666 111.776 87.2725 111.074L87.4883 113.322C88.646 125.399 89.2244 131.438 85.7266 134.122C82.2284 136.807 76.9699 134.36 66.4531 129.465L63.7324 128.198C60.7439 126.807 59.249 126.111 57.665 126.111C56.0813 126.111 54.5869 126.807 51.5986 128.198L48.8779 129.465C38.3612 134.36 33.1026 136.807 29.6045 134.122C26.1066 131.438 26.6851 125.399 27.8428 113.322L28.1426 110.197C28.4715 106.765 28.6359 105.049 28.1465 103.458C27.657 101.867 26.5684 100.581 24.3926 98.0088L22.4121 95.667C14.7546 86.615 10.9255 82.0887 12.2617 77.7451C13.5981 73.4018 19.2143 72.1169 30.4463 69.5479L33.3525 68.8838C36.5444 68.1537 38.1404 67.7881 39.4219 66.8047H39.4209C39.5032 66.7415 39.5833 66.676 39.6621 66.6084C39.7079 66.5692 39.7521 66.5282 39.7969 66.4873C39.7802 66.5026 39.7629 66.5172 39.7461 66.5322C39.8019 66.4825 39.8576 66.4323 39.9121 66.3799C39.9085 66.3834 39.905 66.3871 39.9014 66.3906C39.9125 66.38 39.9245 66.3701 39.9355 66.3594L39.9365 66.3584C39.9288 66.366 39.9199 66.3724 39.9121 66.3799C40.9357 65.3953 41.744 63.9329 43.168 61.3506L44.6641 58.6367C50.4483 48.1472 53.3411 42.9023 57.665 42.9023ZM60.5439 107.855C60.7294 107.951 60.9173 108.043 61.1045 108.136C60.6358 107.903 60.1707 107.664 59.7129 107.412L60.5439 107.855ZM47.4326 96.8105C47.5985 97.0285 47.7663 97.2447 47.9365 97.459C47.7663 97.2447 47.5985 97.0285 47.4326 96.8105ZM39.7461 66.5322C39.7209 66.5547 39.6964 66.5777 39.6709 66.5996C39.6964 66.5777 39.7209 66.5547 39.7461 66.5322Z" fill="url(#paint3_linear_304_36)"/>
</g>
<defs>
<filter id="filter0_ddi_304_36" x="120.035" y="0.793945" width="186.623" height="188.397" filterUnits="userSpaceOnUse" color-interpolation-filters="sRGB">
<feFlood flood-opacity="0" result="BackgroundImageFix"/>
<feColorMatrix in="SourceAlpha" type="matrix" values="0 0 0 0 0 0 0 0 0 0 0 0 0 0 0 0 0 0 127 0" result="hardAlpha"/>
<feOffset dy="4"/>
<feGaussianBlur stdDeviation="2"/>
<feComposite in2="hardAlpha" operator="out"/>
<feColorMatrix type="matrix" values="0 0 0 0 0 0 0 0 0 0 0 0 0 0 0 0 0 0 0.25 0"/>
<feBlend mode="normal" in2="BackgroundImageFix" result="effect1_dropShadow_304_36"/>
<feColorMatrix in="SourceAlpha" type="matrix" values="0 0 0 0 0 0 0 0 0 0 0 0 0 0 0 0 0 0 127 0" result="hardAlpha"/>
<feOffset/>
<feGaussianBlur stdDeviation="6"/>
<feComposite in2="hardAlpha" operator="out"/>
<feColorMatrix type="matrix" values="0 0 0 0 1 0 0 0 0 0.753008 0 0 0 0 0.297024 0 0 0 1 0"/>
<feBlend mode="normal" in2="effect1_dropShadow_304_36" result="effect2_dropShadow_304_36"/>
<feBlend mode="normal" in="SourceGraphic" in2="effect2_dropShadow_304_36" result="shape"/>
<feColorMatrix in="SourceAlpha" type="matrix" values="0 0 0 0 0 0 0 0 0 0 0 0 0 0 0 0 0 0 127 0" result="hardAlpha"/>
<feOffset/>
<feGaussianBlur stdDeviation="5.7"/>
<feComposite in2="hardAlpha" operator="arithmetic" k2="-1" k3="1"/>
<feColorMatrix type="matrix" values="0 0 0 0 1 0 0 0 0 0.752941 0 0 0 0 0.298039 0 0 0 1 0"/>
<feBlend mode="normal" in2="shape" result="effect3_innerShadow_304_36"/>
</filter>
<filter id="filter1_ddi_304_36" x="310.527" y="30.9023" width="115.33" height="116.327" filterUnits="userSpaceOnUse" color-interpolation-filters="sRGB">
<feFlood flood-opacity="0" result="BackgroundImageFix"/>
<feColorMatrix in="SourceAlpha" type="matrix" values="0 0 0 0 0 0 0 0 0 0 0 0 0 0 0 0 0 0 127 0" result="hardAlpha"/>
<feOffset dy="4"/>
<feGaussianBlur stdDeviation="2"/>
<feComposite in2="hardAlpha" operator="out"/>
<feColorMatrix type="matrix" values="0 0 0 0 0 0 0 0 0 0 0 0 0 0 0 0 0 0 0.25 0"/>
<feBlend mode="normal" in2="BackgroundImageFix" result="effect1_dropShadow_304_36"/>
<feColorMatrix in="SourceAlpha" type="matrix" values="0 0 0 0 0 0 0 0 0 0 0 0 0 0 0 0 0 0 127 0" result="hardAlpha"/>
<feOffset/>
<feGaussianBlur stdDeviation="6"/>
<feComposite in2="hardAlpha" operator="out"/>
<feColorMatrix type="matrix" values="0 0 0 0 1 0 0 0 0 0.753008 0 0 0 0 0.297024 0 0 0 1 0"/>
<feBlend mode="normal" in2="effect1_dropShadow_304_36" result="effect2_dropShadow_304_36"/>
<feBlend mode="normal" in="SourceGraphic" in2="effect2_dropShadow_304_36" result="shape"/>
<feColorMatrix in="SourceAlpha" type="matrix" values="0 0 0 0 0 0 0 0 0 0 0 0 0 0 0 0 0 0 127 0" result="hardAlpha"/>
<feOffset/>
<feGaussianBlur stdDeviation="5.7"/>
<feComposite in2="hardAlpha" operator="arithmetic" k2="-1" k3="1"/>
<feColorMatrix type="matrix" values="0 0 0 0 1 0 0 0 0 0.752941 0 0 0 0 0.298039 0 0 0 1 0"/>
<feBlend mode="normal" in2="shape" result="effect3_innerShadow_304_36"/>
</filter>
<filter id="filter2_ddi_304_36" x="0" y="30.9023" width="115.33" height="116.327" filterUnits="userSpaceOnUse" color-interpolation-filters="sRGB">
<feFlood flood-opacity="0" result="BackgroundImageFix"/>
<feColorMatrix in="SourceAlpha" type="matrix" values="0 0 0 0 0 0 0 0 0 0 0 0 0 0 0 0 0 0 127 0" result="hardAlpha"/>
<feOffset dy="4"/>
<feGaussianBlur stdDeviation="2"/>
<feComposite in2="hardAlpha" operator="out"/>
<feColorMatrix type="matrix" values="0 0 0 0 0 0 0 0 0 0 0 0 0 0 0 0 0 0 0.25 0"/>
<feBlend mode="normal" in2="BackgroundImageFix" result="effect1_dropShadow_304_36"/>
<feColorMatrix in="SourceAlpha" type="matrix" values="0 0 0 0 0 0 0 0 0 0 0 0 0 0 0 0 0 0 127 0" result="hardAlpha"/>
<feOffset/>
<feGaussianBlur stdDeviation="6"/>
<feComposite in2="hardAlpha" operator="out"/>
<feColorMatrix type="matrix" values="0 0 0 0 1 0 0 0 0 0.753008 0 0 0 0 0.297024 0 0 0 1 0"/>
<feBlend mode="normal" in2="effect1_dropShadow_304_36" result="effect2_dropShadow_304_36"/>
<feBlend mode="normal" in="SourceGraphic" in2="effect2_dropShadow_304_36" result="shape"/>
<feColorMatrix in="SourceAlpha" type="matrix" values="0 0 0 0 0 0 0 0 0 0 0 0 0 0 0 0 0 0 127 0" result="hardAlpha"/>
<feOffset/>
<feGaussianBlur stdDeviation="5.7"/>
<feComposite in2="hardAlpha" operator="arithmetic" k2="-1" k3="1"/>
<feColorMatrix type="matrix" values="0 0 0 0 1 0 0 0 0 0.752941 0 0 0 0 0.298039 0 0 0 1 0"/>
<feBlend mode="normal" in2="shape" result="effect3_innerShadow_304_36"/>
</filter>
<linearGradient id="paint0_linear_304_36" x1="254.847" y1="-21.2304" x2="257.518" y2="176.416" gradientUnits="userSpaceOnUse">
<stop stop-color="#FFB419" stop-opacity="0"/>
<stop offset="0.362277" stop-color="#FFB419" stop-opacity="0.1"/>
<stop offset="1" stop-color="#FF8A14"/>
</linearGradient>
<linearGradient id="paint1_linear_304_36" x1="391.5" y1="23.794" x2="393" y2="134.794" gradientUnits="userSpaceOnUse">
<stop stop-color="#FFB419" stop-opacity="0"/>
<stop offset="0.362277" stop-color="#FFB419" stop-opacity="0.1"/>
<stop offset="1" stop-color="#FF8A14"/>
</linearGradient>
<linearGradient id="paint2_linear_304_36" x1="80.9727" y1="23.794" x2="82.4727" y2="134.794" gradientUnits="userSpaceOnUse">
<stop stop-color="#FFB419" stop-opacity="0"/>
<stop offset="0.362277" stop-color="#FFB419" stop-opacity="0.1"/>
<stop offset="1" stop-color="#FF8A14"/>
</linearGradient>
<linearGradient id="paint3_linear_304_36" x1="93.6801" y1="46.1997" x2="19.1716" y2="55.9218" gradientUnits="userSpaceOnUse">
<stop stop-color="#FFB419"/>
<stop offset="1" stop-color="#FF8A14"/>
</linearGradient>
</defs>
</svg>
