<svg width="426" height="189" viewBox="0 0 426 189" fill="none" xmlns="http://www.w3.org/2000/svg">
<g filter="url(#filter0_ddi_304_23)">
<path d="M213.346 12.397C221.045 12.397 226.195 21.7361 236.494 40.4136L239.159 45.2456C242.086 50.5529 243.549 53.2066 245.831 54.9575C248.113 56.7084 250.954 57.3588 256.638 58.6587L261.812 59.8423C281.812 64.4168 291.812 66.7039 294.191 74.438C296.571 82.1721 289.753 90.2313 276.118 106.349L272.591 110.519C268.716 115.099 266.779 117.389 265.907 120.222C265.036 123.055 265.329 126.111 265.915 132.222L266.064 133.782C260.89 135.032 255.49 135.694 249.937 135.694C249.642 135.694 249.348 135.693 249.055 135.689C249.349 135.693 249.644 135.695 249.938 135.695C255.491 135.695 260.891 135.033 266.065 133.783L266.449 137.786C268.511 159.29 269.541 170.043 263.312 174.823C257.084 179.603 247.72 175.245 228.994 166.529L224.15 164.274C218.829 161.797 216.168 160.559 213.348 160.559C210.527 160.559 207.866 161.797 202.545 164.274L197.7 166.529C178.974 175.245 169.611 179.603 163.382 174.823C157.154 170.043 158.185 159.291 160.246 137.787L160.779 132.222C161.365 126.112 161.658 123.056 160.786 120.223C159.915 117.39 157.977 115.1 154.103 110.52L150.575 106.35C136.94 90.2324 130.123 82.173 132.502 74.439C134.881 66.7048 144.882 64.4178 164.882 59.8433L170.056 58.6597C175.739 57.3598 178.581 56.7093 180.862 54.9585C181.182 54.7133 181.486 54.45 181.779 54.1646L181.78 54.1626C181.752 54.1899 181.723 54.2158 181.694 54.2427C183.537 52.4893 184.978 49.8793 187.533 45.2456L190.198 40.4136C200.497 21.7364 205.647 12.3973 213.346 12.397ZM241.255 135.148C243.799 135.47 246.387 135.653 249.01 135.688C246.387 135.653 243.799 135.47 241.255 135.148ZM228.969 132.419C232.842 133.665 236.863 134.575 240.999 135.115C236.863 134.575 232.842 133.665 228.969 132.419ZM224.13 130.66C225.457 131.2 226.804 131.7 228.17 132.158C226.804 131.7 225.457 131.2 224.13 130.66ZM214.327 125.718C217.246 127.496 220.306 129.06 223.485 130.393C220.306 129.061 217.246 127.496 214.327 125.718ZM206.479 120.158C207.243 120.783 208.02 121.392 208.811 121.984C208.02 121.392 207.243 120.783 206.479 120.158ZM204.021 118.048C204.446 118.431 204.877 118.808 205.312 119.18C204.877 118.808 204.446 118.431 204.021 118.048ZM181.225 54.6626C181.105 54.7632 180.985 54.8625 180.861 54.9575C180.985 54.8625 181.105 54.7632 181.225 54.6626ZM181.312 54.5884C181.283 54.6134 181.254 54.6379 181.225 54.6626C181.254 54.6379 181.283 54.6134 181.312 54.5884ZM181.665 54.27C181.549 54.3794 181.432 54.4854 181.312 54.5884C181.432 54.4854 181.549 54.3794 181.665 54.27ZM181.694 54.2427C181.685 54.2519 181.675 54.2609 181.665 54.27C181.675 54.2609 181.685 54.2519 181.694 54.2427Z" fill="url(#paint0_linear_304_23)"/>
</g>
<g filter="url(#filter1_ddi_304_23)">
<path d="M368.192 42.5054C372.516 42.5055 375.408 47.7504 381.192 58.2397L382.689 60.9536C384.333 63.9338 385.154 65.4244 386.436 66.4077C387.717 67.3911 389.313 67.7568 392.505 68.4868L395.411 69.1509C406.643 71.72 412.259 73.0047 413.596 77.3481C414.932 81.6917 411.104 86.2181 403.446 95.27L401.465 97.6118C399.289 100.184 398.2 101.47 397.711 103.061C397.221 104.652 397.387 106.368 397.716 109.8L397.8 110.676C397.255 110.808 396.705 110.928 396.151 111.037C395.598 111.145 395.04 111.241 394.479 111.325C393.917 111.409 393.351 111.481 392.782 111.541C392.593 111.56 392.402 111.579 392.212 111.596C391.259 111.682 390.296 111.732 389.325 111.747L388.742 111.75C391.861 111.75 394.894 111.379 397.8 110.677L398.016 112.925C399.173 125.002 399.752 131.041 396.254 133.725C392.756 136.41 387.497 133.963 376.98 129.068L374.26 127.801C371.271 126.41 369.776 125.714 368.192 125.714C366.609 125.714 365.114 126.41 362.126 127.801L359.405 129.068C348.888 133.963 343.63 136.41 340.132 133.725C336.634 131.041 337.212 125.002 338.37 112.925L338.67 109.8C338.999 106.369 339.163 104.652 338.674 103.061C338.184 101.47 337.096 100.184 334.92 97.6118L332.939 95.27C325.282 86.218 321.453 81.6917 322.789 77.3481C324.125 73.0048 329.742 71.7199 340.974 69.1509L343.88 68.4868C347.072 67.7568 348.668 67.3911 349.949 66.4077H349.948C350.031 66.3446 350.111 66.279 350.189 66.2114C350.235 66.1722 350.279 66.1312 350.324 66.0903C350.307 66.1056 350.29 66.1202 350.273 66.1353C350.329 66.0855 350.385 66.0353 350.439 65.9829C350.436 65.9864 350.432 65.9902 350.429 65.9937C350.44 65.983 350.452 65.9732 350.463 65.9624L350.464 65.9614C350.456 65.969 350.447 65.9754 350.439 65.9829C351.463 64.9984 352.271 63.5359 353.695 60.9536L355.191 58.2397C360.976 47.7503 363.868 42.5054 368.192 42.5054ZM371.071 107.458C371.257 107.555 371.445 107.646 371.632 107.739C371.163 107.506 370.698 107.267 370.24 107.015L371.071 107.458ZM357.96 96.4136C358.126 96.6315 358.294 96.8477 358.464 97.062C358.294 96.8477 358.126 96.6315 357.96 96.4136ZM350.273 66.1353C350.248 66.1577 350.224 66.1807 350.198 66.2026C350.224 66.1807 350.248 66.1577 350.273 66.1353Z" fill="url(#paint1_linear_304_23)" fill-opacity="0.5"/>
</g>
<g filter="url(#filter2_ddi_304_23)">
<path d="M57.665 42.5054C61.9889 42.5055 64.8808 47.7504 70.665 58.2397L72.1621 60.9536C73.8055 63.9338 74.6271 65.4244 75.9082 66.4077C77.1896 67.3911 78.7859 67.7568 81.9775 68.4868L84.8838 69.1509C96.116 71.72 101.732 73.0047 103.068 77.3481C104.405 81.6917 100.576 86.2181 92.9189 95.27L90.9375 97.6118C88.7616 100.184 87.6731 101.47 87.1836 103.061C86.6941 104.652 86.8595 106.368 87.1885 109.8L87.2725 110.676C86.7275 110.808 86.1776 110.928 85.624 111.037C85.0705 111.145 84.5128 111.241 83.9512 111.325C83.3896 111.409 82.8241 111.481 82.2549 111.541C82.0652 111.56 81.8751 111.579 81.6846 111.596C80.7318 111.682 79.7691 111.732 78.7979 111.747L78.2148 111.75C81.3335 111.75 84.3666 111.379 87.2725 110.677L87.4883 112.925C88.646 125.002 89.2244 131.041 85.7266 133.725C82.2284 136.41 76.9699 133.963 66.4531 129.068L63.7324 127.801C60.7439 126.41 59.249 125.714 57.665 125.714C56.0813 125.714 54.5869 126.41 51.5986 127.801L48.8779 129.068C38.3612 133.963 33.1026 136.41 29.6045 133.725C26.1066 131.041 26.6851 125.002 27.8428 112.925L28.1426 109.8C28.4715 106.369 28.6359 104.652 28.1465 103.061C27.657 101.47 26.5684 100.184 24.3926 97.6118L22.4121 95.27C14.7546 86.218 10.9255 81.6917 12.2617 77.3481C13.5981 73.0048 19.2143 71.7199 30.4463 69.1509L33.3525 68.4868C36.5444 67.7568 38.1404 67.3911 39.4219 66.4077H39.4209C39.5032 66.3446 39.5833 66.279 39.6621 66.2114C39.7079 66.1722 39.7521 66.1312 39.7969 66.0903C39.7802 66.1056 39.7629 66.1202 39.7461 66.1353C39.8019 66.0855 39.8576 66.0353 39.9121 65.9829C39.9085 65.9864 39.905 65.9902 39.9014 65.9937C39.9125 65.983 39.9245 65.9732 39.9355 65.9624L39.9365 65.9614C39.9288 65.969 39.9199 65.9754 39.9121 65.9829C40.9357 64.9984 41.744 63.5359 43.168 60.9536L44.6641 58.2397C50.4483 47.7503 53.3411 42.5054 57.665 42.5054ZM60.5439 107.458C60.7294 107.555 60.9173 107.646 61.1045 107.739C60.6358 107.506 60.1707 107.267 59.7129 107.015L60.5439 107.458ZM47.4326 96.4136C47.5985 96.6315 47.7663 96.8477 47.9365 97.062C47.7663 96.8477 47.5985 96.6315 47.4326 96.4136ZM39.7461 66.1353C39.7209 66.1577 39.6964 66.1807 39.6709 66.2026C39.6964 66.1807 39.7209 66.1577 39.7461 66.1353Z" fill="url(#paint2_linear_304_23)"/>
</g>
<defs>
<filter id="filter0_ddi_304_23" x="120.035" y="0.396973" width="186.623" height="188.397" filterUnits="userSpaceOnUse" color-interpolation-filters="sRGB">
<feFlood flood-opacity="0" result="BackgroundImageFix"/>
<feColorMatrix in="SourceAlpha" type="matrix" values="0 0 0 0 0 0 0 0 0 0 0 0 0 0 0 0 0 0 127 0" result="hardAlpha"/>
<feOffset dy="4"/>
<feGaussianBlur stdDeviation="2"/>
<feComposite in2="hardAlpha" operator="out"/>
<feColorMatrix type="matrix" values="0 0 0 0 0 0 0 0 0 0 0 0 0 0 0 0 0 0 0.25 0"/>
<feBlend mode="normal" in2="BackgroundImageFix" result="effect1_dropShadow_304_23"/>
<feColorMatrix in="SourceAlpha" type="matrix" values="0 0 0 0 0 0 0 0 0 0 0 0 0 0 0 0 0 0 127 0" result="hardAlpha"/>
<feOffset/>
<feGaussianBlur stdDeviation="6"/>
<feComposite in2="hardAlpha" operator="out"/>
<feColorMatrix type="matrix" values="0 0 0 0 1 0 0 0 0 0.753008 0 0 0 0 0.297024 0 0 0 1 0"/>
<feBlend mode="normal" in2="effect1_dropShadow_304_23" result="effect2_dropShadow_304_23"/>
<feBlend mode="normal" in="SourceGraphic" in2="effect2_dropShadow_304_23" result="shape"/>
<feColorMatrix in="SourceAlpha" type="matrix" values="0 0 0 0 0 0 0 0 0 0 0 0 0 0 0 0 0 0 127 0" result="hardAlpha"/>
<feOffset/>
<feGaussianBlur stdDeviation="5.7"/>
<feComposite in2="hardAlpha" operator="arithmetic" k2="-1" k3="1"/>
<feColorMatrix type="matrix" values="0 0 0 0 1 0 0 0 0 0.752941 0 0 0 0 0.298039 0 0 0 1 0"/>
<feBlend mode="normal" in2="shape" result="effect3_innerShadow_304_23"/>
</filter>
<filter id="filter1_ddi_304_23" x="310.527" y="30.5054" width="115.33" height="116.327" filterUnits="userSpaceOnUse" color-interpolation-filters="sRGB">
<feFlood flood-opacity="0" result="BackgroundImageFix"/>
<feColorMatrix in="SourceAlpha" type="matrix" values="0 0 0 0 0 0 0 0 0 0 0 0 0 0 0 0 0 0 127 0" result="hardAlpha"/>
<feOffset dy="4"/>
<feGaussianBlur stdDeviation="2"/>
<feComposite in2="hardAlpha" operator="out"/>
<feColorMatrix type="matrix" values="0 0 0 0 0 0 0 0 0 0 0 0 0 0 0 0 0 0 0.25 0"/>
<feBlend mode="normal" in2="BackgroundImageFix" result="effect1_dropShadow_304_23"/>
<feColorMatrix in="SourceAlpha" type="matrix" values="0 0 0 0 0 0 0 0 0 0 0 0 0 0 0 0 0 0 127 0" result="hardAlpha"/>
<feOffset/>
<feGaussianBlur stdDeviation="6"/>
<feComposite in2="hardAlpha" operator="out"/>
<feColorMatrix type="matrix" values="0 0 0 0 1 0 0 0 0 0.753008 0 0 0 0 0.297024 0 0 0 1 0"/>
<feBlend mode="normal" in2="effect1_dropShadow_304_23" result="effect2_dropShadow_304_23"/>
<feBlend mode="normal" in="SourceGraphic" in2="effect2_dropShadow_304_23" result="shape"/>
<feColorMatrix in="SourceAlpha" type="matrix" values="0 0 0 0 0 0 0 0 0 0 0 0 0 0 0 0 0 0 127 0" result="hardAlpha"/>
<feOffset/>
<feGaussianBlur stdDeviation="5.7"/>
<feComposite in2="hardAlpha" operator="arithmetic" k2="-1" k3="1"/>
<feColorMatrix type="matrix" values="0 0 0 0 1 0 0 0 0 0.752941 0 0 0 0 0.298039 0 0 0 1 0"/>
<feBlend mode="normal" in2="shape" result="effect3_innerShadow_304_23"/>
</filter>
<filter id="filter2_ddi_304_23" x="0" y="30.5054" width="115.33" height="116.327" filterUnits="userSpaceOnUse" color-interpolation-filters="sRGB">
<feFlood flood-opacity="0" result="BackgroundImageFix"/>
<feColorMatrix in="SourceAlpha" type="matrix" values="0 0 0 0 0 0 0 0 0 0 0 0 0 0 0 0 0 0 127 0" result="hardAlpha"/>
<feOffset dy="4"/>
<feGaussianBlur stdDeviation="2"/>
<feComposite in2="hardAlpha" operator="out"/>
<feColorMatrix type="matrix" values="0 0 0 0 0 0 0 0 0 0 0 0 0 0 0 0 0 0 0.25 0"/>
<feBlend mode="normal" in2="BackgroundImageFix" result="effect1_dropShadow_304_23"/>
<feColorMatrix in="SourceAlpha" type="matrix" values="0 0 0 0 0 0 0 0 0 0 0 0 0 0 0 0 0 0 127 0" result="hardAlpha"/>
<feOffset/>
<feGaussianBlur stdDeviation="6"/>
<feComposite in2="hardAlpha" operator="out"/>
<feColorMatrix type="matrix" values="0 0 0 0 1 0 0 0 0 0.753008 0 0 0 0 0.297024 0 0 0 1 0"/>
<feBlend mode="normal" in2="effect1_dropShadow_304_23" result="effect2_dropShadow_304_23"/>
<feBlend mode="normal" in="SourceGraphic" in2="effect2_dropShadow_304_23" result="shape"/>
<feColorMatrix in="SourceAlpha" type="matrix" values="0 0 0 0 0 0 0 0 0 0 0 0 0 0 0 0 0 0 127 0" result="hardAlpha"/>
<feOffset/>
<feGaussianBlur stdDeviation="5.7"/>
<feComposite in2="hardAlpha" operator="arithmetic" k2="-1" k3="1"/>
<feColorMatrix type="matrix" values="0 0 0 0 1 0 0 0 0 0.752941 0 0 0 0 0.298039 0 0 0 1 0"/>
<feBlend mode="normal" in2="shape" result="effect3_innerShadow_304_23"/>
</filter>
<linearGradient id="paint0_linear_304_23" x1="277.474" y1="18.2683" x2="144.805" y2="35.5793" gradientUnits="userSpaceOnUse">
<stop stop-color="#FFB419"/>
<stop offset="1" stop-color="#FF8A14"/>
</linearGradient>
<linearGradient id="paint1_linear_304_23" x1="391.5" y1="23.397" x2="393" y2="134.397" gradientUnits="userSpaceOnUse">
<stop stop-color="#FFB419" stop-opacity="0"/>
<stop offset="0.362277" stop-color="#FFB419" stop-opacity="0.1"/>
<stop offset="1" stop-color="#FF8A14"/>
</linearGradient>
<linearGradient id="paint2_linear_304_23" x1="93.6801" y1="45.8028" x2="19.1716" y2="55.5248" gradientUnits="userSpaceOnUse">
<stop stop-color="#FFB419"/>
<stop offset="1" stop-color="#FF8A14"/>
</linearGradient>
</defs>
</svg>
