<svg width="426" height="189" viewBox="0 0 426 189" fill="none" xmlns="http://www.w3.org/2000/svg">
<g filter="url(#filter0_ddi_304_49)">
<path d="M213.346 12.1909C221.045 12.1909 226.195 21.5301 236.494 40.2075L239.159 45.0396C242.086 50.3469 243.549 53.0005 245.831 54.7515C248.113 56.5024 250.954 57.1527 256.638 58.4526L261.812 59.6362C281.812 64.2108 291.812 66.4978 294.191 74.2319C296.571 81.966 289.753 90.0253 276.118 106.143L272.591 110.313C268.716 114.893 266.779 117.183 265.907 120.016C265.036 122.849 265.329 125.905 265.915 132.016L266.064 133.576C260.89 134.826 255.49 135.488 249.937 135.488C249.642 135.488 249.348 135.487 249.055 135.483C249.349 135.487 249.644 135.489 249.938 135.489C255.491 135.489 260.891 134.827 266.065 133.577L266.449 137.58C268.511 159.084 269.541 169.837 263.312 174.617C257.084 179.397 247.72 175.039 228.994 166.323L224.15 164.068C218.829 161.591 216.168 160.353 213.348 160.353C210.527 160.353 207.866 161.591 202.545 164.068L197.7 166.323C178.974 175.039 169.611 179.397 163.382 174.617C157.154 169.837 158.185 159.084 160.246 137.581L160.779 132.016C161.365 125.906 161.658 122.85 160.786 120.017C159.915 117.184 157.977 114.894 154.103 110.314L150.575 106.144C136.94 90.0263 130.123 81.967 132.502 74.2329C134.881 66.4988 144.882 64.2118 164.882 59.6372L170.056 58.4536C175.739 57.1537 178.581 56.5033 180.862 54.7524C181.182 54.5072 181.486 54.244 181.779 53.9585L181.78 53.9565C181.752 53.9839 181.723 54.0097 181.694 54.0366C183.537 52.2832 184.978 49.6733 187.533 45.0396L190.198 40.2075C200.497 21.5304 205.647 12.1912 213.346 12.1909ZM241.255 134.942C243.799 135.264 246.387 135.447 249.01 135.482C246.387 135.447 243.799 135.264 241.255 134.942ZM228.969 132.213C232.842 133.459 236.863 134.369 240.999 134.909C236.863 134.369 232.842 133.459 228.969 132.213ZM224.13 130.454C225.457 130.994 226.804 131.494 228.17 131.952C226.804 131.494 225.457 130.994 224.13 130.454ZM214.327 125.512C217.246 127.29 220.306 128.854 223.485 130.187C220.306 128.854 217.246 127.29 214.327 125.512ZM206.479 119.952C207.243 120.577 208.02 121.186 208.811 121.778C208.02 121.186 207.243 120.577 206.479 119.952ZM204.021 117.842C204.446 118.225 204.877 118.602 205.312 118.974C204.877 118.602 204.446 118.225 204.021 117.842ZM181.225 54.4565C181.105 54.5572 180.985 54.6564 180.861 54.7515C180.985 54.6564 181.105 54.5572 181.225 54.4565ZM181.312 54.3823C181.283 54.4074 181.254 54.4318 181.225 54.4565C181.254 54.4318 181.283 54.4074 181.312 54.3823ZM181.665 54.064C181.549 54.1733 181.432 54.2794 181.312 54.3823C181.432 54.2794 181.549 54.1733 181.665 54.064ZM181.694 54.0366C181.685 54.0458 181.675 54.0548 181.665 54.064C181.675 54.0548 181.685 54.0458 181.694 54.0366Z" fill="url(#paint0_linear_304_49)" fill-opacity="0.5"/>
</g>
<g filter="url(#filter1_ddi_304_49)">
<path d="M368.192 42.2993C372.516 42.2995 375.408 47.5443 381.192 58.0337L382.689 60.7476C384.333 63.7278 385.154 65.2183 386.436 66.2017C387.717 67.185 389.313 67.5507 392.505 68.2808L395.411 68.9448C406.643 71.5139 412.259 72.7987 413.596 77.1421C414.932 81.4856 411.104 86.0121 403.446 95.064L401.465 97.4058C399.289 99.978 398.2 101.264 397.711 102.855C397.221 104.446 397.387 106.162 397.716 109.594L397.8 110.47C397.255 110.602 396.705 110.722 396.151 110.831C395.598 110.939 395.04 111.035 394.479 111.119C393.917 111.203 393.351 111.275 392.782 111.334C392.593 111.354 392.402 111.373 392.212 111.39C391.259 111.475 390.296 111.526 389.325 111.541L388.742 111.544C391.861 111.544 394.894 111.173 397.8 110.471L398.016 112.719C399.173 124.796 399.752 130.834 396.254 133.519C392.756 136.204 387.497 133.757 376.98 128.862L374.26 127.595C371.271 126.204 369.776 125.508 368.192 125.508C366.609 125.508 365.114 126.204 362.126 127.595L359.405 128.862C348.888 133.757 343.63 136.204 340.132 133.519C336.634 130.834 337.212 124.796 338.37 112.719L338.67 109.594C338.999 106.162 339.163 104.446 338.674 102.855C338.184 101.264 337.096 99.9778 334.92 97.4058L332.939 95.064C325.282 86.012 321.453 81.4857 322.789 77.1421C324.125 72.7988 329.742 71.5139 340.974 68.9448L343.88 68.2808C347.072 67.5507 348.668 67.185 349.949 66.2017H349.948C350.031 66.1385 350.111 66.073 350.189 66.0054C350.235 65.9662 350.279 65.9251 350.324 65.8843C350.307 65.8995 350.29 65.9142 350.273 65.9292C350.329 65.8794 350.385 65.8292 350.439 65.7769C350.436 65.7804 350.432 65.7841 350.429 65.7876C350.44 65.7769 350.452 65.7671 350.463 65.7563L350.464 65.7554C350.456 65.7629 350.447 65.7694 350.439 65.7769C351.463 64.7923 352.271 63.3298 353.695 60.7476L355.191 58.0337C360.976 47.5442 363.868 42.2993 368.192 42.2993ZM371.071 107.252C371.257 107.348 371.445 107.44 371.632 107.533C371.163 107.3 370.698 107.06 370.24 106.809L371.071 107.252ZM357.96 96.2075C358.126 96.4255 358.294 96.6417 358.464 96.856C358.294 96.6417 358.126 96.4255 357.96 96.2075ZM350.273 65.9292C350.248 65.9516 350.224 65.9746 350.198 65.9966C350.224 65.9746 350.248 65.9516 350.273 65.9292Z" fill="url(#paint1_linear_304_49)" fill-opacity="0.5"/>
</g>
<g filter="url(#filter2_ddi_304_49)">
<path d="M57.665 42.2993C61.9889 42.2995 64.8808 47.5443 70.665 58.0337L72.1621 60.7476C73.8055 63.7278 74.6271 65.2183 75.9082 66.2017C77.1896 67.185 78.7859 67.5507 81.9775 68.2808L84.8838 68.9448C96.116 71.5139 101.732 72.7987 103.068 77.1421C104.405 81.4856 100.576 86.0121 92.9189 95.064L90.9375 97.4058C88.7616 99.978 87.6731 101.264 87.1836 102.855C86.6941 104.446 86.8595 106.162 87.1885 109.594L87.2725 110.47C86.7275 110.602 86.1776 110.722 85.624 110.831C85.0705 110.939 84.5128 111.035 83.9512 111.119C83.3896 111.203 82.8241 111.275 82.2549 111.334C82.0652 111.354 81.8751 111.373 81.6846 111.39C80.7318 111.475 79.7691 111.526 78.7979 111.541L78.2148 111.544C81.3335 111.544 84.3666 111.173 87.2725 110.471L87.4883 112.719C88.646 124.796 89.2244 130.834 85.7266 133.519C82.2284 136.204 76.9699 133.757 66.4531 128.862L63.7324 127.595C60.7439 126.204 59.249 125.508 57.665 125.508C56.0813 125.508 54.5869 126.204 51.5986 127.595L48.8779 128.862C38.3612 133.757 33.1026 136.204 29.6045 133.519C26.1066 130.834 26.6851 124.796 27.8428 112.719L28.1426 109.594C28.4715 106.162 28.6359 104.446 28.1465 102.855C27.657 101.264 26.5684 99.9778 24.3926 97.4058L22.4121 95.064C14.7546 86.012 10.9255 81.4857 12.2617 77.1421C13.5981 72.7988 19.2143 71.5139 30.4463 68.9448L33.3525 68.2808C36.5444 67.5507 38.1404 67.185 39.4219 66.2017H39.4209C39.5032 66.1385 39.5833 66.073 39.6621 66.0054C39.7079 65.9662 39.7521 65.9251 39.7969 65.8843C39.7802 65.8995 39.7629 65.9142 39.7461 65.9292C39.8019 65.8794 39.8576 65.8292 39.9121 65.7769C39.9085 65.7804 39.905 65.7841 39.9014 65.7876C39.9125 65.7769 39.9245 65.7671 39.9355 65.7563L39.9365 65.7554C39.9288 65.7629 39.9199 65.7694 39.9121 65.7769C40.9357 64.7923 41.744 63.3298 43.168 60.7476L44.6641 58.0337C50.4483 47.5442 53.3411 42.2993 57.665 42.2993ZM60.5439 107.252C60.7294 107.348 60.9173 107.44 61.1045 107.533C60.6358 107.3 60.1707 107.06 59.7129 106.809L60.5439 107.252ZM47.4326 96.2075C47.5985 96.4255 47.7663 96.6417 47.9365 96.856C47.7663 96.6417 47.5985 96.4255 47.4326 96.2075ZM39.7461 65.9292C39.7209 65.9516 39.6964 65.9746 39.6709 65.9966C39.6964 65.9746 39.7209 65.9516 39.7461 65.9292Z" fill="url(#paint2_linear_304_49)" fill-opacity="0.5"/>
</g>
<defs>
<filter id="filter0_ddi_304_49" x="120.035" y="0.190918" width="186.623" height="188.397" filterUnits="userSpaceOnUse" color-interpolation-filters="sRGB">
<feFlood flood-opacity="0" result="BackgroundImageFix"/>
<feColorMatrix in="SourceAlpha" type="matrix" values="0 0 0 0 0 0 0 0 0 0 0 0 0 0 0 0 0 0 127 0" result="hardAlpha"/>
<feOffset dy="4"/>
<feGaussianBlur stdDeviation="2"/>
<feComposite in2="hardAlpha" operator="out"/>
<feColorMatrix type="matrix" values="0 0 0 0 0 0 0 0 0 0 0 0 0 0 0 0 0 0 0.25 0"/>
<feBlend mode="normal" in2="BackgroundImageFix" result="effect1_dropShadow_304_49"/>
<feColorMatrix in="SourceAlpha" type="matrix" values="0 0 0 0 0 0 0 0 0 0 0 0 0 0 0 0 0 0 127 0" result="hardAlpha"/>
<feOffset/>
<feGaussianBlur stdDeviation="6"/>
<feComposite in2="hardAlpha" operator="out"/>
<feColorMatrix type="matrix" values="0 0 0 0 1 0 0 0 0 0.753008 0 0 0 0 0.297024 0 0 0 1 0"/>
<feBlend mode="normal" in2="effect1_dropShadow_304_49" result="effect2_dropShadow_304_49"/>
<feBlend mode="normal" in="SourceGraphic" in2="effect2_dropShadow_304_49" result="shape"/>
<feColorMatrix in="SourceAlpha" type="matrix" values="0 0 0 0 0 0 0 0 0 0 0 0 0 0 0 0 0 0 127 0" result="hardAlpha"/>
<feOffset/>
<feGaussianBlur stdDeviation="5.7"/>
<feComposite in2="hardAlpha" operator="arithmetic" k2="-1" k3="1"/>
<feColorMatrix type="matrix" values="0 0 0 0 1 0 0 0 0 0.752941 0 0 0 0 0.298039 0 0 0 1 0"/>
<feBlend mode="normal" in2="shape" result="effect3_innerShadow_304_49"/>
</filter>
<filter id="filter1_ddi_304_49" x="310.527" y="30.2993" width="115.33" height="116.327" filterUnits="userSpaceOnUse" color-interpolation-filters="sRGB">
<feFlood flood-opacity="0" result="BackgroundImageFix"/>
<feColorMatrix in="SourceAlpha" type="matrix" values="0 0 0 0 0 0 0 0 0 0 0 0 0 0 0 0 0 0 127 0" result="hardAlpha"/>
<feOffset dy="4"/>
<feGaussianBlur stdDeviation="2"/>
<feComposite in2="hardAlpha" operator="out"/>
<feColorMatrix type="matrix" values="0 0 0 0 0 0 0 0 0 0 0 0 0 0 0 0 0 0 0.25 0"/>
<feBlend mode="normal" in2="BackgroundImageFix" result="effect1_dropShadow_304_49"/>
<feColorMatrix in="SourceAlpha" type="matrix" values="0 0 0 0 0 0 0 0 0 0 0 0 0 0 0 0 0 0 127 0" result="hardAlpha"/>
<feOffset/>
<feGaussianBlur stdDeviation="6"/>
<feComposite in2="hardAlpha" operator="out"/>
<feColorMatrix type="matrix" values="0 0 0 0 1 0 0 0 0 0.753008 0 0 0 0 0.297024 0 0 0 1 0"/>
<feBlend mode="normal" in2="effect1_dropShadow_304_49" result="effect2_dropShadow_304_49"/>
<feBlend mode="normal" in="SourceGraphic" in2="effect2_dropShadow_304_49" result="shape"/>
<feColorMatrix in="SourceAlpha" type="matrix" values="0 0 0 0 0 0 0 0 0 0 0 0 0 0 0 0 0 0 127 0" result="hardAlpha"/>
<feOffset/>
<feGaussianBlur stdDeviation="5.7"/>
<feComposite in2="hardAlpha" operator="arithmetic" k2="-1" k3="1"/>
<feColorMatrix type="matrix" values="0 0 0 0 1 0 0 0 0 0.752941 0 0 0 0 0.298039 0 0 0 1 0"/>
<feBlend mode="normal" in2="shape" result="effect3_innerShadow_304_49"/>
</filter>
<filter id="filter2_ddi_304_49" x="0" y="30.2993" width="115.33" height="116.327" filterUnits="userSpaceOnUse" color-interpolation-filters="sRGB">
<feFlood flood-opacity="0" result="BackgroundImageFix"/>
<feColorMatrix in="SourceAlpha" type="matrix" values="0 0 0 0 0 0 0 0 0 0 0 0 0 0 0 0 0 0 127 0" result="hardAlpha"/>
<feOffset dy="4"/>
<feGaussianBlur stdDeviation="2"/>
<feComposite in2="hardAlpha" operator="out"/>
<feColorMatrix type="matrix" values="0 0 0 0 0 0 0 0 0 0 0 0 0 0 0 0 0 0 0.25 0"/>
<feBlend mode="normal" in2="BackgroundImageFix" result="effect1_dropShadow_304_49"/>
<feColorMatrix in="SourceAlpha" type="matrix" values="0 0 0 0 0 0 0 0 0 0 0 0 0 0 0 0 0 0 127 0" result="hardAlpha"/>
<feOffset/>
<feGaussianBlur stdDeviation="6"/>
<feComposite in2="hardAlpha" operator="out"/>
<feColorMatrix type="matrix" values="0 0 0 0 1 0 0 0 0 0.753008 0 0 0 0 0.297024 0 0 0 1 0"/>
<feBlend mode="normal" in2="effect1_dropShadow_304_49" result="effect2_dropShadow_304_49"/>
<feBlend mode="normal" in="SourceGraphic" in2="effect2_dropShadow_304_49" result="shape"/>
<feColorMatrix in="SourceAlpha" type="matrix" values="0 0 0 0 0 0 0 0 0 0 0 0 0 0 0 0 0 0 127 0" result="hardAlpha"/>
<feOffset/>
<feGaussianBlur stdDeviation="5.7"/>
<feComposite in2="hardAlpha" operator="arithmetic" k2="-1" k3="1"/>
<feColorMatrix type="matrix" values="0 0 0 0 1 0 0 0 0 0.752941 0 0 0 0 0.298039 0 0 0 1 0"/>
<feBlend mode="normal" in2="shape" result="effect3_innerShadow_304_49"/>
</filter>
<linearGradient id="paint0_linear_304_49" x1="254.847" y1="-21.8334" x2="257.518" y2="175.813" gradientUnits="userSpaceOnUse">
<stop stop-color="#FFB419" stop-opacity="0"/>
<stop offset="0.362277" stop-color="#FFB419" stop-opacity="0.1"/>
<stop offset="1" stop-color="#FF8A14"/>
</linearGradient>
<linearGradient id="paint1_linear_304_49" x1="391.5" y1="23.1909" x2="393" y2="134.191" gradientUnits="userSpaceOnUse">
<stop stop-color="#FFB419" stop-opacity="0"/>
<stop offset="0.362277" stop-color="#FFB419" stop-opacity="0.1"/>
<stop offset="1" stop-color="#FF8A14"/>
</linearGradient>
<linearGradient id="paint2_linear_304_49" x1="80.9727" y1="23.1909" x2="82.4727" y2="134.191" gradientUnits="userSpaceOnUse">
<stop stop-color="#FFB419" stop-opacity="0"/>
<stop offset="0.362277" stop-color="#FFB419" stop-opacity="0.1"/>
<stop offset="1" stop-color="#FF8A14"/>
</linearGradient>
</defs>
</svg>
