<svg width="426" height="189" viewBox="0 0 426 189" fill="none" xmlns="http://www.w3.org/2000/svg">
<g filter="url(#filter0_ddi_300_485)">
<path d="M213.346 12C221.045 12 226.195 21.3391 236.494 40.0166L239.159 44.8486C242.086 50.1559 243.549 52.8096 245.831 54.5605C248.113 56.3115 250.954 56.9618 256.638 58.2617L261.812 59.4453C281.812 64.0199 291.812 66.3069 294.191 74.041C296.571 81.7751 289.753 89.8344 276.118 105.952L272.591 110.122C268.716 114.702 266.779 116.992 265.907 119.825C265.036 122.658 265.329 125.714 265.915 131.825L266.064 133.385C260.89 134.635 255.49 135.297 249.937 135.297C249.642 135.297 249.348 135.296 249.055 135.292C249.349 135.296 249.644 135.298 249.938 135.298C255.491 135.298 260.891 134.636 266.065 133.386L266.449 137.389C268.511 158.893 269.541 169.646 263.312 174.426C257.084 179.206 247.72 174.848 228.994 166.132L224.15 163.877C218.829 161.4 216.168 160.162 213.348 160.162C210.527 160.162 207.866 161.4 202.545 163.877L197.7 166.132C178.974 174.848 169.611 179.206 163.382 174.426C157.154 169.646 158.185 158.894 160.246 137.39L160.779 131.825C161.365 125.715 161.658 122.659 160.786 119.826C159.915 116.993 157.977 114.703 154.103 110.123L150.575 105.953C136.94 89.8354 130.123 81.7761 132.502 74.042C134.881 66.3079 144.882 64.0208 164.882 59.4463L170.056 58.2627C175.739 56.9628 178.581 56.3123 180.862 54.5615C181.182 54.3163 181.486 54.053 181.779 53.7676L181.78 53.7656C181.752 53.793 181.723 53.8188 181.694 53.8457C183.537 52.0923 184.978 49.4824 187.533 44.8486L190.198 40.0166C200.497 21.3394 205.647 12.0003 213.346 12ZM241.255 134.751C243.799 135.073 246.387 135.256 249.01 135.291C246.387 135.256 243.799 135.073 241.255 134.751ZM228.969 132.022C232.842 133.268 236.863 134.178 240.999 134.718C236.863 134.178 232.842 133.268 228.969 132.022ZM224.13 130.263C225.457 130.803 226.804 131.303 228.17 131.761C226.804 131.303 225.457 130.803 224.13 130.263ZM214.327 125.321C217.246 127.099 220.306 128.664 223.485 129.996C220.306 128.664 217.246 127.099 214.327 125.321ZM206.479 119.761C207.243 120.386 208.02 120.995 208.811 121.587C208.02 120.995 207.243 120.386 206.479 119.761ZM204.021 117.651C204.446 118.034 204.877 118.411 205.312 118.783C204.877 118.411 204.446 118.034 204.021 117.651ZM181.225 54.2656C181.105 54.3662 180.985 54.4655 180.861 54.5605C180.985 54.4655 181.105 54.3662 181.225 54.2656ZM181.312 54.1914C181.283 54.2165 181.254 54.2409 181.225 54.2656C181.254 54.2409 181.283 54.2165 181.312 54.1914ZM181.665 53.873C181.549 53.9824 181.432 54.0884 181.312 54.1914C181.432 54.0884 181.549 53.9824 181.665 53.873ZM181.694 53.8457C181.685 53.8549 181.675 53.8639 181.665 53.873C181.675 53.8639 181.685 53.8549 181.694 53.8457Z" fill="url(#paint0_linear_300_485)"/>
</g>
<g filter="url(#filter1_ddi_300_485)">
<path d="M368.192 42.1084C372.516 42.1085 375.408 47.3534 381.192 57.8428L382.689 60.5566C384.333 63.5369 385.154 65.0274 386.436 66.0107C387.717 66.9941 389.313 67.3598 392.505 68.0898L395.411 68.7539C406.643 71.323 412.259 72.6078 413.596 76.9512C414.932 81.2947 411.104 85.8212 403.446 94.873L401.465 97.2148C399.289 99.787 398.2 101.073 397.711 102.664C397.221 104.255 397.387 105.971 397.716 109.403L397.8 110.279C397.073 110.455 396.338 110.611 395.597 110.744C395.226 110.811 394.853 110.872 394.479 110.928C393.917 111.012 393.351 111.084 392.782 111.144C392.593 111.163 392.402 111.182 392.212 111.199C391.259 111.285 390.296 111.335 389.325 111.35L388.742 111.354C391.861 111.354 394.894 110.982 397.8 110.28L398.016 112.528C399.173 124.605 399.752 130.644 396.254 133.328C392.756 136.013 387.497 133.566 376.98 128.671L374.26 127.404C371.271 126.013 369.776 125.317 368.192 125.317C366.609 125.318 365.114 126.013 362.126 127.404L359.405 128.671C348.888 133.566 343.63 136.013 340.132 133.328C336.634 130.644 337.212 124.605 338.37 112.528L338.67 109.403C338.999 105.972 339.163 104.255 338.674 102.664C338.184 101.073 337.096 99.7869 334.92 97.2148L332.939 94.873C325.282 85.8211 321.453 81.2948 322.789 76.9512C324.125 72.6078 329.742 71.323 340.974 68.7539L343.88 68.0898C347.072 67.3598 348.668 66.9941 349.949 66.0107H349.948C350.031 65.9476 350.111 65.882 350.189 65.8145C350.235 65.7752 350.279 65.7342 350.324 65.6934C350.307 65.7086 350.29 65.7233 350.273 65.7383C350.329 65.6885 350.385 65.6383 350.439 65.5859C350.436 65.5894 350.432 65.5932 350.429 65.5967C350.44 65.586 350.452 65.5762 350.463 65.5654L350.464 65.5645C350.456 65.572 350.447 65.5784 350.439 65.5859C351.463 64.6014 352.271 63.1389 353.695 60.5566L355.191 57.8428C360.976 47.3533 363.868 42.1084 368.192 42.1084ZM371.071 107.062C371.257 107.158 371.445 107.249 371.632 107.342C371.163 107.109 370.698 106.87 370.24 106.618L371.071 107.062ZM357.96 96.0166C358.126 96.2345 358.294 96.4508 358.464 96.665C358.294 96.4508 358.126 96.2345 357.96 96.0166ZM350.273 65.7383C350.248 65.7607 350.224 65.7837 350.198 65.8057C350.224 65.7837 350.248 65.7607 350.273 65.7383Z" fill="url(#paint1_linear_300_485)"/>
</g>
<g filter="url(#filter2_ddi_300_485)">
<path d="M57.665 42.1084C61.9889 42.1085 64.8808 47.3534 70.665 57.8428L72.1621 60.5566C73.8055 63.5369 74.6271 65.0274 75.9082 66.0107C77.1896 66.9941 78.7859 67.3598 81.9775 68.0898L84.8838 68.7539C96.116 71.323 101.732 72.6078 103.068 76.9512C104.405 81.2947 100.576 85.8212 92.9189 94.873L90.9375 97.2148C88.7616 99.787 87.6731 101.073 87.1836 102.664C86.6941 104.255 86.8595 105.971 87.1885 109.403L87.2725 110.279C86.5459 110.455 85.8111 110.611 85.0693 110.744C84.6984 110.811 84.3256 110.872 83.9512 110.928C83.3896 111.012 82.8241 111.084 82.2549 111.144C82.0652 111.163 81.8751 111.182 81.6846 111.199C80.7318 111.285 79.7691 111.335 78.7979 111.35L78.2148 111.354C81.3335 111.354 84.3666 110.982 87.2725 110.28L87.4883 112.528C88.646 124.605 89.2244 130.644 85.7266 133.328C82.2284 136.013 76.9699 133.566 66.4531 128.671L63.7324 127.404C60.7439 126.013 59.249 125.317 57.665 125.317C56.0813 125.318 54.5869 126.013 51.5986 127.404L48.8779 128.671C38.3612 133.566 33.1026 136.013 29.6045 133.328C26.1066 130.644 26.6851 124.605 27.8428 112.528L28.1426 109.403C28.4715 105.972 28.6359 104.255 28.1465 102.664C27.657 101.073 26.5684 99.7869 24.3926 97.2148L22.4121 94.873C14.7546 85.8211 10.9255 81.2948 12.2617 76.9512C13.598 72.6078 19.2143 71.323 30.4463 68.7539L33.3525 68.0898C36.5444 67.3598 38.1404 66.9941 39.4219 66.0107H39.4209C39.5032 65.9476 39.5833 65.882 39.6621 65.8145C39.7079 65.7752 39.7521 65.7342 39.7969 65.6934C39.7802 65.7086 39.7629 65.7233 39.7461 65.7383C39.8019 65.6885 39.8576 65.6383 39.9121 65.5859C39.9085 65.5894 39.905 65.5932 39.9014 65.5967C39.9125 65.586 39.9245 65.5762 39.9355 65.5654L39.9365 65.5645C39.9288 65.572 39.9199 65.5784 39.9121 65.5859C40.9357 64.6014 41.744 63.1389 43.168 60.5566L44.6641 57.8428C50.4483 47.3533 53.3411 42.1084 57.665 42.1084ZM60.5439 107.062C60.7294 107.158 60.9173 107.249 61.1045 107.342C60.6358 107.109 60.1707 106.87 59.7129 106.618L60.5439 107.062ZM47.4326 96.0166C47.5985 96.2345 47.7663 96.4508 47.9365 96.665C47.7663 96.4508 47.5985 96.2345 47.4326 96.0166ZM39.7461 65.7383C39.7209 65.7607 39.6964 65.7837 39.6709 65.8057C39.6964 65.7837 39.7209 65.7607 39.7461 65.7383Z" fill="url(#paint2_linear_300_485)"/>
</g>
<defs>
<filter id="filter0_ddi_300_485" x="120.035" y="0" width="186.623" height="188.397" filterUnits="userSpaceOnUse" color-interpolation-filters="sRGB">
<feFlood flood-opacity="0" result="BackgroundImageFix"/>
<feColorMatrix in="SourceAlpha" type="matrix" values="0 0 0 0 0 0 0 0 0 0 0 0 0 0 0 0 0 0 127 0" result="hardAlpha"/>
<feOffset dy="4"/>
<feGaussianBlur stdDeviation="2"/>
<feComposite in2="hardAlpha" operator="out"/>
<feColorMatrix type="matrix" values="0 0 0 0 0 0 0 0 0 0 0 0 0 0 0 0 0 0 0.25 0"/>
<feBlend mode="normal" in2="BackgroundImageFix" result="effect1_dropShadow_300_485"/>
<feColorMatrix in="SourceAlpha" type="matrix" values="0 0 0 0 0 0 0 0 0 0 0 0 0 0 0 0 0 0 127 0" result="hardAlpha"/>
<feOffset/>
<feGaussianBlur stdDeviation="6"/>
<feComposite in2="hardAlpha" operator="out"/>
<feColorMatrix type="matrix" values="0 0 0 0 1 0 0 0 0 0.753008 0 0 0 0 0.297024 0 0 0 1 0"/>
<feBlend mode="normal" in2="effect1_dropShadow_300_485" result="effect2_dropShadow_300_485"/>
<feBlend mode="normal" in="SourceGraphic" in2="effect2_dropShadow_300_485" result="shape"/>
<feColorMatrix in="SourceAlpha" type="matrix" values="0 0 0 0 0 0 0 0 0 0 0 0 0 0 0 0 0 0 127 0" result="hardAlpha"/>
<feOffset/>
<feGaussianBlur stdDeviation="5.7"/>
<feComposite in2="hardAlpha" operator="arithmetic" k2="-1" k3="1"/>
<feColorMatrix type="matrix" values="0 0 0 0 1 0 0 0 0 0.752941 0 0 0 0 0.298039 0 0 0 1 0"/>
<feBlend mode="normal" in2="shape" result="effect3_innerShadow_300_485"/>
</filter>
<filter id="filter1_ddi_300_485" x="310.527" y="30.1084" width="115.33" height="116.327" filterUnits="userSpaceOnUse" color-interpolation-filters="sRGB">
<feFlood flood-opacity="0" result="BackgroundImageFix"/>
<feColorMatrix in="SourceAlpha" type="matrix" values="0 0 0 0 0 0 0 0 0 0 0 0 0 0 0 0 0 0 127 0" result="hardAlpha"/>
<feOffset dy="4"/>
<feGaussianBlur stdDeviation="2"/>
<feComposite in2="hardAlpha" operator="out"/>
<feColorMatrix type="matrix" values="0 0 0 0 0 0 0 0 0 0 0 0 0 0 0 0 0 0 0.25 0"/>
<feBlend mode="normal" in2="BackgroundImageFix" result="effect1_dropShadow_300_485"/>
<feColorMatrix in="SourceAlpha" type="matrix" values="0 0 0 0 0 0 0 0 0 0 0 0 0 0 0 0 0 0 127 0" result="hardAlpha"/>
<feOffset/>
<feGaussianBlur stdDeviation="6"/>
<feComposite in2="hardAlpha" operator="out"/>
<feColorMatrix type="matrix" values="0 0 0 0 1 0 0 0 0 0.753008 0 0 0 0 0.297024 0 0 0 1 0"/>
<feBlend mode="normal" in2="effect1_dropShadow_300_485" result="effect2_dropShadow_300_485"/>
<feBlend mode="normal" in="SourceGraphic" in2="effect2_dropShadow_300_485" result="shape"/>
<feColorMatrix in="SourceAlpha" type="matrix" values="0 0 0 0 0 0 0 0 0 0 0 0 0 0 0 0 0 0 127 0" result="hardAlpha"/>
<feOffset/>
<feGaussianBlur stdDeviation="5.7"/>
<feComposite in2="hardAlpha" operator="arithmetic" k2="-1" k3="1"/>
<feColorMatrix type="matrix" values="0 0 0 0 1 0 0 0 0 0.752941 0 0 0 0 0.298039 0 0 0 1 0"/>
<feBlend mode="normal" in2="shape" result="effect3_innerShadow_300_485"/>
</filter>
<filter id="filter2_ddi_300_485" x="0" y="30.1084" width="115.33" height="116.327" filterUnits="userSpaceOnUse" color-interpolation-filters="sRGB">
<feFlood flood-opacity="0" result="BackgroundImageFix"/>
<feColorMatrix in="SourceAlpha" type="matrix" values="0 0 0 0 0 0 0 0 0 0 0 0 0 0 0 0 0 0 127 0" result="hardAlpha"/>
<feOffset dy="4"/>
<feGaussianBlur stdDeviation="2"/>
<feComposite in2="hardAlpha" operator="out"/>
<feColorMatrix type="matrix" values="0 0 0 0 0 0 0 0 0 0 0 0 0 0 0 0 0 0 0.25 0"/>
<feBlend mode="normal" in2="BackgroundImageFix" result="effect1_dropShadow_300_485"/>
<feColorMatrix in="SourceAlpha" type="matrix" values="0 0 0 0 0 0 0 0 0 0 0 0 0 0 0 0 0 0 127 0" result="hardAlpha"/>
<feOffset/>
<feGaussianBlur stdDeviation="6"/>
<feComposite in2="hardAlpha" operator="out"/>
<feColorMatrix type="matrix" values="0 0 0 0 1 0 0 0 0 0.753008 0 0 0 0 0.297024 0 0 0 1 0"/>
<feBlend mode="normal" in2="effect1_dropShadow_300_485" result="effect2_dropShadow_300_485"/>
<feBlend mode="normal" in="SourceGraphic" in2="effect2_dropShadow_300_485" result="shape"/>
<feColorMatrix in="SourceAlpha" type="matrix" values="0 0 0 0 0 0 0 0 0 0 0 0 0 0 0 0 0 0 127 0" result="hardAlpha"/>
<feOffset/>
<feGaussianBlur stdDeviation="5.7"/>
<feComposite in2="hardAlpha" operator="arithmetic" k2="-1" k3="1"/>
<feColorMatrix type="matrix" values="0 0 0 0 1 0 0 0 0 0.752941 0 0 0 0 0.298039 0 0 0 1 0"/>
<feBlend mode="normal" in2="shape" result="effect3_innerShadow_300_485"/>
</filter>
<linearGradient id="paint0_linear_300_485" x1="277.474" y1="17.8713" x2="144.805" y2="35.1823" gradientUnits="userSpaceOnUse">
<stop stop-color="#FFB419"/>
<stop offset="1" stop-color="#FF8A14"/>
</linearGradient>
<linearGradient id="paint1_linear_300_485" x1="404.207" y1="45.4058" x2="329.699" y2="55.1279" gradientUnits="userSpaceOnUse">
<stop stop-color="#FFB419"/>
<stop offset="1" stop-color="#FF8A14"/>
</linearGradient>
<linearGradient id="paint2_linear_300_485" x1="93.6801" y1="45.4058" x2="19.1716" y2="55.1279" gradientUnits="userSpaceOnUse">
<stop stop-color="#FFB419"/>
<stop offset="1" stop-color="#FF8A14"/>
</linearGradient>
</defs>
</svg>
