<svg width="69" height="69" viewBox="0 0 69 69" fill="none" xmlns="http://www.w3.org/2000/svg">
<path d="M34.222 68.4441C53.1223 68.4441 68.4441 53.1223 68.4441 34.222C68.4441 15.3217 53.1223 0 34.222 0C15.3217 0 0 15.3217 0 34.222C0 53.1223 15.3217 68.4441 34.222 68.4441Z" fill="url(#paint0_linear_300_487)"/>
<path d="M34.2457 64.7185C51.046 64.7185 64.6653 51.0992 64.6653 34.299C64.6653 17.4987 51.046 3.87939 34.2457 3.87939C17.4455 3.87939 3.82617 17.4987 3.82617 34.299C3.82617 51.0992 17.4455 64.7185 34.2457 64.7185Z" fill="url(#paint1_linear_300_487)"/>
<g filter="url(#filter0_d_300_487)">
<path d="M32.4088 22.5395C35.4755 22.5395 37.8088 23.1795 39.4088 24.4595C41.0088 25.7128 41.8088 27.4061 41.8088 29.5395C41.8088 30.8195 41.4621 31.9128 40.7688 32.8195C40.1021 33.6995 39.3021 34.3661 38.3688 34.8195C38.9288 35.0328 39.4488 35.2995 39.9288 35.6195C40.4088 35.9395 40.8355 36.3395 41.2088 36.8195C41.5821 37.2995 41.8755 37.8595 42.0888 38.4995C42.3021 39.1395 42.4088 39.8861 42.4088 40.7395C42.4088 41.8861 42.1555 42.9128 41.6488 43.8195C41.1688 44.7261 40.4888 45.4995 39.6088 46.1395C38.7288 46.7795 37.6755 47.2595 36.4488 47.5795C35.2488 47.9261 33.9288 48.0995 32.4888 48.0995C29.7155 48.0995 27.6221 47.7128 26.2088 46.9395C24.7955 46.1661 24.0888 45.1795 24.0888 43.9795C24.0888 43.2595 24.2621 42.6461 24.6088 42.1395C24.9555 41.6061 25.3821 41.1928 25.8888 40.8995C26.4221 41.2728 27.1288 41.6728 28.0088 42.0995C28.9155 42.4995 30.0888 42.6995 31.5288 42.6995C32.8888 42.6995 33.8888 42.4595 34.5288 41.9795C35.1955 41.4995 35.5288 40.8728 35.5288 40.0995C35.5288 39.3261 35.2621 38.7395 34.7288 38.3395C34.2221 37.9395 33.3288 37.7395 32.0488 37.7395H28.2888C28.1021 37.4461 27.9421 37.0861 27.8088 36.6595C27.6755 36.2328 27.6088 35.7261 27.6088 35.1395C27.6088 34.5261 27.6621 34.0061 27.7688 33.5795C27.9021 33.1261 28.0755 32.7528 28.2888 32.4595H32.0488C33.9688 32.4595 34.9288 31.7261 34.9288 30.2595C34.9288 29.5661 34.6221 29.0061 34.0088 28.5795C33.3955 28.1528 32.4755 27.9395 31.2488 27.9395C30.1555 27.9395 29.1955 28.0728 28.3688 28.3395C27.5421 28.5795 26.8621 28.8861 26.3288 29.2595C25.8755 28.9395 25.5021 28.5528 25.2088 28.0995C24.9155 27.6195 24.7688 27.0595 24.7688 26.4195C24.7688 25.0861 25.4621 24.1128 26.8488 23.4995C28.2355 22.8595 30.0888 22.5395 32.4088 22.5395Z" fill="white"/>
</g>
<defs>
<filter id="filter0_d_300_487" x="17.0879" y="15.5396" width="32.3203" height="39.5601" filterUnits="userSpaceOnUse" color-interpolation-filters="sRGB">
<feFlood flood-opacity="0" result="BackgroundImageFix"/>
<feColorMatrix in="SourceAlpha" type="matrix" values="0 0 0 0 0 0 0 0 0 0 0 0 0 0 0 0 0 0 127 0" result="hardAlpha"/>
<feOffset/>
<feGaussianBlur stdDeviation="3.5"/>
<feComposite in2="hardAlpha" operator="out"/>
<feColorMatrix type="matrix" values="0 0 0 0 1 0 0 0 0 0.826135 0 0 0 0 0.640278 0 0 0 0.7 0"/>
<feBlend mode="normal" in2="BackgroundImageFix" result="effect1_dropShadow_300_487"/>
<feBlend mode="normal" in="SourceGraphic" in2="effect1_dropShadow_300_487" result="shape"/>
</filter>
<linearGradient id="paint0_linear_300_487" x1="13.7754" y1="62.6104" x2="40.2754" y2="-0.389647" gradientUnits="userSpaceOnUse">
<stop stop-color="#FF543D"/>
<stop offset="1" stop-color="#FACD64"/>
</linearGradient>
<linearGradient id="paint1_linear_300_487" x1="9.77539" y1="17.6104" x2="54.7754" y2="59.1104" gradientUnits="userSpaceOnUse">
<stop stop-color="#FF543D"/>
<stop offset="1" stop-color="#FACD64"/>
</linearGradient>
</defs>
</svg>
