<svg width="51" height="51" viewBox="0 0 51 51" fill="none" xmlns="http://www.w3.org/2000/svg">
<g filter="url(#filter0_i_302_880)">
<path d="M29.212 2.80904C30.7078 1.31324 32.6738 -0.558492 34.6642 0.157668C35.3583 0.407522 36.0444 0.687929 36.7198 0.997512C38.8654 1.98102 39.0498 4.96434 39.4825 7.28462C39.6619 8.24639 40.1242 9.16557 40.8683 9.90962C41.6123 10.6537 42.5315 11.116 43.4933 11.2954C45.8136 11.7281 48.7969 11.9124 49.7804 14.0581C49.9971 14.531 50.1993 15.0093 50.3868 15.4917C51.122 17.384 49.4044 19.3168 47.9688 20.7524C46.0081 22.7132 46.0081 25.8921 47.9688 27.853C49.5185 29.4026 51.5329 31.3866 50.8448 33.4672C50.5415 34.3842 50.1864 35.2884 49.7804 36.1743C48.7968 38.3196 45.8135 38.5043 43.4933 38.937C42.5316 39.1163 41.6123 39.5778 40.8683 40.3217C40.1242 41.0658 39.6619 41.9859 39.4825 42.9477C39.0499 45.268 38.8654 48.2514 36.7198 49.2348C36.0444 49.5444 35.3583 49.8238 34.6642 50.0737C32.6738 50.79 30.7078 48.9191 29.212 47.4233C27.2512 45.4625 24.0723 45.4625 22.1114 47.4233C20.6156 48.9191 18.6497 50.7901 16.6593 50.0737C15.9651 49.8238 15.2791 49.5444 14.6036 49.2348C12.4581 48.2514 12.2736 45.268 11.8409 42.9477C11.6616 41.9859 11.2002 41.0658 10.4562 40.3217C9.71205 39.5776 8.792 39.1163 7.83018 38.937C5.50996 38.5043 2.52662 38.3197 1.54307 36.1743C1.13702 35.2883 0.78191 34.3842 0.478613 33.4672C-0.209397 31.3866 1.80497 29.4026 3.35459 27.853C5.31538 25.8921 5.31542 22.7132 3.35459 20.7524C1.91905 19.3168 0.201493 17.3839 0.936621 15.4917C1.12409 15.0093 1.32632 14.531 1.54307 14.0581C2.52647 11.9124 5.50987 11.728 7.83018 11.2954C8.79201 11.116 9.71205 10.6537 10.4562 9.90962C11.2 9.16564 11.6616 8.24623 11.8409 7.28462C12.2736 4.96441 12.4582 1.9811 14.6036 0.997512C15.2791 0.687929 15.9651 0.407521 16.6593 0.157668C18.6497 -0.55867 20.6156 1.31319 22.1114 2.80904C24.0722 4.76982 27.2512 4.76975 29.212 2.80904ZM25.8897 11.8784C18.814 11.8784 13.0772 17.6142 13.0772 24.6899C13.0774 31.7655 18.8141 37.5014 25.8897 37.5014C32.9652 37.5012 38.7012 31.7654 38.7013 24.6899C38.7013 17.6143 32.9653 11.8785 25.8897 11.8784Z" fill="#F4E7D6"/>
</g>
<defs>
<filter id="filter0_i_302_880" x="0.339844" y="0" width="50.6445" height="50.2314" filterUnits="userSpaceOnUse" color-interpolation-filters="sRGB">
<feFlood flood-opacity="0" result="BackgroundImageFix"/>
<feBlend mode="normal" in="SourceGraphic" in2="BackgroundImageFix" result="shape"/>
<feColorMatrix in="SourceAlpha" type="matrix" values="0 0 0 0 0 0 0 0 0 0 0 0 0 0 0 0 0 0 127 0" result="hardAlpha"/>
<feOffset/>
<feGaussianBlur stdDeviation="5.7"/>
<feComposite in2="hardAlpha" operator="arithmetic" k2="-1" k3="1"/>
<feColorMatrix type="matrix" values="0 0 0 0 1 0 0 0 0 0.719901 0 0 0 0 0.557738 0 0 0 1 0"/>
<feBlend mode="normal" in2="shape" result="effect1_innerShadow_302_880"/>
</filter>
</defs>
</svg>
