<svg width="54" height="52" viewBox="0 0 54 52" fill="none" xmlns="http://www.w3.org/2000/svg">
<g filter="url(#filter0_i_302_852)">
<path d="M49.6665 21.833C52.0048 21.833 53.9005 19.9373 53.9005 17.599C53.9005 15.2606 52.0048 13.3649 49.6665 13.3649C47.3281 13.3649 45.4324 15.2606 45.4324 17.599C45.4324 18.6565 45.8202 19.6235 46.4612 20.3655C47.2275 21.2525 48.3558 21.8181 49.6165 21.8327L49.6665 21.833Z" fill="#F4E7D6"/>
<path d="M27.085 0.181641C23.9672 0.181641 21.4396 6.0778 21.4396 9.19564C21.4396 11.3911 22.6929 13.2938 24.5229 14.2275C25.2919 14.6198 26.1626 14.841 27.085 14.841C28.0074 14.841 28.8782 14.6198 29.6471 14.2275C31.4771 13.2938 32.7304 11.3911 32.7304 9.19564C32.7304 6.0778 30.2029 0.181641 27.085 0.181641Z" fill="#F4E7D6"/>
<path d="M0.269531 17.599C0.269531 19.9373 2.16517 21.833 4.50355 21.833L4.55355 21.8327C5.81424 21.8181 6.9425 21.2525 7.70879 20.3655C8.34985 19.6235 8.73757 18.6565 8.73757 17.599C8.73757 15.2606 6.84194 13.3649 4.50355 13.3649C2.16517 13.3649 0.269531 15.2606 0.269531 17.599Z" fill="#F4E7D6"/>
<path d="M29.4365 11.3398C29.8827 12.0538 30.3775 12.9409 30.9688 14.001L36.0195 23.0576C36.9778 24.7757 37.4572 25.6347 38.1758 25.9512C38.5739 26.1265 39.0132 26.1884 39.4443 26.1289C40.2225 26.0213 40.9204 25.3261 42.3154 23.9365C44.1266 22.1324 45.3307 20.9333 46.251 20.3652C47.0173 21.2522 48.1456 21.8174 49.4062 21.832C49.5494 22.9001 49.367 24.5958 49.0908 27.1631L48.5732 31.9746C48.4859 32.7868 48.4026 33.5873 48.3213 34.3721C47.6091 41.2474 47.0198 46.9346 44.623 49.0801C41.9525 51.4704 37.9502 51.4707 29.9453 51.4707H23.8037C15.7988 51.4707 11.7965 51.4704 9.12598 49.0801C6.72909 46.9346 6.13989 41.2475 5.42773 34.3721C5.34645 33.5873 5.26314 32.7868 5.17578 31.9746L4.6582 27.1631C4.38206 24.5958 4.19967 22.9001 4.34277 21.832C5.60344 21.8174 6.73176 21.2522 7.49805 20.3652C8.41834 20.9333 9.62144 22.1324 11.4326 23.9365C12.8276 25.3261 13.5256 26.0211 14.3037 26.1289C14.7349 26.1885 15.175 26.1265 15.5732 25.9512C16.2917 25.6346 16.7713 24.7756 17.7295 23.0576L22.7803 14.001C23.3715 12.9409 23.8663 12.0538 24.3125 11.3398C25.0813 11.732 25.9518 11.9531 26.874 11.9531C27.7964 11.9531 28.6676 11.7321 29.4365 11.3398Z" fill="#F4E7D6"/>
</g>
<defs>
<filter id="filter0_i_302_852" x="0.269531" y="0.181641" width="53.6309" height="51.2891" filterUnits="userSpaceOnUse" color-interpolation-filters="sRGB">
<feFlood flood-opacity="0" result="BackgroundImageFix"/>
<feBlend mode="normal" in="SourceGraphic" in2="BackgroundImageFix" result="shape"/>
<feColorMatrix in="SourceAlpha" type="matrix" values="0 0 0 0 0 0 0 0 0 0 0 0 0 0 0 0 0 0 127 0" result="hardAlpha"/>
<feOffset/>
<feGaussianBlur stdDeviation="5.7"/>
<feComposite in2="hardAlpha" operator="arithmetic" k2="-1" k3="1"/>
<feColorMatrix type="matrix" values="0 0 0 0 1 0 0 0 0 0.719901 0 0 0 0 0.557738 0 0 0 1 0"/>
<feBlend mode="normal" in2="shape" result="effect1_innerShadow_302_852"/>
</filter>
</defs>
</svg>
