<svg width="64" height="53" viewBox="0 0 64 53" fill="none" xmlns="http://www.w3.org/2000/svg">
<g filter="url(#filter0_i_302_865)">
<path d="M26.2861 0.751937C28.9336 -1.13874 32.6103 0.753486 32.6104 4.00682V48.2529C32.6103 51.5063 28.9336 53.3985 26.2861 51.5078L13.2373 42.1875C12.5589 41.7029 11.7458 41.4424 10.9121 41.4424H4.52734C2.31821 41.4424 0.527359 39.6515 0.527344 37.4424V14.8174C0.527364 12.6082 2.31822 10.8174 4.52734 10.8174H10.9121C11.7458 10.8174 12.5589 10.5568 13.2373 10.0722L26.2861 0.751937ZM51.6846 3.50194C52.5033 2.76057 53.7683 2.82302 54.5098 3.64159C58.0282 7.5271 62.2018 14.4433 63.4248 22.7392C64.6617 31.1301 62.8603 40.8556 54.5098 50.0771C53.7684 50.8955 52.5032 50.9579 51.6846 50.2168C50.866 49.4754 50.8036 48.2103 51.5449 47.3916C59.041 39.1136 60.5417 30.6092 59.4678 23.3232C58.3798 15.9427 54.6293 9.73336 51.5449 6.32713C50.8036 5.50847 50.8661 4.2434 51.6846 3.50194ZM45.9219 9.27342C46.7746 8.57147 48.0352 8.69336 48.7373 9.54588C51.1425 12.4676 53.9618 17.6206 54.7881 23.7861C55.6241 30.0243 54.4102 37.2808 48.7373 44.1719C48.0353 45.0245 46.7746 45.1463 45.9219 44.4443C45.0695 43.7423 44.9476 42.4825 45.6494 41.6299C50.5412 35.6876 51.5279 29.5757 50.8232 24.3174C50.1088 18.9866 47.6461 14.5144 45.6494 12.0889C44.9475 11.2362 45.0694 9.9755 45.9219 9.27342ZM39.9473 16.6953C40.7283 15.9142 41.9943 15.9142 42.7754 16.6953C44.46 18.38 46.4616 21.3693 47.0537 25.0068C47.6659 28.7685 46.7361 33.0627 42.7754 37.0234C41.9944 37.8041 40.7282 37.8041 39.9473 37.0234C39.1663 36.2425 39.1665 34.9764 39.9473 34.1953C42.9861 31.1564 43.5147 28.1584 43.1064 25.6494C42.6778 23.0165 41.1792 20.7555 39.9473 19.5234C39.1663 18.7425 39.1665 17.4764 39.9473 16.6953Z" fill="#F4E7D6"/>
</g>
<defs>
<filter id="filter0_i_302_865" x="0.527344" y="0" width="63.25" height="52.2598" filterUnits="userSpaceOnUse" color-interpolation-filters="sRGB">
<feFlood flood-opacity="0" result="BackgroundImageFix"/>
<feBlend mode="normal" in="SourceGraphic" in2="BackgroundImageFix" result="shape"/>
<feColorMatrix in="SourceAlpha" type="matrix" values="0 0 0 0 0 0 0 0 0 0 0 0 0 0 0 0 0 0 127 0" result="hardAlpha"/>
<feOffset/>
<feGaussianBlur stdDeviation="5.7"/>
<feComposite in2="hardAlpha" operator="arithmetic" k2="-1" k3="1"/>
<feColorMatrix type="matrix" values="0 0 0 0 1 0 0 0 0 0.719901 0 0 0 0 0.557738 0 0 0 1 0"/>
<feBlend mode="normal" in2="shape" result="effect1_innerShadow_302_865"/>
</filter>
</defs>
</svg>
