<svg width="56" height="52" viewBox="0 0 56 52" fill="none" xmlns="http://www.w3.org/2000/svg">
<g filter="url(#filter0_i_302_844)">
<path fill-rule="evenodd" clip-rule="evenodd" d="M19.7148 5.08549C19.7148 2.37717 20.5255 0.181641 21.5255 0.181641H33.5965C34.5965 0.181641 35.4072 2.37717 35.4072 5.08549C35.4072 7.79381 34.5965 9.98933 33.5965 9.98933H21.5255C20.5255 9.98933 19.7148 7.79381 19.7148 5.08549Z" fill="#F4E7D6"/>
<path d="M33.8281 9.83057C42.432 9.83057 46.7339 9.83068 49.8242 11.8218C51.162 12.6838 52.3112 13.7915 53.2051 15.0815C55.2698 18.0615 55.2705 22.2097 55.2705 30.5063C55.2705 38.8029 55.2699 42.9512 53.2051 45.9312C52.3112 47.2211 51.1629 48.329 49.8252 49.1909C46.7349 51.1821 42.4327 51.1821 33.8291 51.1821H21.5762C12.9723 51.1821 8.67038 51.1821 5.58008 49.1909C4.24225 48.3289 3.09313 47.2212 2.19922 45.9312C0.134528 42.9512 0.134766 38.8027 0.134766 30.5063V30.5005C0.134766 22.2074 0.134819 18.0609 2.19922 15.0815C3.09313 13.7915 4.24225 12.6838 5.58008 11.8218C8.67038 9.83081 12.9725 9.83057 21.5762 9.83057H33.8281ZM27.7012 19.4302C21.3575 19.4303 16.215 24.3892 16.2148 30.5063C16.2148 36.6237 21.3574 41.5834 27.7012 41.5835C34.045 41.5835 39.1875 36.6237 39.1875 30.5063C39.1873 24.3891 34.0449 19.4302 27.7012 19.4302ZM27.7012 23.8608C31.5074 23.8608 34.5936 26.8361 34.5938 30.5063C34.5938 34.1768 31.5075 37.1528 27.7012 37.1528C23.895 37.1527 20.8096 34.1767 20.8096 30.5063C20.8097 26.8361 23.8951 23.861 27.7012 23.8608ZM43.1699 19.4302C41.9013 19.4302 40.8733 20.4218 40.873 21.645C40.873 22.7919 41.7764 23.7355 42.9346 23.8491L43.1699 23.8608H48.1475C49.4162 23.8608 50.4443 22.8685 50.4443 21.645C50.4441 20.4218 49.4161 19.4302 48.1475 19.4302H43.1699Z" fill="#F4E7D6"/>
</g>
<defs>
<filter id="filter0_i_302_844" x="0.134766" y="0.181641" width="55.1348" height="51.0005" filterUnits="userSpaceOnUse" color-interpolation-filters="sRGB">
<feFlood flood-opacity="0" result="BackgroundImageFix"/>
<feBlend mode="normal" in="SourceGraphic" in2="BackgroundImageFix" result="shape"/>
<feColorMatrix in="SourceAlpha" type="matrix" values="0 0 0 0 0 0 0 0 0 0 0 0 0 0 0 0 0 0 127 0" result="hardAlpha"/>
<feOffset/>
<feGaussianBlur stdDeviation="5.7"/>
<feComposite in2="hardAlpha" operator="arithmetic" k2="-1" k3="1"/>
<feColorMatrix type="matrix" values="0 0 0 0 1 0 0 0 0 0.719901 0 0 0 0 0.557738 0 0 0 1 0"/>
<feBlend mode="normal" in2="shape" result="effect1_innerShadow_302_844"/>
</filter>
</defs>
</svg>
