<svg width="60" height="55" viewBox="0 0 60 55" fill="none" xmlns="http://www.w3.org/2000/svg">
<g filter="url(#filter0_i_302_857)">
<path d="M58.5872 42.7356L58.3149 46.1153C57.9523 50.6159 54.1942 54.0834 49.679 54.0834C44.6657 54.0834 40.6989 49.8413 41.0347 44.8393L41.2618 41.4562C41.568 36.8949 45.3572 33.3516 49.9288 33.3516C55.0012 33.3516 58.9945 37.6795 58.5872 42.7356Z" fill="#F4E7D6"/>
<path d="M40.103 10.0547L39.0228 44.8088C38.8621 49.9769 34.6262 54.0832 29.4557 54.0832C24.0918 54.0832 19.7749 49.676 19.886 44.3132L20.6064 9.54969C20.7163 4.24384 25.049 0 30.356 0C35.8604 0 40.274 4.55289 40.103 10.0547Z" fill="#F4E7D6"/>
<path d="M16.9769 27.7073V46.7602C16.9769 50.8046 13.6983 54.0832 9.65389 54.0832C5.77469 54.0832 2.56852 51.0582 2.34324 47.1855L1.23676 28.1647C0.97369 23.6423 4.57017 19.8306 9.10019 19.8306C13.4504 19.8306 16.9769 23.3571 16.9769 27.7073Z" fill="#F4E7D6"/>
</g>
<defs>
<filter id="filter0_i_302_857" x="1.22266" y="0" width="57.3926" height="54.0835" filterUnits="userSpaceOnUse" color-interpolation-filters="sRGB">
<feFlood flood-opacity="0" result="BackgroundImageFix"/>
<feBlend mode="normal" in="SourceGraphic" in2="BackgroundImageFix" result="shape"/>
<feColorMatrix in="SourceAlpha" type="matrix" values="0 0 0 0 0 0 0 0 0 0 0 0 0 0 0 0 0 0 127 0" result="hardAlpha"/>
<feOffset/>
<feGaussianBlur stdDeviation="5.7"/>
<feComposite in2="hardAlpha" operator="arithmetic" k2="-1" k3="1"/>
<feColorMatrix type="matrix" values="0 0 0 0 1 0 0 0 0 0.719901 0 0 0 0 0.557738 0 0 0 1 0"/>
<feBlend mode="normal" in2="shape" result="effect1_innerShadow_302_857"/>
</filter>
</defs>
</svg>
