<svg width="48" height="44" viewBox="0 0 48 44" fill="none" xmlns="http://www.w3.org/2000/svg">
<g filter="url(#filter0_i_302_939)">
<path d="M2.18555 0.583157C2.56237 0.179735 3.19498 0.157711 3.59863 0.534329L12.2822 8.63882V8.36538C12.2822 6.70922 12.2815 5.88074 12.7715 5.31656C13.2615 4.75237 14.0818 4.63637 15.7217 4.40445L33.3564 1.91031C35.4785 1.6102 36.54 1.46073 37.2285 2.05874C37.9167 2.65681 37.917 3.7285 37.917 5.87124V32.5636L47.3486 41.3673C47.7524 41.7442 47.7742 42.3776 47.3975 42.7814C47.0206 43.1852 46.3871 43.2071 45.9834 42.8302L37.9072 35.2921C37.7215 39.0821 34.532 42.0988 30.624 42.0988C26.5967 42.0987 23.332 38.8948 23.332 34.9425C23.3321 31.2293 26.2138 28.1772 29.9023 27.8214L15.5908 14.463C15.3826 14.5653 15.2135 14.6905 15.0723 14.8537C14.5847 15.4172 14.585 16.2423 14.585 17.8927V34.9425C14.585 38.8949 11.3194 42.0988 7.29199 42.0988C3.26471 42.0986 0 38.8948 0 34.9425C4.1822e-05 30.9903 3.26473 27.7865 7.29199 27.7863C9.39048 27.7863 10.4404 27.7858 10.5967 27.7609C11.9089 27.5519 12.0478 27.4132 12.2568 26.1007C12.2817 25.9445 12.2822 25.3781 12.2822 24.2453V11.3751L2.23438 1.99722C1.83062 1.62039 1.80871 0.986907 2.18555 0.583157ZM34.9229 12.1779C34.2315 11.5797 33.1671 11.7342 31.0391 12.0431L18.0098 13.9347C17.9941 13.937 17.9784 13.9393 17.9629 13.9416L32.7939 27.7834C33.4717 27.7807 33.841 27.7749 33.9287 27.7609C35.2409 27.5519 35.3799 27.4132 35.5889 26.1007C35.6138 25.9445 35.6133 25.378 35.6133 24.2453V16.0011C35.6133 13.8513 35.6138 12.7761 34.9229 12.1779Z" fill="#F4E7D6"/>
</g>
<defs>
<filter id="filter0_i_302_939" x="0" y="0.265625" width="47.666" height="42.834" filterUnits="userSpaceOnUse" color-interpolation-filters="sRGB">
<feFlood flood-opacity="0" result="BackgroundImageFix"/>
<feBlend mode="normal" in="SourceGraphic" in2="BackgroundImageFix" result="shape"/>
<feColorMatrix in="SourceAlpha" type="matrix" values="0 0 0 0 0 0 0 0 0 0 0 0 0 0 0 0 0 0 127 0" result="hardAlpha"/>
<feOffset/>
<feGaussianBlur stdDeviation="5.7"/>
<feComposite in2="hardAlpha" operator="arithmetic" k2="-1" k3="1"/>
<feColorMatrix type="matrix" values="0 0 0 0 1 0 0 0 0 0.719901 0 0 0 0 0.557738 0 0 0 1 0"/>
<feBlend mode="normal" in2="shape" result="effect1_innerShadow_302_939"/>
</filter>
</defs>
</svg>
