<svg width="52" height="54" viewBox="0 0 52 54" fill="none" xmlns="http://www.w3.org/2000/svg">
<g filter="url(#filter0_i_302_964)">
<path d="M26 0.268499C29.3122 0.166915 31.9971 2.7712 31.9971 6.0849V21.2685H46C49.3136 21.2685 51.9998 23.955 52 27.2685C52 30.5822 49.3137 33.2685 46 33.2685H31.9971V47.6367C31.997 50.9503 29.3121 53.7187 26 53.8203C22.688 53.9218 20.0032 51.3183 20.0029 48.0048V33.2685H6C2.68629 33.2685 0 30.5822 0 27.2685C0.000204091 23.955 2.68642 21.2685 6 21.2685H20.0029V6.45307C20.0029 3.13937 22.6879 0.370094 26 0.268499Z" fill="#F4E7D6"/>
</g>
<defs>
<filter id="filter0_i_302_964" x="0" y="0.265625" width="52" height="53.5576" filterUnits="userSpaceOnUse" color-interpolation-filters="sRGB">
<feFlood flood-opacity="0" result="BackgroundImageFix"/>
<feBlend mode="normal" in="SourceGraphic" in2="BackgroundImageFix" result="shape"/>
<feColorMatrix in="SourceAlpha" type="matrix" values="0 0 0 0 0 0 0 0 0 0 0 0 0 0 0 0 0 0 127 0" result="hardAlpha"/>
<feOffset/>
<feGaussianBlur stdDeviation="5.7"/>
<feComposite in2="hardAlpha" operator="arithmetic" k2="-1" k3="1"/>
<feColorMatrix type="matrix" values="0 0 0 0 1 0 0 0 0 0.719901 0 0 0 0 0.557738 0 0 0 1 0"/>
<feBlend mode="normal" in2="shape" result="effect1_innerShadow_302_964"/>
</filter>
</defs>
</svg>
