<svg width="51" height="53" viewBox="0 0 51 53" fill="none" xmlns="http://www.w3.org/2000/svg">
<g filter="url(#filter0_i_302_900)">
<path d="M2.01758 30.7954C1.42666 16.7138 15.717 4.55603 29.5166 7.42139C41.0824 9.82302 48.5873 19.8441 47.665 31.6206C46.7579 43.203 38.2123 51.761 26.6289 52.6567C13.8118 53.6478 2.5566 43.6395 2.01758 30.7954ZM26.0195 17.2212C25.1911 17.2212 24.5195 17.8928 24.5195 18.7212V30.1938C24.5194 30.37 24.4267 30.5334 24.2754 30.6235L15.9717 35.5591C15.2596 35.9824 15.0259 36.9026 15.4492 37.6147C15.8726 38.3267 16.7929 38.5614 17.5049 38.1382L25.8076 33.2026C26.8687 32.5719 27.5194 31.4283 27.5195 30.1938V18.7212C27.5195 17.8928 26.8479 17.2213 26.0195 17.2212Z" fill="#F4E7D6"/>
<path fill-rule="evenodd" clip-rule="evenodd" d="M15.0169 1.96994C15.6081 3.1069 15.3205 4.60464 14.3745 5.31524L3.60131 13.4074C2.65528 14.118 1.40907 13.7724 0.817804 12.6354C0.226542 11.4985 -0.485866 9.00072 0.460159 8.29012L11.2334 0.197939C12.1794 -0.512657 14.4256 0.832979 15.0169 1.96994Z" fill="#F4E7D6"/>
<path fill-rule="evenodd" clip-rule="evenodd" d="M35.8305 1.96994C36.4218 0.832976 38.668 -0.512657 39.614 0.197943L50.3872 8.29012C51.3332 9.00072 50.6208 11.4985 50.0295 12.6354C49.4383 13.7724 48.1921 14.118 47.246 13.4074L36.4729 5.31524C35.5269 4.60464 35.2393 3.10689 35.8305 1.96994Z" fill="#F4E7D6"/>
</g>
<defs>
<filter id="filter0_i_302_900" x="0" y="0" width="50.8477" height="52.7246" filterUnits="userSpaceOnUse" color-interpolation-filters="sRGB">
<feFlood flood-opacity="0" result="BackgroundImageFix"/>
<feBlend mode="normal" in="SourceGraphic" in2="BackgroundImageFix" result="shape"/>
<feColorMatrix in="SourceAlpha" type="matrix" values="0 0 0 0 0 0 0 0 0 0 0 0 0 0 0 0 0 0 127 0" result="hardAlpha"/>
<feOffset/>
<feGaussianBlur stdDeviation="5.7"/>
<feComposite in2="hardAlpha" operator="arithmetic" k2="-1" k3="1"/>
<feColorMatrix type="matrix" values="0 0 0 0 1 0 0 0 0 0.719901 0 0 0 0 0.557738 0 0 0 1 0"/>
<feBlend mode="normal" in2="shape" result="effect1_innerShadow_302_900"/>
</filter>
</defs>
</svg>
