<svg width="52" height="64" viewBox="0 0 52 64" fill="none" xmlns="http://www.w3.org/2000/svg">
<g filter="url(#filter0_i_302_953)">
<path d="M48.8212 56.3179C42.3303 60.7007 34.47 63.2656 26.0002 63.2656C17.5302 63.2656 9.66969 60.7006 3.17876 56.3176C0.311952 54.3818 -0.913169 50.6944 0.753658 47.6937C4.20902 41.4733 11.329 37.599 25.9999 37.599C40.6712 37.599 47.7911 41.4735 51.2464 47.694C52.9132 50.6947 51.688 54.3821 48.8212 56.3179Z" fill="#F4E7D6"/>
<path d="M26.0003 28.2656C33.8662 28.2656 40.2428 21.9976 40.2428 14.2656C40.2428 6.53364 33.8662 0.265625 26.0003 0.265625C18.1343 0.265625 11.7577 6.53364 11.7577 14.2656C11.7577 21.9976 18.1343 28.2656 26.0003 28.2656Z" fill="#F4E7D6"/>
</g>
<defs>
<filter id="filter0_i_302_953" x="0" y="0.265625" width="52" height="63" filterUnits="userSpaceOnUse" color-interpolation-filters="sRGB">
<feFlood flood-opacity="0" result="BackgroundImageFix"/>
<feBlend mode="normal" in="SourceGraphic" in2="BackgroundImageFix" result="shape"/>
<feColorMatrix in="SourceAlpha" type="matrix" values="0 0 0 0 0 0 0 0 0 0 0 0 0 0 0 0 0 0 127 0" result="hardAlpha"/>
<feOffset/>
<feGaussianBlur stdDeviation="5.7"/>
<feComposite in2="hardAlpha" operator="arithmetic" k2="-1" k3="1"/>
<feColorMatrix type="matrix" values="0 0 0 0 1 0 0 0 0 0.719901 0 0 0 0 0.557738 0 0 0 1 0"/>
<feBlend mode="normal" in2="shape" result="effect1_innerShadow_302_953"/>
</filter>
</defs>
</svg>
