<svg width="48" height="50" viewBox="0 0 48 50" fill="none" xmlns="http://www.w3.org/2000/svg">
<g filter="url(#filter0_i_302_928)">
<path d="M24.2405 0.812946C19.7936 0.812946 15.5937 2.0482 11.6409 4.27165C0.276614 11.1891 -3.42914 26.2591 3.48827 37.6235C4.72352 39.8469 7.68813 40.5881 9.91158 39.1058C12.135 37.8705 12.8762 34.9059 11.3939 32.6825C9.41748 29.2238 8.67633 25.2709 9.66453 21.3181C10.6527 17.3653 12.8762 14.1537 16.3349 12.1773C19.7936 10.2009 23.7464 9.45971 27.6992 10.4479C31.652 11.4361 34.8637 13.6596 36.8401 17.1183C38.0753 19.3417 41.0399 20.0829 43.2634 18.6006C45.4869 17.3653 46.228 14.4007 44.7457 12.1773C41.287 6.74215 36.0989 2.78935 29.6756 1.30704C28.1933 1.05999 26.2169 0.812946 24.2405 0.812946Z" fill="#F4E7D6"/>
<path d="M14.1093 3.53172C13.3682 3.53172 12.38 3.77877 11.6388 4.27287C6.20371 7.73158 2.2509 12.9196 0.768599 19.343C-0.713704 25.7663 0.274498 32.1896 3.7332 37.6247C10.6506 48.989 25.7207 52.6948 37.085 45.7774C39.3085 44.5421 40.0496 41.5775 38.5673 39.354C37.3321 37.1306 34.3675 36.3894 32.144 37.8717C28.6853 39.8481 24.7325 40.5893 20.7797 39.6011C16.8269 38.6129 13.6152 36.3894 11.6388 32.9307C7.43896 26.0133 9.66242 16.6254 16.5798 12.4255C18.8033 11.1903 19.5444 8.22568 18.0621 6.00222C17.321 4.51992 15.5916 3.53172 14.1093 3.53172Z" fill="#F4E7D6"/>
<path d="M39.8032 4.51965L42.5208 17.1192C42.7678 18.3545 44.0031 19.3427 45.4854 18.8486C46.7206 18.6015 47.7088 17.3663 47.2147 15.884L44.4972 3.2844C44.2501 2.04914 43.0149 1.06094 41.5325 1.55504C40.2973 1.80209 39.5561 3.03735 39.8032 4.51965Z" fill="#F4E7D6"/>
<path d="M44.4979 13.9078L31.8984 16.6253C30.6631 16.8724 29.6749 18.1076 30.169 19.5899C30.4161 20.8252 31.6513 21.8134 33.1336 21.3193L45.7332 18.6017C46.9684 18.3547 47.9566 17.1194 47.4625 15.6371C47.2155 14.4019 45.9802 13.6607 44.4979 13.9078Z" fill="#F4E7D6"/>
</g>
<defs>
<filter id="filter0_i_302_928" x="0" y="0.8125" width="47.5918" height="48.4531" filterUnits="userSpaceOnUse" color-interpolation-filters="sRGB">
<feFlood flood-opacity="0" result="BackgroundImageFix"/>
<feBlend mode="normal" in="SourceGraphic" in2="BackgroundImageFix" result="shape"/>
<feColorMatrix in="SourceAlpha" type="matrix" values="0 0 0 0 0 0 0 0 0 0 0 0 0 0 0 0 0 0 127 0" result="hardAlpha"/>
<feOffset/>
<feGaussianBlur stdDeviation="5.7"/>
<feComposite in2="hardAlpha" operator="arithmetic" k2="-1" k3="1"/>
<feColorMatrix type="matrix" values="0 0 0 0 1 0 0 0 0 0.719901 0 0 0 0 0.557738 0 0 0 1 0"/>
<feBlend mode="normal" in2="shape" result="effect1_innerShadow_302_928"/>
</filter>
</defs>
</svg>
