<svg width="46" height="50" viewBox="0 0 46 50" fill="none" xmlns="http://www.w3.org/2000/svg">
<g filter="url(#filter0_i_302_861)">
<path d="M31.2383 3.23324C32.6044 -0.869597 38.696 -1.83303 37.6992 4.90999C36.8144 10.8946 32.2215 14.5594 28.8682 15.6991H41.0635V15.7469H43.3066C45.9355 15.7471 47.1415 21.406 43.3066 22.2489C43.2565 22.2599 43.2029 22.2685 43.1475 22.2752C42.5771 22.3443 42.0637 22.7603 42.0635 23.3348C42.0635 23.9078 42.5734 24.3249 43.1426 24.3905C43.1997 24.397 43.2551 24.4059 43.3066 24.4168C46.1956 25.0304 46.1957 31.3893 43.3066 32.0028C43.2551 32.0137 43.1997 32.0216 43.1426 32.0282C42.5734 32.0937 42.0635 32.5109 42.0635 33.0838C42.0635 33.6584 42.577 34.0743 43.1475 34.1434C43.2029 34.1501 43.2565 34.1587 43.3066 34.1698C46.1152 34.787 46.1151 40.0543 43.3066 40.6717C43.2557 40.6829 43.2009 40.6923 43.1445 40.6991C42.5754 40.7675 42.0636 41.1825 42.0635 41.7557C42.0635 42.329 42.5753 42.7449 43.1445 42.8133C43.2009 42.8201 43.2557 42.8285 43.3066 42.8397C45.7908 43.3856 45.6332 45.1186 44.8848 46.7479C44.2013 48.2355 42.6853 49.0807 41.0635 49.2889V49.3416H13.6641C11.4549 49.3416 9.66406 47.5508 9.66406 45.3416V44.1756H5.66406C2.90269 44.1756 0.66415 41.937 0.664062 39.1756V27.1756C0.664062 24.4142 2.90264 22.1756 5.66406 22.1756H9.66406V19.6991C9.66422 17.49 11.455 15.6991 13.6641 15.6991H16.4629C23.3264 10.9718 27.6067 9.55729 30.0605 6.34749C30.7403 5.45834 30.8848 4.29517 31.2383 3.23324Z" fill="#F4E7D6"/>
</g>
<defs>
<filter id="filter0_i_302_861" x="0.664062" y="0" width="45.0879" height="49.3418" filterUnits="userSpaceOnUse" color-interpolation-filters="sRGB">
<feFlood flood-opacity="0" result="BackgroundImageFix"/>
<feBlend mode="normal" in="SourceGraphic" in2="BackgroundImageFix" result="shape"/>
<feColorMatrix in="SourceAlpha" type="matrix" values="0 0 0 0 0 0 0 0 0 0 0 0 0 0 0 0 0 0 127 0" result="hardAlpha"/>
<feOffset/>
<feGaussianBlur stdDeviation="5.7"/>
<feComposite in2="hardAlpha" operator="arithmetic" k2="-1" k3="1"/>
<feColorMatrix type="matrix" values="0 0 0 0 1 0 0 0 0 0.719901 0 0 0 0 0.557738 0 0 0 1 0"/>
<feBlend mode="normal" in2="shape" result="effect1_innerShadow_302_861"/>
</filter>
</defs>
</svg>
