<svg width="51" height="54" viewBox="0 0 51 54" fill="none" xmlns="http://www.w3.org/2000/svg">
<g filter="url(#filter0_i_302_912)">
<path d="M25.415 5.09277C29.6809 -0.541654 35.4871 -0.385028 36.7461 0.397461C38.9676 1.63008 39.1899 3.5509 36.7461 5.51953C34.3021 7.48828 30.8662 9.3916 30.8662 9.3916H19.7139C19.7012 9.38458 16.2735 7.48464 13.834 5.51953C11.3903 3.55095 11.6126 1.63007 13.834 0.397461C15.093 -0.385044 20.9001 -0.542014 25.166 5.09277H25.415Z" fill="#F4E7D6"/>
<path d="M38.9504 13.5005H30.8652C30.8652 13.5005 30.8659 11.1918 30.8652 9.3918C35.6727 6.0168 40.2617 2.02549 35.4542 0.000488281C44.8506 0.450493 42.3738 9.5255 38.9504 13.5005Z" fill="#F4E7D6"/>
<path d="M11.6297 13.5005L19.7148 13.5005C19.7148 13.5005 19.7141 11.1918 19.7148 9.3918C14.9073 6.0168 10.3184 2.02549 15.1259 0.000488281C5.72949 0.450493 8.20625 9.5255 11.6297 13.5005Z" fill="#F4E7D6"/>
<path d="M29.8848 7.71484C31.7782 7.71484 33.3133 9.25017 33.3135 11.1436C33.3134 12.0565 32.956 12.8866 32.374 13.501H45.4404C48.2019 13.501 50.4404 15.7396 50.4404 18.501V22.2148C50.4402 24.9432 48.255 27.1596 45.5391 27.2119V49.001C45.5386 51.762 43.3002 54.001 40.5391 54.001H10.0391C7.27793 54.001 5.03953 51.762 5.03906 49.001V27.166C2.60322 26.8309 0.726792 24.7427 0.726562 22.2148V18.501C0.726563 15.7396 2.96514 13.501 5.72656 13.501H18.8242C18.2423 12.8866 17.8849 12.0566 17.8848 11.1436C17.885 9.25017 19.42 7.71484 21.3135 7.71484H29.8848Z" fill="#F4E7D6"/>
</g>
<defs>
<filter id="filter0_i_302_912" x="0.726562" y="0.000488281" width="49.7148" height="54.0005" filterUnits="userSpaceOnUse" color-interpolation-filters="sRGB">
<feFlood flood-opacity="0" result="BackgroundImageFix"/>
<feBlend mode="normal" in="SourceGraphic" in2="BackgroundImageFix" result="shape"/>
<feColorMatrix in="SourceAlpha" type="matrix" values="0 0 0 0 0 0 0 0 0 0 0 0 0 0 0 0 0 0 127 0" result="hardAlpha"/>
<feOffset/>
<feGaussianBlur stdDeviation="5.7"/>
<feComposite in2="hardAlpha" operator="arithmetic" k2="-1" k3="1"/>
<feColorMatrix type="matrix" values="0 0 0 0 1 0 0 0 0 0.719901 0 0 0 0 0.557738 0 0 0 1 0"/>
<feBlend mode="normal" in2="shape" result="effect1_innerShadow_302_912"/>
</filter>
</defs>
</svg>
