<svg width="48" height="51" viewBox="0 0 48 51" fill="none" xmlns="http://www.w3.org/2000/svg">
<g filter="url(#filter0_i_302_1100)">
<path d="M12.3472 15.4896C12.3472 8.91399 17.7484 3.58341 24.4111 3.58341C30.0301 3.58341 34.7558 7.3762 36.0951 12.5118C36.3323 13.4215 37.2719 13.9692 38.1937 13.735C39.1155 13.5009 39.6704 12.5736 39.4331 11.6639C37.7114 5.06181 31.6409 0.181641 24.4111 0.181641C15.8448 0.181641 8.90039 7.03524 8.90039 15.4896V20.1491C9.90344 20.0752 11.0435 20.0454 12.3472 20.0334V15.4896Z" fill="#5B3639"/>
<path d="M33.1621 18.7964C39.749 18.7964 43.0426 18.7967 45.0889 21.1382C47.135 23.4797 47.1348 27.2486 47.1348 34.7856C47.1348 42.3227 47.1351 46.0916 45.0889 48.4331C43.0426 50.7745 39.7489 50.7739 33.1621 50.7739H14.5312C7.94454 50.7739 4.65075 50.7746 2.60449 48.4331C0.558229 46.0916 0.558594 42.3227 0.558594 34.7856C0.558594 27.2488 0.558505 23.4797 2.60449 21.1382C4.65075 18.7967 7.94453 18.7964 14.5312 18.7964H33.1621ZM23.5 34.1157C21.2909 34.1157 19.5 35.9066 19.5 38.1157V41.8921C19.5002 44.1011 21.291 45.8921 23.5 45.8921C25.709 45.8921 27.4998 44.1011 27.5 41.8921V38.1157C27.5 35.9066 25.7091 34.1157 23.5 34.1157Z" fill="#5B3639"/>
</g>
<defs>
<filter id="filter0_i_302_1100" x="0.558594" y="0.181641" width="46.5762" height="50.5923" filterUnits="userSpaceOnUse" color-interpolation-filters="sRGB">
<feFlood flood-opacity="0" result="BackgroundImageFix"/>
<feBlend mode="normal" in="SourceGraphic" in2="BackgroundImageFix" result="shape"/>
<feColorMatrix in="SourceAlpha" type="matrix" values="0 0 0 0 0 0 0 0 0 0 0 0 0 0 0 0 0 0 127 0" result="hardAlpha"/>
<feOffset/>
<feGaussianBlur stdDeviation="5.7"/>
<feComposite in2="hardAlpha" operator="arithmetic" k2="-1" k3="1"/>
<feColorMatrix type="matrix" values="0 0 0 0 1 0 0 0 0 0.719901 0 0 0 0 0.557738 0 0 0 1 0"/>
<feBlend mode="normal" in2="shape" result="effect1_innerShadow_302_1100"/>
</filter>
</defs>
</svg>
