<svg width="53" height="54" viewBox="0 0 53 54" fill="none" xmlns="http://www.w3.org/2000/svg">
<g filter="url(#filter0_i_302_1167)">
<path d="M3.01758 31.7954C2.42666 17.7138 16.717 5.55603 30.5166 8.42139C42.0824 10.823 49.5873 20.8441 48.665 32.6206C47.7579 44.203 39.2123 52.761 27.6289 53.6567C14.8118 54.6478 3.5566 44.6395 3.01758 31.7954ZM27.0195 18.2212C26.1911 18.2212 25.5195 18.8928 25.5195 19.7212V31.1938C25.5194 31.37 25.4267 31.5334 25.2754 31.6235L16.9717 36.5591C16.2596 36.9824 16.0259 37.9026 16.4492 38.6147C16.8726 39.3267 17.7929 39.5614 18.5049 39.1382L26.8076 34.2026C27.8687 33.5719 28.5194 32.4283 28.5195 31.1938V19.7212C28.5195 18.8928 27.8479 18.2213 27.0195 18.2212Z" fill="#5B3639"/>
<path fill-rule="evenodd" clip-rule="evenodd" d="M16.0169 2.96994C16.6081 4.1069 16.3205 5.60464 15.3745 6.31524L4.60131 14.4074C3.65528 15.118 2.40907 14.7724 1.8178 13.6354C1.22654 12.4985 0.514134 10.0007 1.46016 9.29012L12.2334 1.19794C13.1794 0.487343 15.4256 1.83298 16.0169 2.96994Z" fill="#5B3639"/>
<path fill-rule="evenodd" clip-rule="evenodd" d="M36.8305 2.96994C37.4218 1.83298 39.668 0.487343 40.614 1.19794L51.3872 9.29012C52.3332 10.0007 51.6208 12.4985 51.0295 13.6354C50.4383 14.7724 49.1921 15.118 48.246 14.4074L37.4729 6.31524C36.5269 5.60464 36.2393 4.10689 36.8305 2.96994Z" fill="#5B3639"/>
<path fill-rule="evenodd" clip-rule="evenodd" d="M16.0169 2.96994C16.6081 4.1069 16.3205 5.60464 15.3745 6.31524L4.60131 14.4074C3.65528 15.118 2.40907 14.7724 1.8178 13.6354C1.22654 12.4985 0.514134 10.0007 1.46016 9.29012L12.2334 1.19794C13.1794 0.487343 15.4256 1.83298 16.0169 2.96994Z" stroke="#5B3639" stroke-width="1.5" stroke-linecap="round" stroke-linejoin="round"/>
<path fill-rule="evenodd" clip-rule="evenodd" d="M36.8305 2.96994C37.4218 1.83298 39.668 0.487343 40.614 1.19794L51.3872 9.29012C52.3332 10.0007 51.6208 12.4985 51.0295 13.6354C50.4383 14.7724 49.1921 15.118 48.246 14.4074L37.4729 6.31524C36.5269 5.60464 36.2393 4.10689 36.8305 2.96994Z" stroke="#5B3639" stroke-width="1.5" stroke-linecap="round" stroke-linejoin="round"/>
</g>
<defs>
<filter id="filter0_i_302_1167" x="0.25" y="0.25" width="52.3477" height="53.4746" filterUnits="userSpaceOnUse" color-interpolation-filters="sRGB">
<feFlood flood-opacity="0" result="BackgroundImageFix"/>
<feBlend mode="normal" in="SourceGraphic" in2="BackgroundImageFix" result="shape"/>
<feColorMatrix in="SourceAlpha" type="matrix" values="0 0 0 0 0 0 0 0 0 0 0 0 0 0 0 0 0 0 127 0" result="hardAlpha"/>
<feOffset/>
<feGaussianBlur stdDeviation="5.7"/>
<feComposite in2="hardAlpha" operator="arithmetic" k2="-1" k3="1"/>
<feColorMatrix type="matrix" values="0 0 0 0 1 0 0 0 0 0.719901 0 0 0 0 0.557738 0 0 0 1 0"/>
<feBlend mode="normal" in2="shape" result="effect1_innerShadow_302_1167"/>
</filter>
</defs>
</svg>
