<svg width="56" height="53" viewBox="0 0 56 53" fill="none" xmlns="http://www.w3.org/2000/svg">
<g filter="url(#filter0_i_302_1120)">
<path d="M50.6665 22.833C53.0048 22.833 54.9005 20.9373 54.9005 18.599C54.9005 16.2606 53.0048 14.3649 50.6665 14.3649C48.3281 14.3649 46.4324 16.2606 46.4324 18.599C46.4324 19.6565 46.8202 20.6235 47.4612 21.3655C48.2275 22.2525 49.3558 22.8181 50.6165 22.8327L50.6665 22.833Z" fill="#5B3639"/>
<path d="M28.085 1.18164C24.9672 1.18164 22.4396 7.0778 22.4396 10.1956C22.4396 12.3911 23.6929 14.2938 25.5229 15.2275C26.2919 15.6198 27.1626 15.841 28.085 15.841C29.0074 15.841 29.8782 15.6198 30.6471 15.2275C32.4771 14.2938 33.7304 12.3911 33.7304 10.1956C33.7304 7.0778 31.2029 1.18164 28.085 1.18164Z" fill="#5B3639"/>
<path d="M1.26953 18.599C1.26953 20.9373 3.16517 22.833 5.50355 22.833L5.55355 22.8327C6.81424 22.8181 7.9425 22.2525 8.70879 21.3655C9.34985 20.6235 9.73757 19.6565 9.73757 18.599C9.73757 16.2606 7.84194 14.3649 5.50355 14.3649C3.16517 14.3649 1.26953 16.2606 1.26953 18.599Z" fill="#5B3639"/>
<path d="M50.6665 22.833C53.0048 22.833 54.9005 20.9373 54.9005 18.599C54.9005 16.2606 53.0048 14.3649 50.6665 14.3649C48.3281 14.3649 46.4324 16.2606 46.4324 18.599C46.4324 19.6565 46.8202 20.6235 47.4612 21.3655C48.2275 22.2525 49.3558 22.8181 50.6165 22.8327L50.6665 22.833Z" stroke="#5B3639" stroke-width="1.5"/>
<path d="M28.085 1.18164C24.9672 1.18164 22.4396 7.0778 22.4396 10.1956C22.4396 12.3911 23.6929 14.2938 25.5229 15.2275C26.2919 15.6198 27.1626 15.841 28.085 15.841C29.0074 15.841 29.8782 15.6198 30.6471 15.2275C32.4771 14.2938 33.7304 12.3911 33.7304 10.1956C33.7304 7.0778 31.2029 1.18164 28.085 1.18164Z" stroke="#5B3639" stroke-width="1.5"/>
<path d="M1.26953 18.599C1.26953 20.9373 3.16517 22.833 5.50355 22.833L5.55355 22.8327C6.81424 22.8181 7.9425 22.2525 8.70879 21.3655C9.34985 20.6235 9.73757 19.6565 9.73757 18.599C9.73757 16.2606 7.84194 14.3649 5.50355 14.3649C3.16517 14.3649 1.26953 16.2606 1.26953 18.599Z" stroke="#5B3639" stroke-width="1.5"/>
<path d="M30.4365 12.3398C30.8827 13.0538 31.3775 13.9409 31.9688 15.001L37.0195 24.0576C37.9778 25.7757 38.4572 26.6347 39.1758 26.9512C39.5739 27.1265 40.0132 27.1884 40.4443 27.1289C41.2225 27.0213 41.9204 26.3261 43.3154 24.9365C45.1266 23.1324 46.3307 21.9333 47.251 21.3652C48.0173 22.2522 49.1456 22.8174 50.4062 22.832C50.5494 23.9001 50.367 25.5958 50.0908 28.1631L49.5732 32.9746C49.4859 33.7868 49.4026 34.5873 49.3213 35.3721C48.6091 42.2474 48.0198 47.9346 45.623 50.0801C42.9525 52.4704 38.9502 52.4707 30.9453 52.4707H24.8037C16.7988 52.4707 12.7965 52.4704 10.126 50.0801C7.72909 47.9346 7.13989 42.2475 6.42773 35.3721C6.34645 34.5873 6.26314 33.7868 6.17578 32.9746L5.6582 28.1631C5.38206 25.5958 5.19967 23.9001 5.34277 22.832C6.60344 22.8174 7.73176 22.2522 8.49805 21.3652C9.41834 21.9333 10.6214 23.1324 12.4326 24.9365C13.8276 26.3261 14.5256 27.0211 15.3037 27.1289C15.7349 27.1885 16.175 27.1265 16.5732 26.9512C17.2917 26.6346 17.7713 25.7756 18.7295 24.0576L23.7803 15.001C24.3715 13.9409 24.8663 13.0538 25.3125 12.3398C26.0813 12.732 26.9518 12.9531 27.874 12.9531C28.7964 12.9531 29.6676 12.7321 30.4365 12.3398Z" fill="#5B3639"/>
</g>
<defs>
<filter id="filter0_i_302_1120" x="0.519531" y="0.431641" width="55.1309" height="52.0391" filterUnits="userSpaceOnUse" color-interpolation-filters="sRGB">
<feFlood flood-opacity="0" result="BackgroundImageFix"/>
<feBlend mode="normal" in="SourceGraphic" in2="BackgroundImageFix" result="shape"/>
<feColorMatrix in="SourceAlpha" type="matrix" values="0 0 0 0 0 0 0 0 0 0 0 0 0 0 0 0 0 0 127 0" result="hardAlpha"/>
<feOffset/>
<feGaussianBlur stdDeviation="5.7"/>
<feComposite in2="hardAlpha" operator="arithmetic" k2="-1" k3="1"/>
<feColorMatrix type="matrix" values="0 0 0 0 1 0 0 0 0 0.719901 0 0 0 0 0.557738 0 0 0 1 0"/>
<feBlend mode="normal" in2="shape" result="effect1_innerShadow_302_1120"/>
</filter>
</defs>
</svg>
