<svg width="51" height="51" viewBox="0 0 51 51" fill="none" xmlns="http://www.w3.org/2000/svg">
<g filter="url(#filter0_i_302_1147)">
<path d="M29.2119 2.80859C30.7077 1.31278 32.6738 -0.558212 34.6641 0.158203C35.358 0.407981 36.0435 0.687604 36.7188 0.99707C38.8644 1.98047 39.0498 4.96387 39.4824 7.28418C39.6618 8.24601 40.1231 9.16606 40.8672 9.91016C41.6113 10.6542 42.5314 11.1156 43.4932 11.2949C45.8134 11.7275 48.7968 11.9122 49.7803 14.0576C49.997 14.5305 50.1992 15.0088 50.3867 15.4912C51.1222 17.3836 49.4034 19.3173 47.9678 20.7529C46.0073 22.7138 46.0072 25.8928 47.9678 27.8535C49.5175 29.4032 51.532 31.3871 50.8438 33.4678C50.5405 34.3845 50.1862 35.2881 49.7803 36.1738C48.7969 38.3194 45.8134 38.5039 43.4932 38.9365C42.5313 39.1159 41.6113 39.5782 40.8672 40.3223C40.1233 41.0663 39.6618 41.9856 39.4824 42.9473C39.0497 45.2676 38.8645 48.2509 36.7188 49.2344C36.0434 49.5439 35.3581 49.8244 34.6641 50.0742C32.6736 50.7907 30.7078 48.9187 29.2119 47.4229C27.2511 45.462 24.0712 45.462 22.1104 47.4229C20.6145 48.9187 18.6486 50.7907 16.6582 50.0742C15.9642 49.8244 15.2789 49.5439 14.6035 49.2344C12.4578 48.2509 12.2725 45.2676 11.8398 42.9473C11.6604 41.9856 11.199 41.0663 10.4551 40.3223C9.71107 39.5783 8.79178 39.1159 7.83008 38.9365C5.50975 38.5038 2.52542 38.3195 1.54199 36.1738C1.13606 35.2881 0.781751 34.3845 0.478516 33.4678C-0.209698 31.3871 1.80482 29.4032 3.35449 27.8535C5.31517 25.8928 5.31501 22.7138 3.35449 20.7529C1.91883 19.3173 0.201023 17.3836 0.936523 15.4912C1.12398 15.0089 1.32527 14.5305 1.54199 14.0576C2.52549 11.912 5.50979 11.7276 7.83008 11.2949C8.79169 11.1155 9.71111 10.6541 10.4551 9.91016C11.1992 9.16606 11.6615 8.24601 11.8408 7.28418C12.2735 4.96389 12.4579 1.98045 14.6035 0.99707C15.2788 0.687601 15.9643 0.407984 16.6582 0.158203C18.6485 -0.5582 20.6145 1.31279 22.1104 2.80859C24.0712 4.76944 27.2511 4.76944 29.2119 2.80859ZM25.8887 11.8779C18.8131 11.878 13.0773 17.6139 13.0771 24.6895C13.0771 31.7651 18.813 37.5009 25.8887 37.501C32.9644 37.501 38.7002 31.7652 38.7002 24.6895C38.7001 17.6139 32.9643 11.8779 25.8887 11.8779Z" fill="#5B3639"/>
</g>
<defs>
<filter id="filter0_i_302_1147" x="0.339844" y="0.000488281" width="50.6426" height="50.2314" filterUnits="userSpaceOnUse" color-interpolation-filters="sRGB">
<feFlood flood-opacity="0" result="BackgroundImageFix"/>
<feBlend mode="normal" in="SourceGraphic" in2="BackgroundImageFix" result="shape"/>
<feColorMatrix in="SourceAlpha" type="matrix" values="0 0 0 0 0 0 0 0 0 0 0 0 0 0 0 0 0 0 127 0" result="hardAlpha"/>
<feOffset/>
<feGaussianBlur stdDeviation="5.7"/>
<feComposite in2="hardAlpha" operator="arithmetic" k2="-1" k3="1"/>
<feColorMatrix type="matrix" values="0 0 0 0 1 0 0 0 0 0.719901 0 0 0 0 0.557738 0 0 0 1 0"/>
<feBlend mode="normal" in2="shape" result="effect1_innerShadow_302_1147"/>
</filter>
</defs>
</svg>
