<svg width="47" height="41" viewBox="0 0 47 41" fill="none" xmlns="http://www.w3.org/2000/svg">
<g filter="url(#filter0_i_302_1151)">
<path d="M4.55566 32.5996C6.80606 32.5997 8.63076 34.4244 8.63086 36.6748C8.63086 38.9253 6.80613 40.7499 4.55566 40.75C2.30511 40.75 0.480469 38.9254 0.480469 36.6748C0.480569 34.4243 2.30517 32.5996 4.55566 32.5996ZM42.7969 32.5996C44.7306 32.5998 46.664 34.3465 46.6641 36.6748C46.3878 38.7122 44.7306 40.7498 42.7969 40.75H17.9326C15.9987 40.75 14.0645 39.0034 14.0645 36.6748C14.0646 34.6374 15.7225 32.5996 17.9326 32.5996H42.7969ZM4.55566 16.2998C6.80613 16.2999 8.63086 18.1245 8.63086 20.375C8.63085 22.6255 6.80612 24.4501 4.55566 24.4502C2.30511 24.4502 0.480474 22.6256 0.480469 20.375C0.480469 18.1244 2.30511 16.2998 4.55566 16.2998ZM42.7969 16.2998C44.7307 16.3 46.6641 18.0466 46.6641 20.375C46.3878 22.4124 44.7306 24.45 42.7969 24.4502H17.9326C15.9987 24.4502 14.0645 22.7036 14.0645 20.375C14.0645 18.3375 15.7225 16.2998 17.9326 16.2998H42.7969ZM4.55566 0C6.80604 0.000110276 8.63072 1.82482 8.63086 4.0752C8.63086 6.32568 6.80613 8.15028 4.55566 8.15039C2.30511 8.15039 0.480469 6.32575 0.480469 4.0752C0.480604 1.82476 2.30519 0 4.55566 0ZM42.7969 0C44.7306 0.000195567 46.6639 1.74689 46.6641 4.0752C46.3878 6.40363 44.7306 8.1502 42.7969 8.15039H17.9326C15.9987 8.15039 14.0645 6.40376 14.0645 4.0752C14.0646 2.03778 15.7225 0 17.9326 0H42.7969Z" fill="#5B3639"/>
</g>
<defs>
<filter id="filter0_i_302_1151" x="0.480469" y="0" width="46.1836" height="40.75" filterUnits="userSpaceOnUse" color-interpolation-filters="sRGB">
<feFlood flood-opacity="0" result="BackgroundImageFix"/>
<feBlend mode="normal" in="SourceGraphic" in2="BackgroundImageFix" result="shape"/>
<feColorMatrix in="SourceAlpha" type="matrix" values="0 0 0 0 0 0 0 0 0 0 0 0 0 0 0 0 0 0 127 0" result="hardAlpha"/>
<feOffset/>
<feGaussianBlur stdDeviation="5.7"/>
<feComposite in2="hardAlpha" operator="arithmetic" k2="-1" k3="1"/>
<feColorMatrix type="matrix" values="0 0 0 0 1 0 0 0 0 0.719901 0 0 0 0 0.557738 0 0 0 1 0"/>
<feBlend mode="normal" in2="shape" result="effect1_innerShadow_302_1151"/>
</filter>
</defs>
</svg>
