<svg width="32" height="46" viewBox="0 0 32 46" fill="none" xmlns="http://www.w3.org/2000/svg">
<g filter="url(#filter0_i_302_1089)">
<path d="M6.21 38.7916C6.21 36.8783 6.79333 35.315 7.96 34.1016C9.17333 32.8416 10.83 32.2116 12.93 32.2116C15.03 32.2116 16.6633 32.8416 17.83 34.1016C19.0433 35.315 19.65 36.8783 19.65 38.7916C19.65 40.705 19.0433 42.2916 17.83 43.5516C16.6633 44.765 15.03 45.3716 12.93 45.3716C10.83 45.3716 9.17333 44.765 7.96 43.5516C6.79333 42.2916 6.21 40.705 6.21 38.7916ZM8.52 29.6216C7.72667 29.2016 6.98 28.455 6.28 27.3816C5.58 26.2616 5.23 24.955 5.23 23.4616C5.23 22.015 5.60333 20.9416 6.35 20.2416C7.14333 19.495 8.28667 18.935 9.78 18.5616L15.24 17.2316C17.5733 16.625 18.74 15.505 18.74 13.8716C18.74 12.985 18.2967 12.215 17.41 11.5616C16.57 10.9083 15.1 10.5816 13 10.5816C11.0867 10.5816 9.29 10.8383 7.61 11.3516C5.93 11.8183 4.57667 12.3783 3.55 13.0316C2.75667 12.425 2.08 11.7016 1.52 10.8616C0.96 9.97497 0.68 8.92497 0.68 7.71164C0.68 6.4983 1.03 5.4483 1.73 4.56164C2.43 3.62831 3.38667 2.88164 4.6 2.32164C5.86 1.71497 7.33 1.27164 9.01 0.991638C10.7367 0.711638 12.6267 0.571639 14.68 0.571639C20.1867 0.571639 24.34 1.8083 27.14 4.28164C29.9867 6.70831 31.41 9.90497 31.41 13.8716C31.41 21.3383 26.1367 26.1216 15.59 28.2216L8.52 29.6216Z" fill="#5B3639"/>
</g>
<defs>
<filter id="filter0_i_302_1089" x="0.679688" y="0.571777" width="30.7305" height="44.7998" filterUnits="userSpaceOnUse" color-interpolation-filters="sRGB">
<feFlood flood-opacity="0" result="BackgroundImageFix"/>
<feBlend mode="normal" in="SourceGraphic" in2="BackgroundImageFix" result="shape"/>
<feColorMatrix in="SourceAlpha" type="matrix" values="0 0 0 0 0 0 0 0 0 0 0 0 0 0 0 0 0 0 127 0" result="hardAlpha"/>
<feOffset/>
<feGaussianBlur stdDeviation="5.7"/>
<feComposite in2="hardAlpha" operator="arithmetic" k2="-1" k3="1"/>
<feColorMatrix type="matrix" values="0 0 0 0 1 0 0 0 0 0.719901 0 0 0 0 0.557738 0 0 0 1 0"/>
<feBlend mode="normal" in2="shape" result="effect1_innerShadow_302_1089"/>
</filter>
</defs>
</svg>
