<svg width="56" height="62" viewBox="0 0 56 62" fill="none" xmlns="http://www.w3.org/2000/svg">
<g filter="url(#filter0_i_302_1220)">
<path d="M21.7314 33.8916C23.6999 33.8916 25.4972 33.9776 27.1387 34.1396C23.2379 34.4996 18.8796 35.2434 14.8994 36.5635C8.95963 38.5334 3.59407 41.8828 2.16895 47.4014C0.730567 45.8973 0.29928 43.7187 1.28516 41.9434C3.97843 37.0949 9.58228 33.8916 21.7314 33.8916ZM21.5234 1.02051C19.4419 2.54051 17.1835 4.83097 15.6914 7.79883C13.934 11.2945 13.2588 15.6978 15.1348 20.7969C12.3683 18.8012 10.5771 15.5868 10.5771 11.9668C10.5773 5.9987 15.4476 1.12954 21.5234 1.02051Z" fill="#5B3639" stroke="#5B3639" stroke-width="1.5"/>
<path d="M31.3438 37.8535C45.1459 37.8535 51.5508 41.4701 54.6318 46.9795C55.986 49.4016 55.0265 52.4647 52.5684 54.1133C46.5336 58.1607 39.2245 60.5312 31.3447 60.5312C23.4647 60.5312 16.155 58.1608 10.1201 54.1133C7.66191 52.4646 6.70208 49.4006 8.05664 46.9785C11.1377 41.4694 17.5422 37.8536 31.3438 37.8535ZM31.3447 2.6875C38.4069 2.68764 44.1016 8.27292 44.1016 15.125C44.1015 21.977 38.4069 27.5624 31.3447 27.5625C24.2824 27.5625 18.5879 21.9771 18.5879 15.125C18.5879 8.27283 24.2824 2.6875 31.3447 2.6875Z" fill="#5B3639" stroke="#5B3639" stroke-width="1.5"/>
</g>
<defs>
<filter id="filter0_i_302_1220" x="0" y="0.265625" width="56" height="61.0151" filterUnits="userSpaceOnUse" color-interpolation-filters="sRGB">
<feFlood flood-opacity="0" result="BackgroundImageFix"/>
<feBlend mode="normal" in="SourceGraphic" in2="BackgroundImageFix" result="shape"/>
<feColorMatrix in="SourceAlpha" type="matrix" values="0 0 0 0 0 0 0 0 0 0 0 0 0 0 0 0 0 0 127 0" result="hardAlpha"/>
<feOffset/>
<feGaussianBlur stdDeviation="5.7"/>
<feComposite in2="hardAlpha" operator="arithmetic" k2="-1" k3="1"/>
<feColorMatrix type="matrix" values="0 0 0 0 1 0 0 0 0 0.719901 0 0 0 0 0.557738 0 0 0 1 0"/>
<feBlend mode="normal" in2="shape" result="effect1_innerShadow_302_1220"/>
</filter>
</defs>
</svg>
