<svg width="38" height="42" viewBox="0 0 38 42" fill="none" xmlns="http://www.w3.org/2000/svg">
<g filter="url(#filter0_i_302_1208)">
<path d="M31.1164 11.0854C33.2448 10.7758 34.3091 10.621 35.0006 11.2192C35.6921 11.8174 35.6921 12.8928 35.6921 15.0437V23.3474C35.6921 24.485 35.6921 25.0537 35.6668 25.2112C35.4566 26.5214 35.3191 26.6589 34.0089 26.8691C33.8515 26.8943 32.7982 26.8943 30.6916 26.8943C26.6553 26.8943 23.3833 30.1114 23.3833 34.0799C23.3833 38.0485 26.6553 41.2656 30.6916 41.2656C34.7279 41.2656 38 38.0485 38 34.0799V4.87234C38 2.72868 38 1.65685 37.3113 1.05882C36.6225 0.460798 35.5613 0.611163 33.4388 0.911894L15.7477 3.41856C14.1082 3.65085 13.2885 3.76699 12.7987 4.33113C12.3088 4.89527 12.3088 5.72318 12.3088 7.379V23.3475C12.3088 24.485 12.3088 25.0538 12.2836 25.2112C12.0733 26.5214 11.9358 26.6589 10.6256 26.8691C10.4682 26.8944 9.41494 26.8944 7.30836 26.8944C3.27206 26.8944 0 30.1115 0 34.08C0 38.0485 3.27206 41.2656 7.30836 41.2656C11.3447 41.2656 14.6167 38.0485 14.6167 34.08V16.9455C14.6167 15.2954 14.6167 14.4703 15.1041 13.9069C15.5916 13.3434 16.408 13.2247 18.041 12.9872L31.1164 11.0854Z" fill="#5B3639"/>
</g>
<defs>
<filter id="filter0_i_302_1208" x="0" y="0.648438" width="38" height="40.6172" filterUnits="userSpaceOnUse" color-interpolation-filters="sRGB">
<feFlood flood-opacity="0" result="BackgroundImageFix"/>
<feBlend mode="normal" in="SourceGraphic" in2="BackgroundImageFix" result="shape"/>
<feColorMatrix in="SourceAlpha" type="matrix" values="0 0 0 0 0 0 0 0 0 0 0 0 0 0 0 0 0 0 127 0" result="hardAlpha"/>
<feOffset/>
<feGaussianBlur stdDeviation="5.7"/>
<feComposite in2="hardAlpha" operator="arithmetic" k2="-1" k3="1"/>
<feColorMatrix type="matrix" values="0 0 0 0 1 0 0 0 0 0.719901 0 0 0 0 0.557738 0 0 0 1 0"/>
<feBlend mode="normal" in2="shape" result="effect1_innerShadow_302_1208"/>
</filter>
</defs>
</svg>
