<svg width="64" height="54" viewBox="0 0 64 54" fill="none" xmlns="http://www.w3.org/2000/svg">
<g filter="url(#filter0_i_302_1239)">
<path d="M12.6282 51.1987C12.0948 50.7321 11.6615 50.1821 11.3282 49.5487C11.0282 48.9154 10.8782 48.1987 10.8782 47.3987C10.8782 46.7321 11.0282 46.0821 11.3282 45.4487C11.6615 44.7821 12.0615 44.1654 12.5282 43.5987L21.1282 33.4987H11.9282C11.7282 33.1321 11.5282 32.6654 11.3282 32.0987C11.1615 31.5321 11.0782 30.9154 11.0782 30.2487C11.0782 29.0821 11.3282 28.2487 11.8282 27.7487C12.3615 27.2154 13.0615 26.9487 13.9282 26.9487H29.6782C30.2115 27.4154 30.6282 27.9654 30.9282 28.5987C31.2615 29.2321 31.4282 29.9487 31.4282 30.7487C31.4282 31.4154 31.2615 32.0821 30.9282 32.7487C30.6282 33.3821 30.2448 33.9821 29.7782 34.5487L21.3782 44.6487H31.1782C31.3782 45.0154 31.5615 45.4821 31.7282 46.0487C31.9282 46.6154 32.0282 47.2321 32.0282 47.8987C32.0282 49.0654 31.7615 49.9154 31.2282 50.4487C30.7282 50.9487 30.0448 51.1987 29.1782 51.1987H12.6282Z" fill="#5B3639"/>
<path d="M35.3102 26.2656C34.8836 25.8923 34.5369 25.4523 34.2702 24.9456C34.0302 24.439 33.9102 23.8656 33.9102 23.2256C33.9102 22.6923 34.0302 22.1723 34.2702 21.6656C34.5369 21.1323 34.8569 20.639 35.2302 20.1856L42.1102 12.1056H34.7502C34.5902 11.8123 34.4302 11.439 34.2702 10.9856C34.1369 10.5323 34.0702 10.039 34.0702 9.50562C34.0702 8.57229 34.2702 7.90562 34.6702 7.50562C35.0969 7.07896 35.6569 6.86562 36.3502 6.86562H48.9502C49.3769 7.23896 49.7102 7.67896 49.9502 8.18562C50.2169 8.69229 50.3502 9.26562 50.3502 9.90562C50.3502 10.439 50.2169 10.9723 49.9502 11.5056C49.7102 12.0123 49.4036 12.4923 49.0302 12.9456L42.3102 21.0256H50.1502C50.3102 21.319 50.4569 21.6923 50.5902 22.1456C50.7502 22.599 50.8302 23.0923 50.8302 23.6256C50.8302 24.559 50.6169 25.239 50.1902 25.6656C49.7902 26.0656 49.2436 26.2656 48.5502 26.2656H35.3102Z" fill="#5B3639"/>
</g>
<defs>
<filter id="filter0_i_302_1239" x="10.8789" y="6.86572" width="39.9512" height="44.333" filterUnits="userSpaceOnUse" color-interpolation-filters="sRGB">
<feFlood flood-opacity="0" result="BackgroundImageFix"/>
<feBlend mode="normal" in="SourceGraphic" in2="BackgroundImageFix" result="shape"/>
<feColorMatrix in="SourceAlpha" type="matrix" values="0 0 0 0 0 0 0 0 0 0 0 0 0 0 0 0 0 0 127 0" result="hardAlpha"/>
<feOffset/>
<feGaussianBlur stdDeviation="5.7"/>
<feComposite in2="hardAlpha" operator="arithmetic" k2="-1" k3="1"/>
<feColorMatrix type="matrix" values="0 0 0 0 1 0 0 0 0 0.719901 0 0 0 0 0.557738 0 0 0 1 0"/>
<feBlend mode="normal" in2="shape" result="effect1_innerShadow_302_1239"/>
</filter>
</defs>
</svg>
