<svg width="55" height="53" viewBox="0 0 55 53" fill="none" xmlns="http://www.w3.org/2000/svg">
<g filter="url(#filter0_i_302_1098)">
<path d="M46.6703 48.2164L43.7269 35.0222C43.4993 34.002 43.8107 32.9368 44.5526 32.1977L53.998 22.7889C55.7996 20.9942 54.7479 17.921 52.2207 17.5957L38.5339 15.8342C37.5306 15.705 36.6556 15.0919 36.1948 14.195L29.8498 1.84609C28.6676 -0.454647 25.3302 -0.346989 24.3001 2.02511L19.0521 14.1091C18.626 15.0904 17.716 15.7787 16.6524 15.9241L3.55575 17.7151C0.984848 18.0667 -0.015176 21.2396 1.89283 22.9913L12.1338 32.3935C12.8776 33.0764 13.2358 34.0804 13.0913 35.0776L11.1211 48.6814C10.7573 51.1932 13.4475 53.0272 15.667 51.7805L27.303 45.2445C28.2169 44.7311 29.3309 44.7183 30.2565 45.2105L42.2282 51.5762C44.5421 52.8065 47.2392 50.7666 46.6703 48.2164Z" fill="#5B3639"/>
</g>
<defs>
<filter id="filter0_i_302_1098" x="0.900391" y="0.181641" width="54" height="52" filterUnits="userSpaceOnUse" color-interpolation-filters="sRGB">
<feFlood flood-opacity="0" result="BackgroundImageFix"/>
<feBlend mode="normal" in="SourceGraphic" in2="BackgroundImageFix" result="shape"/>
<feColorMatrix in="SourceAlpha" type="matrix" values="0 0 0 0 0 0 0 0 0 0 0 0 0 0 0 0 0 0 127 0" result="hardAlpha"/>
<feOffset/>
<feGaussianBlur stdDeviation="5.7"/>
<feComposite in2="hardAlpha" operator="arithmetic" k2="-1" k3="1"/>
<feColorMatrix type="matrix" values="0 0 0 0 1 0 0 0 0 0.719901 0 0 0 0 0.557738 0 0 0 1 0"/>
<feBlend mode="normal" in2="shape" result="effect1_innerShadow_302_1098"/>
</filter>
</defs>
</svg>
