<svg width="61" height="55" viewBox="0 0 61 55" fill="none" xmlns="http://www.w3.org/2000/svg">
<g filter="url(#filter0_i_302_1190)">
<path d="M19.0534 44.7002C21.6717 44.7002 23.7942 46.8227 23.7942 49.441C23.7942 52.0593 21.6717 54.1819 19.0534 54.1819C16.4351 54.1819 14.3125 52.0593 14.3125 49.441C14.3125 46.8227 16.4351 44.7002 19.0534 44.7002Z" fill="#5B3639"/>
<path d="M47.4985 44.7004C50.1168 44.7004 52.2393 46.823 52.2393 49.4413C52.2393 52.0596 50.1168 54.1821 47.4985 54.1821C44.8802 54.1821 42.7576 52.0596 42.7576 49.4413C42.7576 46.823 44.8802 44.7004 47.4985 44.7004Z" fill="#5B3639"/>
<path d="M19.0534 44.7002C21.6717 44.7002 23.7942 46.8227 23.7942 49.441C23.7942 52.0593 21.6717 54.1819 19.0534 54.1819C16.4351 54.1819 14.3125 52.0593 14.3125 49.441C14.3125 46.8227 16.4351 44.7002 19.0534 44.7002Z" stroke="#5B3639" stroke-width="1.5"/>
<path d="M47.4985 44.7004C50.1168 44.7004 52.2393 46.823 52.2393 49.4413C52.2393 52.0596 50.1168 54.1821 47.4985 54.1821C44.8802 54.1821 42.7576 52.0596 42.7576 49.4413C42.7576 46.823 44.8802 44.7004 47.4985 44.7004Z" stroke="#5B3639" stroke-width="1.5"/>
<path d="M0.478516 1.58496C0.912731 0.349918 2.26593 -0.29945 3.50098 0.134766L4.4541 0.469727C12.0816 3.15135 12.2251 9.85802 17.2412 11.8525C23.5696 14.3687 34.8991 11.8526 48.0332 11.8525C53.3585 11.8525 58.1525 11.8529 59.5557 13.6768C60.9588 15.5007 60.4106 18.2487 59.3135 23.7451L57.7344 31.4082C56.7384 36.2404 56.2398 38.6571 54.4961 40.0781C52.7524 41.4989 50.285 41.499 45.3516 41.499H28.5918C19.7773 41.499 15.3701 41.4986 12.6318 38.6104C9.89363 35.7222 9.69336 32.6541 9.69336 23.3574V15.1348C9.69336 9.13453 8.7853 7.01798 2.75391 4.89746L1.92871 4.60742C0.693777 4.17324 0.044531 2.81992 0.478516 1.58496Z" fill="#5B3639"/>
</g>
<defs>
<filter id="filter0_i_302_1190" x="0.34375" y="0" width="60.0508" height="54.9321" filterUnits="userSpaceOnUse" color-interpolation-filters="sRGB">
<feFlood flood-opacity="0" result="BackgroundImageFix"/>
<feBlend mode="normal" in="SourceGraphic" in2="BackgroundImageFix" result="shape"/>
<feColorMatrix in="SourceAlpha" type="matrix" values="0 0 0 0 0 0 0 0 0 0 0 0 0 0 0 0 0 0 127 0" result="hardAlpha"/>
<feOffset/>
<feGaussianBlur stdDeviation="5.7"/>
<feComposite in2="hardAlpha" operator="arithmetic" k2="-1" k3="1"/>
<feColorMatrix type="matrix" values="0 0 0 0 1 0 0 0 0 0.719901 0 0 0 0 0.557738 0 0 0 1 0"/>
<feBlend mode="normal" in2="shape" result="effect1_innerShadow_302_1190"/>
</filter>
</defs>
</svg>
