<svg width="48" height="44" viewBox="0 0 48 44" fill="none" xmlns="http://www.w3.org/2000/svg">
<g filter="url(#filter0_i_302_1205)">
<path d="M2.18555 0.583008C2.56237 0.179586 3.19498 0.157562 3.59863 0.53418L12.2822 8.63867V8.36523C12.2822 6.70907 12.2815 5.88059 12.7715 5.31641C13.2615 4.75222 14.0818 4.63622 15.7217 4.4043L33.3564 1.91016C35.4785 1.61005 36.54 1.46059 37.2285 2.05859C37.9167 2.65667 37.917 3.72835 37.917 5.87109V32.5635L47.3486 41.3672C47.7524 41.744 47.7742 42.3775 47.3975 42.7812C47.0206 43.185 46.3871 43.2069 45.9834 42.8301L37.9072 35.292C37.7215 39.082 34.532 42.0986 30.624 42.0986C26.5967 42.0985 23.332 38.8947 23.332 34.9424C23.3321 31.2291 26.2138 28.177 29.9023 27.8213L15.5908 14.4629C15.3826 14.5651 15.2135 14.6903 15.0723 14.8535C14.5847 15.417 14.585 16.2422 14.585 17.8926V34.9424C14.585 38.8948 11.3194 42.0986 7.29199 42.0986C3.26471 42.0985 0 38.8946 0 34.9424C4.1822e-05 30.9902 3.26473 27.7863 7.29199 27.7861C9.39048 27.7861 10.4404 27.7856 10.5967 27.7607C11.9089 27.5517 12.0478 27.4131 12.2568 26.1006C12.2817 25.9443 12.2822 25.3779 12.2822 24.2451V11.375L2.23438 1.99707C1.83062 1.62024 1.80871 0.986758 2.18555 0.583008ZM34.9229 12.1777C34.2315 11.5795 33.1671 11.734 31.0391 12.043L18.0098 13.9346C17.9941 13.9368 17.9784 13.9391 17.9629 13.9414L32.7939 27.7832C33.4717 27.7805 33.841 27.7747 33.9287 27.7607C35.2409 27.5518 35.3799 27.413 35.5889 26.1006C35.6138 25.9443 35.6133 25.3779 35.6133 24.2451V16.001C35.6133 13.8512 35.6138 12.776 34.9229 12.1777Z" fill="#5B3639"/>
</g>
<defs>
<filter id="filter0_i_302_1205" x="0" y="0.265625" width="47.666" height="42.8335" filterUnits="userSpaceOnUse" color-interpolation-filters="sRGB">
<feFlood flood-opacity="0" result="BackgroundImageFix"/>
<feBlend mode="normal" in="SourceGraphic" in2="BackgroundImageFix" result="shape"/>
<feColorMatrix in="SourceAlpha" type="matrix" values="0 0 0 0 0 0 0 0 0 0 0 0 0 0 0 0 0 0 127 0" result="hardAlpha"/>
<feOffset/>
<feGaussianBlur stdDeviation="5.7"/>
<feComposite in2="hardAlpha" operator="arithmetic" k2="-1" k3="1"/>
<feColorMatrix type="matrix" values="0 0 0 0 1 0 0 0 0 0.719901 0 0 0 0 0.557738 0 0 0 1 0"/>
<feBlend mode="normal" in2="shape" result="effect1_innerShadow_302_1205"/>
</filter>
</defs>
</svg>
