<svg width="47" height="55" viewBox="0 0 47 55" fill="none" xmlns="http://www.w3.org/2000/svg">
<g filter="url(#filter0_i_302_1096)">
<path d="M23.5586 32.7031C36.4306 32.7031 42.3817 36.0246 45.2402 41.0586C46.4811 43.2439 45.6092 46.021 43.333 47.5244C37.7115 51.2374 30.9014 53.4131 23.5586 53.4131C16.2157 53.4131 9.40574 51.2375 3.78418 47.5244C1.50797 46.021 0.63692 43.2439 1.87793 41.0586C4.7366 36.0248 10.6869 32.7031 23.5586 32.7031ZM23.5586 0.931641C30.1307 0.931641 35.4082 6.04706 35.4082 12.2959C35.4082 18.5448 30.1307 23.6602 23.5586 23.6602C16.9866 23.66 11.71 18.5447 11.71 12.2959C11.71 6.04713 16.9866 0.931756 23.5586 0.931641Z" fill="#5B3639" stroke="#5B3639" stroke-width="1.5"/>
</g>
<defs>
<filter id="filter0_i_302_1096" x="0.558594" y="0.181641" width="46" height="53.981" filterUnits="userSpaceOnUse" color-interpolation-filters="sRGB">
<feFlood flood-opacity="0" result="BackgroundImageFix"/>
<feBlend mode="normal" in="SourceGraphic" in2="BackgroundImageFix" result="shape"/>
<feColorMatrix in="SourceAlpha" type="matrix" values="0 0 0 0 0 0 0 0 0 0 0 0 0 0 0 0 0 0 127 0" result="hardAlpha"/>
<feOffset/>
<feGaussianBlur stdDeviation="5.7"/>
<feComposite in2="hardAlpha" operator="arithmetic" k2="-1" k3="1"/>
<feColorMatrix type="matrix" values="0 0 0 0 1 0 0 0 0 0.719901 0 0 0 0 0.557738 0 0 0 1 0"/>
<feBlend mode="normal" in2="shape" result="effect1_innerShadow_302_1096"/>
</filter>
</defs>
</svg>
