<svg width="54" height="55" viewBox="0 0 54 55" fill="none" xmlns="http://www.w3.org/2000/svg">
<g filter="url(#filter0_i_302_1079)">
<path fill-rule="evenodd" clip-rule="evenodd" d="M21.6828 1.11293C18.9508 2.35719 3.11479 15.8325 1.42981 18.3468C0.0590776 20.3921 0 21.0079 0 33.2816C0 44.7951 0.125069 46.3282 1.24252 48.5166C3.36744 52.6763 5.70416 53.8471 12.3818 54.097C17.8811 54.3029 18.2425 54.2351 19.7666 52.7127C21.2485 51.2324 21.3686 50.685 21.3686 45.4135C21.3686 38.5826 22.2956 35.9095 25.0622 34.7651C26.668 34.1009 27.382 34.1009 28.9878 34.7651C31.7544 35.9095 32.6814 38.5826 32.6814 45.4135C32.6814 50.685 32.8014 51.2324 34.2834 52.7127C35.8075 54.2351 36.1689 54.3029 41.6681 54.097C48.3716 53.8458 50.6819 52.6782 52.842 48.4482C54.0267 46.1285 54.1059 44.9935 53.928 32.8504C53.7502 20.7273 53.6383 19.623 52.4247 17.9839C50.5424 15.4414 37.336 4.26439 33.6241 2.07218C30.0738 -0.0239791 25.0628 -0.426386 21.6828 1.11293Z" fill="#5B3639"/>
</g>
<defs>
<filter id="filter0_i_302_1079" x="0" y="0.181641" width="54" height="54" filterUnits="userSpaceOnUse" color-interpolation-filters="sRGB">
<feFlood flood-opacity="0" result="BackgroundImageFix"/>
<feBlend mode="normal" in="SourceGraphic" in2="BackgroundImageFix" result="shape"/>
<feColorMatrix in="SourceAlpha" type="matrix" values="0 0 0 0 0 0 0 0 0 0 0 0 0 0 0 0 0 0 127 0" result="hardAlpha"/>
<feOffset/>
<feGaussianBlur stdDeviation="5.7"/>
<feComposite in2="hardAlpha" operator="arithmetic" k2="-1" k3="1"/>
<feColorMatrix type="matrix" values="0 0 0 0 1 0 0 0 0 0.719901 0 0 0 0 0.557738 0 0 0 1 0"/>
<feBlend mode="normal" in2="shape" result="effect1_innerShadow_302_1079"/>
</filter>
</defs>
</svg>
