<svg width="46" height="50" viewBox="0 0 46 50" fill="none" xmlns="http://www.w3.org/2000/svg">
<g filter="url(#filter0_i_302_1128)">
<path d="M31.2383 3.2334C32.6044 -0.869434 38.696 -1.83287 37.6992 4.91016C36.8144 10.8948 32.2215 14.5596 28.8682 15.6992H41.0635V15.7471H43.3066C45.9355 15.7472 47.1415 21.4062 43.3066 22.249C43.2565 22.26 43.2029 22.2687 43.1475 22.2754C42.5771 22.3444 42.0637 22.7605 42.0635 23.335C42.0635 23.9079 42.5734 24.325 43.1426 24.3906C43.1997 24.3972 43.2551 24.406 43.3066 24.417C46.1956 25.0306 46.1957 31.3895 43.3066 32.0029C43.2551 32.0139 43.1997 32.0217 43.1426 32.0283C42.5734 32.0939 42.0635 32.5111 42.0635 33.084C42.0635 33.6586 42.577 34.0745 43.1475 34.1436C43.2029 34.1503 43.2565 34.1589 43.3066 34.1699C46.1152 34.7872 46.1151 40.0545 43.3066 40.6719C43.2557 40.6831 43.2009 40.6924 43.1445 40.6992C42.5754 40.7676 42.0636 41.1827 42.0635 41.7559C42.0635 42.3292 42.5753 42.7451 43.1445 42.8135C43.2009 42.8202 43.2557 42.8287 43.3066 42.8398C45.7908 43.3858 45.6332 45.1187 44.8848 46.748C44.2013 48.2356 42.6853 49.0809 41.0635 49.2891V49.3418H13.6641C11.4549 49.3418 9.66406 47.5509 9.66406 45.3418V44.1758H5.66406C2.90269 44.1758 0.66415 41.9371 0.664062 39.1758V27.1758C0.664062 24.4144 2.90264 22.1758 5.66406 22.1758H9.66406V19.6992C9.66422 17.4902 11.455 15.6992 13.6641 15.6992H16.4629C23.3264 10.972 27.6067 9.55745 30.0605 6.34766C30.7403 5.4585 30.8848 4.29534 31.2383 3.2334Z" fill="#5B3639"/>
</g>
<defs>
<filter id="filter0_i_302_1128" x="0.664062" y="0" width="45.0879" height="49.3418" filterUnits="userSpaceOnUse" color-interpolation-filters="sRGB">
<feFlood flood-opacity="0" result="BackgroundImageFix"/>
<feBlend mode="normal" in="SourceGraphic" in2="BackgroundImageFix" result="shape"/>
<feColorMatrix in="SourceAlpha" type="matrix" values="0 0 0 0 0 0 0 0 0 0 0 0 0 0 0 0 0 0 127 0" result="hardAlpha"/>
<feOffset/>
<feGaussianBlur stdDeviation="5.7"/>
<feComposite in2="hardAlpha" operator="arithmetic" k2="-1" k3="1"/>
<feColorMatrix type="matrix" values="0 0 0 0 1 0 0 0 0 0.719901 0 0 0 0 0.557738 0 0 0 1 0"/>
<feBlend mode="normal" in2="shape" result="effect1_innerShadow_302_1128"/>
</filter>
</defs>
</svg>
