<svg width="14" height="51" viewBox="0 0 14 51" fill="none" xmlns="http://www.w3.org/2000/svg">
<g filter="url(#filter0_i_302_1088)">
<path d="M0.36 6.71164C0.36 4.9383 0.943334 3.44497 2.11 2.23164C3.32333 1.0183 4.91 0.411639 6.87 0.411639C8.83 0.411639 10.3933 1.0183 11.56 2.23164C12.7733 3.44497 13.38 4.9383 13.38 6.71164C13.38 8.48497 12.7733 9.97831 11.56 11.1916C10.3933 12.405 8.83 13.0116 6.87 13.0116C4.91 13.0116 3.32333 12.405 2.11 11.1916C0.943334 9.97831 0.36 8.48497 0.36 6.71164ZM12.82 50.1116C12.3067 50.205 11.5367 50.3216 10.51 50.4616C9.53 50.6483 8.52667 50.7416 7.5 50.7416C6.47333 50.7416 5.54 50.6716 4.7 50.5316C3.90667 50.3916 3.23 50.1116 2.67 49.6916C2.11 49.2716 1.66667 48.7116 1.34 48.0116C1.06 47.265 0.92 46.3083 0.92 45.1416V16.6516C1.43333 16.5583 2.18 16.4416 3.16 16.3016C4.18667 16.115 5.21333 16.0216 6.24 16.0216C7.26667 16.0216 8.17667 16.0916 8.97 16.2316C9.81 16.3716 10.51 16.6516 11.07 17.0716C11.63 17.4916 12.05 18.075 12.33 18.8216C12.6567 19.5216 12.82 20.455 12.82 21.6216V50.1116Z" fill="#5B3639"/>
</g>
<defs>
<filter id="filter0_i_302_1088" x="0.359375" y="0.411621" width="13.0215" height="50.3301" filterUnits="userSpaceOnUse" color-interpolation-filters="sRGB">
<feFlood flood-opacity="0" result="BackgroundImageFix"/>
<feBlend mode="normal" in="SourceGraphic" in2="BackgroundImageFix" result="shape"/>
<feColorMatrix in="SourceAlpha" type="matrix" values="0 0 0 0 0 0 0 0 0 0 0 0 0 0 0 0 0 0 127 0" result="hardAlpha"/>
<feOffset/>
<feGaussianBlur stdDeviation="5.7"/>
<feComposite in2="hardAlpha" operator="arithmetic" k2="-1" k3="1"/>
<feColorMatrix type="matrix" values="0 0 0 0 1 0 0 0 0 0.719901 0 0 0 0 0.557738 0 0 0 1 0"/>
<feBlend mode="normal" in2="shape" result="effect1_innerShadow_302_1088"/>
</filter>
</defs>
</svg>
