<svg width="56" height="53" viewBox="0 0 56 53" fill="none" xmlns="http://www.w3.org/2000/svg">
<g filter="url(#filter0_i_302_1137)">
<path d="M26.5361 0.751953C29.1835 -1.13853 32.8601 0.753709 32.8604 4.00684V48.2529C32.8604 51.5063 29.1836 53.3986 26.5361 51.5078L13.4873 42.1875C12.8089 41.703 11.9958 41.4424 11.1621 41.4424H4.77734C2.5682 41.4424 0.777344 39.6515 0.777344 37.4424V14.8174C0.777503 12.6084 2.5683 10.8174 4.77734 10.8174H11.1621C11.9958 10.8174 12.8089 10.5568 13.4873 10.0723L26.5361 0.751953ZM51.8643 18.1533C52.6453 17.3723 53.9113 17.3724 54.6924 18.1533C55.4734 18.9344 55.4734 20.2004 54.6924 20.9814L48.8145 26.8584L54.6924 32.7363C55.4734 33.5174 55.4734 34.7834 54.6924 35.5645C53.9113 36.3455 52.6453 36.3455 51.8643 35.5645L45.9863 29.6865L40.1094 35.5645C39.3283 36.3455 38.0623 36.3455 37.2812 35.5645C36.5003 34.7834 36.5003 33.5173 37.2812 32.7363L43.1582 26.8584L37.2812 20.9814C36.5002 20.2004 36.5002 18.9344 37.2812 18.1533C38.0623 17.3723 39.3283 17.3723 40.1094 18.1533L45.9863 24.0303L51.8643 18.1533Z" fill="#5B3639"/>
</g>
<defs>
<filter id="filter0_i_302_1137" x="0.777344" y="0" width="54.5" height="52.2598" filterUnits="userSpaceOnUse" color-interpolation-filters="sRGB">
<feFlood flood-opacity="0" result="BackgroundImageFix"/>
<feBlend mode="normal" in="SourceGraphic" in2="BackgroundImageFix" result="shape"/>
<feColorMatrix in="SourceAlpha" type="matrix" values="0 0 0 0 0 0 0 0 0 0 0 0 0 0 0 0 0 0 127 0" result="hardAlpha"/>
<feOffset/>
<feGaussianBlur stdDeviation="5.7"/>
<feComposite in2="hardAlpha" operator="arithmetic" k2="-1" k3="1"/>
<feColorMatrix type="matrix" values="0 0 0 0 1 0 0 0 0 0.719901 0 0 0 0 0.557738 0 0 0 1 0"/>
<feBlend mode="normal" in2="shape" result="effect1_innerShadow_302_1137"/>
</filter>
</defs>
</svg>
