<svg width="48" height="50" viewBox="0 0 48 50" fill="none" xmlns="http://www.w3.org/2000/svg">
<g filter="url(#filter0_i_302_1194)">
<path d="M3.92578 37.3813C5.01675 39.3446 7.64915 40.0129 9.63379 38.6899L9.65137 38.6792L9.66895 38.6694C11.6325 37.5785 12.3007 34.9452 10.9775 32.9604L10.96 32.9312C8.92801 29.3752 8.15647 25.291 9.17969 21.1978C10.1966 17.1303 12.495 13.7962 16.0869 11.7437C19.6429 9.7117 23.727 8.94011 27.8203 9.96338C31.8878 10.9802 35.2219 13.2787 37.2744 16.8706L37.2773 16.8755C38.3682 18.8391 41.0016 19.5082 42.9863 18.1851L43.0029 18.1733L43.0205 18.1636C44.9838 17.0727 45.6528 14.4402 44.3301 12.4556L44.7461 12.1782L44.7412 12.1812L44.3291 12.4556L44.3242 12.4458C40.9317 7.11481 35.8538 3.25073 29.5752 1.79834C28.1097 1.55477 26.1709 1.31299 24.2402 1.31299C19.8955 1.31304 15.7841 2.51785 11.9004 4.69971H11.9014C0.771767 11.4742 -2.85778 26.2366 3.91504 37.3638L3.9209 37.3726L3.92578 37.3813Z" fill="#5B3639" stroke="#5B3639"/>
<path d="M4.16016 37.3643C10.9347 48.4939 25.698 52.1236 36.8252 45.3506L36.834 45.3447L36.8418 45.3398C38.8053 44.249 39.4742 41.6166 38.1514 39.6318L38.1396 39.6143L38.1299 39.5967C37.0389 37.6333 34.4056 36.965 32.4209 38.2881L32.4072 38.2969L32.3916 38.3057L32.0576 38.4922C28.5811 40.3841 24.6238 41.0773 20.6582 40.0859C16.5953 39.0702 13.2649 36.7754 11.2119 33.1904C6.87096 26.0406 9.16323 16.3434 16.3203 11.998L16.3281 11.9932L16.3369 11.9883C18.3005 10.8974 18.9697 8.26407 17.6465 6.2793L17.6289 6.25391L17.6152 6.22559C16.9611 4.91746 15.4076 4.03127 14.1094 4.03125C13.4557 4.03125 12.5662 4.25508 11.916 4.68848V4.68945L11.9072 4.69434L11.4111 5.01758C6.33324 8.4078 2.6608 13.3674 1.25586 19.4551C-0.198172 25.7559 0.772847 32.0412 4.15527 37.3564L4.16016 37.3643Z" fill="#5B3639" stroke="#5B3639"/>
<path d="M43.0107 17.021C43.2087 18.0101 44.1756 18.7574 45.3271 18.3735L45.3564 18.3638L45.3877 18.3579C46.3768 18.1599 47.1241 17.193 46.7402 16.0415L46.7314 16.0161L46.7256 15.9888L44.0088 3.38916L44.0068 3.38232C43.809 2.39309 42.8421 1.64492 41.6904 2.02881L41.6611 2.03857L41.6309 2.04443L41.4639 2.0874C40.701 2.32625 40.1706 3.11682 40.2666 4.20068L40.2969 4.43701L43.0098 17.0132L43.0107 17.021Z" fill="#5B3639" stroke="#5B3639"/>
<path d="M30.6592 19.4917C30.8572 20.4808 31.824 21.2281 32.9756 20.8442L33.001 20.8354L33.0283 20.8296L45.6279 18.1128L45.6348 18.1108C46.624 17.913 47.3722 16.9461 46.9883 15.7944L46.9785 15.7651L46.9727 15.7349C46.7913 14.828 45.8659 14.1876 44.582 14.4009L32.0039 17.1138L31.9961 17.1147L31.8145 17.1606C30.9183 17.4339 30.2836 18.3513 30.6436 19.4312L30.6533 19.4604L30.6592 19.4917Z" fill="#5B3639" stroke="#5B3639"/>
</g>
<defs>
<filter id="filter0_i_302_1194" x="0" y="0.813477" width="47.5918" height="48.4521" filterUnits="userSpaceOnUse" color-interpolation-filters="sRGB">
<feFlood flood-opacity="0" result="BackgroundImageFix"/>
<feBlend mode="normal" in="SourceGraphic" in2="BackgroundImageFix" result="shape"/>
<feColorMatrix in="SourceAlpha" type="matrix" values="0 0 0 0 0 0 0 0 0 0 0 0 0 0 0 0 0 0 127 0" result="hardAlpha"/>
<feOffset/>
<feGaussianBlur stdDeviation="5.7"/>
<feComposite in2="hardAlpha" operator="arithmetic" k2="-1" k3="1"/>
<feColorMatrix type="matrix" values="0 0 0 0 1 0 0 0 0 0.719901 0 0 0 0 0.557738 0 0 0 1 0"/>
<feBlend mode="normal" in2="shape" result="effect1_innerShadow_302_1194"/>
</filter>
</defs>
</svg>
