<svg width="316" height="158" viewBox="0 0 316 158" fill="none" xmlns="http://www.w3.org/2000/svg">
<g filter="url(#filter0_ddi_286_858)">
<rect x="15" y="26.1367" width="286.425" height="103.349" rx="51.6747" fill="url(#paint0_linear_286_858)"/>
</g>
<g filter="url(#filter1_f_286_858)">
<rect x="19.2539" y="32.519" width="277.612" height="90.41" rx="45.205" fill="url(#paint1_linear_286_858)"/>
</g>
<g filter="url(#filter2_d_286_858)">
<path fill-rule="evenodd" clip-rule="evenodd" d="M158.051 33.1367C159.048 33.1367 159.857 33.955 159.857 34.9643V40.4472L165.276 40.4472C166.273 40.4472 167.082 41.2655 167.082 42.2749C167.082 43.2842 166.273 44.1025 165.276 44.1025L159.857 44.1025L159.857 49.5852C159.857 50.5946 159.048 51.4129 158.051 51.4129C157.053 51.4129 156.245 50.5946 156.245 49.5852L156.245 44.1025H150.826C149.828 44.1025 149.02 43.2842 149.02 42.2749C149.02 41.2655 149.828 40.4472 150.826 40.4472L156.245 40.4472L156.245 34.9643C156.245 33.955 157.053 33.1367 158.051 33.1367Z" fill="white"/>
</g>
<g filter="url(#filter3_d_286_858)">
<path d="M138.628 21.4443C141.701 18.3686 146.66 18.3456 149.705 21.3931L153.013 24.7038C153.784 25.4764 154.17 25.8627 154.314 26.3095C154.44 26.7026 154.438 27.1266 154.308 27.5208C154.161 27.969 153.771 28.3589 152.992 29.1386L149.654 32.4801C146.581 35.5559 141.622 35.5788 138.577 32.5314C135.532 29.4839 135.555 24.5201 138.628 21.4443Z" fill="white"/>
<path d="M165.705 21.3191C168.778 18.2433 173.737 18.2204 176.781 21.2678C179.826 24.3153 179.803 29.2791 176.73 32.3549C173.657 35.4306 168.698 35.4535 165.653 32.4061L161.716 28.4647C161.533 28.2817 161.441 28.1902 161.373 28.1045C160.807 27.3922 160.812 26.378 161.385 25.6605C161.454 25.5741 161.546 25.4817 161.73 25.297L165.705 21.3191Z" fill="white"/>
<path d="M152.344 5.75908C155.417 2.68333 160.376 2.66039 163.421 5.70784C166.466 8.75529 166.443 13.7191 163.37 16.7949L159.66 20.5076C159.229 20.9392 159.014 21.155 158.79 21.2851C158.182 21.638 157.436 21.6414 156.832 21.2941C156.609 21.1662 156.395 20.9523 155.968 20.5247L152.293 16.8461C149.248 13.7987 149.271 8.83484 152.344 5.75908Z" stroke="white" stroke-width="2"/>
</g>
<defs>
<filter id="filter0_ddi_286_858" x="3" y="14.1367" width="310.426" height="143.35" filterUnits="userSpaceOnUse" color-interpolation-filters="sRGB">
<feFlood flood-opacity="0" result="BackgroundImageFix"/>
<feColorMatrix in="SourceAlpha" type="matrix" values="0 0 0 0 0 0 0 0 0 0 0 0 0 0 0 0 0 0 127 0" result="hardAlpha"/>
<feOffset dy="16"/>
<feGaussianBlur stdDeviation="6"/>
<feComposite in2="hardAlpha" operator="out"/>
<feColorMatrix type="matrix" values="0 0 0 0 0 0 0 0 0 0 0 0 0 0 0 0 0 0 0.4 0"/>
<feBlend mode="normal" in2="BackgroundImageFix" result="effect1_dropShadow_286_858"/>
<feColorMatrix in="SourceAlpha" type="matrix" values="0 0 0 0 0 0 0 0 0 0 0 0 0 0 0 0 0 0 127 0" result="hardAlpha"/>
<feOffset/>
<feGaussianBlur stdDeviation="6"/>
<feComposite in2="hardAlpha" operator="out"/>
<feColorMatrix type="matrix" values="0 0 0 0 1 0 0 0 0 0.753008 0 0 0 0 0.297024 0 0 0 1 0"/>
<feBlend mode="normal" in2="effect1_dropShadow_286_858" result="effect2_dropShadow_286_858"/>
<feBlend mode="normal" in="SourceGraphic" in2="effect2_dropShadow_286_858" result="shape"/>
<feColorMatrix in="SourceAlpha" type="matrix" values="0 0 0 0 0 0 0 0 0 0 0 0 0 0 0 0 0 0 127 0" result="hardAlpha"/>
<feOffset/>
<feGaussianBlur stdDeviation="5.7"/>
<feComposite in2="hardAlpha" operator="arithmetic" k2="-1" k3="1"/>
<feColorMatrix type="matrix" values="0 0 0 0 1 0 0 0 0 0.752941 0 0 0 0 0.298039 0 0 0 1 0"/>
<feBlend mode="normal" in2="shape" result="effect3_innerShadow_286_858"/>
</filter>
<filter id="filter1_f_286_858" x="0.853907" y="14.119" width="314.411" height="127.21" filterUnits="userSpaceOnUse" color-interpolation-filters="sRGB">
<feFlood flood-opacity="0" result="BackgroundImageFix"/>
<feBlend mode="normal" in="SourceGraphic" in2="BackgroundImageFix" result="shape"/>
<feGaussianBlur stdDeviation="9.2" result="effect1_foregroundBlur_286_858"/>
</filter>
<filter id="filter2_d_286_858" x="145.02" y="33.1367" width="26.0625" height="26.2764" filterUnits="userSpaceOnUse" color-interpolation-filters="sRGB">
<feFlood flood-opacity="0" result="BackgroundImageFix"/>
<feColorMatrix in="SourceAlpha" type="matrix" values="0 0 0 0 0 0 0 0 0 0 0 0 0 0 0 0 0 0 127 0" result="hardAlpha"/>
<feOffset dy="4"/>
<feGaussianBlur stdDeviation="2"/>
<feComposite in2="hardAlpha" operator="out"/>
<feColorMatrix type="matrix" values="0 0 0 0 0 0 0 0 0 0 0 0 0 0 0 0 0 0 0.25 0"/>
<feBlend mode="normal" in2="BackgroundImageFix" result="effect1_dropShadow_286_858"/>
<feBlend mode="normal" in="SourceGraphic" in2="effect1_dropShadow_286_858" result="shape"/>
</filter>
<filter id="filter3_d_286_858" x="132.309" y="2.43652" width="50.7422" height="40.3657" filterUnits="userSpaceOnUse" color-interpolation-filters="sRGB">
<feFlood flood-opacity="0" result="BackgroundImageFix"/>
<feColorMatrix in="SourceAlpha" type="matrix" values="0 0 0 0 0 0 0 0 0 0 0 0 0 0 0 0 0 0 127 0" result="hardAlpha"/>
<feOffset dy="4"/>
<feGaussianBlur stdDeviation="2"/>
<feComposite in2="hardAlpha" operator="out"/>
<feColorMatrix type="matrix" values="0 0 0 0 0 0 0 0 0 0 0 0 0 0 0 0 0 0 0.25 0"/>
<feBlend mode="normal" in2="BackgroundImageFix" result="effect1_dropShadow_286_858"/>
<feBlend mode="normal" in="SourceGraphic" in2="effect1_dropShadow_286_858" result="shape"/>
</filter>
<linearGradient id="paint0_linear_286_858" x1="271.159" y1="29.8278" x2="136.256" y2="159.624" gradientUnits="userSpaceOnUse">
<stop stop-color="#FFB419"/>
<stop offset="0.381176" stop-color="#FF8A14"/>
<stop offset="0.715519" stop-color="#F75C2D"/>
<stop offset="1" stop-color="#D84E4D"/>
</linearGradient>
<linearGradient id="paint1_linear_286_858" x1="161.459" y1="122.929" x2="158.451" y2="32.533" gradientUnits="userSpaceOnUse">
<stop stop-color="#7F1335" stop-opacity="0.7"/>
<stop offset="0.676964" stop-color="#FF9B13" stop-opacity="0"/>
</linearGradient>
</defs>
</svg>
