<svg width="316" height="168" viewBox="0 0 316 168" fill="none" xmlns="http://www.w3.org/2000/svg">
<g filter="url(#filter0_d_286_851)">
<path d="M173.929 38.0243C169.415 41.0056 163.949 42.7503 158.059 42.7503C152.169 42.7503 146.703 41.0055 142.189 38.0241C140.195 36.7073 139.343 34.199 140.503 32.1578C142.906 27.9265 147.857 25.291 158.059 25.291C168.262 25.291 173.213 27.9266 175.616 32.158C176.775 34.1992 175.923 36.7075 173.929 38.0243Z" fill="white"/>
<path d="M158.059 19.3615C163.529 19.3615 167.964 15.0978 167.964 9.8382C167.964 4.57865 163.529 0.314941 158.059 0.314941C152.589 0.314941 148.155 4.57865 148.155 9.8382C148.155 15.0978 152.589 19.3615 158.059 19.3615Z" fill="white"/>
</g>
<g filter="url(#filter1_dddi_286_851)">
<rect x="15" y="36.2783" width="286.431" height="103.352" rx="51.6758" fill="url(#paint0_linear_286_851)"/>
</g>
<g filter="url(#filter2_f_286_851)">
<rect x="19.2539" y="42.6606" width="277.618" height="90.412" rx="45.206" fill="url(#paint1_linear_286_851)"/>
</g>
<g filter="url(#filter3_d_286_851)">
<path fill-rule="evenodd" clip-rule="evenodd" d="M158.129 42.8608C159.488 42.8608 160.59 43.9754 160.59 45.3502V52.8183H167.97C169.329 52.8183 170.43 53.9328 170.43 55.3076C170.43 56.6825 169.329 57.797 167.97 57.797L160.59 57.797L160.59 65.2649C160.59 66.6398 159.488 67.7543 158.129 67.7543C156.771 67.7543 155.669 66.6398 155.669 65.2649L155.669 57.797H148.288C146.93 57.797 145.828 56.6825 145.828 55.3076C145.828 53.9328 146.93 52.8183 148.288 52.8183L155.669 52.8183L155.669 45.3502C155.669 43.9754 156.771 42.8608 158.129 42.8608Z" fill="white"/>
</g>
<defs>
<filter id="filter0_d_286_851" x="135.979" y="0.314941" width="44.1621" height="50.4355" filterUnits="userSpaceOnUse" color-interpolation-filters="sRGB">
<feFlood flood-opacity="0" result="BackgroundImageFix"/>
<feColorMatrix in="SourceAlpha" type="matrix" values="0 0 0 0 0 0 0 0 0 0 0 0 0 0 0 0 0 0 127 0" result="hardAlpha"/>
<feOffset dy="4"/>
<feGaussianBlur stdDeviation="2"/>
<feComposite in2="hardAlpha" operator="out"/>
<feColorMatrix type="matrix" values="0 0 0 0 0 0 0 0 0 0 0 0 0 0 0 0 0 0 0.25 0"/>
<feBlend mode="normal" in2="BackgroundImageFix" result="effect1_dropShadow_286_851"/>
<feBlend mode="normal" in="SourceGraphic" in2="effect1_dropShadow_286_851" result="shape"/>
</filter>
<filter id="filter1_dddi_286_851" x="1" y="24.2783" width="314.432" height="143.352" filterUnits="userSpaceOnUse" color-interpolation-filters="sRGB">
<feFlood flood-opacity="0" result="BackgroundImageFix"/>
<feColorMatrix in="SourceAlpha" type="matrix" values="0 0 0 0 0 0 0 0 0 0 0 0 0 0 0 0 0 0 127 0" result="hardAlpha"/>
<feOffset dy="16"/>
<feGaussianBlur stdDeviation="6"/>
<feComposite in2="hardAlpha" operator="out"/>
<feColorMatrix type="matrix" values="0 0 0 0 0 0 0 0 0 0 0 0 0 0 0 0 0 0 0.4 0"/>
<feBlend mode="normal" in2="BackgroundImageFix" result="effect1_dropShadow_286_851"/>
<feColorMatrix in="SourceAlpha" type="matrix" values="0 0 0 0 0 0 0 0 0 0 0 0 0 0 0 0 0 0 127 0" result="hardAlpha"/>
<feOffset dx="2"/>
<feGaussianBlur stdDeviation="6"/>
<feComposite in2="hardAlpha" operator="out"/>
<feColorMatrix type="matrix" values="0 0 0 0 0.54902 0 0 0 0 1 0 0 0 0 0.698039 0 0 0 0.7 0"/>
<feBlend mode="normal" in2="effect1_dropShadow_286_851" result="effect2_dropShadow_286_851"/>
<feColorMatrix in="SourceAlpha" type="matrix" values="0 0 0 0 0 0 0 0 0 0 0 0 0 0 0 0 0 0 127 0" result="hardAlpha"/>
<feOffset dx="-2"/>
<feGaussianBlur stdDeviation="6"/>
<feComposite in2="hardAlpha" operator="out"/>
<feColorMatrix type="matrix" values="0 0 0 0 0.430754 0 0 0 0 0.671812 0 0 0 0 1 0 0 0 0.7 0"/>
<feBlend mode="normal" in2="effect2_dropShadow_286_851" result="effect3_dropShadow_286_851"/>
<feBlend mode="normal" in="SourceGraphic" in2="effect3_dropShadow_286_851" result="shape"/>
<feColorMatrix in="SourceAlpha" type="matrix" values="0 0 0 0 0 0 0 0 0 0 0 0 0 0 0 0 0 0 127 0" result="hardAlpha"/>
<feOffset/>
<feGaussianBlur stdDeviation="5.7"/>
<feComposite in2="hardAlpha" operator="arithmetic" k2="-1" k3="1"/>
<feColorMatrix type="matrix" values="0 0 0 0 0.548214 0 0 0 0 1 0 0 0 0 0.696457 0 0 0 1 0"/>
<feBlend mode="normal" in2="shape" result="effect4_innerShadow_286_851"/>
</filter>
<filter id="filter2_f_286_851" x="0.853907" y="24.2606" width="314.417" height="127.212" filterUnits="userSpaceOnUse" color-interpolation-filters="sRGB">
<feFlood flood-opacity="0" result="BackgroundImageFix"/>
<feBlend mode="normal" in="SourceGraphic" in2="BackgroundImageFix" result="shape"/>
<feGaussianBlur stdDeviation="9.2" result="effect1_foregroundBlur_286_851"/>
</filter>
<filter id="filter3_d_286_851" x="141.828" y="42.8608" width="32.6016" height="32.8936" filterUnits="userSpaceOnUse" color-interpolation-filters="sRGB">
<feFlood flood-opacity="0" result="BackgroundImageFix"/>
<feColorMatrix in="SourceAlpha" type="matrix" values="0 0 0 0 0 0 0 0 0 0 0 0 0 0 0 0 0 0 127 0" result="hardAlpha"/>
<feOffset dy="4"/>
<feGaussianBlur stdDeviation="2"/>
<feComposite in2="hardAlpha" operator="out"/>
<feColorMatrix type="matrix" values="0 0 0 0 0 0 0 0 0 0 0 0 0 0 0 0 0 0 0.25 0"/>
<feBlend mode="normal" in2="BackgroundImageFix" result="effect1_dropShadow_286_851"/>
<feBlend mode="normal" in="SourceGraphic" in2="effect1_dropShadow_286_851" result="shape"/>
</filter>
<linearGradient id="paint0_linear_286_851" x1="271.164" y1="39.9694" x2="136.258" y2="169.769" gradientUnits="userSpaceOnUse">
<stop stop-color="#63E995"/>
<stop offset="0.381176" stop-color="#38ADBE"/>
<stop offset="0.715519" stop-color="#1B82DC"/>
<stop offset="1" stop-color="#232EFF"/>
</linearGradient>
<linearGradient id="paint1_linear_286_851" x1="161.462" y1="133.073" x2="158.454" y2="42.6746" gradientUnits="userSpaceOnUse">
<stop stop-color="#3920B9"/>
<stop offset="0.676964" stop-color="#B670BA" stop-opacity="0"/>
</linearGradient>
</defs>
</svg>
