<svg width="343" height="145" viewBox="0 0 343 145" fill="none" xmlns="http://www.w3.org/2000/svg">
<g filter="url(#filter0_ddi_287_1020)">
<path d="M311.873 69.4906C310.183 72.3232 309.558 76.0009 310.213 79.2552C311.142 83.8755 314.494 86.792 319.026 86.9246C320.408 86.965 321.434 86.7829 322.454 86.316C327.096 84.1902 328.84 77.1794 325.891 72.5009C324.6 70.4534 322.54 68.8257 320.041 67.8784C317.769 67.0173 315.87 66.7974 314.485 67.2352C313.27 67.6188 312.693 68.1173 311.873 69.4906Z" fill="url(#paint0_linear_287_1020)"/>
<path d="M323.275 102.966C322.373 103.806 321.801 105.184 321.933 106.199C322.3 109.039 325.024 110.251 328.111 108.947C329.322 108.435 330.032 107.829 330.562 106.856C331.106 105.854 331.138 105.122 330.689 103.913C330.36 103.029 330.288 102.92 329.739 102.471C329.059 101.914 328.967 101.868 328.111 101.64C327.15 101.384 326.097 101.513 324.836 102.04C324.002 102.388 323.707 102.563 323.275 102.966Z" fill="url(#paint1_linear_287_1020)"/>
<path fill-rule="evenodd" clip-rule="evenodd" d="M308.564 23.2359C303.452 16.6676 295.595 12.8262 287.271 12.8262H66.0773C37.6416 12.8262 14.59 35.8778 14.59 64.3135C14.59 92.7491 37.6416 115.801 66.0773 115.801L245.259 115.801C256.937 115.801 272.853 116.183 281.694 116.238C305.082 116.383 308.518 98.0064 298.983 85.9859C294.674 80.5547 291.307 75.5311 295.946 70.3795C298.419 67.6333 301.545 64.553 304.82 61.495C315.573 51.4573 317.598 34.8439 308.564 23.2359ZM264.868 105.015C264.109 105.701 263.683 106.422 263.566 107.216C263.389 108.424 264.107 109.405 265.482 109.834C267.519 110.469 269.692 109.605 270.313 107.912C270.744 106.74 270.373 105.406 269.394 104.608C268.118 103.568 266.287 103.733 264.868 105.015ZM278.089 93.5521C275.371 96.0412 273.755 99.3659 274.005 101.95C274.085 102.786 274.763 104.424 275.264 104.997C275.92 105.746 276.892 106.389 277.859 106.712C279.564 107.281 281.403 107.088 283.16 106.157C286.749 104.256 289.303 100.484 289.354 97.0118C289.372 95.7909 288.836 94.2887 288.087 93.4621C287.043 92.3102 285.884 91.6553 284.431 91.3965C282.18 90.9958 280.111 91.6992 278.089 93.5521Z" fill="url(#paint2_linear_287_1020)"/>
</g>
<g filter="url(#filter1_f_287_1020)">
<rect width="277.076" height="90.0821" rx="45" transform="matrix(-1 0 0 1 296.217 19.1851)" fill="url(#paint3_linear_287_1020)"/>
</g>
<g filter="url(#filter2_dd_287_1020)">
<g filter="url(#filter3_d_287_1020)">
<path d="M62.7293 86.6104C74.6836 86.6104 84.3746 76.9195 84.3746 64.9651C84.3746 53.0108 74.6836 43.3198 62.7293 43.3198C50.7749 43.3198 41.084 53.0108 41.084 64.9651C41.084 76.9195 50.7749 86.6104 62.7293 86.6104Z" fill="#E69CFF"/>
</g>
<path d="M62.5905 82.8017C72.518 82.8017 80.5659 74.7539 80.5659 64.8264C80.5659 54.8989 72.518 46.8511 62.5905 46.8511C52.6631 46.8511 44.6152 54.8989 44.6152 64.8264C44.6152 74.7539 52.6631 82.8017 62.5905 82.8017Z" fill="#F6BEFF"/>
<path d="M62.75 77.9868C69.9297 77.9868 75.75 72.1665 75.75 64.9868C75.75 57.8071 69.9297 51.9868 62.75 51.9868C55.5703 51.9868 49.75 57.8071 49.75 64.9868C49.75 72.1665 55.5703 77.9868 62.75 77.9868Z" fill="#E69CFF"/>
<path d="M53.9616 64.8654C53.9616 69.6519 57.8418 73.5321 62.6283 73.5321C67.4147 73.5321 71.2949 69.6519 71.2949 64.8654C71.2949 60.0789 67.4147 56.1987 62.6283 56.1987C57.8418 56.1987 53.9616 60.0789 53.9616 64.8654Z" fill="url(#paint4_linear_287_1020)"/>
</g>
<rect x="73.8242" y="62.9004" width="14.7654" height="3.53086" rx="1.76543" fill="white"/>
<rect x="64.1953" y="76.0605" width="14.7654" height="3.53086" rx="1.76543" transform="rotate(90 64.1953 76.0605)" fill="white"/>
<rect x="36.5898" y="62.9004" width="14.7654" height="3.53086" rx="1.76543" fill="white"/>
<rect x="64.1953" y="38.8262" width="14.7654" height="3.53086" rx="1.76543" transform="rotate(90 64.1953 38.8262)" fill="white"/>
<defs>
<filter id="filter0_ddi_287_1020" x="2.58984" y="0.826172" width="340.41" height="143.413" filterUnits="userSpaceOnUse" color-interpolation-filters="sRGB">
<feFlood flood-opacity="0" result="BackgroundImageFix"/>
<feColorMatrix in="SourceAlpha" type="matrix" values="0 0 0 0 0 0 0 0 0 0 0 0 0 0 0 0 0 0 127 0" result="hardAlpha"/>
<feOffset dy="16"/>
<feGaussianBlur stdDeviation="6"/>
<feComposite in2="hardAlpha" operator="out"/>
<feColorMatrix type="matrix" values="0 0 0 0 0 0 0 0 0 0 0 0 0 0 0 0 0 0 0.4 0"/>
<feBlend mode="normal" in2="BackgroundImageFix" result="effect1_dropShadow_287_1020"/>
<feColorMatrix in="SourceAlpha" type="matrix" values="0 0 0 0 0 0 0 0 0 0 0 0 0 0 0 0 0 0 127 0" result="hardAlpha"/>
<feOffset/>
<feGaussianBlur stdDeviation="6"/>
<feComposite in2="hardAlpha" operator="out"/>
<feColorMatrix type="matrix" values="0 0 0 0 0.530157 0 0 0 0 0.0276011 0 0 0 0 0.763049 0 0 0 1 0"/>
<feBlend mode="normal" in2="effect1_dropShadow_287_1020" result="effect2_dropShadow_287_1020"/>
<feBlend mode="normal" in="SourceGraphic" in2="effect2_dropShadow_287_1020" result="shape"/>
<feColorMatrix in="SourceAlpha" type="matrix" values="0 0 0 0 0 0 0 0 0 0 0 0 0 0 0 0 0 0 127 0" result="hardAlpha"/>
<feOffset/>
<feGaussianBlur stdDeviation="5.7"/>
<feComposite in2="hardAlpha" operator="arithmetic" k2="-1" k3="1"/>
<feColorMatrix type="matrix" values="0 0 0 0 0.909643 0 0 0 0 0.548214 0 0 0 0 1 0 0 0 1 0"/>
<feBlend mode="normal" in2="shape" result="effect3_innerShadow_287_1020"/>
</filter>
<filter id="filter1_f_287_1020" x="0.740625" y="0.785059" width="313.876" height="126.882" filterUnits="userSpaceOnUse" color-interpolation-filters="sRGB">
<feFlood flood-opacity="0" result="BackgroundImageFix"/>
<feBlend mode="normal" in="SourceGraphic" in2="BackgroundImageFix" result="shape"/>
<feGaussianBlur stdDeviation="9.2" result="effect1_foregroundBlur_287_1020"/>
</filter>
<filter id="filter2_dd_287_1020" x="28.084" y="30.3198" width="69.291" height="69.2905" filterUnits="userSpaceOnUse" color-interpolation-filters="sRGB">
<feFlood flood-opacity="0" result="BackgroundImageFix"/>
<feColorMatrix in="SourceAlpha" type="matrix" values="0 0 0 0 0 0 0 0 0 0 0 0 0 0 0 0 0 0 127 0" result="hardAlpha"/>
<feOffset/>
<feGaussianBlur stdDeviation="6.5"/>
<feComposite in2="hardAlpha" operator="out"/>
<feColorMatrix type="matrix" values="0 0 0 0 0.829792 0 0 0 0 0.4625 0 0 0 0 1 0 0 0 1 0"/>
<feBlend mode="normal" in2="BackgroundImageFix" result="effect1_dropShadow_287_1020"/>
<feColorMatrix in="SourceAlpha" type="matrix" values="0 0 0 0 0 0 0 0 0 0 0 0 0 0 0 0 0 0 127 0" result="hardAlpha"/>
<feOffset/>
<feGaussianBlur stdDeviation="2"/>
<feComposite in2="hardAlpha" operator="out"/>
<feColorMatrix type="matrix" values="0 0 0 0 0 0 0 0 0 0 0 0 0 0 0 0 0 0 0.25 0"/>
<feBlend mode="normal" in2="effect1_dropShadow_287_1020" result="effect2_dropShadow_287_1020"/>
<feBlend mode="normal" in="SourceGraphic" in2="effect2_dropShadow_287_1020" result="shape"/>
</filter>
<filter id="filter3_d_287_1020" x="38.584" y="41.8198" width="48.291" height="48.2905" filterUnits="userSpaceOnUse" color-interpolation-filters="sRGB">
<feFlood flood-opacity="0" result="BackgroundImageFix"/>
<feColorMatrix in="SourceAlpha" type="matrix" values="0 0 0 0 0 0 0 0 0 0 0 0 0 0 0 0 0 0 127 0" result="hardAlpha"/>
<feOffset dy="1"/>
<feGaussianBlur stdDeviation="1.25"/>
<feComposite in2="hardAlpha" operator="out"/>
<feColorMatrix type="matrix" values="0 0 0 0 0 0 0 0 0 0 0 0 0 0 0 0 0 0 0.5 0"/>
<feBlend mode="normal" in2="BackgroundImageFix" result="effect1_dropShadow_287_1020"/>
<feBlend mode="normal" in="SourceGraphic" in2="effect1_dropShadow_287_1020" result="shape"/>
</filter>
<linearGradient id="paint0_linear_287_1020" x1="48.0251" y1="16.5195" x2="285.59" y2="100.326" gradientUnits="userSpaceOnUse">
<stop stop-color="#954DD8"/>
<stop offset="0.284481" stop-color="#B02DF7"/>
<stop offset="0.618824" stop-color="#E014FF"/>
<stop offset="1" stop-color="#FF6AD7"/>
</linearGradient>
<linearGradient id="paint1_linear_287_1020" x1="48.0251" y1="16.5195" x2="285.59" y2="100.326" gradientUnits="userSpaceOnUse">
<stop stop-color="#954DD8"/>
<stop offset="0.284481" stop-color="#B02DF7"/>
<stop offset="0.618824" stop-color="#E014FF"/>
<stop offset="1" stop-color="#FF6AD7"/>
</linearGradient>
<linearGradient id="paint2_linear_287_1020" x1="48.0251" y1="16.5195" x2="285.59" y2="100.326" gradientUnits="userSpaceOnUse">
<stop stop-color="#954DD8"/>
<stop offset="0.284481" stop-color="#B02DF7"/>
<stop offset="0.618824" stop-color="#E014FF"/>
<stop offset="1" stop-color="#FF6AD7"/>
</linearGradient>
<linearGradient id="paint3_linear_287_1020" x1="141.931" y1="90.0821" x2="138.939" y2="0.0135891" gradientUnits="userSpaceOnUse">
<stop stop-color="#6100B6"/>
<stop offset="0.676964" stop-color="#E991FF" stop-opacity="0"/>
</linearGradient>
<linearGradient id="paint4_linear_287_1020" x1="69.9777" y1="69.1871" x2="55.1388" y2="60.427" gradientUnits="userSpaceOnUse">
<stop stop-color="#DB4CFF"/>
<stop offset="1" stop-color="#732E99"/>
</linearGradient>
</defs>
</svg>
