<svg width="343" height="144" viewBox="0 0 343 144" fill="none" xmlns="http://www.w3.org/2000/svg">
<g filter="url(#filter0_ddi_287_1013)">
<path d="M311.873 68.7299C310.183 71.5625 309.558 75.2401 310.213 78.4945C311.142 83.1148 314.494 86.0313 319.026 86.1639C320.408 86.2043 321.434 86.0221 322.454 85.5552C327.096 83.4295 328.84 76.4187 325.891 71.7401C324.6 69.6926 322.54 68.0649 320.041 67.1177C317.769 66.2565 315.87 66.0367 314.485 66.4744C313.27 66.858 312.693 67.3565 311.873 68.7299Z" fill="url(#paint0_linear_287_1013)"/>
<path d="M323.275 102.205C322.373 103.045 321.801 104.423 321.933 105.438C322.3 108.278 325.024 109.49 328.111 108.186C329.322 107.674 330.032 107.068 330.562 106.095C331.106 105.094 331.138 104.361 330.689 103.152C330.36 102.268 330.288 102.159 329.739 101.71C329.059 101.154 328.967 101.107 328.111 100.879C327.15 100.623 326.097 100.752 324.836 101.279C324.002 101.627 323.707 101.802 323.275 102.205Z" fill="url(#paint1_linear_287_1013)"/>
<path fill-rule="evenodd" clip-rule="evenodd" d="M308.564 22.4752C303.452 15.9068 295.595 12.0654 287.271 12.0654H66.0773C37.6416 12.0654 14.59 35.1171 14.59 63.5527C14.59 91.9884 37.6416 115.04 66.0773 115.04L245.259 115.04C256.937 115.04 272.853 115.423 281.694 115.478C305.082 115.623 308.518 97.2457 298.983 85.2251C294.674 79.794 291.307 74.7704 295.946 69.6187C298.419 66.8726 301.545 63.7923 304.82 60.7343C315.573 50.6965 317.598 34.0832 308.564 22.4752ZM264.868 104.254C264.109 104.94 263.683 105.661 263.566 106.455C263.389 107.664 264.107 108.644 265.482 109.073C267.519 109.709 269.692 108.844 270.313 107.152C270.744 105.979 270.373 104.645 269.394 103.847C268.118 102.807 266.287 102.972 264.868 104.254ZM278.089 92.7914C275.371 95.2805 273.755 98.6052 274.005 101.19C274.085 102.025 274.763 103.664 275.264 104.236C275.92 104.986 276.892 105.628 277.859 105.951C279.564 106.52 281.403 106.328 283.16 105.396C286.749 103.495 289.303 99.7233 289.354 96.2511C289.372 95.0302 288.836 93.528 288.087 92.7013C287.043 91.5494 285.884 90.8946 284.431 90.6358C282.18 90.2351 280.111 90.9384 278.089 92.7914Z" fill="url(#paint2_linear_287_1013)"/>
</g>
<g filter="url(#filter1_f_287_1013)">
<rect width="277.076" height="90.0821" rx="45" transform="matrix(-1 0 0 1 296.217 18.4243)" fill="url(#paint3_linear_287_1013)"/>
</g>
<g filter="url(#filter2_dd_287_1013)">
<g filter="url(#filter3_d_287_1013)">
<path d="M62.7293 85.8497C74.6836 85.8497 84.3746 76.1587 84.3746 64.2044C84.3746 52.25 74.6836 42.5591 62.7293 42.5591C50.7749 42.5591 41.084 52.25 41.084 64.2044C41.084 76.1587 50.7749 85.8497 62.7293 85.8497Z" fill="#FFC59C"/>
</g>
<path d="M62.5905 82.041C72.518 82.041 80.5659 73.9931 80.5659 64.0656C80.5659 54.1382 72.518 46.0903 62.5905 46.0903C52.6631 46.0903 44.6152 54.1382 44.6152 64.0656C44.6152 73.9931 52.6631 82.041 62.5905 82.041Z" fill="#FFE3BE"/>
<path d="M62.75 77.2261C69.9297 77.2261 75.75 71.4058 75.75 64.2261C75.75 57.0464 69.9297 51.2261 62.75 51.2261C55.5703 51.2261 49.75 57.0464 49.75 64.2261C49.75 71.4058 55.5703 77.2261 62.75 77.2261Z" fill="#FFC59C"/>
<path d="M53.9616 64.1047C53.9616 68.8911 57.8418 72.7713 62.6283 72.7713C67.4147 72.7713 71.2949 68.8911 71.2949 64.1047C71.2949 59.3182 67.4147 55.438 62.6283 55.438C57.8418 55.438 53.9616 59.3182 53.9616 64.1047Z" fill="url(#paint4_linear_287_1013)"/>
</g>
<rect x="73.8242" y="62.1396" width="14.7654" height="3.53086" rx="1.76543" fill="white"/>
<rect x="64.1953" y="75.2998" width="14.7654" height="3.53086" rx="1.76543" transform="rotate(90 64.1953 75.2998)" fill="white"/>
<rect x="36.5898" y="62.1396" width="14.7654" height="3.53086" rx="1.76543" fill="white"/>
<rect x="64.1953" y="38.0654" width="14.7654" height="3.53086" rx="1.76543" transform="rotate(90 64.1953 38.0654)" fill="white"/>
<defs>
<filter id="filter0_ddi_287_1013" x="2.58984" y="0.0654297" width="340.41" height="143.413" filterUnits="userSpaceOnUse" color-interpolation-filters="sRGB">
<feFlood flood-opacity="0" result="BackgroundImageFix"/>
<feColorMatrix in="SourceAlpha" type="matrix" values="0 0 0 0 0 0 0 0 0 0 0 0 0 0 0 0 0 0 127 0" result="hardAlpha"/>
<feOffset dy="16"/>
<feGaussianBlur stdDeviation="6"/>
<feComposite in2="hardAlpha" operator="out"/>
<feColorMatrix type="matrix" values="0 0 0 0 0 0 0 0 0 0 0 0 0 0 0 0 0 0 0.4 0"/>
<feBlend mode="normal" in2="BackgroundImageFix" result="effect1_dropShadow_287_1013"/>
<feColorMatrix in="SourceAlpha" type="matrix" values="0 0 0 0 0 0 0 0 0 0 0 0 0 0 0 0 0 0 127 0" result="hardAlpha"/>
<feOffset/>
<feGaussianBlur stdDeviation="6"/>
<feComposite in2="hardAlpha" operator="out"/>
<feColorMatrix type="matrix" values="0 0 0 0 0.763049 0 0 0 0 0.395325 0 0 0 0 0.0276011 0 0 0 1 0"/>
<feBlend mode="normal" in2="effect1_dropShadow_287_1013" result="effect2_dropShadow_287_1013"/>
<feBlend mode="normal" in="SourceGraphic" in2="effect2_dropShadow_287_1013" result="shape"/>
<feColorMatrix in="SourceAlpha" type="matrix" values="0 0 0 0 0 0 0 0 0 0 0 0 0 0 0 0 0 0 127 0" result="hardAlpha"/>
<feOffset/>
<feGaussianBlur stdDeviation="5.7"/>
<feComposite in2="hardAlpha" operator="arithmetic" k2="-1" k3="1"/>
<feColorMatrix type="matrix" values="0 0 0 0 1 0 0 0 0 0.804226 0 0 0 0 0.548214 0 0 0 1 0"/>
<feBlend mode="normal" in2="shape" result="effect3_innerShadow_287_1013"/>
</filter>
<filter id="filter1_f_287_1013" x="0.740625" y="0.0243168" width="313.876" height="126.882" filterUnits="userSpaceOnUse" color-interpolation-filters="sRGB">
<feFlood flood-opacity="0" result="BackgroundImageFix"/>
<feBlend mode="normal" in="SourceGraphic" in2="BackgroundImageFix" result="shape"/>
<feGaussianBlur stdDeviation="9.2" result="effect1_foregroundBlur_287_1013"/>
</filter>
<filter id="filter2_dd_287_1013" x="28.084" y="29.5591" width="69.291" height="69.2905" filterUnits="userSpaceOnUse" color-interpolation-filters="sRGB">
<feFlood flood-opacity="0" result="BackgroundImageFix"/>
<feColorMatrix in="SourceAlpha" type="matrix" values="0 0 0 0 0 0 0 0 0 0 0 0 0 0 0 0 0 0 127 0" result="hardAlpha"/>
<feOffset/>
<feGaussianBlur stdDeviation="6.5"/>
<feComposite in2="hardAlpha" operator="out"/>
<feColorMatrix type="matrix" values="0 0 0 0 1 0 0 0 0 0.847708 0 0 0 0 0.4625 0 0 0 1 0"/>
<feBlend mode="normal" in2="BackgroundImageFix" result="effect1_dropShadow_287_1013"/>
<feColorMatrix in="SourceAlpha" type="matrix" values="0 0 0 0 0 0 0 0 0 0 0 0 0 0 0 0 0 0 127 0" result="hardAlpha"/>
<feOffset/>
<feGaussianBlur stdDeviation="2"/>
<feComposite in2="hardAlpha" operator="out"/>
<feColorMatrix type="matrix" values="0 0 0 0 0 0 0 0 0 0 0 0 0 0 0 0 0 0 0.25 0"/>
<feBlend mode="normal" in2="effect1_dropShadow_287_1013" result="effect2_dropShadow_287_1013"/>
<feBlend mode="normal" in="SourceGraphic" in2="effect2_dropShadow_287_1013" result="shape"/>
</filter>
<filter id="filter3_d_287_1013" x="38.584" y="41.0591" width="48.291" height="48.2905" filterUnits="userSpaceOnUse" color-interpolation-filters="sRGB">
<feFlood flood-opacity="0" result="BackgroundImageFix"/>
<feColorMatrix in="SourceAlpha" type="matrix" values="0 0 0 0 0 0 0 0 0 0 0 0 0 0 0 0 0 0 127 0" result="hardAlpha"/>
<feOffset dy="1"/>
<feGaussianBlur stdDeviation="1.25"/>
<feComposite in2="hardAlpha" operator="out"/>
<feColorMatrix type="matrix" values="0 0 0 0 0 0 0 0 0 0 0 0 0 0 0 0 0 0 0.5 0"/>
<feBlend mode="normal" in2="BackgroundImageFix" result="effect1_dropShadow_287_1013"/>
<feBlend mode="normal" in="SourceGraphic" in2="effect1_dropShadow_287_1013" result="shape"/>
</filter>
<linearGradient id="paint0_linear_287_1013" x1="44.7982" y1="15.7431" x2="274.444" y2="101.456" gradientUnits="userSpaceOnUse">
<stop stop-color="#CA6E18"/>
<stop offset="0.284481" stop-color="#DC781B"/>
<stop offset="0.618824" stop-color="#D79128"/>
<stop offset="1" stop-color="#FFE642"/>
</linearGradient>
<linearGradient id="paint1_linear_287_1013" x1="44.7982" y1="15.7431" x2="274.444" y2="101.456" gradientUnits="userSpaceOnUse">
<stop stop-color="#CA6E18"/>
<stop offset="0.284481" stop-color="#DC781B"/>
<stop offset="0.618824" stop-color="#D79128"/>
<stop offset="1" stop-color="#FFE642"/>
</linearGradient>
<linearGradient id="paint2_linear_287_1013" x1="44.7982" y1="15.7431" x2="274.444" y2="101.456" gradientUnits="userSpaceOnUse">
<stop stop-color="#CA6E18"/>
<stop offset="0.284481" stop-color="#DC781B"/>
<stop offset="0.618824" stop-color="#D79128"/>
<stop offset="1" stop-color="#FFE642"/>
</linearGradient>
<linearGradient id="paint3_linear_287_1013" x1="141.931" y1="90.0821" x2="138.939" y2="0.0135891" gradientUnits="userSpaceOnUse">
<stop stop-color="#B64C00"/>
<stop offset="0.676964" stop-color="#FFCF91" stop-opacity="0"/>
</linearGradient>
<linearGradient id="paint4_linear_287_1013" x1="69.9777" y1="68.4264" x2="55.1388" y2="59.6662" gradientUnits="userSpaceOnUse">
<stop stop-color="#FFAB4C"/>
<stop offset="1" stop-color="#99552E"/>
</linearGradient>
</defs>
</svg>
