<svg width="316" height="168" viewBox="0 0 316 168" fill="none" xmlns="http://www.w3.org/2000/svg">
<g filter="url(#filter0_d_286_907)">
<path d="M173.929 37.7093C169.415 40.6906 163.949 42.4354 158.059 42.4354C152.169 42.4354 146.703 40.6906 142.189 37.7091C140.195 36.3923 139.343 33.884 140.503 31.8429C142.906 27.6116 147.857 24.9761 158.059 24.9761C168.262 24.9761 173.213 27.6117 175.616 31.8431C176.775 33.8843 175.923 36.3926 173.929 37.7093Z" fill="white"/>
<path d="M158.059 19.0465C163.529 19.0465 167.964 14.7828 167.964 9.52326C167.964 4.26371 163.529 0 158.059 0C152.589 0 148.155 4.26371 148.155 9.52326C148.155 14.7828 152.589 19.0465 158.059 19.0465Z" fill="white"/>
</g>
<g filter="url(#filter1_dddi_286_907)">
<rect x="15" y="35.9634" width="286.431" height="103.352" rx="51.6758" fill="url(#paint0_linear_286_907)"/>
</g>
<g filter="url(#filter2_f_286_907)">
<rect x="19.2539" y="42.3457" width="277.618" height="90.412" rx="45.206" fill="url(#paint1_linear_286_907)"/>
</g>
<g filter="url(#filter3_d_286_907)">
<path fill-rule="evenodd" clip-rule="evenodd" d="M158.129 42.5459C159.488 42.5459 160.59 43.6604 160.59 45.0352V52.5034H167.97C169.329 52.5034 170.43 53.6179 170.43 54.9927C170.43 56.3675 169.329 57.482 167.97 57.482L160.59 57.482L160.59 64.95C160.59 66.3248 159.488 67.4393 158.129 67.4393C156.771 67.4393 155.669 66.3248 155.669 64.95L155.669 57.482H148.288C146.93 57.482 145.828 56.3675 145.828 54.9927C145.828 53.6179 146.93 52.5034 148.288 52.5034L155.669 52.5034L155.669 45.0352C155.669 43.6604 156.771 42.5459 158.129 42.5459Z" fill="white"/>
</g>
<defs>
<filter id="filter0_d_286_907" x="135.979" y="0" width="44.1621" height="50.4355" filterUnits="userSpaceOnUse" color-interpolation-filters="sRGB">
<feFlood flood-opacity="0" result="BackgroundImageFix"/>
<feColorMatrix in="SourceAlpha" type="matrix" values="0 0 0 0 0 0 0 0 0 0 0 0 0 0 0 0 0 0 127 0" result="hardAlpha"/>
<feOffset dy="4"/>
<feGaussianBlur stdDeviation="2"/>
<feComposite in2="hardAlpha" operator="out"/>
<feColorMatrix type="matrix" values="0 0 0 0 0 0 0 0 0 0 0 0 0 0 0 0 0 0 0.25 0"/>
<feBlend mode="normal" in2="BackgroundImageFix" result="effect1_dropShadow_286_907"/>
<feBlend mode="normal" in="SourceGraphic" in2="effect1_dropShadow_286_907" result="shape"/>
</filter>
<filter id="filter1_dddi_286_907" x="1" y="23.9634" width="314.432" height="143.352" filterUnits="userSpaceOnUse" color-interpolation-filters="sRGB">
<feFlood flood-opacity="0" result="BackgroundImageFix"/>
<feColorMatrix in="SourceAlpha" type="matrix" values="0 0 0 0 0 0 0 0 0 0 0 0 0 0 0 0 0 0 127 0" result="hardAlpha"/>
<feOffset dy="16"/>
<feGaussianBlur stdDeviation="6"/>
<feComposite in2="hardAlpha" operator="out"/>
<feColorMatrix type="matrix" values="0 0 0 0 0 0 0 0 0 0 0 0 0 0 0 0 0 0 0.4 0"/>
<feBlend mode="normal" in2="BackgroundImageFix" result="effect1_dropShadow_286_907"/>
<feColorMatrix in="SourceAlpha" type="matrix" values="0 0 0 0 0 0 0 0 0 0 0 0 0 0 0 0 0 0 127 0" result="hardAlpha"/>
<feOffset dx="2"/>
<feGaussianBlur stdDeviation="6"/>
<feComposite in2="hardAlpha" operator="out"/>
<feColorMatrix type="matrix" values="0 0 0 0 0.54902 0 0 0 0 1 0 0 0 0 0.698039 0 0 0 0.7 0"/>
<feBlend mode="normal" in2="effect1_dropShadow_286_907" result="effect2_dropShadow_286_907"/>
<feColorMatrix in="SourceAlpha" type="matrix" values="0 0 0 0 0 0 0 0 0 0 0 0 0 0 0 0 0 0 127 0" result="hardAlpha"/>
<feOffset dx="-2"/>
<feGaussianBlur stdDeviation="6"/>
<feComposite in2="hardAlpha" operator="out"/>
<feColorMatrix type="matrix" values="0 0 0 0 0.430754 0 0 0 0 0.671812 0 0 0 0 1 0 0 0 0.7 0"/>
<feBlend mode="normal" in2="effect2_dropShadow_286_907" result="effect3_dropShadow_286_907"/>
<feBlend mode="normal" in="SourceGraphic" in2="effect3_dropShadow_286_907" result="shape"/>
<feColorMatrix in="SourceAlpha" type="matrix" values="0 0 0 0 0 0 0 0 0 0 0 0 0 0 0 0 0 0 127 0" result="hardAlpha"/>
<feOffset/>
<feGaussianBlur stdDeviation="5.7"/>
<feComposite in2="hardAlpha" operator="arithmetic" k2="-1" k3="1"/>
<feColorMatrix type="matrix" values="0 0 0 0 0.548214 0 0 0 0 1 0 0 0 0 0.696457 0 0 0 1 0"/>
<feBlend mode="normal" in2="shape" result="effect4_innerShadow_286_907"/>
</filter>
<filter id="filter2_f_286_907" x="0.853907" y="23.9457" width="314.417" height="127.212" filterUnits="userSpaceOnUse" color-interpolation-filters="sRGB">
<feFlood flood-opacity="0" result="BackgroundImageFix"/>
<feBlend mode="normal" in="SourceGraphic" in2="BackgroundImageFix" result="shape"/>
<feGaussianBlur stdDeviation="9.2" result="effect1_foregroundBlur_286_907"/>
</filter>
<filter id="filter3_d_286_907" x="141.828" y="42.5459" width="32.6016" height="32.8936" filterUnits="userSpaceOnUse" color-interpolation-filters="sRGB">
<feFlood flood-opacity="0" result="BackgroundImageFix"/>
<feColorMatrix in="SourceAlpha" type="matrix" values="0 0 0 0 0 0 0 0 0 0 0 0 0 0 0 0 0 0 127 0" result="hardAlpha"/>
<feOffset dy="4"/>
<feGaussianBlur stdDeviation="2"/>
<feComposite in2="hardAlpha" operator="out"/>
<feColorMatrix type="matrix" values="0 0 0 0 0 0 0 0 0 0 0 0 0 0 0 0 0 0 0.25 0"/>
<feBlend mode="normal" in2="BackgroundImageFix" result="effect1_dropShadow_286_907"/>
<feBlend mode="normal" in="SourceGraphic" in2="effect1_dropShadow_286_907" result="shape"/>
</filter>
<linearGradient id="paint0_linear_286_907" x1="271.164" y1="39.6545" x2="80.4999" y2="187" gradientUnits="userSpaceOnUse">
<stop stop-color="#93FFD7"/>
<stop offset="0.423077" stop-color="#1BDC95"/>
<stop offset="0.730769" stop-color="#23FF82"/>
<stop offset="1" stop-color="#38BEA1"/>
</linearGradient>
<linearGradient id="paint1_linear_286_907" x1="161.462" y1="132.758" x2="158.454" y2="42.3597" gradientUnits="userSpaceOnUse">
<stop stop-color="#0E7C46"/>
<stop offset="0.676964" stop-color="#70BAA6" stop-opacity="0"/>
</linearGradient>
</defs>
</svg>
