<svg width="89" height="132" viewBox="0 0 89 132" fill="none" xmlns="http://www.w3.org/2000/svg">
<g filter="url(#filter0_d_300_493)">
<mask id="path-1-inside-1_300_493" fill="white">
<path d="M44.5 4.08887C64.1059 4.08887 79.9997 19.983 80 39.5889V83.5889C80 103.195 64.1061 119.09 44.5 119.09C24.8941 119.09 9.00026 103.196 9 83.5898V39.5898C9 19.9837 24.8939 4.08887 44.5 4.08887ZM46.2676 35.1611C45.2913 34.1849 43.7087 34.1849 42.7324 35.1611L26.8223 51.0713C25.8464 52.0476 25.8462 53.6303 26.8223 54.6064C27.7985 55.5824 29.3812 55.5823 30.3574 54.6064L42 42.9648V89.1992H47V42.9648L58.6426 54.6064C59.6188 55.5823 61.2015 55.5824 62.1777 54.6064C63.1538 53.6303 63.1536 52.0476 62.1777 51.0713L46.2676 35.1611Z"/>
</mask>
<path d="M44.5 4.08887C64.1059 4.08887 79.9997 19.983 80 39.5889V83.5889C80 103.195 64.1061 119.09 44.5 119.09C24.8941 119.09 9.00026 103.196 9 83.5898V39.5898C9 19.9837 24.8939 4.08887 44.5 4.08887ZM46.2676 35.1611C45.2913 34.1849 43.7087 34.1849 42.7324 35.1611L26.8223 51.0713C25.8464 52.0476 25.8462 53.6303 26.8223 54.6064C27.7985 55.5824 29.3812 55.5823 30.3574 54.6064L42 42.9648V89.1992H47V42.9648L58.6426 54.6064C59.6188 55.5823 61.2015 55.5824 62.1777 54.6064C63.1538 53.6303 63.1536 52.0476 62.1777 51.0713L46.2676 35.1611Z" fill="url(#paint0_linear_300_493)"/>
<path d="M80 39.5889H81V39.5889L80 39.5889ZM9 83.5898H8V83.5899L9 83.5898ZM46.2676 35.1611L46.9747 34.454L46.9747 34.454L46.2676 35.1611ZM42.7324 35.1611L42.0253 34.454L42.0253 34.454L42.7324 35.1611ZM26.8223 51.0713L26.1152 50.3642L26.115 50.3643L26.8223 51.0713ZM26.8223 54.6064L26.1151 55.3135L26.1153 55.3136L26.8223 54.6064ZM30.3574 54.6064L31.0644 55.3137L31.0645 55.3136L30.3574 54.6064ZM42 42.9648H43V40.5508L41.2929 42.2577L42 42.9648ZM42 89.1992H41V90.1992H42V89.1992ZM47 89.1992V90.1992H48V89.1992H47ZM47 42.9648L47.7071 42.2577L46 40.5508V42.9648H47ZM58.6426 54.6064L57.9355 55.3136L57.9356 55.3137L58.6426 54.6064ZM62.1777 54.6064L62.8847 55.3136L62.8849 55.3135L62.1777 54.6064ZM62.1777 51.0713L62.885 50.3643L62.8848 50.3642L62.1777 51.0713ZM44.5 4.08887V5.08887C63.5536 5.08887 78.9997 20.5353 79 39.5889L80 39.5889L81 39.5889C80.9997 19.4307 64.6582 3.08887 44.5 3.08887V4.08887ZM80 39.5889H79V83.5889H80H81V39.5889H80ZM80 83.5889H79C79 102.643 63.5538 118.09 44.5 118.09V119.09V120.09C64.6584 120.09 81 103.747 81 83.5889H80ZM44.5 119.09V118.09C25.4464 118.09 10.0003 102.643 10 83.5898L9 83.5898L8 83.5899C8.00027 103.748 24.3418 120.09 44.5 120.09V119.09ZM9 83.5898H10V39.5898H9H8V83.5898H9ZM9 39.5898H10C10 20.536 25.4462 5.08887 44.5 5.08887V4.08887V3.08887C24.3416 3.08887 8 19.4315 8 39.5898H9ZM46.2676 35.1611L46.9747 34.454C45.6078 33.0873 43.3922 33.0873 42.0253 34.454L42.7324 35.1611L43.4395 35.8683C44.0253 35.2826 44.9747 35.2826 45.5605 35.8683L46.2676 35.1611ZM42.7324 35.1611L42.0253 34.454L26.1152 50.3642L26.8223 51.0713L27.5294 51.7784L43.4395 35.8682L42.7324 35.1611ZM26.8223 51.0713L26.115 50.3643C24.7489 51.731 24.7484 53.9467 26.1151 55.3135L26.8223 54.6064L27.5294 53.8994C26.9439 53.3138 26.9438 52.3642 27.5295 51.7782L26.8223 51.0713ZM26.8223 54.6064L26.1153 55.3136C27.482 56.68 29.6977 56.6798 31.0644 55.3137L30.3574 54.6064L29.6505 53.8992C29.0646 54.4847 28.1149 54.4847 27.5293 53.8992L26.8223 54.6064ZM30.3574 54.6064L31.0645 55.3136L42.7071 43.672L42 42.9648L41.2929 42.2577L29.6503 53.8993L30.3574 54.6064ZM42 42.9648H41V89.1992H42H43V42.9648H42ZM42 89.1992V90.1992H47V89.1992V88.1992H42V89.1992ZM47 89.1992H48V42.9648H47H46V89.1992H47ZM47 42.9648L46.2929 43.672L57.9355 55.3136L58.6426 54.6064L59.3497 53.8993L47.7071 42.2577L47 42.9648ZM58.6426 54.6064L57.9356 55.3137C59.3023 56.6798 61.518 56.68 62.8847 55.3136L62.1777 54.6064L61.4707 53.8992C60.8851 54.4847 59.9354 54.4847 59.3495 53.8992L58.6426 54.6064ZM62.1777 54.6064L62.8849 55.3135C64.2516 53.9467 64.2511 51.731 62.885 50.3643L62.1777 51.0713L61.4705 51.7782C62.0562 52.3642 62.0561 53.3138 61.4706 53.8994L62.1777 54.6064ZM62.1777 51.0713L62.8848 50.3642L46.9747 34.454L46.2676 35.1611L45.5605 35.8682L61.4706 51.7784L62.1777 51.0713Z" fill="url(#paint1_linear_300_493)" mask="url(#path-1-inside-1_300_493)"/>
</g>
<g filter="url(#filter1_d_300_493)">
<rect x="8" y="4" width="73" height="116" rx="36" stroke="url(#paint2_linear_300_493)" stroke-width="8" shape-rendering="crispEdges"/>
</g>
<defs>
<filter id="filter0_d_300_493" x="5" y="4.08887" width="79" height="123.001" filterUnits="userSpaceOnUse" color-interpolation-filters="sRGB">
<feFlood flood-opacity="0" result="BackgroundImageFix"/>
<feColorMatrix in="SourceAlpha" type="matrix" values="0 0 0 0 0 0 0 0 0 0 0 0 0 0 0 0 0 0 127 0" result="hardAlpha"/>
<feOffset dy="4"/>
<feGaussianBlur stdDeviation="2"/>
<feComposite in2="hardAlpha" operator="out"/>
<feColorMatrix type="matrix" values="0 0 0 0 0 0 0 0 0 0 0 0 0 0 0 0 0 0 0.25 0"/>
<feBlend mode="normal" in2="BackgroundImageFix" result="effect1_dropShadow_300_493"/>
<feBlend mode="normal" in="SourceGraphic" in2="effect1_dropShadow_300_493" result="shape"/>
</filter>
<filter id="filter1_d_300_493" x="0" y="0" width="89" height="132" filterUnits="userSpaceOnUse" color-interpolation-filters="sRGB">
<feFlood flood-opacity="0" result="BackgroundImageFix"/>
<feColorMatrix in="SourceAlpha" type="matrix" values="0 0 0 0 0 0 0 0 0 0 0 0 0 0 0 0 0 0 127 0" result="hardAlpha"/>
<feOffset dy="4"/>
<feGaussianBlur stdDeviation="2"/>
<feComposite in2="hardAlpha" operator="out"/>
<feColorMatrix type="matrix" values="0 0 0 0 0 0 0 0 0 0 0 0 0 0 0 0 0 0 0.25 0"/>
<feBlend mode="normal" in2="BackgroundImageFix" result="effect1_dropShadow_300_493"/>
<feBlend mode="normal" in="SourceGraphic" in2="effect1_dropShadow_300_493" result="shape"/>
</filter>
<linearGradient id="paint0_linear_300_493" x1="45" y1="5.99998" x2="-10.0045" y2="56.0513" gradientUnits="userSpaceOnUse">
<stop stop-color="#2454A7"/>
<stop offset="0.381176" stop-color="#3665DE"/>
<stop offset="0.715519" stop-color="#2B7CF5"/>
<stop offset="1" stop-color="#577BFF"/>
</linearGradient>
<linearGradient id="paint1_linear_300_493" x1="13.5319" y1="20.7163" x2="67.6271" y2="109.549" gradientUnits="userSpaceOnUse">
<stop stop-color="#309BEC"/>
<stop offset="1" stop-color="#3F1B86"/>
</linearGradient>
<linearGradient id="paint2_linear_300_493" x1="9.17021" y1="17.9277" x2="65.9377" y2="116.56" gradientUnits="userSpaceOnUse">
<stop stop-color="#309BEC"/>
<stop offset="1" stop-color="#3F1B86"/>
</linearGradient>
</defs>
</svg>
