<svg width="184" height="230" viewBox="0 0 184 230" fill="none" xmlns="http://www.w3.org/2000/svg">
<g filter="url(#filter0_d_304_107)">
<path d="M12 12H172V178C172 200.091 154.091 218 132 218H52C29.9086 218 12 200.091 12 178V12Z" fill="#E8DAC9"/>
</g>
<rect x="35" y="44" width="114" height="110" rx="28.5" fill="#FFF8EF"/>
<g filter="url(#filter1_i_304_107)">
<path d="M62.0908 89.7L57.0908 91.25C56.5908 90.9167 56.0908 90.45 55.5908 89.85C55.0908 89.25 54.8408 88.4167 54.8408 87.35C54.8408 85.35 56.0575 83.95 58.4908 83.15L64.0908 81.25H65.9408C67.3742 81.25 68.5075 81.6667 69.3408 82.5C70.1742 83.3333 70.5908 84.4667 70.5908 85.9V111.95C70.2242 112.017 69.6742 112.1 68.9408 112.2C68.2408 112.333 67.5242 112.4 66.7908 112.4C66.0575 112.4 65.3908 112.35 64.7908 112.25C64.2242 112.15 63.7408 111.95 63.3408 111.65C62.9408 111.35 62.6242 110.95 62.3908 110.45C62.1908 109.917 62.0908 109.233 62.0908 108.4V89.7ZM86.4697 112.8C84.9364 112.8 83.5364 112.683 82.2697 112.45C81.0364 112.217 79.9697 111.867 79.0697 111.4C78.1697 110.933 77.4697 110.367 76.9697 109.7C76.4697 109 76.2197 108.2 76.2197 107.3C76.2197 106.367 76.4864 105.583 77.0197 104.95C77.5531 104.317 78.1531 103.817 78.8197 103.45C79.7531 104.15 80.7531 104.767 81.8197 105.3C82.8864 105.8 84.2364 106.05 85.8697 106.05C87.4364 106.05 88.5531 105.7 89.2197 105C89.8864 104.3 90.2197 103.45 90.2197 102.45C90.2197 101.483 89.9197 100.683 89.3197 100.05C88.7531 99.4167 87.7531 99.1 86.3197 99.1C85.4197 99.1 84.6697 99.2 84.0697 99.4C83.4697 99.6 82.7864 99.8833 82.0197 100.25C80.3864 100.183 79.0864 99.75 78.1197 98.95C77.1864 98.1167 76.7197 96.85 76.7197 95.15C76.7197 95.05 76.7197 94.9333 76.7197 94.8C76.7197 94.6333 76.7364 94.3167 76.7697 93.85L77.3697 86.25C77.4697 84.8167 77.9197 83.6833 78.7197 82.85C79.5197 82.0167 80.6364 81.6 82.0697 81.6H96.4697C96.6697 81.9667 96.8697 82.45 97.0697 83.05C97.2697 83.65 97.3697 84.2833 97.3697 84.95C97.3697 86.2167 97.0864 87.1167 96.5197 87.65C95.9531 88.1833 95.2364 88.45 94.3697 88.45H84.7697L84.4197 93.15C85.0531 92.9833 85.6864 92.8333 86.3197 92.7C86.9864 92.5667 87.8197 92.5 88.8197 92.5C90.5531 92.5 92.0531 92.7667 93.3197 93.3C94.5864 93.8 95.6197 94.5 96.4197 95.4C97.2531 96.3 97.8531 97.35 98.2197 98.55C98.6197 99.75 98.8197 101.033 98.8197 102.4C98.8197 103.767 98.5864 105.083 98.1197 106.35C97.6531 107.617 96.9197 108.733 95.9197 109.7C94.9197 110.633 93.6364 111.383 92.0697 111.95C90.5364 112.517 88.6697 112.8 86.4697 112.8ZM120.337 96.8C120.337 93.8667 119.904 91.6 119.037 90C118.204 88.4 117.004 87.6 115.437 87.6C113.87 87.6 112.67 88.4 111.837 90C111.037 91.6 110.637 93.8667 110.637 96.8C110.637 99.7333 111.037 102.017 111.837 103.65C112.67 105.25 113.87 106.05 115.437 106.05C117.004 106.05 118.204 105.25 119.037 103.65C119.904 102.017 120.337 99.7333 120.337 96.8ZM128.887 96.8C128.887 99.3667 128.554 101.65 127.887 103.65C127.22 105.65 126.287 107.333 125.087 108.7C123.92 110.033 122.504 111.05 120.837 111.75C119.204 112.45 117.42 112.8 115.487 112.8C113.52 112.8 111.704 112.45 110.037 111.75C108.404 111.05 106.987 110.033 105.787 108.7C104.62 107.333 103.704 105.65 103.037 103.65C102.404 101.65 102.087 99.3667 102.087 96.8C102.087 94.2333 102.404 91.9667 103.037 90C103.704 88 104.62 86.3333 105.787 85C106.987 83.6333 108.404 82.6 110.037 81.9C111.704 81.2 113.52 80.85 115.487 80.85C117.42 80.85 119.204 81.2 120.837 81.9C122.504 82.6 123.92 83.6333 125.087 85C126.287 86.3333 127.22 88 127.887 90C128.554 91.9667 128.887 94.2333 128.887 96.8Z" fill="#662702"/>
</g>
<path d="M49.8863 182.36C48.7129 181.96 47.6463 181.56 46.6863 181.16C45.7263 180.733 44.8996 180.227 44.2063 179.64C43.5129 179.053 42.9663 178.36 42.5663 177.56C42.1929 176.733 42.0063 175.733 42.0063 174.56C42.0063 172.293 42.8729 170.48 44.6063 169.12C46.3663 167.76 48.8196 167.08 51.9663 167.08C53.1129 167.08 54.1796 167.16 55.1663 167.32C56.1529 167.48 56.9929 167.733 57.6863 168.08C58.4063 168.4 58.9663 168.827 59.3663 169.36C59.7663 169.867 59.9663 170.467 59.9663 171.16C59.9663 171.853 59.8063 172.453 59.4863 172.96C59.1663 173.44 58.7796 173.853 58.3263 174.2C57.7396 173.827 56.9529 173.507 55.9663 173.24C54.9796 172.947 53.8996 172.8 52.7263 172.8C51.5263 172.8 50.6463 172.973 50.0863 173.32C49.5263 173.64 49.2463 174.053 49.2463 174.56C49.2463 174.96 49.4196 175.293 49.7663 175.56C50.1129 175.8 50.6329 176.027 51.3263 176.24L53.4463 176.92C55.9529 177.72 57.8729 178.747 59.2063 180C60.5663 181.227 61.2463 182.907 61.2463 185.04C61.2463 187.307 60.3529 189.147 58.5663 190.56C56.7796 191.947 54.1529 192.64 50.6862 192.64C49.4596 192.64 48.3129 192.533 47.2463 192.32C46.2063 192.133 45.2863 191.853 44.4863 191.48C43.7129 191.08 43.0996 190.6 42.6463 190.04C42.2196 189.453 42.0063 188.787 42.0063 188.04C42.0063 187.267 42.2329 186.613 42.6863 186.08C43.1396 185.52 43.6329 185.093 44.1663 184.8C44.9129 185.387 45.8196 185.893 46.8863 186.32C47.9796 186.747 49.1663 186.96 50.4463 186.96C51.7529 186.96 52.6729 186.76 53.2063 186.36C53.7396 185.96 54.0063 185.493 54.0063 184.96C54.0063 184.427 53.7929 184.027 53.3663 183.76C52.9396 183.467 52.3396 183.187 51.5663 182.92L49.8863 182.36ZM75.5556 177.32C74.889 177.32 74.249 177.427 73.6356 177.64C73.049 177.853 72.529 178.173 72.0756 178.6C71.649 179 71.3023 179.507 71.0356 180.12C70.769 180.733 70.6356 181.453 70.6356 182.28C70.6356 183.933 71.1023 185.173 72.0356 186C72.9956 186.827 74.1556 187.24 75.5156 187.24C76.3156 187.24 77.009 187.147 77.5956 186.96C78.1823 186.773 78.7023 186.573 79.1556 186.36C79.689 186.733 80.089 187.147 80.3556 187.6C80.6223 188.027 80.7556 188.547 80.7556 189.16C80.7556 190.253 80.2356 191.107 79.1956 191.72C78.1556 192.307 76.7156 192.6 74.8756 192.6C73.1956 192.6 71.6756 192.36 70.3156 191.88C68.9556 191.373 67.7823 190.68 66.7956 189.8C65.8356 188.893 65.089 187.813 64.5556 186.56C64.0223 185.307 63.7556 183.92 63.7556 182.4C63.7556 180.64 64.0356 179.107 64.5956 177.8C65.1823 176.467 65.969 175.373 66.9556 174.52C67.9423 173.667 69.0756 173.027 70.3556 172.6C71.6623 172.173 73.0356 171.96 74.4756 171.96C76.3956 171.96 77.8756 172.307 78.9156 173C79.9556 173.693 80.4756 174.587 80.4756 175.68C80.4756 176.187 80.3556 176.667 80.1156 177.12C79.8756 177.547 79.5956 177.92 79.2756 178.24C78.8223 178.027 78.2756 177.827 77.6356 177.64C76.9956 177.427 76.3023 177.32 75.5556 177.32ZM103.7 182.28C103.7 183.933 103.447 185.413 102.94 186.72C102.433 188 101.713 189.08 100.78 189.96C99.8733 190.84 98.78 191.507 97.5 191.96C96.22 192.413 94.7933 192.64 93.22 192.64C91.6467 192.64 90.22 192.4 88.94 191.92C87.66 191.44 86.5533 190.76 85.62 189.88C84.7133 188.973 84.0067 187.88 83.5 186.6C82.9933 185.32 82.74 183.88 82.74 182.28C82.74 180.707 82.9933 179.28 83.5 178C84.0067 176.72 84.7133 175.64 85.62 174.76C86.5533 173.853 87.66 173.16 88.94 172.68C90.22 172.2 91.6467 171.96 93.22 171.96C94.7933 171.96 96.22 172.213 97.5 172.72C98.78 173.2 99.8733 173.893 100.78 174.8C101.713 175.68 102.433 176.76 102.94 178.04C103.447 179.32 103.7 180.733 103.7 182.28ZM89.7 182.28C89.7 183.907 90.0067 185.16 90.62 186.04C91.26 186.893 92.14 187.32 93.26 187.32C94.38 187.32 95.2333 186.88 95.82 186C96.4333 185.12 96.74 183.88 96.74 182.28C96.74 180.68 96.4333 179.453 95.82 178.6C95.2067 177.72 94.34 177.28 93.22 177.28C92.1 177.28 91.2333 177.72 90.62 178.6C90.0067 179.453 89.7 180.68 89.7 182.28ZM113.818 191.96C113.551 192.04 113.124 192.12 112.538 192.2C111.978 192.28 111.391 192.32 110.778 192.32C110.191 192.32 109.658 192.28 109.178 192.2C108.724 192.12 108.338 191.96 108.018 191.72C107.698 191.48 107.444 191.16 107.258 190.76C107.098 190.333 107.018 189.787 107.018 189.12V177.12C107.018 176.507 107.124 175.987 107.338 175.56C107.578 175.107 107.911 174.707 108.338 174.36C108.764 174.013 109.284 173.707 109.898 173.44C110.538 173.147 111.218 172.893 111.938 172.68C112.658 172.467 113.404 172.307 114.178 172.2C114.951 172.067 115.724 172 116.498 172C117.778 172 118.791 172.253 119.538 172.76C120.284 173.24 120.658 174.04 120.658 175.16C120.658 175.533 120.604 175.907 120.498 176.28C120.391 176.627 120.258 176.947 120.098 177.24C119.538 177.24 118.964 177.267 118.378 177.32C117.791 177.373 117.218 177.453 116.658 177.56C116.098 177.667 115.564 177.787 115.058 177.92C114.578 178.027 114.164 178.16 113.818 178.32V191.96ZM133.001 192.64C131.427 192.64 129.961 192.427 128.601 192C127.267 191.547 126.094 190.88 125.081 190C124.094 189.12 123.307 188.013 122.721 186.68C122.161 185.347 121.881 183.787 121.881 182C121.881 180.24 122.161 178.733 122.721 177.48C123.307 176.2 124.067 175.16 125.001 174.36C125.934 173.533 127.001 172.933 128.201 172.56C129.401 172.16 130.627 171.96 131.881 171.96C133.294 171.96 134.574 172.173 135.721 172.6C136.894 173.027 137.894 173.613 138.721 174.36C139.574 175.107 140.227 176 140.681 177.04C141.161 178.08 141.401 179.213 141.401 180.44C141.401 181.347 141.147 182.04 140.641 182.52C140.134 183 139.427 183.307 138.521 183.44L128.641 184.92C128.934 185.8 129.534 186.467 130.441 186.92C131.347 187.347 132.387 187.56 133.561 187.56C134.654 187.56 135.681 187.427 136.641 187.16C137.627 186.867 138.427 186.533 139.041 186.16C139.467 186.427 139.827 186.8 140.121 187.28C140.414 187.76 140.561 188.267 140.561 188.8C140.561 190 140.001 190.893 138.881 191.48C138.027 191.933 137.067 192.24 136.001 192.4C134.934 192.56 133.934 192.64 133.001 192.64ZM131.881 176.92C131.241 176.92 130.681 177.027 130.201 177.24C129.747 177.453 129.374 177.733 129.081 178.08C128.787 178.4 128.561 178.773 128.401 179.2C128.267 179.6 128.187 180.013 128.161 180.44L135.001 179.32C134.921 178.787 134.627 178.253 134.121 177.72C133.614 177.187 132.867 176.92 131.881 176.92Z" fill="url(#paint0_linear_304_107)"/>
<defs>
<filter id="filter0_d_304_107" x="0" y="0" width="184" height="230" filterUnits="userSpaceOnUse" color-interpolation-filters="sRGB">
<feFlood flood-opacity="0" result="BackgroundImageFix"/>
<feColorMatrix in="SourceAlpha" type="matrix" values="0 0 0 0 0 0 0 0 0 0 0 0 0 0 0 0 0 0 127 0" result="hardAlpha"/>
<feOffset/>
<feGaussianBlur stdDeviation="6"/>
<feComposite in2="hardAlpha" operator="out"/>
<feColorMatrix type="matrix" values="0 0 0 0 0.39623 0 0 0 0 0.213996 0 0 0 0 0.122879 0 0 0 1 0"/>
<feBlend mode="normal" in2="BackgroundImageFix" result="effect1_dropShadow_304_107"/>
<feBlend mode="normal" in="SourceGraphic" in2="effect1_dropShadow_304_107" result="shape"/>
</filter>
<filter id="filter1_i_304_107" x="54.8398" y="80.8501" width="74.0469" height="33.9497" filterUnits="userSpaceOnUse" color-interpolation-filters="sRGB">
<feFlood flood-opacity="0" result="BackgroundImageFix"/>
<feBlend mode="normal" in="SourceGraphic" in2="BackgroundImageFix" result="shape"/>
<feColorMatrix in="SourceAlpha" type="matrix" values="0 0 0 0 0 0 0 0 0 0 0 0 0 0 0 0 0 0 127 0" result="hardAlpha"/>
<feOffset dy="2"/>
<feGaussianBlur stdDeviation="2"/>
<feComposite in2="hardAlpha" operator="arithmetic" k2="-1" k3="1"/>
<feColorMatrix type="matrix" values="0 0 0 0 0 0 0 0 0 0 0 0 0 0 0 0 0 0 0.7 0"/>
<feBlend mode="normal" in2="shape" result="effect1_innerShadow_304_107"/>
</filter>
<linearGradient id="paint0_linear_304_107" x1="145.523" y1="155.964" x2="42.9301" y2="189.673" gradientUnits="userSpaceOnUse">
<stop stop-color="#FFB419"/>
<stop offset="1" stop-color="#FF8A14"/>
</linearGradient>
</defs>
</svg>
