<svg width="386" height="318" viewBox="0 0 386 318" fill="none" xmlns="http://www.w3.org/2000/svg">
<rect x="4" y="4" width="378" height="310" rx="36" fill="white" stroke="#F1DFCA" stroke-width="8"/>
<path d="M345 276L345 48" stroke="#E2D5C3" stroke-width="20" stroke-linecap="round"/>
<path d="M345 162L345 48" stroke="#A98B8D" stroke-width="20" stroke-linecap="round"/>
<path d="M60.8233 46.64C58.7699 46.64 57.1966 47.2667 56.1033 48.52C55.0099 49.7733 54.4633 51.5467 54.4633 53.84C54.4633 56.16 55.0633 57.9467 56.2633 59.2C57.4899 60.4533 59.1299 61.08 61.1833 61.08C62.2766 61.08 63.1966 60.9333 63.9433 60.64C64.7166 60.3467 65.4499 60.0133 66.1433 59.64C66.5966 60.0133 66.9433 60.4667 67.1833 61C67.4499 61.5067 67.5833 62.1067 67.5833 62.8C67.5833 63.8933 66.9699 64.8267 65.7433 65.6C64.5433 66.3467 62.7033 66.72 60.2233 66.72C58.4366 66.72 56.7566 66.4667 55.1833 65.96C53.6099 65.4533 52.2366 64.68 51.0633 63.64C49.8899 62.5733 48.9566 61.24 48.2633 59.64C47.5966 58.0133 47.2633 56.08 47.2633 53.84C47.2633 51.76 47.5833 49.9333 48.2233 48.36C48.8899 46.76 49.7833 45.4133 50.9033 44.32C52.0499 43.2267 53.3833 42.4 54.9033 41.84C56.4233 41.28 58.0499 41 59.7833 41C62.2366 41 64.1299 41.4 65.4633 42.2C66.8233 43 67.5033 44.0267 67.5033 45.28C67.5033 45.9733 67.3299 46.5733 66.9833 47.08C66.6366 47.5867 66.2366 47.9867 65.7833 48.28C65.0899 47.8267 64.3433 47.44 63.5433 47.12C62.7699 46.8 61.8633 46.64 60.8233 46.64ZM89.9948 65.96C89.7282 66.04 89.3015 66.12 88.7148 66.2C88.1548 66.28 87.5682 66.32 86.9548 66.32C86.3682 66.32 85.8348 66.28 85.3548 66.2C84.9015 66.12 84.5148 65.96 84.1948 65.72C83.8748 65.48 83.6215 65.16 83.4348 64.76C83.2748 64.3333 83.1948 63.7867 83.1948 63.12V54.24C83.1948 53.1467 82.9148 52.3867 82.3548 51.96C81.8215 51.5067 81.1548 51.28 80.3548 51.28C79.8215 51.28 79.3148 51.3467 78.8348 51.48C78.3548 51.6133 77.9682 51.7733 77.6748 51.96V65.96C77.4082 66.04 76.9815 66.12 76.3948 66.2C75.8348 66.28 75.2482 66.32 74.6348 66.32C74.0482 66.32 73.5148 66.28 73.0348 66.2C72.5815 66.12 72.1948 65.96 71.8748 65.72C71.5548 65.48 71.3015 65.16 71.1148 64.76C70.9548 64.3333 70.8748 63.7867 70.8748 63.12V39.92C71.1682 39.8667 71.5948 39.8 72.1548 39.72C72.7415 39.6133 73.3282 39.56 73.9148 39.56C74.5015 39.56 75.0215 39.6 75.4748 39.68C75.9548 39.76 76.3548 39.92 76.6748 40.16C76.9948 40.4 77.2348 40.7333 77.3948 41.16C77.5815 41.56 77.6748 42.0933 77.6748 42.76V46.68C78.0215 46.5467 78.5415 46.4 79.2348 46.24C79.9548 46.0533 80.7415 45.96 81.5948 45.96C84.2348 45.96 86.2882 46.6267 87.7548 47.96C89.2482 49.2667 89.9948 51.2267 89.9948 53.84V65.96ZM114.313 56.28C114.313 57.9333 114.06 59.4133 113.553 60.72C113.047 62 112.327 63.08 111.393 63.96C110.487 64.84 109.393 65.5067 108.113 65.96C106.833 66.4133 105.407 66.64 103.833 66.64C102.26 66.64 100.833 66.4 99.5533 65.92C98.2733 65.44 97.1666 64.76 96.2333 63.88C95.3266 62.9733 94.6199 61.88 94.1133 60.6C93.6066 59.32 93.3533 57.88 93.3533 56.28C93.3533 54.7067 93.6066 53.28 94.1133 52C94.6199 50.72 95.3266 49.64 96.2333 48.76C97.1666 47.8533 98.2733 47.16 99.5533 46.68C100.833 46.2 102.26 45.96 103.833 45.96C105.407 45.96 106.833 46.2133 108.113 46.72C109.393 47.2 110.487 47.8933 111.393 48.8C112.327 49.68 113.047 50.76 113.553 52.04C114.06 53.32 114.313 54.7333 114.313 56.28ZM100.313 56.28C100.313 57.9067 100.62 59.16 101.233 60.04C101.873 60.8933 102.753 61.32 103.873 61.32C104.993 61.32 105.847 60.88 106.433 60C107.047 59.12 107.353 57.88 107.353 56.28C107.353 54.68 107.047 53.4533 106.433 52.6C105.82 51.72 104.953 51.28 103.833 51.28C102.713 51.28 101.847 51.72 101.233 52.6C100.62 53.4533 100.313 54.68 100.313 56.28ZM117.471 41.16C117.471 40.1467 117.804 39.2933 118.471 38.6C119.164 37.9067 120.071 37.56 121.191 37.56C122.311 37.56 123.204 37.9067 123.871 38.6C124.564 39.2933 124.911 40.1467 124.911 41.16C124.911 42.1733 124.564 43.0267 123.871 43.72C123.204 44.4133 122.311 44.76 121.191 44.76C120.071 44.76 119.164 44.4133 118.471 43.72C117.804 43.0267 117.471 42.1733 117.471 41.16ZM124.591 65.96C124.297 66.0133 123.857 66.08 123.271 66.16C122.711 66.2667 122.137 66.32 121.551 66.32C120.964 66.32 120.431 66.28 119.951 66.2C119.497 66.12 119.111 65.96 118.791 65.72C118.471 65.48 118.217 65.16 118.031 64.76C117.871 64.3333 117.791 63.7867 117.791 63.12V46.84C118.084 46.7867 118.511 46.72 119.071 46.64C119.657 46.5333 120.244 46.48 120.831 46.48C121.417 46.48 121.937 46.52 122.391 46.6C122.871 46.68 123.271 46.84 123.591 47.08C123.911 47.32 124.151 47.6533 124.311 48.08C124.497 48.48 124.591 49.0133 124.591 49.68V65.96ZM139.88 51.32C139.213 51.32 138.573 51.4267 137.96 51.64C137.373 51.8533 136.853 52.1733 136.4 52.6C135.973 53 135.627 53.5067 135.36 54.12C135.093 54.7333 134.96 55.4533 134.96 56.28C134.96 57.9333 135.427 59.1733 136.36 60C137.32 60.8267 138.48 61.24 139.84 61.24C140.64 61.24 141.333 61.1467 141.92 60.96C142.507 60.7733 143.027 60.5733 143.48 60.36C144.013 60.7333 144.413 61.1467 144.68 61.6C144.947 62.0267 145.08 62.5467 145.08 63.16C145.08 64.2533 144.56 65.1067 143.52 65.72C142.48 66.3067 141.04 66.6 139.2 66.6C137.52 66.6 136 66.36 134.64 65.88C133.28 65.3733 132.107 64.68 131.12 63.8C130.16 62.8933 129.413 61.8133 128.88 60.56C128.347 59.3067 128.08 57.92 128.08 56.4C128.08 54.64 128.36 53.1067 128.92 51.8C129.507 50.4667 130.293 49.3733 131.28 48.52C132.267 47.6667 133.4 47.0267 134.68 46.6C135.987 46.1733 137.36 45.96 138.8 45.96C140.72 45.96 142.2 46.3067 143.24 47C144.28 47.6933 144.8 48.5867 144.8 49.68C144.8 50.1867 144.68 50.6667 144.44 51.12C144.2 51.5467 143.92 51.92 143.6 52.24C143.147 52.0267 142.6 51.8267 141.96 51.64C141.32 51.4267 140.627 51.32 139.88 51.32ZM158.184 66.64C156.611 66.64 155.144 66.4267 153.784 66C152.451 65.5467 151.278 64.88 150.264 64C149.278 63.12 148.491 62.0133 147.904 60.68C147.344 59.3467 147.064 57.7867 147.064 56C147.064 54.24 147.344 52.7333 147.904 51.48C148.491 50.2 149.251 49.16 150.184 48.36C151.118 47.5333 152.184 46.9333 153.384 46.56C154.584 46.16 155.811 45.96 157.064 45.96C158.478 45.96 159.758 46.1733 160.904 46.6C162.078 47.0267 163.078 47.6133 163.904 48.36C164.758 49.1067 165.411 50 165.864 51.04C166.344 52.08 166.584 53.2133 166.584 54.44C166.584 55.3467 166.331 56.04 165.824 56.52C165.318 57 164.611 57.3067 163.704 57.44L153.824 58.92C154.118 59.8 154.718 60.4667 155.624 60.92C156.531 61.3467 157.571 61.56 158.744 61.56C159.838 61.56 160.864 61.4267 161.824 61.16C162.811 60.8667 163.611 60.5333 164.224 60.16C164.651 60.4267 165.011 60.8 165.304 61.28C165.598 61.76 165.744 62.2667 165.744 62.8C165.744 64 165.184 64.8933 164.064 65.48C163.211 65.9333 162.251 66.24 161.184 66.4C160.118 66.56 159.118 66.64 158.184 66.64ZM157.064 50.92C156.424 50.92 155.864 51.0267 155.384 51.24C154.931 51.4533 154.558 51.7333 154.264 52.08C153.971 52.4 153.744 52.7733 153.584 53.2C153.451 53.6 153.371 54.0133 153.344 54.44L160.184 53.32C160.104 52.7867 159.811 52.2533 159.304 51.72C158.798 51.1867 158.051 50.92 157.064 50.92ZM181.985 48.16L177.985 49.4C177.585 49.1333 177.185 48.76 176.785 48.28C176.385 47.8 176.185 47.1333 176.185 46.28C176.185 44.68 177.158 43.56 179.105 42.92L183.585 41.4H185.065C186.212 41.4 187.118 41.7333 187.785 42.4C188.452 43.0667 188.785 43.9733 188.785 45.12V65.96C188.492 66.0133 188.052 66.08 187.465 66.16C186.905 66.2667 186.332 66.32 185.745 66.32C185.158 66.32 184.625 66.28 184.145 66.2C183.692 66.12 183.305 65.96 182.985 65.72C182.665 65.48 182.412 65.16 182.225 64.76C182.065 64.3333 181.985 63.7867 181.985 63.12V48.16Z" fill="#A98B8D"/>
<path d="M60.8233 150.64C58.7699 150.64 57.1966 151.267 56.1033 152.52C55.0099 153.773 54.4633 155.547 54.4633 157.84C54.4633 160.16 55.0633 161.947 56.2633 163.2C57.4899 164.453 59.1299 165.08 61.1833 165.08C62.2766 165.08 63.1966 164.933 63.9433 164.64C64.7166 164.347 65.4499 164.013 66.1433 163.64C66.5966 164.013 66.9433 164.467 67.1833 165C67.4499 165.507 67.5833 166.107 67.5833 166.8C67.5833 167.893 66.9699 168.827 65.7433 169.6C64.5433 170.347 62.7033 170.72 60.2233 170.72C58.4366 170.72 56.7566 170.467 55.1833 169.96C53.6099 169.453 52.2366 168.68 51.0633 167.64C49.8899 166.573 48.9566 165.24 48.2633 163.64C47.5966 162.013 47.2633 160.08 47.2633 157.84C47.2633 155.76 47.5833 153.933 48.2233 152.36C48.8899 150.76 49.7833 149.413 50.9033 148.32C52.0499 147.227 53.3833 146.4 54.9033 145.84C56.4233 145.28 58.0499 145 59.7833 145C62.2366 145 64.1299 145.4 65.4633 146.2C66.8233 147 67.5033 148.027 67.5033 149.28C67.5033 149.973 67.3299 150.573 66.9833 151.08C66.6366 151.587 66.2366 151.987 65.7833 152.28C65.0899 151.827 64.3433 151.44 63.5433 151.12C62.7699 150.8 61.8633 150.64 60.8233 150.64ZM89.9948 169.96C89.7282 170.04 89.3015 170.12 88.7148 170.2C88.1548 170.28 87.5682 170.32 86.9548 170.32C86.3682 170.32 85.8348 170.28 85.3548 170.2C84.9015 170.12 84.5148 169.96 84.1948 169.72C83.8748 169.48 83.6215 169.16 83.4348 168.76C83.2748 168.333 83.1948 167.787 83.1948 167.12V158.24C83.1948 157.147 82.9148 156.387 82.3548 155.96C81.8215 155.507 81.1548 155.28 80.3548 155.28C79.8215 155.28 79.3148 155.347 78.8348 155.48C78.3548 155.613 77.9682 155.773 77.6748 155.96V169.96C77.4082 170.04 76.9815 170.12 76.3948 170.2C75.8348 170.28 75.2482 170.32 74.6348 170.32C74.0482 170.32 73.5148 170.28 73.0348 170.2C72.5815 170.12 72.1948 169.96 71.8748 169.72C71.5548 169.48 71.3015 169.16 71.1148 168.76C70.9548 168.333 70.8748 167.787 70.8748 167.12V143.92C71.1682 143.867 71.5948 143.8 72.1548 143.72C72.7415 143.613 73.3282 143.56 73.9148 143.56C74.5015 143.56 75.0215 143.6 75.4748 143.68C75.9548 143.76 76.3548 143.92 76.6748 144.16C76.9948 144.4 77.2348 144.733 77.3948 145.16C77.5815 145.56 77.6748 146.093 77.6748 146.76V150.68C78.0215 150.547 78.5415 150.4 79.2348 150.24C79.9548 150.053 80.7415 149.96 81.5948 149.96C84.2348 149.96 86.2882 150.627 87.7548 151.96C89.2482 153.267 89.9948 155.227 89.9948 157.84V169.96ZM114.313 160.28C114.313 161.933 114.06 163.413 113.553 164.72C113.047 166 112.327 167.08 111.393 167.96C110.487 168.84 109.393 169.507 108.113 169.96C106.833 170.413 105.407 170.64 103.833 170.64C102.26 170.64 100.833 170.4 99.5533 169.92C98.2733 169.44 97.1666 168.76 96.2333 167.88C95.3266 166.973 94.6199 165.88 94.1133 164.6C93.6066 163.32 93.3533 161.88 93.3533 160.28C93.3533 158.707 93.6066 157.28 94.1133 156C94.6199 154.72 95.3266 153.64 96.2333 152.76C97.1666 151.853 98.2733 151.16 99.5533 150.68C100.833 150.2 102.26 149.96 103.833 149.96C105.407 149.96 106.833 150.213 108.113 150.72C109.393 151.2 110.487 151.893 111.393 152.8C112.327 153.68 113.047 154.76 113.553 156.04C114.06 157.32 114.313 158.733 114.313 160.28ZM100.313 160.28C100.313 161.907 100.62 163.16 101.233 164.04C101.873 164.893 102.753 165.32 103.873 165.32C104.993 165.32 105.847 164.88 106.433 164C107.047 163.12 107.353 161.88 107.353 160.28C107.353 158.68 107.047 157.453 106.433 156.6C105.82 155.72 104.953 155.28 103.833 155.28C102.713 155.28 101.847 155.72 101.233 156.6C100.62 157.453 100.313 158.68 100.313 160.28ZM117.471 145.16C117.471 144.147 117.804 143.293 118.471 142.6C119.164 141.907 120.071 141.56 121.191 141.56C122.311 141.56 123.204 141.907 123.871 142.6C124.564 143.293 124.911 144.147 124.911 145.16C124.911 146.173 124.564 147.027 123.871 147.72C123.204 148.413 122.311 148.76 121.191 148.76C120.071 148.76 119.164 148.413 118.471 147.72C117.804 147.027 117.471 146.173 117.471 145.16ZM124.591 169.96C124.297 170.013 123.857 170.08 123.271 170.16C122.711 170.267 122.137 170.32 121.551 170.32C120.964 170.32 120.431 170.28 119.951 170.2C119.497 170.12 119.111 169.96 118.791 169.72C118.471 169.48 118.217 169.16 118.031 168.76C117.871 168.333 117.791 167.787 117.791 167.12V150.84C118.084 150.787 118.511 150.72 119.071 150.64C119.657 150.533 120.244 150.48 120.831 150.48C121.417 150.48 121.937 150.52 122.391 150.6C122.871 150.68 123.271 150.84 123.591 151.08C123.911 151.32 124.151 151.653 124.311 152.08C124.497 152.48 124.591 153.013 124.591 153.68V169.96ZM139.88 155.32C139.213 155.32 138.573 155.427 137.96 155.64C137.373 155.853 136.853 156.173 136.4 156.6C135.973 157 135.627 157.507 135.36 158.12C135.093 158.733 134.96 159.453 134.96 160.28C134.96 161.933 135.427 163.173 136.36 164C137.32 164.827 138.48 165.24 139.84 165.24C140.64 165.24 141.333 165.147 141.92 164.96C142.507 164.773 143.027 164.573 143.48 164.36C144.013 164.733 144.413 165.147 144.68 165.6C144.947 166.027 145.08 166.547 145.08 167.16C145.08 168.253 144.56 169.107 143.52 169.72C142.48 170.307 141.04 170.6 139.2 170.6C137.52 170.6 136 170.36 134.64 169.88C133.28 169.373 132.107 168.68 131.12 167.8C130.16 166.893 129.413 165.813 128.88 164.56C128.347 163.307 128.08 161.92 128.08 160.4C128.08 158.64 128.36 157.107 128.92 155.8C129.507 154.467 130.293 153.373 131.28 152.52C132.267 151.667 133.4 151.027 134.68 150.6C135.987 150.173 137.36 149.96 138.8 149.96C140.72 149.96 142.2 150.307 143.24 151C144.28 151.693 144.8 152.587 144.8 153.68C144.8 154.187 144.68 154.667 144.44 155.12C144.2 155.547 143.92 155.92 143.6 156.24C143.147 156.027 142.6 155.827 141.96 155.64C141.32 155.427 140.627 155.32 139.88 155.32ZM158.184 170.64C156.611 170.64 155.144 170.427 153.784 170C152.451 169.547 151.278 168.88 150.264 168C149.278 167.12 148.491 166.013 147.904 164.68C147.344 163.347 147.064 161.787 147.064 160C147.064 158.24 147.344 156.733 147.904 155.48C148.491 154.2 149.251 153.16 150.184 152.36C151.118 151.533 152.184 150.933 153.384 150.56C154.584 150.16 155.811 149.96 157.064 149.96C158.478 149.96 159.758 150.173 160.904 150.6C162.078 151.027 163.078 151.613 163.904 152.36C164.758 153.107 165.411 154 165.864 155.04C166.344 156.08 166.584 157.213 166.584 158.44C166.584 159.347 166.331 160.04 165.824 160.52C165.318 161 164.611 161.307 163.704 161.44L153.824 162.92C154.118 163.8 154.718 164.467 155.624 164.92C156.531 165.347 157.571 165.56 158.744 165.56C159.838 165.56 160.864 165.427 161.824 165.16C162.811 164.867 163.611 164.533 164.224 164.16C164.651 164.427 165.011 164.8 165.304 165.28C165.598 165.76 165.744 166.267 165.744 166.8C165.744 168 165.184 168.893 164.064 169.48C163.211 169.933 162.251 170.24 161.184 170.4C160.118 170.56 159.118 170.64 158.184 170.64ZM157.064 154.92C156.424 154.92 155.864 155.027 155.384 155.24C154.931 155.453 154.558 155.733 154.264 156.08C153.971 156.4 153.744 156.773 153.584 157.2C153.451 157.6 153.371 158.013 153.344 158.44L160.184 157.32C160.104 156.787 159.811 156.253 159.304 155.72C158.798 155.187 158.051 154.92 157.064 154.92ZM185.425 145.08C186.945 145.08 188.292 145.28 189.465 145.68C190.638 146.053 191.638 146.573 192.465 147.24C193.292 147.907 193.918 148.693 194.345 149.6C194.772 150.507 194.985 151.48 194.985 152.52C194.985 155.32 193.398 157.987 190.225 160.52L184.985 164.72H194.585C194.745 165.013 194.892 165.387 195.025 165.84C195.185 166.293 195.265 166.787 195.265 167.32C195.265 168.28 195.052 168.973 194.625 169.4C194.198 169.8 193.638 170 192.945 170H179.065C178.478 169.6 178.012 169.093 177.665 168.48C177.345 167.84 177.185 167.093 177.185 166.24C177.185 165.333 177.372 164.573 177.745 163.96C178.118 163.32 178.532 162.813 178.985 162.44L184.505 157.72C185.198 157.133 185.772 156.613 186.225 156.16C186.678 155.68 187.038 155.253 187.305 154.88C187.598 154.507 187.798 154.16 187.905 153.84C188.038 153.52 188.105 153.213 188.105 152.92C188.105 152.173 187.772 151.587 187.105 151.16C186.465 150.733 185.665 150.52 184.705 150.52C183.638 150.52 182.678 150.693 181.825 151.04C180.998 151.36 180.305 151.707 179.745 152.08C179.292 151.76 178.918 151.36 178.625 150.88C178.332 150.4 178.185 149.84 178.185 149.2C178.185 147.813 178.838 146.787 180.145 146.12C181.452 145.427 183.212 145.08 185.425 145.08Z" fill="#A98B8D"/>
<path d="M60.8233 254.64C58.7699 254.64 57.1966 255.267 56.1033 256.52C55.0099 257.773 54.4633 259.547 54.4633 261.84C54.4633 264.16 55.0633 265.947 56.2633 267.2C57.4899 268.453 59.1299 269.08 61.1833 269.08C62.2766 269.08 63.1966 268.933 63.9433 268.64C64.7166 268.347 65.4499 268.013 66.1433 267.64C66.5966 268.013 66.9433 268.467 67.1833 269C67.4499 269.507 67.5833 270.107 67.5833 270.8C67.5833 271.893 66.9699 272.827 65.7433 273.6C64.5433 274.347 62.7033 274.72 60.2233 274.72C58.4366 274.72 56.7566 274.467 55.1833 273.96C53.6099 273.453 52.2366 272.68 51.0633 271.64C49.8899 270.573 48.9566 269.24 48.2633 267.64C47.5966 266.013 47.2633 264.08 47.2633 261.84C47.2633 259.76 47.5833 257.933 48.2233 256.36C48.8899 254.76 49.7833 253.413 50.9033 252.32C52.0499 251.227 53.3833 250.4 54.9033 249.84C56.4233 249.28 58.0499 249 59.7833 249C62.2366 249 64.1299 249.4 65.4633 250.2C66.8233 251 67.5033 252.027 67.5033 253.28C67.5033 253.973 67.3299 254.573 66.9833 255.08C66.6366 255.587 66.2366 255.987 65.7833 256.28C65.0899 255.827 64.3433 255.44 63.5433 255.12C62.7699 254.8 61.8633 254.64 60.8233 254.64ZM89.9948 273.96C89.7282 274.04 89.3015 274.12 88.7148 274.2C88.1548 274.28 87.5682 274.32 86.9548 274.32C86.3682 274.32 85.8348 274.28 85.3548 274.2C84.9015 274.12 84.5148 273.96 84.1948 273.72C83.8748 273.48 83.6215 273.16 83.4348 272.76C83.2748 272.333 83.1948 271.787 83.1948 271.12V262.24C83.1948 261.147 82.9148 260.387 82.3548 259.96C81.8215 259.507 81.1548 259.28 80.3548 259.28C79.8215 259.28 79.3148 259.347 78.8348 259.48C78.3548 259.613 77.9682 259.773 77.6748 259.96V273.96C77.4082 274.04 76.9815 274.12 76.3948 274.2C75.8348 274.28 75.2482 274.32 74.6348 274.32C74.0482 274.32 73.5148 274.28 73.0348 274.2C72.5815 274.12 72.1948 273.96 71.8748 273.72C71.5548 273.48 71.3015 273.16 71.1148 272.76C70.9548 272.333 70.8748 271.787 70.8748 271.12V247.92C71.1682 247.867 71.5948 247.8 72.1548 247.72C72.7415 247.613 73.3282 247.56 73.9148 247.56C74.5015 247.56 75.0215 247.6 75.4748 247.68C75.9548 247.76 76.3548 247.92 76.6748 248.16C76.9948 248.4 77.2348 248.733 77.3948 249.16C77.5815 249.56 77.6748 250.093 77.6748 250.76V254.68C78.0215 254.547 78.5415 254.4 79.2348 254.24C79.9548 254.053 80.7415 253.96 81.5948 253.96C84.2348 253.96 86.2882 254.627 87.7548 255.96C89.2482 257.267 89.9948 259.227 89.9948 261.84V273.96ZM114.313 264.28C114.313 265.933 114.06 267.413 113.553 268.72C113.047 270 112.327 271.08 111.393 271.96C110.487 272.84 109.393 273.507 108.113 273.96C106.833 274.413 105.407 274.64 103.833 274.64C102.26 274.64 100.833 274.4 99.5533 273.92C98.2733 273.44 97.1666 272.76 96.2333 271.88C95.3266 270.973 94.6199 269.88 94.1133 268.6C93.6066 267.32 93.3533 265.88 93.3533 264.28C93.3533 262.707 93.6066 261.28 94.1133 260C94.6199 258.72 95.3266 257.64 96.2333 256.76C97.1666 255.853 98.2733 255.16 99.5533 254.68C100.833 254.2 102.26 253.96 103.833 253.96C105.407 253.96 106.833 254.213 108.113 254.72C109.393 255.2 110.487 255.893 111.393 256.8C112.327 257.68 113.047 258.76 113.553 260.04C114.06 261.32 114.313 262.733 114.313 264.28ZM100.313 264.28C100.313 265.907 100.62 267.16 101.233 268.04C101.873 268.893 102.753 269.32 103.873 269.32C104.993 269.32 105.847 268.88 106.433 268C107.047 267.12 107.353 265.88 107.353 264.28C107.353 262.68 107.047 261.453 106.433 260.6C105.82 259.72 104.953 259.28 103.833 259.28C102.713 259.28 101.847 259.72 101.233 260.6C100.62 261.453 100.313 262.68 100.313 264.28ZM117.471 249.16C117.471 248.147 117.804 247.293 118.471 246.6C119.164 245.907 120.071 245.56 121.191 245.56C122.311 245.56 123.204 245.907 123.871 246.6C124.564 247.293 124.911 248.147 124.911 249.16C124.911 250.173 124.564 251.027 123.871 251.72C123.204 252.413 122.311 252.76 121.191 252.76C120.071 252.76 119.164 252.413 118.471 251.72C117.804 251.027 117.471 250.173 117.471 249.16ZM124.591 273.96C124.297 274.013 123.857 274.08 123.271 274.16C122.711 274.267 122.137 274.32 121.551 274.32C120.964 274.32 120.431 274.28 119.951 274.2C119.497 274.12 119.111 273.96 118.791 273.72C118.471 273.48 118.217 273.16 118.031 272.76C117.871 272.333 117.791 271.787 117.791 271.12V254.84C118.084 254.787 118.511 254.72 119.071 254.64C119.657 254.533 120.244 254.48 120.831 254.48C121.417 254.48 121.937 254.52 122.391 254.6C122.871 254.68 123.271 254.84 123.591 255.08C123.911 255.32 124.151 255.653 124.311 256.08C124.497 256.48 124.591 257.013 124.591 257.68V273.96ZM139.88 259.32C139.213 259.32 138.573 259.427 137.96 259.64C137.373 259.853 136.853 260.173 136.4 260.6C135.973 261 135.627 261.507 135.36 262.12C135.093 262.733 134.96 263.453 134.96 264.28C134.96 265.933 135.427 267.173 136.36 268C137.32 268.827 138.48 269.24 139.84 269.24C140.64 269.24 141.333 269.147 141.92 268.96C142.507 268.773 143.027 268.573 143.48 268.36C144.013 268.733 144.413 269.147 144.68 269.6C144.947 270.027 145.08 270.547 145.08 271.16C145.08 272.253 144.56 273.107 143.52 273.72C142.48 274.307 141.04 274.6 139.2 274.6C137.52 274.6 136 274.36 134.64 273.88C133.28 273.373 132.107 272.68 131.12 271.8C130.16 270.893 129.413 269.813 128.88 268.56C128.347 267.307 128.08 265.92 128.08 264.4C128.08 262.64 128.36 261.107 128.92 259.8C129.507 258.467 130.293 257.373 131.28 256.52C132.267 255.667 133.4 255.027 134.68 254.6C135.987 254.173 137.36 253.96 138.8 253.96C140.72 253.96 142.2 254.307 143.24 255C144.28 255.693 144.8 256.587 144.8 257.68C144.8 258.187 144.68 258.667 144.44 259.12C144.2 259.547 143.92 259.92 143.6 260.24C143.147 260.027 142.6 259.827 141.96 259.64C141.32 259.427 140.627 259.32 139.88 259.32ZM158.184 274.64C156.611 274.64 155.144 274.427 153.784 274C152.451 273.547 151.278 272.88 150.264 272C149.278 271.12 148.491 270.013 147.904 268.68C147.344 267.347 147.064 265.787 147.064 264C147.064 262.24 147.344 260.733 147.904 259.48C148.491 258.2 149.251 257.16 150.184 256.36C151.118 255.533 152.184 254.933 153.384 254.56C154.584 254.16 155.811 253.96 157.064 253.96C158.478 253.96 159.758 254.173 160.904 254.6C162.078 255.027 163.078 255.613 163.904 256.36C164.758 257.107 165.411 258 165.864 259.04C166.344 260.08 166.584 261.213 166.584 262.44C166.584 263.347 166.331 264.04 165.824 264.52C165.318 265 164.611 265.307 163.704 265.44L153.824 266.92C154.118 267.8 154.718 268.467 155.624 268.92C156.531 269.347 157.571 269.56 158.744 269.56C159.838 269.56 160.864 269.427 161.824 269.16C162.811 268.867 163.611 268.533 164.224 268.16C164.651 268.427 165.011 268.8 165.304 269.28C165.598 269.76 165.744 270.267 165.744 270.8C165.744 272 165.184 272.893 164.064 273.48C163.211 273.933 162.251 274.24 161.184 274.4C160.118 274.56 159.118 274.64 158.184 274.64ZM157.064 258.92C156.424 258.92 155.864 259.027 155.384 259.24C154.931 259.453 154.558 259.733 154.264 260.08C153.971 260.4 153.744 260.773 153.584 261.2C153.451 261.6 153.371 262.013 153.344 262.44L160.184 261.32C160.104 260.787 159.811 260.253 159.304 259.72C158.798 259.187 158.051 258.92 157.064 258.92ZM185.425 249.08C186.945 249.08 188.292 249.28 189.465 249.68C190.638 250.053 191.638 250.573 192.465 251.24C193.292 251.907 193.918 252.693 194.345 253.6C194.772 254.507 194.985 255.48 194.985 256.52C194.985 259.32 193.398 261.987 190.225 264.52L184.985 268.72H194.585C194.745 269.013 194.892 269.387 195.025 269.84C195.185 270.293 195.265 270.787 195.265 271.32C195.265 272.28 195.052 272.973 194.625 273.4C194.198 273.8 193.638 274 192.945 274H179.065C178.478 273.6 178.012 273.093 177.665 272.48C177.345 271.84 177.185 271.093 177.185 270.24C177.185 269.333 177.372 268.573 177.745 267.96C178.118 267.32 178.532 266.813 178.985 266.44L184.505 261.72C185.198 261.133 185.772 260.613 186.225 260.16C186.678 259.68 187.038 259.253 187.305 258.88C187.598 258.507 187.798 258.16 187.905 257.84C188.038 257.52 188.105 257.213 188.105 256.92C188.105 256.173 187.772 255.587 187.105 255.16C186.465 254.733 185.665 254.52 184.705 254.52C183.638 254.52 182.678 254.693 181.825 255.04C180.998 255.36 180.305 255.707 179.745 256.08C179.292 255.76 178.918 255.36 178.625 254.88C178.332 254.4 178.185 253.84 178.185 253.2C178.185 251.813 178.838 250.787 180.145 250.12C181.452 249.427 183.212 249.08 185.425 249.08Z" fill="#A98B8D"/>
<path d="M38 107H308" stroke="#E2D5C3" stroke-width="4" stroke-linecap="round"/>
<path d="M38 211H308" stroke="#E2D5C3" stroke-width="4" stroke-linecap="round"/>
</svg>
