<svg width="837" height="662" viewBox="0 0 837 662" fill="none" xmlns="http://www.w3.org/2000/svg">
<path d="M89.6185 283.358C89.6183 284.831 90.812 286.025 92.2848 286.025C93.7576 286.025 94.9516 284.832 94.9518 283.359C94.952 281.886 93.7583 280.692 92.2855 280.692C90.8128 280.692 89.6187 281.885 89.6185 283.358ZM92.2852 283.358L92.2851 283.858L716.083 283.942L716.083 283.442L716.083 282.942L92.2852 282.858L92.2852 283.358Z" fill="#544545"/>
<g filter="url(#filter0_i_369_174)">
<path d="M298.132 353.1C298.499 352.933 299.065 352.75 299.832 352.55C300.632 352.317 301.432 352.2 302.232 352.2C303.632 352.2 304.799 352.417 305.732 352.85C306.665 353.25 307.232 353.85 307.432 354.65C307.799 356.017 308.132 357.3 308.432 358.5C308.765 359.667 309.082 360.8 309.382 361.9C309.682 362.967 309.965 364.033 310.232 365.1C310.532 366.167 310.815 367.283 311.082 368.45H311.332C311.632 366.417 311.899 364.483 312.132 362.65C312.365 360.783 312.582 358.967 312.782 357.2C312.982 355.4 313.182 353.633 313.382 351.9C313.582 350.133 313.782 348.35 313.982 346.55C315.215 345.85 316.532 345.5 317.932 345.5C319.165 345.5 320.232 345.767 321.132 346.3C322.032 346.833 322.482 347.733 322.482 349C322.482 349.733 322.399 350.783 322.232 352.15C322.099 353.483 321.899 354.983 321.632 356.65C321.399 358.317 321.115 360.067 320.782 361.9C320.449 363.733 320.099 365.483 319.732 367.15C319.365 368.817 318.982 370.333 318.582 371.7C318.215 373.033 317.865 374.067 317.532 374.8C317.032 375.267 316.215 375.65 315.082 375.95C313.949 376.25 312.782 376.4 311.582 376.4C310.015 376.4 308.682 376.2 307.582 375.8C306.515 375.367 305.865 374.767 305.632 374C305.199 372.667 304.732 371.083 304.232 369.25C303.732 367.417 303.199 365.4 302.632 363.2C302.165 365.367 301.682 367.483 301.182 369.55C300.682 371.617 300.232 373.367 299.832 374.8C299.332 375.267 298.582 375.65 297.582 375.95C296.582 376.25 295.482 376.4 294.282 376.4C292.782 376.4 291.415 376.2 290.182 375.8C288.982 375.367 288.199 374.767 287.832 374C287.532 373.4 287.199 372.517 286.832 371.35C286.499 370.15 286.149 368.8 285.782 367.3C285.415 365.767 285.032 364.117 284.632 362.35C284.265 360.583 283.915 358.817 283.582 357.05C283.282 355.283 282.999 353.567 282.732 351.9C282.465 350.2 282.265 348.65 282.132 347.25C282.599 346.817 283.249 346.417 284.082 346.05C284.915 345.683 285.815 345.5 286.782 345.5C288.049 345.5 289.082 345.783 289.882 346.35C290.715 346.883 291.232 347.8 291.432 349.1C291.965 352.5 292.399 355.333 292.732 357.6C293.099 359.867 293.382 361.733 293.582 363.2C293.815 364.633 293.982 365.75 294.082 366.55C294.182 367.35 294.282 367.983 294.382 368.45H294.632C294.932 367.117 295.215 365.883 295.482 364.75C295.749 363.617 296.015 362.483 296.282 361.35C296.582 360.183 296.882 358.95 297.182 357.65C297.482 356.317 297.799 354.8 298.132 353.1ZM339.008 376.8C337.041 376.8 335.208 376.533 333.508 376C331.841 375.433 330.374 374.6 329.108 373.5C327.874 372.4 326.891 371.017 326.158 369.35C325.458 367.683 325.108 365.733 325.108 363.5C325.108 361.3 325.458 359.417 326.158 357.85C326.891 356.25 327.841 354.95 329.008 353.95C330.174 352.917 331.508 352.167 333.008 351.7C334.508 351.2 336.041 350.95 337.608 350.95C339.374 350.95 340.974 351.217 342.408 351.75C343.874 352.283 345.124 353.017 346.158 353.95C347.224 354.883 348.041 356 348.608 357.3C349.208 358.6 349.508 360.017 349.508 361.55C349.508 362.683 349.191 363.55 348.558 364.15C347.924 364.75 347.041 365.133 345.908 365.3L333.558 367.15C333.924 368.25 334.674 369.083 335.808 369.65C336.941 370.183 338.241 370.45 339.708 370.45C341.074 370.45 342.358 370.283 343.558 369.95C344.791 369.583 345.791 369.167 346.558 368.7C347.091 369.033 347.541 369.5 347.908 370.1C348.274 370.7 348.458 371.333 348.458 372C348.458 373.5 347.758 374.617 346.358 375.35C345.291 375.917 344.091 376.3 342.758 376.5C341.424 376.7 340.174 376.8 339.008 376.8ZM337.608 357.15C336.808 357.15 336.108 357.283 335.508 357.55C334.941 357.817 334.474 358.167 334.108 358.6C333.741 359 333.458 359.467 333.258 360C333.091 360.5 332.991 361.017 332.958 361.55L341.508 360.15C341.408 359.483 341.041 358.817 340.408 358.15C339.774 357.483 338.841 357.15 337.608 357.15ZM362.249 375.95C361.882 376.017 361.332 376.1 360.599 376.2C359.899 376.333 359.182 376.4 358.449 376.4C357.716 376.4 357.049 376.35 356.449 376.25C355.882 376.15 355.399 375.95 354.999 375.65C354.599 375.35 354.282 374.95 354.049 374.45C353.849 373.917 353.749 373.233 353.749 372.4V343.4C354.116 343.333 354.649 343.25 355.349 343.15C356.082 343.017 356.816 342.95 357.549 342.95C358.282 342.95 358.932 343 359.499 343.1C360.099 343.2 360.599 343.4 360.999 343.7C361.399 344 361.699 344.417 361.899 344.95C362.132 345.45 362.249 346.117 362.249 346.95V375.95ZM376.263 375.95C375.896 376.017 375.346 376.1 374.613 376.2C373.913 376.333 373.196 376.4 372.463 376.4C371.729 376.4 371.063 376.35 370.463 376.25C369.896 376.15 369.413 375.95 369.013 375.65C368.613 375.35 368.296 374.95 368.063 374.45C367.863 373.917 367.763 373.233 367.763 372.4V343.4C368.129 343.333 368.663 343.25 369.363 343.15C370.096 343.017 370.829 342.95 371.563 342.95C372.296 342.95 372.946 343 373.513 343.1C374.113 343.2 374.613 343.4 375.013 343.7C375.413 344 375.713 344.417 375.913 344.95C376.146 345.45 376.263 346.117 376.263 346.95V375.95ZM400.986 369.5C401.353 369.567 401.803 369.633 402.336 369.7C402.869 369.733 403.369 369.75 403.836 369.75C404.969 369.75 406.003 369.583 406.936 369.25C407.903 368.917 408.719 368.4 409.386 367.7C410.086 367 410.619 366.1 410.986 365C411.386 363.867 411.586 362.517 411.586 360.95C411.586 357.95 410.886 355.7 409.486 354.2C408.086 352.667 406.219 351.9 403.886 351.9C403.419 351.9 402.936 351.917 402.436 351.95C401.969 351.983 401.486 352.033 400.986 352.1V369.5ZM403.786 376.8C403.219 376.8 402.569 376.783 401.836 376.75C401.103 376.717 400.336 376.65 399.536 376.55C398.769 376.45 397.986 376.317 397.186 376.15C396.419 376.017 395.703 375.817 395.036 375.55C393.203 374.85 392.286 373.633 392.286 371.9V348.55C392.286 347.85 392.469 347.317 392.836 346.95C393.236 346.55 393.769 346.233 394.436 346C395.869 345.533 397.386 345.233 398.986 345.1C400.586 344.933 402.019 344.85 403.286 344.85C405.886 344.85 408.236 345.167 410.336 345.8C412.469 346.433 414.286 347.417 415.786 348.75C417.319 350.05 418.503 351.7 419.336 353.7C420.169 355.7 420.586 358.067 420.586 360.8C420.586 363.467 420.186 365.8 419.386 367.8C418.586 369.767 417.436 371.433 415.936 372.8C414.469 374.133 412.703 375.133 410.636 375.8C408.569 376.467 406.286 376.8 403.786 376.8ZM450.087 363.85C450.087 365.917 449.77 367.767 449.137 369.4C448.504 371 447.604 372.35 446.437 373.45C445.304 374.55 443.937 375.383 442.337 375.95C440.737 376.517 438.954 376.8 436.987 376.8C435.02 376.8 433.237 376.5 431.637 375.9C430.037 375.3 428.654 374.45 427.487 373.35C426.354 372.217 425.47 370.85 424.837 369.25C424.204 367.65 423.887 365.85 423.887 363.85C423.887 361.883 424.204 360.1 424.837 358.5C425.47 356.9 426.354 355.55 427.487 354.45C428.654 353.317 430.037 352.45 431.637 351.85C433.237 351.25 435.02 350.95 436.987 350.95C438.954 350.95 440.737 351.267 442.337 351.9C443.937 352.5 445.304 353.367 446.437 354.5C447.604 355.6 448.504 356.95 449.137 358.55C449.77 360.15 450.087 361.917 450.087 363.85ZM432.587 363.85C432.587 365.883 432.97 367.45 433.737 368.55C434.537 369.617 435.637 370.15 437.037 370.15C438.437 370.15 439.504 369.6 440.237 368.5C441.004 367.4 441.387 365.85 441.387 363.85C441.387 361.85 441.004 360.317 440.237 359.25C439.47 358.15 438.387 357.6 436.987 357.6C435.587 357.6 434.504 358.15 433.737 359.25C432.97 360.317 432.587 361.85 432.587 363.85ZM469.634 360.6C469.634 359.567 469.334 358.817 468.734 358.35C468.167 357.85 467.384 357.6 466.384 357.6C465.717 357.6 465.05 357.683 464.384 357.85C463.75 358.017 463.2 358.267 462.734 358.6V375.95C462.4 376.05 461.867 376.15 461.134 376.25C460.434 376.35 459.7 376.4 458.934 376.4C458.2 376.4 457.534 376.35 456.934 376.25C456.367 376.15 455.884 375.95 455.484 375.65C455.084 375.35 454.767 374.95 454.534 374.45C454.334 373.917 454.234 373.233 454.234 372.4V357.4C454.234 356.5 454.417 355.767 454.784 355.2C455.184 354.633 455.717 354.117 456.384 353.65C457.517 352.85 458.934 352.2 460.634 351.7C462.367 351.2 464.284 350.95 466.384 350.95C470.15 350.95 473.05 351.783 475.084 353.45C477.117 355.083 478.134 357.367 478.134 360.3V375.95C477.8 376.05 477.267 376.15 476.534 376.25C475.834 376.35 475.1 376.4 474.334 376.4C473.6 376.4 472.934 376.35 472.334 376.25C471.767 376.15 471.284 375.95 470.884 375.65C470.484 375.35 470.167 374.95 469.934 374.45C469.734 373.917 469.634 373.233 469.634 372.4V360.6ZM496.234 376.8C494.268 376.8 492.434 376.533 490.734 376C489.068 375.433 487.601 374.6 486.334 373.5C485.101 372.4 484.118 371.017 483.384 369.35C482.684 367.683 482.334 365.733 482.334 363.5C482.334 361.3 482.684 359.417 483.384 357.85C484.118 356.25 485.068 354.95 486.234 353.95C487.401 352.917 488.734 352.167 490.234 351.7C491.734 351.2 493.268 350.95 494.834 350.95C496.601 350.95 498.201 351.217 499.634 351.75C501.101 352.283 502.351 353.017 503.384 353.95C504.451 354.883 505.268 356 505.834 357.3C506.434 358.6 506.734 360.017 506.734 361.55C506.734 362.683 506.418 363.55 505.784 364.15C505.151 364.75 504.268 365.133 503.134 365.3L490.784 367.15C491.151 368.25 491.901 369.083 493.034 369.65C494.168 370.183 495.468 370.45 496.934 370.45C498.301 370.45 499.584 370.283 500.784 369.95C502.018 369.583 503.018 369.167 503.784 368.7C504.318 369.033 504.768 369.5 505.134 370.1C505.501 370.7 505.684 371.333 505.684 372C505.684 373.5 504.984 374.617 503.584 375.35C502.518 375.917 501.318 376.3 499.984 376.5C498.651 376.7 497.401 376.8 496.234 376.8ZM494.834 357.15C494.034 357.15 493.334 357.283 492.734 357.55C492.168 357.817 491.701 358.167 491.334 358.6C490.968 359 490.684 359.467 490.484 360C490.318 360.5 490.218 361.017 490.184 361.55L498.734 360.15C498.634 359.483 498.268 358.817 497.634 358.15C497.001 357.483 496.068 357.15 494.834 357.15ZM520.076 347C520.076 347.767 520.059 348.883 520.026 350.35C519.992 351.783 519.926 353.35 519.826 355.05C519.726 356.717 519.592 358.4 519.426 360.1C519.259 361.767 519.059 363.217 518.826 364.45C518.692 364.55 518.492 364.65 518.226 364.75C517.959 364.85 517.676 364.933 517.376 365C517.076 365.067 516.776 365.117 516.476 365.15C516.176 365.183 515.909 365.2 515.676 365.2C514.709 365.2 513.892 365.05 513.226 364.75C512.592 364.45 512.192 363.867 512.026 363C511.859 362.233 511.709 361.067 511.576 359.5C511.476 357.933 511.376 356.233 511.276 354.4C511.176 352.567 511.092 350.75 511.026 348.95C510.992 347.15 510.976 345.617 510.976 344.35C511.642 343.983 512.392 343.7 513.226 343.5C514.092 343.267 514.942 343.15 515.776 343.15C517.142 343.15 518.192 343.467 518.926 344.1C519.692 344.733 520.076 345.7 520.076 347ZM510.876 372.2C510.876 370.833 511.292 369.717 512.126 368.85C512.992 367.95 514.176 367.5 515.676 367.5C517.176 367.5 518.342 367.95 519.176 368.85C520.042 369.717 520.476 370.833 520.476 372.2C520.476 373.567 520.042 374.7 519.176 375.6C518.342 376.467 517.176 376.9 515.676 376.9C514.176 376.9 512.992 376.467 512.126 375.6C511.292 374.7 510.876 373.567 510.876 372.2Z" fill="#663E02"/>
</g>
<path d="M109.506 218.81L116.107 232.384L122.709 218.81H128.139L118.568 236.778V247.247H113.627V236.778L104.057 218.81H109.506ZM128.588 236.915V236.466C128.588 234.942 128.809 233.53 129.252 232.228C129.695 230.912 130.333 229.773 131.166 228.81C132.012 227.833 133.041 227.078 134.252 226.544C135.476 225.997 136.856 225.724 138.393 225.724C139.942 225.724 141.322 225.997 142.533 226.544C143.757 227.078 144.792 227.833 145.639 228.81C146.485 229.773 147.13 230.912 147.572 232.228C148.015 233.53 148.236 234.942 148.236 236.466V236.915C148.236 238.438 148.015 239.851 147.572 241.153C147.13 242.455 146.485 243.595 145.639 244.571C144.792 245.535 143.764 246.29 142.553 246.837C141.342 247.371 139.968 247.638 138.432 247.638C136.882 247.638 135.495 247.371 134.271 246.837C133.061 246.29 132.032 245.535 131.186 244.571C130.339 243.595 129.695 242.455 129.252 241.153C128.809 239.851 128.588 238.438 128.588 236.915ZM133.295 236.466V236.915C133.295 237.866 133.393 238.764 133.588 239.61C133.783 240.457 134.089 241.199 134.506 241.837C134.923 242.475 135.456 242.976 136.107 243.341C136.758 243.705 137.533 243.888 138.432 243.888C139.304 243.888 140.059 243.705 140.697 243.341C141.348 242.976 141.882 242.475 142.299 241.837C142.715 241.199 143.021 240.457 143.217 239.61C143.425 238.764 143.529 237.866 143.529 236.915V236.466C143.529 235.528 143.425 234.643 143.217 233.81C143.021 232.963 142.709 232.215 142.279 231.563C141.863 230.912 141.329 230.405 140.678 230.04C140.04 229.662 139.278 229.474 138.393 229.474C137.507 229.474 136.739 229.662 136.088 230.04C135.45 230.405 134.923 230.912 134.506 231.563C134.089 232.215 133.783 232.963 133.588 233.81C133.393 234.643 133.295 235.528 133.295 236.466ZM164.896 242.267V226.114H169.623V247.247H165.17L164.896 242.267ZM165.561 237.872L167.143 237.833C167.143 239.252 166.986 240.561 166.674 241.759C166.361 242.944 165.88 243.979 165.229 244.864C164.577 245.737 163.744 246.42 162.729 246.915C161.713 247.397 160.495 247.638 159.076 247.638C158.048 247.638 157.104 247.488 156.244 247.188C155.385 246.889 154.643 246.427 154.018 245.802C153.406 245.177 152.93 244.363 152.592 243.36C152.253 242.358 152.084 241.16 152.084 239.767V226.114H156.791V239.806C156.791 240.574 156.882 241.218 157.064 241.739C157.247 242.247 157.494 242.657 157.807 242.97C158.119 243.282 158.484 243.504 158.9 243.634C159.317 243.764 159.76 243.829 160.229 243.829C161.57 243.829 162.624 243.569 163.393 243.048C164.174 242.514 164.727 241.798 165.053 240.899C165.391 240.001 165.561 238.992 165.561 237.872ZM179.174 230.138V247.247H174.467V226.114H178.959L179.174 230.138ZM185.639 225.978L185.6 230.353C185.313 230.3 185.001 230.261 184.662 230.235C184.337 230.209 184.011 230.196 183.686 230.196C182.878 230.196 182.169 230.313 181.557 230.548C180.945 230.769 180.43 231.095 180.014 231.524C179.61 231.941 179.298 232.449 179.076 233.048C178.855 233.647 178.725 234.317 178.686 235.06L177.611 235.138C177.611 233.81 177.742 232.579 178.002 231.446C178.262 230.313 178.653 229.317 179.174 228.458C179.708 227.599 180.372 226.928 181.166 226.446C181.973 225.965 182.904 225.724 183.959 225.724C184.245 225.724 184.551 225.75 184.877 225.802C185.215 225.854 185.469 225.912 185.639 225.978ZM210.404 241.524C210.404 241.056 210.287 240.632 210.053 240.255C209.818 239.864 209.369 239.513 208.705 239.2C208.054 238.888 207.09 238.601 205.814 238.341C204.695 238.093 203.666 237.8 202.729 237.462C201.804 237.11 201.01 236.687 200.346 236.192C199.682 235.698 199.167 235.112 198.803 234.435C198.438 233.757 198.256 232.976 198.256 232.091C198.256 231.231 198.445 230.418 198.822 229.649C199.2 228.881 199.74 228.204 200.443 227.618C201.146 227.032 201.999 226.57 203.002 226.231C204.018 225.893 205.15 225.724 206.4 225.724C208.171 225.724 209.688 226.023 210.951 226.622C212.227 227.208 213.204 228.009 213.881 229.024C214.558 230.027 214.896 231.16 214.896 232.423H210.189C210.189 231.863 210.046 231.342 209.76 230.86C209.486 230.366 209.07 229.968 208.51 229.669C207.95 229.356 207.247 229.2 206.4 229.2C205.593 229.2 204.923 229.33 204.389 229.591C203.868 229.838 203.477 230.164 203.217 230.567C202.969 230.971 202.846 231.414 202.846 231.896C202.846 232.247 202.911 232.566 203.041 232.853C203.184 233.126 203.419 233.38 203.744 233.614C204.07 233.836 204.512 234.044 205.072 234.239C205.645 234.435 206.361 234.623 207.221 234.806C208.835 235.144 210.222 235.58 211.381 236.114C212.553 236.635 213.451 237.312 214.076 238.146C214.701 238.966 215.014 240.007 215.014 241.271C215.014 242.208 214.812 243.067 214.408 243.849C214.018 244.617 213.445 245.287 212.689 245.86C211.934 246.42 211.029 246.856 209.975 247.169C208.933 247.481 207.761 247.638 206.459 247.638C204.545 247.638 202.924 247.299 201.596 246.622C200.268 245.932 199.258 245.053 198.568 243.985C197.891 242.905 197.553 241.785 197.553 240.626H202.104C202.156 241.498 202.396 242.195 202.826 242.716C203.269 243.224 203.816 243.595 204.467 243.829C205.131 244.05 205.814 244.161 206.518 244.161C207.364 244.161 208.074 244.05 208.646 243.829C209.219 243.595 209.656 243.282 209.955 242.892C210.255 242.488 210.404 242.032 210.404 241.524ZM227.768 243.888C228.536 243.888 229.226 243.738 229.838 243.438C230.463 243.126 230.964 242.696 231.342 242.149C231.732 241.603 231.947 240.971 231.986 240.255H236.42C236.394 241.622 235.99 242.866 235.209 243.985C234.428 245.105 233.393 245.997 232.104 246.661C230.814 247.312 229.389 247.638 227.826 247.638C226.212 247.638 224.805 247.364 223.607 246.817C222.41 246.257 221.413 245.489 220.619 244.513C219.825 243.536 219.226 242.41 218.822 241.134C218.432 239.858 218.236 238.491 218.236 237.032V236.349C218.236 234.89 218.432 233.523 218.822 232.247C219.226 230.958 219.825 229.825 220.619 228.849C221.413 227.872 222.41 227.11 223.607 226.563C224.805 226.004 226.205 225.724 227.807 225.724C229.499 225.724 230.984 226.062 232.26 226.739C233.536 227.403 234.538 228.334 235.268 229.532C236.01 230.717 236.394 232.097 236.42 233.673H231.986C231.947 232.892 231.752 232.188 231.4 231.563C231.062 230.925 230.58 230.418 229.955 230.04C229.343 229.662 228.607 229.474 227.748 229.474C226.798 229.474 226.01 229.669 225.385 230.06C224.76 230.437 224.271 230.958 223.92 231.622C223.568 232.273 223.314 233.009 223.158 233.829C223.015 234.636 222.943 235.476 222.943 236.349V237.032C222.943 237.905 223.015 238.751 223.158 239.571C223.301 240.392 223.549 241.127 223.9 241.778C224.265 242.416 224.76 242.931 225.385 243.321C226.01 243.699 226.804 243.888 227.768 243.888ZM239.135 236.915V236.466C239.135 234.942 239.356 233.53 239.799 232.228C240.242 230.912 240.88 229.773 241.713 228.81C242.559 227.833 243.588 227.078 244.799 226.544C246.023 225.997 247.403 225.724 248.939 225.724C250.489 225.724 251.869 225.997 253.08 226.544C254.304 227.078 255.339 227.833 256.186 228.81C257.032 229.773 257.676 230.912 258.119 232.228C258.562 233.53 258.783 234.942 258.783 236.466V236.915C258.783 238.438 258.562 239.851 258.119 241.153C257.676 242.455 257.032 243.595 256.186 244.571C255.339 245.535 254.311 246.29 253.1 246.837C251.889 247.371 250.515 247.638 248.979 247.638C247.429 247.638 246.042 247.371 244.818 246.837C243.607 246.29 242.579 245.535 241.732 244.571C240.886 243.595 240.242 242.455 239.799 241.153C239.356 239.851 239.135 238.438 239.135 236.915ZM243.842 236.466V236.915C243.842 237.866 243.939 238.764 244.135 239.61C244.33 240.457 244.636 241.199 245.053 241.837C245.469 242.475 246.003 242.976 246.654 243.341C247.305 243.705 248.08 243.888 248.979 243.888C249.851 243.888 250.606 243.705 251.244 243.341C251.895 242.976 252.429 242.475 252.846 241.837C253.262 241.199 253.568 240.457 253.764 239.61C253.972 238.764 254.076 237.866 254.076 236.915V236.466C254.076 235.528 253.972 234.643 253.764 233.81C253.568 232.963 253.256 232.215 252.826 231.563C252.41 230.912 251.876 230.405 251.225 230.04C250.587 229.662 249.825 229.474 248.939 229.474C248.054 229.474 247.286 229.662 246.635 230.04C245.997 230.405 245.469 230.912 245.053 231.563C244.636 232.215 244.33 232.963 244.135 233.81C243.939 234.643 243.842 235.528 243.842 236.466ZM267.455 230.138V247.247H262.748V226.114H267.24L267.455 230.138ZM273.92 225.978L273.881 230.353C273.594 230.3 273.282 230.261 272.943 230.235C272.618 230.209 272.292 230.196 271.967 230.196C271.16 230.196 270.45 230.313 269.838 230.548C269.226 230.769 268.712 231.095 268.295 231.524C267.891 231.941 267.579 232.449 267.357 233.048C267.136 233.647 267.006 234.317 266.967 235.06L265.893 235.138C265.893 233.81 266.023 232.579 266.283 231.446C266.544 230.313 266.934 229.317 267.455 228.458C267.989 227.599 268.653 226.928 269.447 226.446C270.255 225.965 271.186 225.724 272.24 225.724C272.527 225.724 272.833 225.75 273.158 225.802C273.497 225.854 273.751 225.912 273.92 225.978ZM285.795 247.638C284.232 247.638 282.82 247.384 281.557 246.876C280.307 246.355 279.239 245.632 278.354 244.708C277.481 243.784 276.811 242.696 276.342 241.446C275.873 240.196 275.639 238.849 275.639 237.403V236.622C275.639 234.968 275.88 233.471 276.361 232.13C276.843 230.789 277.514 229.643 278.373 228.692C279.232 227.729 280.248 226.993 281.42 226.485C282.592 225.978 283.861 225.724 285.229 225.724C286.739 225.724 288.061 225.978 289.193 226.485C290.326 226.993 291.264 227.709 292.006 228.634C292.761 229.545 293.321 230.632 293.686 231.896C294.063 233.159 294.252 234.552 294.252 236.075V238.087H277.924V234.708H289.604V234.337C289.577 233.491 289.408 232.696 289.096 231.954C288.796 231.212 288.334 230.613 287.709 230.157C287.084 229.701 286.251 229.474 285.209 229.474C284.428 229.474 283.731 229.643 283.119 229.981C282.52 230.307 282.019 230.782 281.615 231.407C281.212 232.032 280.899 232.787 280.678 233.673C280.469 234.545 280.365 235.528 280.365 236.622V237.403C280.365 238.328 280.489 239.187 280.736 239.981C280.997 240.763 281.374 241.446 281.869 242.032C282.364 242.618 282.963 243.08 283.666 243.419C284.369 243.744 285.17 243.907 286.068 243.907C287.201 243.907 288.21 243.679 289.096 243.224C289.981 242.768 290.749 242.123 291.4 241.29L293.881 243.692C293.425 244.356 292.833 244.994 292.104 245.606C291.374 246.205 290.482 246.694 289.428 247.071C288.386 247.449 287.175 247.638 285.795 247.638ZM312.924 226.114V247.247H308.197V226.114H312.924ZM307.885 220.567C307.885 219.851 308.119 219.259 308.588 218.79C309.07 218.308 309.734 218.067 310.58 218.067C311.413 218.067 312.071 218.308 312.553 218.79C313.035 219.259 313.275 219.851 313.275 220.567C313.275 221.271 313.035 221.856 312.553 222.325C312.071 222.794 311.413 223.028 310.58 223.028C309.734 223.028 309.07 222.794 308.588 222.325C308.119 221.856 307.885 221.271 307.885 220.567ZM329.936 241.524C329.936 241.056 329.818 240.632 329.584 240.255C329.35 239.864 328.9 239.513 328.236 239.2C327.585 238.888 326.622 238.601 325.346 238.341C324.226 238.093 323.197 237.8 322.26 237.462C321.335 237.11 320.541 236.687 319.877 236.192C319.213 235.698 318.699 235.112 318.334 234.435C317.969 233.757 317.787 232.976 317.787 232.091C317.787 231.231 317.976 230.418 318.354 229.649C318.731 228.881 319.271 228.204 319.975 227.618C320.678 227.032 321.531 226.57 322.533 226.231C323.549 225.893 324.682 225.724 325.932 225.724C327.702 225.724 329.219 226.023 330.482 226.622C331.758 227.208 332.735 228.009 333.412 229.024C334.089 230.027 334.428 231.16 334.428 232.423H329.721C329.721 231.863 329.577 231.342 329.291 230.86C329.018 230.366 328.601 229.968 328.041 229.669C327.481 229.356 326.778 229.2 325.932 229.2C325.124 229.2 324.454 229.33 323.92 229.591C323.399 229.838 323.008 230.164 322.748 230.567C322.501 230.971 322.377 231.414 322.377 231.896C322.377 232.247 322.442 232.566 322.572 232.853C322.715 233.126 322.95 233.38 323.275 233.614C323.601 233.836 324.044 234.044 324.604 234.239C325.176 234.435 325.893 234.623 326.752 234.806C328.367 235.144 329.753 235.58 330.912 236.114C332.084 236.635 332.982 237.312 333.607 238.146C334.232 238.966 334.545 240.007 334.545 241.271C334.545 242.208 334.343 243.067 333.939 243.849C333.549 244.617 332.976 245.287 332.221 245.86C331.465 246.42 330.561 246.856 329.506 247.169C328.464 247.481 327.292 247.638 325.99 247.638C324.076 247.638 322.455 247.299 321.127 246.622C319.799 245.932 318.79 245.053 318.1 243.985C317.423 242.905 317.084 241.785 317.084 240.626H321.635C321.687 241.498 321.928 242.195 322.357 242.716C322.8 243.224 323.347 243.595 323.998 243.829C324.662 244.05 325.346 244.161 326.049 244.161C326.895 244.161 327.605 244.05 328.178 243.829C328.751 243.595 329.187 243.282 329.486 242.892C329.786 242.488 329.936 242.032 329.936 241.524ZM338.725 244.903C338.725 244.174 338.972 243.562 339.467 243.067C339.962 242.56 340.632 242.306 341.479 242.306C342.338 242.306 343.008 242.56 343.49 243.067C343.985 243.562 344.232 244.174 344.232 244.903C344.232 245.632 343.985 246.244 343.49 246.739C343.008 247.234 342.338 247.481 341.479 247.481C340.632 247.481 339.962 247.234 339.467 246.739C338.972 246.244 338.725 245.632 338.725 244.903ZM338.744 228.263C338.744 227.534 338.992 226.922 339.486 226.427C339.981 225.919 340.652 225.665 341.498 225.665C342.357 225.665 343.028 225.919 343.51 226.427C344.005 226.922 344.252 227.534 344.252 228.263C344.252 228.992 344.005 229.604 343.51 230.099C343.028 230.593 342.357 230.841 341.498 230.841C340.652 230.841 339.981 230.593 339.486 230.099C338.992 229.604 338.744 228.992 338.744 228.263Z" fill="#544545"/>
<path d="M648.522 218.175V246.71H643.815V223.761L636.842 226.125V222.238L647.955 218.175H648.522ZM663.346 233.488L659.596 232.57L661.139 218.273H676.471V222.257H665.045L664.264 229.23C664.707 228.97 665.319 228.716 666.1 228.468C666.881 228.208 667.773 228.078 668.776 228.078C670.117 228.078 671.315 228.299 672.37 228.742C673.437 229.171 674.342 229.803 675.084 230.636C675.827 231.457 676.393 232.459 676.784 233.644C677.174 234.816 677.37 236.138 677.37 237.609C677.37 238.924 677.174 240.154 676.784 241.3C676.406 242.446 675.833 243.455 675.065 244.328C674.297 245.2 673.327 245.884 672.155 246.378C670.996 246.86 669.622 247.101 668.034 247.101C666.849 247.101 665.709 246.932 664.616 246.593C663.535 246.242 662.565 245.727 661.705 245.05C660.846 244.36 660.156 243.514 659.635 242.511C659.114 241.496 658.815 240.33 658.737 239.015H663.346C663.463 239.94 663.717 240.727 664.108 241.378C664.511 242.016 665.045 242.505 665.709 242.843C666.373 243.182 667.142 243.351 668.014 243.351C668.808 243.351 669.492 243.214 670.065 242.941C670.638 242.654 671.113 242.251 671.491 241.73C671.881 241.196 672.168 240.571 672.35 239.855C672.545 239.139 672.643 238.345 672.643 237.472C672.643 236.639 672.532 235.877 672.311 235.187C672.103 234.497 671.784 233.898 671.354 233.39C670.937 232.882 670.41 232.492 669.772 232.218C669.134 231.932 668.398 231.789 667.565 231.789C666.445 231.789 665.586 231.951 664.987 232.277C664.401 232.602 663.854 233.006 663.346 233.488ZM699.674 230.109V234.757C699.674 236.984 699.453 238.885 699.01 240.46C698.58 242.023 697.955 243.292 697.135 244.269C696.315 245.246 695.332 245.962 694.186 246.417C693.053 246.873 691.784 247.101 690.377 247.101C689.258 247.101 688.216 246.958 687.252 246.671C686.302 246.385 685.442 245.936 684.674 245.324C683.906 244.712 683.248 243.924 682.702 242.96C682.168 241.984 681.751 240.819 681.452 239.464C681.165 238.11 681.022 236.541 681.022 234.757V230.109C681.022 227.869 681.243 225.981 681.686 224.445C682.129 222.895 682.76 221.639 683.58 220.675C684.401 219.699 685.377 218.989 686.51 218.546C687.656 218.104 688.932 217.882 690.338 217.882C691.471 217.882 692.513 218.026 693.463 218.312C694.427 218.585 695.286 219.022 696.041 219.621C696.81 220.22 697.461 221.001 697.995 221.964C698.541 222.915 698.958 224.067 699.245 225.421C699.531 226.763 699.674 228.325 699.674 230.109ZM694.967 235.421V229.406C694.967 228.273 694.902 227.277 694.772 226.417C694.642 225.545 694.446 224.809 694.186 224.21C693.939 223.598 693.626 223.104 693.248 222.726C692.871 222.335 692.441 222.056 691.959 221.886C691.478 221.704 690.937 221.613 690.338 221.613C689.609 221.613 688.958 221.756 688.385 222.042C687.812 222.316 687.33 222.759 686.94 223.371C686.549 223.983 686.25 224.79 686.041 225.792C685.846 226.782 685.748 227.986 685.748 229.406V235.421C685.748 236.567 685.814 237.576 685.944 238.449C686.074 239.321 686.269 240.07 686.53 240.695C686.79 241.307 687.103 241.815 687.467 242.218C687.845 242.609 688.275 242.895 688.756 243.078C689.251 243.26 689.791 243.351 690.377 243.351C691.12 243.351 691.777 243.208 692.35 242.921C692.923 242.635 693.405 242.179 693.795 241.554C694.186 240.916 694.479 240.089 694.674 239.074C694.87 238.058 694.967 236.841 694.967 235.421Z" fill="#544545"/>
<g filter="url(#filter1_d_369_174)">
<rect x="4" width="829" height="654" rx="40" fill="#F4E7D6"/>
</g>
<rect x="153" y="129" width="583" height="280" rx="40" fill="#FFF8EF"/>
<rect x="153" y="446" width="583" height="52" rx="26" fill="#EEDCBD"/>
<rect x="153" y="529" width="583" height="52" rx="26" fill="#EEDCBD"/>
<rect x="771" y="129" width="18" height="454" rx="9" fill="#E2D5C3"/>
<rect x="771" y="177" width="18" height="55" rx="9" fill="#544545"/>
<path d="M121.7 172.672C124.65 154.501 112.31 137.38 94.1394 134.43C75.9684 131.481 58.8469 143.82 55.8973 161.991C52.9477 180.162 65.2871 197.284 83.4581 200.233C101.629 203.183 118.751 190.843 121.7 172.672Z" fill="url(#paint0_linear_369_174)"/>
<path d="M111.021 186.873C121.844 174.601 120.669 155.878 108.397 145.054C96.1244 134.231 77.4015 135.406 66.578 147.678C55.7546 159.951 56.9293 178.674 69.2017 189.497C81.4742 200.32 100.197 199.146 111.021 186.873Z" fill="url(#paint1_linear_369_174)"/>
<g filter="url(#filter2_d_369_174)">
<path d="M86.5676 161.496L82.5676 162.736C82.1676 162.469 81.7676 162.096 81.3676 161.616C80.9676 161.136 80.7676 160.469 80.7676 159.616C80.7676 158.016 81.7409 156.896 83.6876 156.256L88.1676 154.736H89.6476C90.7943 154.736 91.7009 155.069 92.3676 155.736C93.0343 156.403 93.3676 157.309 93.3676 158.456V179.296C93.0743 179.349 92.6343 179.416 92.0476 179.496C91.4876 179.603 90.9143 179.656 90.3276 179.656C89.7409 179.656 89.2076 179.616 88.7276 179.536C88.2743 179.456 87.8876 179.296 87.5676 179.056C87.2476 178.816 86.9943 178.496 86.8076 178.096C86.6476 177.669 86.5676 177.123 86.5676 176.456V161.496Z" fill="white"/>
</g>
<path d="M119.905 272.08C123.897 254.9 113.206 237.737 96.0261 233.746C78.8463 229.754 61.6837 240.446 57.6921 257.625C53.7006 274.805 64.3918 291.968 81.5715 295.959C98.7512 299.951 115.914 289.26 119.905 272.08Z" fill="white"/>
<path d="M119.905 272.08C123.897 254.9 113.206 237.737 96.0261 233.746C78.8463 229.754 61.6837 240.446 57.6921 257.625C53.7006 274.805 64.3918 291.968 81.5715 295.959C98.7512 299.951 115.914 289.26 119.905 272.08Z" fill="white"/>
<path d="M88.7781 297.505C106.817 297.505 121.441 282.881 121.441 264.842C121.441 246.803 106.817 232.179 88.7781 232.179C70.7389 232.179 56.1152 246.803 56.1152 264.842C56.1152 282.881 70.7389 297.505 88.7781 297.505Z" fill="url(#paint2_linear_369_174)"/>
<path d="M117.604 268.423C119.572 252.514 108.27 238.023 92.3614 236.056C76.4528 234.088 61.9614 245.39 59.994 261.298C58.0266 277.207 69.3281 291.698 85.2368 293.666C101.145 295.633 115.637 284.332 117.604 268.423Z" fill="url(#paint3_linear_369_174)"/>
<g filter="url(#filter3_d_369_174)">
<path d="M87.4085 252.155C88.9285 252.155 90.2751 252.355 91.4485 252.755C92.6218 253.128 93.6218 253.648 94.4485 254.315C95.2751 254.981 95.9018 255.768 96.3285 256.675C96.7551 257.581 96.9685 258.555 96.9685 259.595C96.9685 262.395 95.3818 265.061 92.2085 267.595L86.9685 271.795H96.5685C96.7285 272.088 96.8751 272.461 97.0085 272.915C97.1685 273.368 97.2485 273.861 97.2485 274.395C97.2485 275.355 97.0351 276.048 96.6085 276.475C96.1818 276.875 95.6218 277.075 94.9285 277.075H81.0485C80.4618 276.675 79.9951 276.168 79.6485 275.555C79.3285 274.915 79.1685 274.168 79.1685 273.315C79.1685 272.408 79.3551 271.648 79.7285 271.035C80.1018 270.395 80.5151 269.888 80.9685 269.515L86.4885 264.795C87.1818 264.208 87.7551 263.688 88.2085 263.235C88.6618 262.755 89.0218 262.328 89.2885 261.955C89.5818 261.581 89.7818 261.235 89.8885 260.915C90.0218 260.595 90.0885 260.288 90.0885 259.995C90.0885 259.248 89.7551 258.661 89.0885 258.235C88.4485 257.808 87.6485 257.595 86.6885 257.595C85.6218 257.595 84.6618 257.768 83.8085 258.115C82.9818 258.435 82.2885 258.781 81.7285 259.155C81.2751 258.835 80.9018 258.435 80.6085 257.955C80.3151 257.475 80.1685 256.915 80.1685 256.275C80.1685 254.888 80.8218 253.861 82.1285 253.195C83.4351 252.501 85.1951 252.155 87.4085 252.155Z" fill="#FFF9F9"/>
</g>
<path d="M116.225 381.188C126.585 365.886 122.579 345.083 107.277 334.723C91.975 324.363 71.1717 328.369 60.8115 343.671C50.4513 358.973 54.4574 379.776 69.7593 390.136C85.0613 400.496 105.864 396.49 116.225 381.188Z" fill="white"/>
<path d="M116.225 381.188C126.585 365.886 122.579 345.083 107.277 334.723C91.975 324.363 71.1717 328.369 60.8115 343.671C50.4513 358.973 54.4574 379.776 69.7593 390.136C85.0613 400.496 105.864 396.49 116.225 381.188Z" fill="white"/>
<path d="M122.873 367.451C125.566 348.743 112.583 331.395 93.8752 328.703C75.1677 326.01 57.8196 338.993 55.1271 357.701C52.4346 376.408 65.4174 393.756 84.125 396.449C102.832 399.141 120.181 386.159 122.873 367.451Z" fill="url(#paint4_linear_369_174)"/>
<path d="M114.603 379.114C123.694 364.986 119.611 346.163 105.483 337.072C91.3549 327.981 72.5321 332.064 63.4411 346.192C54.3502 360.32 58.4336 379.143 72.5617 388.234C86.6897 397.325 105.513 393.242 114.603 379.114Z" fill="url(#paint5_linear_369_174)"/>
<g filter="url(#filter4_d_369_174)">
<path d="M87.1861 350.893C90.2528 350.893 92.5861 351.533 94.1861 352.813C95.7861 354.067 96.5861 355.76 96.5861 357.893C96.5861 359.173 96.2395 360.267 95.5461 361.173C94.8795 362.053 94.0795 362.72 93.1461 363.173C93.7061 363.387 94.2261 363.653 94.7061 363.973C95.1861 364.293 95.6128 364.693 95.9861 365.173C96.3595 365.653 96.6528 366.213 96.8661 366.853C97.0795 367.493 97.1861 368.24 97.1861 369.093C97.1861 370.24 96.9328 371.267 96.4261 372.173C95.9461 373.08 95.2661 373.853 94.3861 374.493C93.5061 375.133 92.4528 375.613 91.2261 375.933C90.0261 376.28 88.7061 376.453 87.2661 376.453C84.4928 376.453 82.3995 376.067 80.9861 375.293C79.5728 374.52 78.8661 373.533 78.8661 372.333C78.8661 371.613 79.0395 371 79.3861 370.493C79.7328 369.96 80.1595 369.547 80.6661 369.253C81.1995 369.627 81.9061 370.027 82.7861 370.453C83.6928 370.853 84.8661 371.053 86.3061 371.053C87.6661 371.053 88.6661 370.813 89.3061 370.333C89.9728 369.853 90.3061 369.227 90.3061 368.453C90.3061 367.68 90.0395 367.093 89.5061 366.693C88.9995 366.293 88.1061 366.093 86.8261 366.093H83.0661C82.8795 365.8 82.7195 365.44 82.5861 365.013C82.4528 364.587 82.3861 364.08 82.3861 363.493C82.3861 362.88 82.4395 362.36 82.5461 361.933C82.6795 361.48 82.8528 361.107 83.0661 360.813H86.8261C88.7461 360.813 89.7061 360.08 89.7061 358.613C89.7061 357.92 89.3995 357.36 88.7861 356.933C88.1728 356.507 87.2528 356.293 86.0261 356.293C84.9328 356.293 83.9728 356.427 83.1461 356.693C82.3195 356.933 81.6395 357.24 81.1061 357.613C80.6528 357.293 80.2795 356.907 79.9861 356.453C79.6928 355.973 79.5461 355.413 79.5461 354.773C79.5461 353.44 80.2395 352.467 81.6261 351.853C83.0128 351.213 84.8661 350.893 87.1861 350.893Z" fill="white"/>
</g>
<path d="M89.3784 498.609C103.884 498.609 115.644 486.85 115.644 472.344C115.644 457.838 103.884 446.079 89.3784 446.079C74.8726 446.079 63.1133 457.838 63.1133 472.344C63.1133 486.85 74.8726 498.609 89.3784 498.609Z" fill="url(#paint6_linear_369_174)"/>
<path d="M111.929 466.296C108.592 453.841 95.7899 446.45 83.3352 449.787C70.8805 453.124 63.4893 465.926 66.8265 478.381C70.1638 490.836 82.9657 498.227 95.4204 494.89C107.875 491.552 115.266 478.75 111.929 466.296Z" fill="url(#paint7_linear_369_174)"/>
<g filter="url(#filter5_d_369_174)">
<path d="M87.7852 465.983C88.1018 465.883 88.4602 465.799 88.8602 465.733C89.2768 465.666 89.6518 465.633 89.9852 465.633C90.3685 465.633 90.7352 465.674 91.0852 465.758C91.4518 465.824 91.7768 465.949 92.0602 466.133C92.3435 466.299 92.5685 466.533 92.7352 466.833C92.9018 467.133 92.9852 467.508 92.9852 467.958V474.608H95.2102C95.3102 474.791 95.4102 475.033 95.5102 475.333C95.6102 475.633 95.6602 475.949 95.6602 476.283C95.6602 476.916 95.5185 477.366 95.2352 477.633C94.9518 477.899 94.5935 478.033 94.1602 478.033H92.9852V480.983C92.8018 481.016 92.5268 481.058 92.1602 481.108C91.7935 481.174 91.4435 481.208 91.1102 481.208C90.7435 481.208 90.4185 481.191 90.1352 481.158C89.8518 481.124 89.6102 481.049 89.4102 480.933C89.2268 480.799 89.0852 480.616 88.9852 480.383C88.8852 480.149 88.8352 479.833 88.8352 479.433V478.033H82.5602C82.1768 477.833 81.8435 477.541 81.5602 477.158C81.2935 476.758 81.1602 476.274 81.1602 475.708C81.1602 475.391 81.2018 475.041 81.2852 474.658C81.3685 474.274 81.5102 473.941 81.7102 473.658L87.7852 465.983ZM89.0602 469.908H88.9852L85.6602 474.608H89.0602V469.908Z" fill="#544545"/>
</g>
<path d="M89.3784 581.084C103.884 581.084 115.644 569.325 115.644 554.819C115.644 540.313 103.884 528.554 89.3784 528.554C74.8726 528.554 63.1133 540.313 63.1133 554.819C63.1133 569.325 74.8726 581.084 89.3784 581.084Z" fill="url(#paint8_linear_369_174)"/>
<path d="M111.929 548.771C108.592 536.316 95.7899 528.925 83.3352 532.262C70.8805 535.599 63.4893 548.401 66.8265 560.856C70.1638 573.311 82.9657 580.702 95.4204 577.365C107.875 574.027 115.266 561.225 111.929 548.771Z" fill="url(#paint9_linear_369_174)"/>
<g filter="url(#filter6_d_369_174)">
<path d="M87.935 563.883C87.1683 563.883 86.4683 563.825 85.835 563.708C85.2183 563.591 84.685 563.416 84.235 563.183C83.785 562.95 83.435 562.666 83.185 562.333C82.935 561.983 82.81 561.583 82.81 561.133C82.81 560.666 82.9433 560.275 83.21 559.958C83.4766 559.641 83.7766 559.391 84.11 559.208C84.5766 559.558 85.0766 559.866 85.61 560.133C86.1433 560.383 86.8183 560.508 87.635 560.508C88.4183 560.508 88.9766 560.333 89.31 559.983C89.6433 559.633 89.81 559.208 89.81 558.708C89.81 558.225 89.66 557.825 89.36 557.508C89.0766 557.191 88.5766 557.033 87.86 557.033C87.41 557.033 87.035 557.083 86.735 557.183C86.435 557.283 86.0933 557.425 85.71 557.608C84.8933 557.575 84.2433 557.358 83.76 556.958C83.2933 556.541 83.06 555.908 83.06 555.058C83.06 555.008 83.06 554.95 83.06 554.883C83.06 554.8 83.0683 554.641 83.085 554.408L83.385 550.608C83.435 549.891 83.66 549.325 84.06 548.908C84.46 548.491 85.0183 548.283 85.735 548.283H92.935C93.035 548.466 93.135 548.708 93.235 549.008C93.335 549.308 93.385 549.625 93.385 549.958C93.385 550.591 93.2433 551.041 92.96 551.308C92.6766 551.575 92.3183 551.708 91.885 551.708H87.085L86.91 554.058C87.2266 553.975 87.5433 553.9 87.86 553.833C88.1933 553.766 88.61 553.733 89.11 553.733C89.9766 553.733 90.7266 553.866 91.36 554.133C91.9933 554.383 92.51 554.733 92.91 555.183C93.3266 555.633 93.6266 556.158 93.81 556.758C94.01 557.358 94.11 558 94.11 558.683C94.11 559.366 93.9933 560.025 93.76 560.658C93.5266 561.291 93.16 561.85 92.66 562.333C92.16 562.8 91.5183 563.175 90.735 563.458C89.9683 563.741 89.035 563.883 87.935 563.883Z" fill="#544545"/>
</g>
<path d="M198.333 220C198.333 221.473 199.527 222.667 201 222.667C202.473 222.667 203.667 221.473 203.667 220C203.667 218.527 202.473 217.333 201 217.333C199.527 217.333 198.333 218.527 198.333 220ZM201 220V220.5H685V220V219.5H201V220Z" fill="#544545"/>
<path d="M198.333 316C198.333 317.473 199.527 318.667 201 318.667C202.473 318.667 203.667 317.473 203.667 316C203.667 314.527 202.473 313.333 201 313.333C199.527 313.333 198.333 314.527 198.333 316ZM201 316V316.5H685V316V315.5H201V316Z" fill="#544545"/>
<defs>
<filter id="filter0_i_369_174" x="282.133" y="342.95" width="238.344" height="35.9497" filterUnits="userSpaceOnUse" color-interpolation-filters="sRGB">
<feFlood flood-opacity="0" result="BackgroundImageFix"/>
<feBlend mode="normal" in="SourceGraphic" in2="BackgroundImageFix" result="shape"/>
<feColorMatrix in="SourceAlpha" type="matrix" values="0 0 0 0 0 0 0 0 0 0 0 0 0 0 0 0 0 0 127 0" result="hardAlpha"/>
<feOffset dy="2"/>
<feGaussianBlur stdDeviation="2"/>
<feComposite in2="hardAlpha" operator="arithmetic" k2="-1" k3="1"/>
<feColorMatrix type="matrix" values="0 0 0 0 0 0 0 0 0 0 0 0 0 0 0 0 0 0 0.7 0"/>
<feBlend mode="normal" in2="shape" result="effect1_innerShadow_369_174"/>
</filter>
<filter id="filter1_d_369_174" x="0" y="0" width="837" height="662" filterUnits="userSpaceOnUse" color-interpolation-filters="sRGB">
<feFlood flood-opacity="0" result="BackgroundImageFix"/>
<feColorMatrix in="SourceAlpha" type="matrix" values="0 0 0 0 0 0 0 0 0 0 0 0 0 0 0 0 0 0 127 0" result="hardAlpha"/>
<feOffset dy="4"/>
<feGaussianBlur stdDeviation="2"/>
<feComposite in2="hardAlpha" operator="out"/>
<feColorMatrix type="matrix" values="0 0 0 0 0 0 0 0 0 0 0 0 0 0 0 0 0 0 0.25 0"/>
<feBlend mode="normal" in2="BackgroundImageFix" result="effect1_dropShadow_369_174"/>
<feBlend mode="normal" in="SourceGraphic" in2="effect1_dropShadow_369_174" result="shape"/>
</filter>
<filter id="filter2_d_369_174" x="73.7676" y="147.736" width="26.5996" height="38.9199" filterUnits="userSpaceOnUse" color-interpolation-filters="sRGB">
<feFlood flood-opacity="0" result="BackgroundImageFix"/>
<feColorMatrix in="SourceAlpha" type="matrix" values="0 0 0 0 0 0 0 0 0 0 0 0 0 0 0 0 0 0 127 0" result="hardAlpha"/>
<feOffset/>
<feGaussianBlur stdDeviation="3.5"/>
<feComposite in2="hardAlpha" operator="out"/>
<feColorMatrix type="matrix" values="0 0 0 0 1 0 0 0 0 0.826135 0 0 0 0 0.640278 0 0 0 0.7 0"/>
<feBlend mode="normal" in2="BackgroundImageFix" result="effect1_dropShadow_369_174"/>
<feBlend mode="normal" in="SourceGraphic" in2="effect1_dropShadow_369_174" result="shape"/>
</filter>
<filter id="filter3_d_369_174" x="72.168" y="245.155" width="32.0801" height="38.9199" filterUnits="userSpaceOnUse" color-interpolation-filters="sRGB">
<feFlood flood-opacity="0" result="BackgroundImageFix"/>
<feColorMatrix in="SourceAlpha" type="matrix" values="0 0 0 0 0 0 0 0 0 0 0 0 0 0 0 0 0 0 127 0" result="hardAlpha"/>
<feOffset/>
<feGaussianBlur stdDeviation="3.5"/>
<feComposite in2="hardAlpha" operator="out"/>
<feColorMatrix type="matrix" values="0 0 0 0 0.640278 0 0 0 0 0.814144 0 0 0 0 1 0 0 0 0.7 0"/>
<feBlend mode="normal" in2="BackgroundImageFix" result="effect1_dropShadow_369_174"/>
<feBlend mode="normal" in="SourceGraphic" in2="effect1_dropShadow_369_174" result="shape"/>
</filter>
<filter id="filter4_d_369_174" x="71.8652" y="343.894" width="32.3203" height="39.5601" filterUnits="userSpaceOnUse" color-interpolation-filters="sRGB">
<feFlood flood-opacity="0" result="BackgroundImageFix"/>
<feColorMatrix in="SourceAlpha" type="matrix" values="0 0 0 0 0 0 0 0 0 0 0 0 0 0 0 0 0 0 127 0" result="hardAlpha"/>
<feOffset/>
<feGaussianBlur stdDeviation="3.5"/>
<feComposite in2="hardAlpha" operator="out"/>
<feColorMatrix type="matrix" values="0 0 0 0 1 0 0 0 0 0.826135 0 0 0 0 0.640278 0 0 0 0.7 0"/>
<feBlend mode="normal" in2="BackgroundImageFix" result="effect1_dropShadow_369_174"/>
<feBlend mode="normal" in="SourceGraphic" in2="effect1_dropShadow_369_174" result="shape"/>
</filter>
<filter id="filter5_d_369_174" x="74.1602" y="458.633" width="28.5" height="29.5752" filterUnits="userSpaceOnUse" color-interpolation-filters="sRGB">
<feFlood flood-opacity="0" result="BackgroundImageFix"/>
<feColorMatrix in="SourceAlpha" type="matrix" values="0 0 0 0 0 0 0 0 0 0 0 0 0 0 0 0 0 0 127 0" result="hardAlpha"/>
<feOffset/>
<feGaussianBlur stdDeviation="3.5"/>
<feComposite in2="hardAlpha" operator="out"/>
<feColorMatrix type="matrix" values="0 0 0 0 1 0 0 0 0 0.826135 0 0 0 0 0.640278 0 0 0 0.7 0"/>
<feBlend mode="normal" in2="BackgroundImageFix" result="effect1_dropShadow_369_174"/>
<feBlend mode="normal" in="SourceGraphic" in2="effect1_dropShadow_369_174" result="shape"/>
</filter>
<filter id="filter6_d_369_174" x="75.8105" y="541.283" width="25.2988" height="29.6001" filterUnits="userSpaceOnUse" color-interpolation-filters="sRGB">
<feFlood flood-opacity="0" result="BackgroundImageFix"/>
<feColorMatrix in="SourceAlpha" type="matrix" values="0 0 0 0 0 0 0 0 0 0 0 0 0 0 0 0 0 0 127 0" result="hardAlpha"/>
<feOffset/>
<feGaussianBlur stdDeviation="3.5"/>
<feComposite in2="hardAlpha" operator="out"/>
<feColorMatrix type="matrix" values="0 0 0 0 1 0 0 0 0 0.826135 0 0 0 0 0.640278 0 0 0 0.7 0"/>
<feBlend mode="normal" in2="BackgroundImageFix" result="effect1_dropShadow_369_174"/>
<feBlend mode="normal" in="SourceGraphic" in2="effect1_dropShadow_369_174" result="shape"/>
</filter>
<linearGradient id="paint0_linear_369_174" x1="65.2427" y1="190.887" x2="112.387" y2="143.743" gradientUnits="userSpaceOnUse">
<stop stop-color="#EDA827"/>
<stop offset="1" stop-color="#FFEFAA"/>
</linearGradient>
<linearGradient id="paint1_linear_369_174" x1="67.8164" y1="146.335" x2="109.716" y2="188.234" gradientUnits="userSpaceOnUse">
<stop stop-color="#EDA827"/>
<stop offset="1" stop-color="#FFEFAA"/>
</linearGradient>
<linearGradient id="paint2_linear_369_174" x1="65.684" y1="287.936" x2="111.881" y2="241.739" gradientUnits="userSpaceOnUse">
<stop stop-color="#744FC2"/>
<stop offset="1" stop-color="#CDC8EE"/>
</linearGradient>
<linearGradient id="paint3_linear_369_174" x1="68.281" y1="244.308" x2="109.339" y2="285.366" gradientUnits="userSpaceOnUse">
<stop stop-color="#744FC2"/>
<stop offset="1" stop-color="#CDC8EE"/>
</linearGradient>
<linearGradient id="paint4_linear_369_174" x1="64.7679" y1="386.797" x2="113.171" y2="338.395" gradientUnits="userSpaceOnUse">
<stop stop-color="#FF543D"/>
<stop offset="1" stop-color="#FACD64"/>
</linearGradient>
<linearGradient id="paint5_linear_369_174" x1="67.5379" y1="341.119" x2="110.556" y2="384.137" gradientUnits="userSpaceOnUse">
<stop stop-color="#FF543D"/>
<stop offset="1" stop-color="#FACD64"/>
</linearGradient>
<linearGradient id="paint6_linear_369_174" x1="102.093" y1="449.368" x2="76.6585" y2="495.328" gradientUnits="userSpaceOnUse">
<stop stop-color="#F4E7D6"/>
<stop offset="1" stop-color="#E6CF9D"/>
</linearGradient>
<linearGradient id="paint7_linear_369_174" x1="66.7257" y1="466.708" x2="112.038" y2="477.972" gradientUnits="userSpaceOnUse">
<stop stop-color="#F4E7D6"/>
<stop offset="1" stop-color="#E6CF9D"/>
</linearGradient>
<linearGradient id="paint8_linear_369_174" x1="102.093" y1="531.843" x2="76.6585" y2="577.803" gradientUnits="userSpaceOnUse">
<stop stop-color="#F4E7D6"/>
<stop offset="1" stop-color="#E6CF9D"/>
</linearGradient>
<linearGradient id="paint9_linear_369_174" x1="66.7257" y1="549.183" x2="112.038" y2="560.447" gradientUnits="userSpaceOnUse">
<stop stop-color="#F4E7D6"/>
<stop offset="1" stop-color="#E6CF9D"/>
</linearGradient>
</defs>
</svg>
