<svg width="386" height="86" viewBox="0 0 386 86" fill="none" xmlns="http://www.w3.org/2000/svg">
<rect x="4" y="4" width="378" height="78" rx="36" fill="white" stroke="#F1DFCA" stroke-width="8"/>
<path d="M61.96 34.64C59.9067 34.64 58.3333 35.2667 57.24 36.52C56.1467 37.7733 55.6 39.5467 55.6 41.84C55.6 44.16 56.2 45.9467 57.4 47.2C58.6267 48.4533 60.2667 49.08 62.32 49.08C63.4133 49.08 64.3333 48.9333 65.08 48.64C65.8533 48.3467 66.5867 48.0133 67.28 47.64C67.7333 48.0133 68.08 48.4667 68.32 49C68.5867 49.5067 68.72 50.1067 68.72 50.8C68.72 51.8933 68.1067 52.8267 66.88 53.6C65.68 54.3467 63.84 54.72 61.36 54.72C59.5733 54.72 57.8933 54.4667 56.32 53.96C54.7467 53.4533 53.3733 52.68 52.2 51.64C51.0267 50.5733 50.0933 49.24 49.4 47.64C48.7333 46.0133 48.4 44.08 48.4 41.84C48.4 39.76 48.72 37.9333 49.36 36.36C50.0267 34.76 50.92 33.4133 52.04 32.32C53.1867 31.2267 54.52 30.4 56.04 29.84C57.56 29.28 59.1867 29 60.92 29C63.3733 29 65.2667 29.4 66.6 30.2C67.96 31 68.64 32.0267 68.64 33.28C68.64 33.9733 68.4667 34.5733 68.12 35.08C67.7733 35.5867 67.3733 35.9867 66.92 36.28C66.2267 35.8267 65.48 35.44 64.68 35.12C63.9067 34.8 63 34.64 61.96 34.64ZM91.1316 53.96C90.8649 54.04 90.4382 54.12 89.8516 54.2C89.2916 54.28 88.7049 54.32 88.0916 54.32C87.5049 54.32 86.9716 54.28 86.4916 54.2C86.0382 54.12 85.6516 53.96 85.3316 53.72C85.0116 53.48 84.7582 53.16 84.5716 52.76C84.4116 52.3333 84.3316 51.7867 84.3316 51.12V42.24C84.3316 41.1467 84.0516 40.3867 83.4916 39.96C82.9582 39.5067 82.2916 39.28 81.4916 39.28C80.9582 39.28 80.4516 39.3467 79.9716 39.48C79.4916 39.6133 79.1049 39.7733 78.8116 39.96V53.96C78.5449 54.04 78.1182 54.12 77.5316 54.2C76.9716 54.28 76.3849 54.32 75.7716 54.32C75.1849 54.32 74.6516 54.28 74.1716 54.2C73.7182 54.12 73.3316 53.96 73.0116 53.72C72.6916 53.48 72.4382 53.16 72.2516 52.76C72.0916 52.3333 72.0116 51.7867 72.0116 51.12V27.92C72.3049 27.8667 72.7316 27.8 73.2916 27.72C73.8782 27.6133 74.4649 27.56 75.0516 27.56C75.6382 27.56 76.1582 27.6 76.6116 27.68C77.0916 27.76 77.4916 27.92 77.8116 28.16C78.1316 28.4 78.3716 28.7333 78.5316 29.16C78.7182 29.56 78.8116 30.0933 78.8116 30.76V34.68C79.1582 34.5467 79.6782 34.4 80.3716 34.24C81.0916 34.0533 81.8782 33.96 82.7316 33.96C85.3716 33.96 87.4249 34.6267 88.8916 35.96C90.3849 37.2667 91.1316 39.2267 91.1316 41.84V53.96ZM115.45 44.28C115.45 45.9333 115.197 47.4133 114.69 48.72C114.183 50 113.463 51.08 112.53 51.96C111.623 52.84 110.53 53.5067 109.25 53.96C107.97 54.4133 106.543 54.64 104.97 54.64C103.397 54.64 101.97 54.4 100.69 53.92C99.41 53.44 98.3033 52.76 97.37 51.88C96.4633 50.9733 95.7567 49.88 95.25 48.6C94.7433 47.32 94.49 45.88 94.49 44.28C94.49 42.7067 94.7433 41.28 95.25 40C95.7567 38.72 96.4633 37.64 97.37 36.76C98.3033 35.8533 99.41 35.16 100.69 34.68C101.97 34.2 103.397 33.96 104.97 33.96C106.543 33.96 107.97 34.2133 109.25 34.72C110.53 35.2 111.623 35.8933 112.53 36.8C113.463 37.68 114.183 38.76 114.69 40.04C115.197 41.32 115.45 42.7333 115.45 44.28ZM101.45 44.28C101.45 45.9067 101.757 47.16 102.37 48.04C103.01 48.8933 103.89 49.32 105.01 49.32C106.13 49.32 106.983 48.88 107.57 48C108.183 47.12 108.49 45.88 108.49 44.28C108.49 42.68 108.183 41.4533 107.57 40.6C106.957 39.72 106.09 39.28 104.97 39.28C103.85 39.28 102.983 39.72 102.37 40.6C101.757 41.4533 101.45 42.68 101.45 44.28ZM138.888 44.28C138.888 45.9333 138.634 47.4133 138.128 48.72C137.621 50 136.901 51.08 135.968 51.96C135.061 52.84 133.968 53.5067 132.688 53.96C131.408 54.4133 129.981 54.64 128.408 54.64C126.834 54.64 125.408 54.4 124.128 53.92C122.848 53.44 121.741 52.76 120.808 51.88C119.901 50.9733 119.194 49.88 118.688 48.6C118.181 47.32 117.928 45.88 117.928 44.28C117.928 42.7067 118.181 41.28 118.688 40C119.194 38.72 119.901 37.64 120.808 36.76C121.741 35.8533 122.848 35.16 124.128 34.68C125.408 34.2 126.834 33.96 128.408 33.96C129.981 33.96 131.408 34.2133 132.688 34.72C133.968 35.2 135.061 35.8933 135.968 36.8C136.901 37.68 137.621 38.76 138.128 40.04C138.634 41.32 138.888 42.7333 138.888 44.28ZM124.888 44.28C124.888 45.9067 125.194 47.16 125.808 48.04C126.448 48.8933 127.328 49.32 128.447 49.32C129.568 49.32 130.421 48.88 131.008 48C131.621 47.12 131.928 45.88 131.928 44.28C131.928 42.68 131.621 41.4533 131.008 40.6C130.394 39.72 129.528 39.28 128.408 39.28C127.288 39.28 126.421 39.72 125.808 40.6C125.194 41.4533 124.888 42.68 124.888 44.28ZM158.605 48.2C158.605 50.2267 157.845 51.8133 156.325 52.96C154.805 54.1067 152.565 54.68 149.605 54.68C148.485 54.68 147.445 54.6 146.485 54.44C145.525 54.28 144.698 54.04 144.005 53.72C143.338 53.3733 142.805 52.9467 142.405 52.44C142.032 51.9333 141.845 51.3333 141.845 50.64C141.845 50 141.978 49.4667 142.245 49.04C142.512 48.5867 142.832 48.2133 143.205 47.92C143.978 48.3467 144.858 48.7333 145.845 49.08C146.858 49.4 148.018 49.56 149.325 49.56C150.152 49.56 150.778 49.44 151.205 49.2C151.658 48.96 151.885 48.64 151.885 48.24C151.885 47.8667 151.725 47.5733 151.405 47.36C151.085 47.1467 150.552 46.9733 149.805 46.84L148.605 46.6C146.285 46.1467 144.552 45.44 143.405 44.48C142.285 43.4933 141.725 42.0933 141.725 40.28C141.725 39.2933 141.938 38.4 142.365 37.6C142.792 36.8 143.392 36.1333 144.165 35.6C144.938 35.0667 145.858 34.6533 146.925 34.36C148.018 34.0667 149.218 33.92 150.525 33.92C151.512 33.92 152.432 34 153.285 34.16C154.165 34.2933 154.925 34.5067 155.565 34.8C156.205 35.0933 156.712 35.48 157.085 35.96C157.458 36.4133 157.645 36.96 157.645 37.6C157.645 38.2133 157.525 38.7467 157.285 39.2C157.072 39.6267 156.792 39.9867 156.445 40.28C156.232 40.1467 155.912 40.0133 155.485 39.88C155.058 39.72 154.592 39.5867 154.085 39.48C153.578 39.3467 153.058 39.24 152.525 39.16C152.018 39.08 151.552 39.04 151.125 39.04C150.245 39.04 149.565 39.1467 149.085 39.36C148.605 39.5467 148.365 39.8533 148.365 40.28C148.365 40.5733 148.498 40.8133 148.765 41C149.032 41.1867 149.538 41.36 150.285 41.52L151.525 41.8C154.085 42.3867 155.898 43.2 156.965 44.24C158.058 45.2533 158.605 46.5733 158.605 48.2ZM172.368 54.64C170.794 54.64 169.328 54.4267 167.968 54C166.634 53.5467 165.461 52.88 164.448 52C163.461 51.12 162.674 50.0133 162.088 48.68C161.528 47.3467 161.248 45.7867 161.248 44C161.248 42.24 161.528 40.7333 162.088 39.48C162.674 38.2 163.434 37.16 164.368 36.36C165.301 35.5333 166.368 34.9333 167.568 34.56C168.768 34.16 169.994 33.96 171.248 33.96C172.661 33.96 173.941 34.1733 175.088 34.6C176.261 35.0267 177.261 35.6133 178.088 36.36C178.941 37.1067 179.594 38 180.048 39.04C180.528 40.08 180.768 41.2133 180.768 42.44C180.768 43.3467 180.514 44.04 180.008 44.52C179.501 45 178.794 45.3067 177.888 45.44L168.008 46.92C168.301 47.8 168.901 48.4667 169.808 48.92C170.714 49.3467 171.754 49.56 172.928 49.56C174.021 49.56 175.048 49.4267 176.008 49.16C176.994 48.8667 177.794 48.5333 178.408 48.16C178.834 48.4267 179.194 48.8 179.488 49.28C179.781 49.76 179.928 50.2667 179.928 50.8C179.928 52 179.368 52.8933 178.248 53.48C177.394 53.9333 176.434 54.24 175.368 54.4C174.301 54.56 173.301 54.64 172.368 54.64ZM171.248 38.92C170.608 38.92 170.048 39.0267 169.568 39.24C169.114 39.4533 168.741 39.7333 168.448 40.08C168.154 40.4 167.928 40.7733 167.768 41.2C167.634 41.6 167.554 42.0133 167.528 42.44L174.368 41.32C174.288 40.7867 173.994 40.2533 173.488 39.72C172.981 39.1867 172.234 38.92 171.248 38.92ZM212.169 44.28C212.169 45.9333 211.915 47.4133 211.409 48.72C210.902 50 210.182 51.08 209.249 51.96C208.342 52.84 207.249 53.5067 205.969 53.96C204.689 54.4133 203.262 54.64 201.689 54.64C200.115 54.64 198.689 54.4 197.409 53.92C196.129 53.44 195.022 52.76 194.089 51.88C193.182 50.9733 192.475 49.88 191.969 48.6C191.462 47.32 191.209 45.88 191.209 44.28C191.209 42.7067 191.462 41.28 191.969 40C192.475 38.72 193.182 37.64 194.089 36.76C195.022 35.8533 196.129 35.16 197.409 34.68C198.689 34.2 200.115 33.96 201.689 33.96C203.262 33.96 204.689 34.2133 205.969 34.72C207.249 35.2 208.342 35.8933 209.249 36.8C210.182 37.68 210.902 38.76 211.409 40.04C211.915 41.32 212.169 42.7333 212.169 44.28ZM198.169 44.28C198.169 45.9067 198.475 47.16 199.089 48.04C199.729 48.8933 200.609 49.32 201.729 49.32C202.849 49.32 203.702 48.88 204.289 48C204.902 47.12 205.209 45.88 205.209 44.28C205.209 42.68 204.902 41.4533 204.289 40.6C203.675 39.72 202.809 39.28 201.689 39.28C200.569 39.28 199.702 39.72 199.089 40.6C198.475 41.4533 198.169 42.68 198.169 44.28ZM227.806 41.68C227.806 40.8533 227.566 40.2533 227.086 39.88C226.633 39.48 226.006 39.28 225.206 39.28C224.673 39.28 224.14 39.3467 223.606 39.48C223.1 39.6133 222.66 39.8133 222.286 40.08V53.96C222.02 54.04 221.593 54.12 221.006 54.2C220.446 54.28 219.86 54.32 219.246 54.32C218.66 54.32 218.126 54.28 217.646 54.2C217.193 54.12 216.806 53.96 216.486 53.72C216.166 53.48 215.913 53.16 215.726 52.76C215.566 52.3333 215.486 51.7867 215.486 51.12V39.12C215.486 38.4 215.633 37.8133 215.926 37.36C216.246 36.9067 216.673 36.4933 217.206 36.12C218.113 35.48 219.246 34.96 220.606 34.56C221.993 34.16 223.526 33.96 225.206 33.96C228.22 33.96 230.54 34.6267 232.166 35.96C233.793 37.2667 234.606 39.0933 234.606 41.44V53.96C234.34 54.04 233.913 54.12 233.326 54.2C232.766 54.28 232.18 54.32 231.566 54.32C230.98 54.32 230.446 54.28 229.966 54.2C229.513 54.12 229.126 53.96 228.806 53.72C228.486 53.48 228.233 53.16 228.046 52.76C227.886 52.3333 227.806 51.7867 227.806 51.12V41.68ZM249.087 54.64C247.513 54.64 246.047 54.4267 244.687 54C243.353 53.5467 242.18 52.88 241.167 52C240.18 51.12 239.393 50.0133 238.807 48.68C238.247 47.3467 237.967 45.7867 237.967 44C237.967 42.24 238.247 40.7333 238.807 39.48C239.393 38.2 240.153 37.16 241.087 36.36C242.02 35.5333 243.087 34.9333 244.287 34.56C245.487 34.16 246.713 33.96 247.967 33.96C249.38 33.96 250.66 34.1733 251.807 34.6C252.98 35.0267 253.98 35.6133 254.807 36.36C255.66 37.1067 256.313 38 256.767 39.04C257.247 40.08 257.487 41.2133 257.487 42.44C257.487 43.3467 257.233 44.04 256.727 44.52C256.22 45 255.513 45.3067 254.607 45.44L244.727 46.92C245.02 47.8 245.62 48.4667 246.527 48.92C247.433 49.3467 248.473 49.56 249.647 49.56C250.74 49.56 251.767 49.4267 252.727 49.16C253.713 48.8667 254.513 48.5333 255.127 48.16C255.553 48.4267 255.913 48.8 256.207 49.28C256.5 49.76 256.647 50.2667 256.647 50.8C256.647 52 256.087 52.8933 254.967 53.48C254.113 53.9333 253.153 54.24 252.087 54.4C251.02 54.56 250.02 54.64 249.087 54.64ZM247.967 38.92C247.327 38.92 246.767 39.0267 246.287 39.24C245.833 39.4533 245.46 39.7333 245.167 40.08C244.873 40.4 244.647 40.7733 244.487 41.2C244.353 41.6 244.273 42.0133 244.247 42.44L251.087 41.32C251.007 40.7867 250.713 40.2533 250.207 39.72C249.7 39.1867 248.953 38.92 247.967 38.92Z" fill="#A98B8D"/>
<path d="M358.5 36L348.414 46.0858C347.633 46.8668 346.367 46.8668 345.586 46.0858L335.5 36" stroke="#A88A8C" stroke-width="8" stroke-linecap="round"/>
</svg>
