<svg width="744" height="800" viewBox="0 0 744 800" fill="none" xmlns="http://www.w3.org/2000/svg">
<path d="M410.498 95.0833C399.264 102.601 385.66 107 371 107C356.341 107 342.736 102.6 331.502 95.0828C326.54 91.7625 324.42 85.4379 327.304 80.2912C333.285 69.622 345.608 62.9767 371 62.9767C396.392 62.9767 408.715 69.6222 414.696 80.2917C417.58 85.4385 415.46 91.7631 410.498 95.0833Z" fill="url(#paint0_linear_368_52)"/>
<path d="M371 48.0254C384.615 48.0254 395.651 37.2746 395.651 24.0127C395.651 10.7509 384.615 0 371 0C357.386 0 346.35 10.7509 346.35 24.0127C346.35 37.2746 357.386 48.0254 371 48.0254Z" fill="url(#paint1_linear_368_52)"/>
<g filter="url(#filter0_d_368_52)">
<rect x="4" y="223" width="736" height="569" rx="40" fill="#F4E7D6"/>
</g>
<rect x="51" y="429" width="642" height="318" rx="50" fill="#E5D4BE"/>
<g filter="url(#filter1_d_368_52)">
<path d="M271.228 135.6C266.095 135.6 262.161 137.167 259.428 140.3C256.695 143.433 255.328 147.867 255.328 153.6C255.328 159.4 256.828 163.867 259.828 167C262.895 170.133 266.995 171.7 272.128 171.7C274.861 171.7 277.161 171.333 279.028 170.6C280.961 169.867 282.795 169.033 284.528 168.1C285.661 169.033 286.528 170.167 287.128 171.5C287.795 172.767 288.128 174.267 288.128 176C288.128 178.733 286.595 181.067 283.528 183C280.528 184.867 275.928 185.8 269.728 185.8C265.261 185.8 261.061 185.167 257.128 183.9C253.195 182.633 249.761 180.7 246.828 178.1C243.895 175.433 241.561 172.1 239.828 168.1C238.161 164.033 237.328 159.2 237.328 153.6C237.328 148.4 238.128 143.833 239.728 139.9C241.395 135.9 243.628 132.533 246.428 129.8C249.295 127.067 252.628 125 256.428 123.6C260.228 122.2 264.295 121.5 268.628 121.5C274.761 121.5 279.495 122.5 282.828 124.5C286.228 126.5 287.928 129.067 287.928 132.2C287.928 133.933 287.495 135.433 286.628 136.7C285.761 137.967 284.761 138.967 283.628 139.7C281.895 138.567 280.028 137.6 278.028 136.8C276.095 136 273.828 135.6 271.228 135.6ZM312.376 183.9C311.709 184.1 310.642 184.3 309.176 184.5C307.776 184.7 306.309 184.8 304.776 184.8C303.309 184.8 301.976 184.7 300.776 184.5C299.642 184.3 298.676 183.9 297.876 183.3C297.076 182.7 296.442 181.9 295.976 180.9C295.576 179.833 295.376 178.467 295.376 176.8V146.8C295.376 145.267 295.642 143.967 296.176 142.9C296.776 141.767 297.609 140.767 298.676 139.9C299.742 139.033 301.042 138.267 302.576 137.6C304.176 136.867 305.876 136.233 307.676 135.7C309.476 135.167 311.342 134.767 313.276 134.5C315.209 134.167 317.142 134 319.076 134C322.276 134 324.809 134.633 326.676 135.9C328.542 137.1 329.476 139.1 329.476 141.9C329.476 142.833 329.342 143.767 329.076 144.7C328.809 145.567 328.476 146.367 328.076 147.1C326.676 147.1 325.242 147.167 323.776 147.3C322.309 147.433 320.876 147.633 319.476 147.9C318.076 148.167 316.742 148.467 315.476 148.8C314.276 149.067 313.242 149.4 312.376 149.8V183.9ZM360.334 185.6C356.4 185.6 352.734 185.067 349.334 184C346 182.867 343.067 181.2 340.534 179C338.067 176.8 336.1 174.033 334.634 170.7C333.234 167.367 332.534 163.467 332.534 159C332.534 154.6 333.234 150.833 334.634 147.7C336.1 144.5 338 141.9 340.334 139.9C342.667 137.833 345.334 136.333 348.334 135.4C351.334 134.4 354.4 133.9 357.534 133.9C361.067 133.9 364.267 134.433 367.134 135.5C370.067 136.567 372.567 138.033 374.634 139.9C376.767 141.767 378.4 144 379.534 146.6C380.734 149.2 381.334 152.033 381.334 155.1C381.334 157.367 380.7 159.1 379.434 160.3C378.167 161.5 376.4 162.267 374.134 162.6L349.434 166.3C350.167 168.5 351.667 170.167 353.934 171.3C356.2 172.367 358.8 172.9 361.734 172.9C364.467 172.9 367.034 172.567 369.434 171.9C371.9 171.167 373.9 170.333 375.434 169.4C376.5 170.067 377.4 171 378.134 172.2C378.867 173.4 379.234 174.667 379.234 176C379.234 179 377.834 181.233 375.034 182.7C372.9 183.833 370.5 184.6 367.834 185C365.167 185.4 362.667 185.6 360.334 185.6ZM357.534 146.3C355.934 146.3 354.534 146.567 353.334 147.1C352.2 147.633 351.267 148.333 350.534 149.2C349.8 150 349.234 150.933 348.834 152C348.5 153 348.3 154.033 348.234 155.1L365.334 152.3C365.134 150.967 364.4 149.633 363.134 148.3C361.867 146.967 360 146.3 357.534 146.3ZM387.416 159.7C387.416 155.3 388.083 151.5 389.416 148.3C390.75 145.033 392.583 142.333 394.916 140.2C397.316 138.067 400.083 136.5 403.216 135.5C406.416 134.433 409.85 133.9 413.516 133.9C414.85 133.9 416.15 134.033 417.416 134.3C418.683 134.5 419.716 134.767 420.516 135.1V118.9C421.183 118.7 422.25 118.5 423.716 118.3C425.183 118.033 426.683 117.9 428.216 117.9C429.683 117.9 430.983 118 432.116 118.2C433.316 118.4 434.316 118.8 435.116 119.4C435.916 120 436.516 120.833 436.916 121.9C437.316 122.9 437.516 124.233 437.516 125.9V173.3C437.516 176.433 436.05 178.933 433.116 180.8C431.183 182.067 428.683 183.167 425.616 184.1C422.55 185.1 419.016 185.6 415.016 185.6C410.683 185.6 406.783 185 403.316 183.8C399.916 182.6 397.016 180.867 394.616 178.6C392.283 176.333 390.483 173.633 389.216 170.5C388.016 167.3 387.416 163.7 387.416 159.7ZM415.816 147.2C412.216 147.2 409.45 148.233 407.516 150.3C405.583 152.367 404.616 155.5 404.616 159.7C404.616 163.833 405.516 166.967 407.316 169.1C409.116 171.167 411.716 172.2 415.116 172.2C416.316 172.2 417.383 172.033 418.316 171.7C419.316 171.3 420.083 170.867 420.616 170.4V148.4C419.283 147.6 417.683 147.2 415.816 147.2ZM447.71 121.9C447.71 119.367 448.543 117.233 450.21 115.5C451.943 113.767 454.21 112.9 457.01 112.9C459.81 112.9 462.043 113.767 463.71 115.5C465.443 117.233 466.31 119.367 466.31 121.9C466.31 124.433 465.443 126.567 463.71 128.3C462.043 130.033 459.81 130.9 457.01 130.9C454.21 130.9 451.943 130.033 450.21 128.3C448.543 126.567 447.71 124.433 447.71 121.9ZM465.51 183.9C464.777 184.033 463.677 184.2 462.21 184.4C460.81 184.667 459.377 184.8 457.91 184.8C456.443 184.8 455.11 184.7 453.91 184.5C452.777 184.3 451.81 183.9 451.01 183.3C450.21 182.7 449.577 181.9 449.11 180.9C448.71 179.833 448.51 178.467 448.51 176.8V136.1C449.243 135.967 450.31 135.8 451.71 135.6C453.177 135.333 454.643 135.2 456.11 135.2C457.577 135.2 458.877 135.3 460.01 135.5C461.21 135.7 462.21 136.1 463.01 136.7C463.81 137.3 464.41 138.133 464.81 139.2C465.277 140.2 465.51 141.533 465.51 143.2V183.9ZM493.333 167.3C493.333 169.033 493.866 170.267 494.933 171C496.066 171.733 497.633 172.1 499.633 172.1C500.633 172.1 501.666 172.033 502.733 171.9C503.799 171.7 504.733 171.467 505.533 171.2C506.133 171.933 506.633 172.767 507.033 173.7C507.499 174.567 507.733 175.633 507.733 176.9C507.733 179.433 506.766 181.5 504.833 183.1C502.966 184.7 499.633 185.5 494.833 185.5C488.966 185.5 484.433 184.167 481.233 181.5C478.099 178.833 476.533 174.5 476.533 168.5V125.7C477.266 125.5 478.299 125.3 479.633 125.1C481.033 124.833 482.499 124.7 484.033 124.7C486.966 124.7 489.233 125.233 490.833 126.3C492.499 127.3 493.333 129.467 493.333 132.8V139.2H506.433C506.833 139.933 507.199 140.867 507.533 142C507.933 143.067 508.133 144.267 508.133 145.6C508.133 147.933 507.599 149.633 506.533 150.7C505.533 151.7 504.166 152.2 502.433 152.2H493.333V167.3Z" fill="url(#paint2_linear_368_52)"/>
</g>
<defs>
<filter id="filter0_d_368_52" x="0" y="223" width="744" height="577" filterUnits="userSpaceOnUse" color-interpolation-filters="sRGB">
<feFlood flood-opacity="0" result="BackgroundImageFix"/>
<feColorMatrix in="SourceAlpha" type="matrix" values="0 0 0 0 0 0 0 0 0 0 0 0 0 0 0 0 0 0 127 0" result="hardAlpha"/>
<feOffset dy="4"/>
<feGaussianBlur stdDeviation="2"/>
<feComposite in2="hardAlpha" operator="out"/>
<feColorMatrix type="matrix" values="0 0 0 0 0 0 0 0 0 0 0 0 0 0 0 0 0 0 0.25 0"/>
<feBlend mode="normal" in2="BackgroundImageFix" result="effect1_dropShadow_368_52"/>
<feBlend mode="normal" in="SourceGraphic" in2="effect1_dropShadow_368_52" result="shape"/>
</filter>
<filter id="filter1_d_368_52" x="233.328" y="112.9" width="278.805" height="81.8999" filterUnits="userSpaceOnUse" color-interpolation-filters="sRGB">
<feFlood flood-opacity="0" result="BackgroundImageFix"/>
<feColorMatrix in="SourceAlpha" type="matrix" values="0 0 0 0 0 0 0 0 0 0 0 0 0 0 0 0 0 0 127 0" result="hardAlpha"/>
<feOffset dy="5"/>
<feGaussianBlur stdDeviation="2"/>
<feComposite in2="hardAlpha" operator="out"/>
<feColorMatrix type="matrix" values="0 0 0 0 0 0 0 0 0 0 0 0 0 0 0 0 0 0 0.57 0"/>
<feBlend mode="normal" in2="BackgroundImageFix" result="effect1_dropShadow_368_52"/>
<feBlend mode="normal" in="SourceGraphic" in2="effect1_dropShadow_368_52" result="shape"/>
</filter>
<linearGradient id="paint0_linear_368_52" x1="406.49" y1="3.82143" x2="332.847" y2="94.4521" gradientUnits="userSpaceOnUse">
<stop stop-color="#FFB419"/>
<stop offset="0.381176" stop-color="#FF8A14"/>
<stop offset="0.715519" stop-color="#F75C2D"/>
<stop offset="1" stop-color="#D84E4D"/>
</linearGradient>
<linearGradient id="paint1_linear_368_52" x1="406.49" y1="3.82143" x2="332.847" y2="94.4521" gradientUnits="userSpaceOnUse">
<stop stop-color="#FFB419"/>
<stop offset="0.381176" stop-color="#FF8A14"/>
<stop offset="0.715519" stop-color="#F75C2D"/>
<stop offset="1" stop-color="#D84E4D"/>
</linearGradient>
<linearGradient id="paint2_linear_368_52" x1="497.503" y1="110.607" x2="272.972" y2="203.563" gradientUnits="userSpaceOnUse">
<stop stop-color="#FFB419"/>
<stop offset="1" stop-color="#FF8A14"/>
</linearGradient>
</defs>
</svg>
