<svg width="744" height="587" viewBox="0 0 744 587" fill="none" xmlns="http://www.w3.org/2000/svg">
<g filter="url(#filter0_d_368_61)">
<path d="M372.5 4.09082C392.106 4.09082 408 19.984 408 39.5898V83.5898C408 103.196 392.106 119.091 372.5 119.091C352.894 119.091 337 103.197 337 83.5908V39.5908C337 19.9847 352.894 4.09082 372.5 4.09082ZM374.268 35.1621C373.291 34.1859 371.709 34.1859 370.732 35.1621L354.822 51.0723C353.846 52.0486 353.846 53.6312 354.822 54.6074C355.798 55.5834 357.381 55.5832 358.357 54.6074L370 42.9658V89.2002H375V42.9658L386.643 54.6074C387.619 55.5832 389.202 55.5834 390.178 54.6074C391.154 53.6312 391.154 52.0486 390.178 51.0723L374.268 35.1621Z" fill="url(#paint0_linear_368_61)"/>
</g>
<g filter="url(#filter1_d_368_61)">
<rect x="4" y="82.7725" width="736" height="495.751" rx="40" fill="#F4E7D6"/>
</g>
<g filter="url(#filter2_d_368_61)">
<rect x="336" y="4" width="73" height="116" rx="36" stroke="url(#paint1_linear_368_61)" stroke-width="8" shape-rendering="crispEdges"/>
</g>
<defs>
<filter id="filter0_d_368_61" x="333" y="4.09082" width="79" height="123" filterUnits="userSpaceOnUse" color-interpolation-filters="sRGB">
<feFlood flood-opacity="0" result="BackgroundImageFix"/>
<feColorMatrix in="SourceAlpha" type="matrix" values="0 0 0 0 0 0 0 0 0 0 0 0 0 0 0 0 0 0 127 0" result="hardAlpha"/>
<feOffset dy="4"/>
<feGaussianBlur stdDeviation="2"/>
<feComposite in2="hardAlpha" operator="out"/>
<feColorMatrix type="matrix" values="0 0 0 0 0 0 0 0 0 0 0 0 0 0 0 0 0 0 0.25 0"/>
<feBlend mode="normal" in2="BackgroundImageFix" result="effect1_dropShadow_368_61"/>
<feBlend mode="normal" in="SourceGraphic" in2="effect1_dropShadow_368_61" result="shape"/>
</filter>
<filter id="filter1_d_368_61" x="0" y="82.7725" width="744" height="503.751" filterUnits="userSpaceOnUse" color-interpolation-filters="sRGB">
<feFlood flood-opacity="0" result="BackgroundImageFix"/>
<feColorMatrix in="SourceAlpha" type="matrix" values="0 0 0 0 0 0 0 0 0 0 0 0 0 0 0 0 0 0 127 0" result="hardAlpha"/>
<feOffset dy="4"/>
<feGaussianBlur stdDeviation="2"/>
<feComposite in2="hardAlpha" operator="out"/>
<feColorMatrix type="matrix" values="0 0 0 0 0 0 0 0 0 0 0 0 0 0 0 0 0 0 0.25 0"/>
<feBlend mode="normal" in2="BackgroundImageFix" result="effect1_dropShadow_368_61"/>
<feBlend mode="normal" in="SourceGraphic" in2="effect1_dropShadow_368_61" result="shape"/>
</filter>
<filter id="filter2_d_368_61" x="328" y="0" width="89" height="132" filterUnits="userSpaceOnUse" color-interpolation-filters="sRGB">
<feFlood flood-opacity="0" result="BackgroundImageFix"/>
<feColorMatrix in="SourceAlpha" type="matrix" values="0 0 0 0 0 0 0 0 0 0 0 0 0 0 0 0 0 0 127 0" result="hardAlpha"/>
<feOffset dy="4"/>
<feGaussianBlur stdDeviation="2"/>
<feComposite in2="hardAlpha" operator="out"/>
<feColorMatrix type="matrix" values="0 0 0 0 0 0 0 0 0 0 0 0 0 0 0 0 0 0 0.25 0"/>
<feBlend mode="normal" in2="BackgroundImageFix" result="effect1_dropShadow_368_61"/>
<feBlend mode="normal" in="SourceGraphic" in2="effect1_dropShadow_368_61" result="shape"/>
</filter>
<linearGradient id="paint0_linear_368_61" x1="373" y1="6" x2="317.995" y2="56.0513" gradientUnits="userSpaceOnUse">
<stop stop-color="#A7243A"/>
<stop offset="0.381176" stop-color="#DE3652"/>
<stop offset="0.715519" stop-color="#F52B46"/>
<stop offset="1" stop-color="#FF6B57"/>
</linearGradient>
<linearGradient id="paint1_linear_368_61" x1="337.17" y1="17.9277" x2="393.938" y2="116.56" gradientUnits="userSpaceOnUse">
<stop stop-color="#EC304B"/>
<stop offset="1" stop-color="#861B2B"/>
</linearGradient>
</defs>
</svg>
