<svg width="386" height="86" viewBox="0 0 386 86" fill="none" xmlns="http://www.w3.org/2000/svg">
<rect x="4" y="4" width="378" height="78" rx="36" fill="#F1DFCA" stroke="white" stroke-width="8"/>
<path d="M95.7319 54.16C95.3585 54.5333 94.8119 54.8133 94.0919 55C93.3985 55.2133 92.5585 55.32 91.5719 55.32C90.5852 55.32 89.6519 55.1733 88.7719 54.88C87.8919 54.5867 87.1719 53.88 86.6119 52.76L82.6519 44.68C82.2519 43.8533 81.8919 43.08 81.5719 42.36C81.2519 41.6133 80.9052 40.76 80.5319 39.8L80.2919 39.84C80.3985 41.28 80.4519 42.7467 80.4519 44.24C80.4785 45.7333 80.4919 47.2 80.4919 48.64V54.84C80.1985 54.92 79.7452 55 79.1319 55.08C78.5452 55.16 77.9585 55.2 77.3719 55.2C76.7852 55.2 76.2652 55.16 75.8119 55.08C75.3585 55 74.9852 54.84 74.6919 54.6C74.3985 54.36 74.1719 54.04 74.0119 53.64C73.8519 53.2133 73.7719 52.6667 73.7719 52V32C74.1452 31.4667 74.7185 31.0667 75.4919 30.8C76.2652 30.5333 77.0919 30.4 77.9719 30.4C78.9585 30.4 79.8919 30.56 80.7719 30.88C81.6785 31.1733 82.3985 31.8667 82.9319 32.96L86.9319 41.04C87.3319 41.8667 87.6919 42.6533 88.0119 43.4C88.3319 44.12 88.6785 44.96 89.0519 45.92L89.2519 45.88C89.1452 44.44 89.0785 43 89.0519 41.56C89.0252 40.12 89.0119 38.68 89.0119 37.24V30.76C89.3052 30.68 89.7452 30.6 90.3319 30.52C90.9452 30.44 91.5452 30.4 92.1319 30.4C93.3052 30.4 94.1985 30.6133 94.8119 31.04C95.4252 31.44 95.7319 32.2933 95.7319 33.6V54.16ZM120.52 45.28C120.52 46.9333 120.267 48.4133 119.76 49.72C119.254 51 118.534 52.08 117.6 52.96C116.694 53.84 115.6 54.5067 114.32 54.96C113.04 55.4133 111.614 55.64 110.04 55.64C108.467 55.64 107.04 55.4 105.76 54.92C104.48 54.44 103.374 53.76 102.44 52.88C101.534 51.9733 100.827 50.88 100.32 49.6C99.8136 48.32 99.5603 46.88 99.5603 45.28C99.5603 43.7067 99.8136 42.28 100.32 41C100.827 39.72 101.534 38.64 102.44 37.76C103.374 36.8533 104.48 36.16 105.76 35.68C107.04 35.2 108.467 34.96 110.04 34.96C111.614 34.96 113.04 35.2133 114.32 35.72C115.6 36.2 116.694 36.8933 117.6 37.8C118.534 38.68 119.254 39.76 119.76 41.04C120.267 42.32 120.52 43.7333 120.52 45.28ZM106.52 45.28C106.52 46.9067 106.827 48.16 107.44 49.04C108.08 49.8933 108.96 50.32 110.08 50.32C111.2 50.32 112.054 49.88 112.64 49C113.254 48.12 113.56 46.88 113.56 45.28C113.56 43.68 113.254 42.4533 112.64 41.6C112.027 40.72 111.16 40.28 110.04 40.28C108.92 40.28 108.054 40.72 107.44 41.6C106.827 42.4533 106.52 43.68 106.52 45.28ZM130.638 48.32C130.638 49.0133 130.851 49.5067 131.278 49.8C131.731 50.0933 132.358 50.24 133.158 50.24C133.558 50.24 133.971 50.2133 134.398 50.16C134.824 50.08 135.198 49.9867 135.518 49.88C135.758 50.1733 135.958 50.5067 136.118 50.88C136.304 51.2267 136.398 51.6533 136.398 52.16C136.398 53.1733 136.011 54 135.238 54.64C134.491 55.28 133.158 55.6 131.238 55.6C128.891 55.6 127.078 55.0667 125.798 54C124.544 52.9333 123.918 51.2 123.918 48.8V31.68C124.211 31.6 124.624 31.52 125.158 31.44C125.718 31.3333 126.304 31.28 126.918 31.28C128.091 31.28 128.998 31.4933 129.638 31.92C130.304 32.32 130.638 33.1867 130.638 34.52V37.08H135.878C136.038 37.3733 136.184 37.7467 136.318 38.2C136.478 38.6267 136.558 39.1067 136.558 39.64C136.558 40.5733 136.344 41.2533 135.918 41.68C135.518 42.08 134.971 42.28 134.278 42.28H130.638V48.32ZM153.541 31.48C153.995 31.2133 154.675 30.96 155.581 30.72C156.515 30.48 157.448 30.36 158.381 30.36C159.715 30.36 160.888 30.56 161.901 30.96C162.941 31.3333 163.608 31.9333 163.901 32.76C164.381 34.1467 164.901 35.76 165.461 37.6C166.021 39.44 166.581 41.3467 167.141 43.32C167.701 45.2667 168.248 47.2 168.781 49.12C169.315 51.0133 169.781 52.6933 170.181 54.16C169.861 54.5333 169.381 54.8267 168.741 55.04C168.101 55.28 167.341 55.4 166.461 55.4C165.821 55.4 165.275 55.3467 164.821 55.24C164.395 55.1333 164.035 54.9733 163.741 54.76C163.475 54.5467 163.248 54.2667 163.061 53.92C162.901 53.5733 162.755 53.1733 162.621 52.72L161.901 49.96H154.661C154.448 50.76 154.235 51.5867 154.021 52.44C153.808 53.2933 153.595 54.12 153.381 54.92C153.008 55.0533 152.608 55.16 152.181 55.24C151.781 55.3467 151.288 55.4 150.701 55.4C149.341 55.4 148.328 55.1733 147.661 54.72C147.021 54.24 146.701 53.5867 146.701 52.76C146.701 52.3867 146.755 52.0133 146.861 51.64C146.968 51.2667 147.088 50.8267 147.221 50.32C147.408 49.6 147.661 48.7067 147.981 47.64C148.328 46.5733 148.701 45.4267 149.101 44.2C149.501 42.9467 149.928 41.6667 150.381 40.36C150.835 39.0533 151.261 37.8267 151.661 36.68C152.061 35.5067 152.421 34.4667 152.741 33.56C153.088 32.6533 153.355 31.96 153.541 31.48ZM158.341 36.64C157.968 37.76 157.541 39.0133 157.061 40.4C156.608 41.76 156.195 43.1467 155.821 44.56H160.781C160.408 43.12 160.021 41.72 159.621 40.36C159.248 38.9733 158.901 37.7333 158.581 36.64H158.341ZM184.728 54.48C184.355 54.7733 183.808 55.0133 183.088 55.2C182.368 55.3867 181.555 55.48 180.648 55.48C179.608 55.48 178.702 55.3467 177.928 55.08C177.182 54.8133 176.662 54.3867 176.368 53.8C176.128 53.3467 175.835 52.72 175.488 51.92C175.168 51.0933 174.822 50.1867 174.448 49.2C174.075 48.1867 173.688 47.1067 173.288 45.96C172.888 44.8133 172.502 43.68 172.128 42.56C171.782 41.44 171.462 40.36 171.168 39.32C170.875 38.28 170.635 37.36 170.448 36.56C170.822 36.1867 171.315 35.8667 171.928 35.6C172.568 35.3067 173.262 35.16 174.008 35.16C174.942 35.16 175.702 35.36 176.288 35.76C176.902 36.1333 177.355 36.8533 177.648 37.92L179.208 44.04C179.502 45.24 179.782 46.3333 180.048 47.32C180.315 48.28 180.515 49.0267 180.648 49.56H180.848C181.355 47.5867 181.888 45.4 182.448 43C183.008 40.6 183.515 38.24 183.968 35.92C184.422 35.68 184.928 35.4933 185.488 35.36C186.075 35.2267 186.635 35.16 187.168 35.16C188.102 35.16 188.888 35.36 189.528 35.76C190.168 36.16 190.488 36.8533 190.488 37.84C190.488 38.2667 190.382 38.8933 190.168 39.72C189.982 40.52 189.728 41.44 189.408 42.48C189.115 43.4933 188.755 44.5733 188.328 45.72C187.928 46.8667 187.515 47.9867 187.088 49.08C186.662 50.1733 186.235 51.2 185.808 52.16C185.408 53.0933 185.048 53.8667 184.728 54.48ZM201.455 50.68C201.908 50.68 202.401 50.64 202.935 50.56C203.495 50.4533 203.908 50.32 204.175 50.16V46.96L201.295 47.2C200.548 47.2533 199.935 47.4133 199.455 47.68C198.975 47.9467 198.735 48.3467 198.735 48.88C198.735 49.4133 198.935 49.8533 199.335 50.2C199.761 50.52 200.468 50.68 201.455 50.68ZM201.135 34.96C202.575 34.96 203.881 35.1067 205.055 35.4C206.255 35.6933 207.268 36.1467 208.095 36.76C208.948 37.3467 209.601 38.1067 210.055 39.04C210.508 39.9467 210.735 41.0267 210.735 42.28V51.24C210.735 51.9333 210.535 52.5067 210.135 52.96C209.761 53.3867 209.308 53.76 208.775 54.08C207.041 55.12 204.601 55.64 201.455 55.64C200.041 55.64 198.761 55.5067 197.615 55.24C196.495 54.9733 195.521 54.5733 194.695 54.04C193.895 53.5067 193.268 52.8267 192.815 52C192.388 51.1733 192.175 50.2133 192.175 49.12C192.175 47.28 192.721 45.8667 193.815 44.88C194.908 43.8933 196.601 43.28 198.895 43.04L204.135 42.48V42.2C204.135 41.4267 203.788 40.88 203.095 40.56C202.428 40.2133 201.455 40.04 200.175 40.04C199.161 40.04 198.175 40.1467 197.215 40.36C196.255 40.5733 195.388 40.84 194.615 41.16C194.268 40.92 193.975 40.56 193.735 40.08C193.495 39.5733 193.375 39.0533 193.375 38.52C193.375 37.8267 193.535 37.28 193.855 36.88C194.201 36.4533 194.721 36.0933 195.415 35.8C196.188 35.5067 197.095 35.2933 198.135 35.16C199.201 35.0267 200.201 34.96 201.135 34.96ZM214.733 30.16C214.733 29.1467 215.066 28.2933 215.733 27.6C216.426 26.9067 217.333 26.56 218.453 26.56C219.573 26.56 220.466 26.9067 221.133 27.6C221.826 28.2933 222.173 29.1467 222.173 30.16C222.173 31.1733 221.826 32.0267 221.133 32.72C220.466 33.4133 219.573 33.76 218.453 33.76C217.333 33.76 216.426 33.4133 215.733 32.72C215.066 32.0267 214.733 31.1733 214.733 30.16ZM221.853 54.96C221.559 55.0133 221.119 55.08 220.533 55.16C219.973 55.2667 219.399 55.32 218.813 55.32C218.226 55.32 217.693 55.28 217.213 55.2C216.759 55.12 216.373 54.96 216.053 54.72C215.733 54.48 215.479 54.16 215.293 53.76C215.133 53.3333 215.053 52.7867 215.053 52.12V35.84C215.346 35.7867 215.773 35.72 216.333 35.64C216.919 35.5333 217.506 35.48 218.092 35.48C218.679 35.48 219.199 35.52 219.653 35.6C220.133 35.68 220.533 35.84 220.853 36.08C221.173 36.32 221.413 36.6533 221.573 37.08C221.759 37.48 221.853 38.0133 221.853 38.68V54.96ZM233.102 54.96C232.808 55.0133 232.368 55.08 231.782 55.16C231.222 55.2667 230.648 55.32 230.062 55.32C229.475 55.32 228.942 55.28 228.462 55.2C228.008 55.12 227.622 54.96 227.302 54.72C226.982 54.48 226.728 54.16 226.542 53.76C226.382 53.3333 226.302 52.7867 226.302 52.12V28.92C226.595 28.8667 227.022 28.8 227.582 28.72C228.168 28.6133 228.755 28.56 229.342 28.56C229.928 28.56 230.448 28.6 230.902 28.68C231.382 28.76 231.782 28.92 232.102 29.16C232.422 29.4 232.662 29.7333 232.822 30.16C233.008 30.56 233.102 31.0933 233.102 31.76V54.96ZM245.713 50.68C246.166 50.68 246.659 50.64 247.193 50.56C247.753 50.4533 248.166 50.32 248.433 50.16V46.96L245.553 47.2C244.806 47.2533 244.193 47.4133 243.713 47.68C243.233 47.9467 242.993 48.3467 242.993 48.88C242.993 49.4133 243.193 49.8533 243.593 50.2C244.019 50.52 244.726 50.68 245.713 50.68ZM245.393 34.96C246.833 34.96 248.139 35.1067 249.313 35.4C250.513 35.6933 251.526 36.1467 252.353 36.76C253.206 37.3467 253.859 38.1067 254.313 39.04C254.766 39.9467 254.993 41.0267 254.993 42.28V51.24C254.993 51.9333 254.793 52.5067 254.393 52.96C254.019 53.3867 253.566 53.76 253.033 54.08C251.299 55.12 248.859 55.64 245.713 55.64C244.299 55.64 243.019 55.5067 241.873 55.24C240.753 54.9733 239.779 54.5733 238.953 54.04C238.153 53.5067 237.526 52.8267 237.073 52C236.646 51.1733 236.433 50.2133 236.433 49.12C236.433 47.28 236.979 45.8667 238.073 44.88C239.166 43.8933 240.859 43.28 243.153 43.04L248.393 42.48V42.2C248.393 41.4267 248.046 40.88 247.353 40.56C246.686 40.2133 245.713 40.04 244.433 40.04C243.419 40.04 242.433 40.1467 241.473 40.36C240.513 40.5733 239.646 40.84 238.873 41.16C238.526 40.92 238.233 40.56 237.993 40.08C237.753 39.5733 237.633 39.0533 237.633 38.52C237.633 37.8267 237.793 37.28 238.113 36.88C238.459 36.4533 238.979 36.0933 239.673 35.8C240.446 35.5067 241.353 35.2933 242.393 35.16C243.459 35.0267 244.459 34.96 245.393 34.96ZM259.23 28.96C259.497 28.88 259.924 28.8 260.51 28.72C261.097 28.6133 261.697 28.56 262.31 28.56C262.897 28.56 263.417 28.6 263.87 28.68C264.35 28.76 264.75 28.92 265.07 29.16C265.39 29.4 265.63 29.7333 265.79 30.16C265.95 30.56 266.03 31.0933 266.03 31.76V35.68C266.697 35.4133 267.324 35.2267 267.91 35.12C268.524 35.0133 269.19 34.96 269.91 34.96C271.19 34.96 272.404 35.1867 273.55 35.64C274.697 36.0933 275.71 36.76 276.59 37.64C277.47 38.4933 278.164 39.56 278.67 40.84C279.177 42.12 279.43 43.6 279.43 45.28C279.43 47.0133 279.164 48.5333 278.63 49.84C278.124 51.12 277.404 52.1867 276.47 53.04C275.537 53.8933 274.39 54.5467 273.03 55C271.697 55.4267 270.217 55.64 268.59 55.64C266.83 55.64 265.337 55.4267 264.11 55C262.884 54.6 261.844 54.0933 260.99 53.48C259.817 52.6533 259.23 51.5867 259.23 50.28V28.96ZM268.59 50.28C269.817 50.28 270.764 49.8667 271.43 49.04C272.124 48.1867 272.47 46.9333 272.47 45.28C272.47 43.6 272.124 42.3467 271.43 41.52C270.737 40.6933 269.804 40.28 268.63 40.28C268.097 40.28 267.63 40.3333 267.23 40.44C266.857 40.5467 266.444 40.7067 265.99 40.92V49.64C266.284 49.8267 266.63 49.9867 267.03 50.12C267.457 50.2267 267.977 50.28 268.59 50.28ZM289.664 54.96C289.371 55.0133 288.931 55.08 288.344 55.16C287.784 55.2667 287.211 55.32 286.624 55.32C286.037 55.32 285.504 55.28 285.024 55.2C284.571 55.12 284.184 54.96 283.864 54.72C283.544 54.48 283.291 54.16 283.104 53.76C282.944 53.3333 282.864 52.7867 282.864 52.12V28.92C283.157 28.8667 283.584 28.8 284.144 28.72C284.731 28.6133 285.317 28.56 285.904 28.56C286.491 28.56 287.011 28.6 287.464 28.68C287.944 28.76 288.344 28.92 288.664 29.16C288.984 29.4 289.224 29.7333 289.384 30.16C289.571 30.56 289.664 31.0933 289.664 31.76V54.96ZM304.235 55.64C302.662 55.64 301.195 55.4267 299.835 55C298.502 54.5467 297.328 53.88 296.315 53C295.328 52.12 294.542 51.0133 293.955 49.68C293.395 48.3467 293.115 46.7867 293.115 45C293.115 43.24 293.395 41.7333 293.955 40.48C294.542 39.2 295.302 38.16 296.235 37.36C297.168 36.5333 298.235 35.9333 299.435 35.56C300.635 35.16 301.862 34.96 303.115 34.96C304.528 34.96 305.808 35.1733 306.955 35.6C308.128 36.0267 309.128 36.6133 309.955 37.36C310.808 38.1067 311.462 39 311.915 40.04C312.395 41.08 312.635 42.2133 312.635 43.44C312.635 44.3467 312.382 45.04 311.875 45.52C311.368 46 310.662 46.3067 309.755 46.44L299.875 47.92C300.168 48.8 300.768 49.4667 301.675 49.92C302.582 50.3467 303.622 50.56 304.795 50.56C305.888 50.56 306.915 50.4267 307.875 50.16C308.862 49.8667 309.662 49.5333 310.275 49.16C310.702 49.4267 311.062 49.8 311.355 50.28C311.648 50.76 311.795 51.2667 311.795 51.8C311.795 53 311.235 53.8933 310.115 54.48C309.262 54.9333 308.302 55.24 307.235 55.4C306.168 55.56 305.168 55.64 304.235 55.64ZM303.115 39.92C302.475 39.92 301.915 40.0267 301.435 40.24C300.982 40.4533 300.608 40.7333 300.315 41.08C300.022 41.4 299.795 41.7733 299.635 42.2C299.502 42.6 299.422 43.0133 299.395 43.44L306.235 42.32C306.155 41.7867 305.862 41.2533 305.355 40.72C304.848 40.1867 304.102 39.92 303.115 39.92Z" fill="white"/>
</svg>
