<svg width="655" height="366" viewBox="0 0 655 366" fill="none" xmlns="http://www.w3.org/2000/svg">
<g filter="url(#filter0_d_369_169)">
<rect x="4" width="647" height="358" rx="40" fill="#F4E7D6"/>
</g>
<path d="M57.3333 222.93C57.3331 224.403 58.5269 225.597 59.9996 225.597C61.4724 225.598 62.6665 224.404 62.6667 222.931C62.6669 221.458 61.4731 220.264 60.0004 220.264C58.5276 220.264 57.3335 221.458 57.3333 222.93ZM60 222.931L59.9999 223.431L597 223.503L597 223.003L597 222.503L60.0001 222.431L60 222.931Z" fill="#544545"/>
<path d="M4 40C4 17.9086 21.9086 0 44 0H611C633.091 0 651 17.9086 651 40V54H4V40Z" fill="#978566" fill-opacity="0.2"/>
<defs>
<filter id="filter0_d_369_169" x="0" y="0" width="655" height="366" filterUnits="userSpaceOnUse" color-interpolation-filters="sRGB">
<feFlood flood-opacity="0" result="BackgroundImageFix"/>
<feColorMatrix in="SourceAlpha" type="matrix" values="0 0 0 0 0 0 0 0 0 0 0 0 0 0 0 0 0 0 127 0" result="hardAlpha"/>
<feOffset dy="4"/>
<feGaussianBlur stdDeviation="2"/>
<feComposite in2="hardAlpha" operator="out"/>
<feColorMatrix type="matrix" values="0 0 0 0 0 0 0 0 0 0 0 0 0 0 0 0 0 0 0.25 0"/>
<feBlend mode="normal" in2="BackgroundImageFix" result="effect1_dropShadow_369_169"/>
<feBlend mode="normal" in="SourceGraphic" in2="effect1_dropShadow_369_169" result="shape"/>
</filter>
</defs>
</svg>
