<svg width="386" height="86" viewBox="0 0 386 86" fill="none" xmlns="http://www.w3.org/2000/svg">
<rect x="4" y="4" width="378" height="78" rx="36" fill="#A98B8D" stroke="#F1DFCA" stroke-width="8"/>
<path d="M56.48 44.36C55.3067 43.96 54.24 43.56 53.28 43.16C52.32 42.7333 51.4933 42.2267 50.8 41.64C50.1067 41.0533 49.56 40.36 49.16 39.56C48.7867 38.7333 48.6 37.7333 48.6 36.56C48.6 34.2933 49.4667 32.48 51.2 31.12C52.96 29.76 55.4133 29.08 58.56 29.08C59.7067 29.08 60.7733 29.16 61.76 29.32C62.7467 29.48 63.5867 29.7333 64.28 30.08C65 30.4 65.56 30.8267 65.96 31.36C66.36 31.8667 66.56 32.4667 66.56 33.16C66.56 33.8533 66.4 34.4533 66.08 34.96C65.76 35.44 65.3733 35.8533 64.92 36.2C64.3333 35.8267 63.5467 35.5067 62.56 35.24C61.5733 34.9467 60.4933 34.8 59.32 34.8C58.12 34.8 57.24 34.9733 56.68 35.32C56.12 35.64 55.84 36.0533 55.84 36.56C55.84 36.96 56.0133 37.2933 56.36 37.56C56.7067 37.8 57.2267 38.0267 57.92 38.24L60.04 38.92C62.5467 39.72 64.4667 40.7467 65.8 42C67.16 43.2267 67.84 44.9067 67.84 47.04C67.84 49.3067 66.9467 51.1467 65.16 52.56C63.3733 53.9467 60.7467 54.64 57.28 54.64C56.0533 54.64 54.9067 54.5333 53.84 54.32C52.8 54.1333 51.88 53.8533 51.08 53.48C50.3067 53.08 49.6933 52.6 49.24 52.04C48.8133 51.4533 48.6 50.7867 48.6 50.04C48.6 49.2667 48.8267 48.6133 49.28 48.08C49.7333 47.52 50.2267 47.0933 50.76 46.8C51.5067 47.3867 52.4133 47.8933 53.48 48.32C54.5733 48.7467 55.76 48.96 57.04 48.96C58.3467 48.96 59.2667 48.76 59.8 48.36C60.3333 47.96 60.6 47.4933 60.6 46.96C60.6 46.4267 60.3867 46.0267 59.96 45.76C59.5333 45.4667 58.9333 45.1867 58.16 44.92L56.48 44.36ZM81.4694 54.64C79.896 54.64 78.4294 54.4267 77.0694 54C75.736 53.5467 74.5627 52.88 73.5494 52C72.5627 51.12 71.776 50.0133 71.1894 48.68C70.6294 47.3467 70.3494 45.7867 70.3494 44C70.3494 42.24 70.6294 40.7333 71.1894 39.48C71.776 38.2 72.536 37.16 73.4694 36.36C74.4027 35.5333 75.4694 34.9333 76.6694 34.56C77.8694 34.16 79.096 33.96 80.3494 33.96C81.7627 33.96 83.0427 34.1733 84.1894 34.6C85.3627 35.0267 86.3627 35.6133 87.1894 36.36C88.0427 37.1067 88.696 38 89.1494 39.04C89.6294 40.08 89.8694 41.2133 89.8694 42.44C89.8694 43.3467 89.616 44.04 89.1094 44.52C88.6027 45 87.896 45.3067 86.9894 45.44L77.1094 46.92C77.4027 47.8 78.0027 48.4667 78.9094 48.92C79.816 49.3467 80.856 49.56 82.0294 49.56C83.1227 49.56 84.1494 49.4267 85.1094 49.16C86.096 48.8667 86.896 48.5333 87.5094 48.16C87.936 48.4267 88.296 48.8 88.5894 49.28C88.8827 49.76 89.0294 50.2667 89.0294 50.8C89.0294 52 88.4694 52.8933 87.3494 53.48C86.496 53.9333 85.536 54.24 84.4694 54.4C83.4027 54.56 82.4027 54.64 81.4694 54.64ZM80.3494 38.92C79.7094 38.92 79.1494 39.0267 78.6694 39.24C78.216 39.4533 77.8427 39.7333 77.5494 40.08C77.256 40.4 77.0294 40.7733 76.8694 41.2C76.736 41.6 76.656 42.0133 76.6294 42.44L83.4694 41.32C83.3894 40.7867 83.096 40.2533 82.5894 39.72C82.0827 39.1867 81.336 38.92 80.3494 38.92ZM100.063 53.96C99.7692 54.0133 99.3292 54.08 98.7425 54.16C98.1825 54.2667 97.6092 54.32 97.0225 54.32C96.4358 54.32 95.9025 54.28 95.4225 54.2C94.9692 54.12 94.5825 53.96 94.2625 53.72C93.9425 53.48 93.6892 53.16 93.5025 52.76C93.3425 52.3333 93.2625 51.7867 93.2625 51.12V27.92C93.5558 27.8667 93.9825 27.8 94.5425 27.72C95.1292 27.6133 95.7158 27.56 96.3025 27.56C96.8892 27.56 97.4092 27.6 97.8625 27.68C98.3425 27.76 98.7425 27.92 99.0625 28.16C99.3825 28.4 99.6225 28.7333 99.7825 29.16C99.9692 29.56 100.063 30.0933 100.063 30.76V53.96ZM114.633 54.64C113.06 54.64 111.593 54.4267 110.233 54C108.9 53.5467 107.727 52.88 106.713 52C105.727 51.12 104.94 50.0133 104.353 48.68C103.793 47.3467 103.513 45.7867 103.513 44C103.513 42.24 103.793 40.7333 104.353 39.48C104.94 38.2 105.7 37.16 106.633 36.36C107.567 35.5333 108.633 34.9333 109.833 34.56C111.033 34.16 112.26 33.96 113.513 33.96C114.927 33.96 116.207 34.1733 117.353 34.6C118.527 35.0267 119.527 35.6133 120.353 36.36C121.207 37.1067 121.86 38 122.313 39.04C122.793 40.08 123.033 41.2133 123.033 42.44C123.033 43.3467 122.78 44.04 122.273 44.52C121.767 45 121.06 45.3067 120.153 45.44L110.273 46.92C110.567 47.8 111.167 48.4667 112.073 48.92C112.98 49.3467 114.02 49.56 115.193 49.56C116.287 49.56 117.313 49.4267 118.273 49.16C119.26 48.8667 120.06 48.5333 120.673 48.16C121.1 48.4267 121.46 48.8 121.753 49.28C122.047 49.76 122.193 50.2667 122.193 50.8C122.193 52 121.633 52.8933 120.513 53.48C119.66 53.9333 118.7 54.24 117.633 54.4C116.567 54.56 115.567 54.64 114.633 54.64ZM113.513 38.92C112.873 38.92 112.313 39.0267 111.833 39.24C111.38 39.4533 111.007 39.7333 110.713 40.08C110.42 40.4 110.193 40.7733 110.033 41.2C109.9 41.6 109.82 42.0133 109.793 42.44L116.633 41.32C116.553 40.7867 116.26 40.2533 115.753 39.72C115.247 39.1867 114.5 38.92 113.513 38.92ZM137.267 39.32C136.6 39.32 135.96 39.4267 135.347 39.64C134.76 39.8533 134.24 40.1733 133.787 40.6C133.36 41 133.013 41.5067 132.747 42.12C132.48 42.7333 132.347 43.4533 132.347 44.28C132.347 45.9333 132.813 47.1733 133.747 48C134.707 48.8267 135.867 49.24 137.227 49.24C138.027 49.24 138.72 49.1467 139.307 48.96C139.893 48.7733 140.413 48.5733 140.867 48.36C141.4 48.7333 141.8 49.1467 142.067 49.6C142.333 50.0267 142.467 50.5467 142.467 51.16C142.467 52.2533 141.947 53.1067 140.907 53.72C139.867 54.3067 138.427 54.6 136.587 54.6C134.907 54.6 133.387 54.36 132.027 53.88C130.667 53.3733 129.493 52.68 128.507 51.8C127.547 50.8933 126.8 49.8133 126.267 48.56C125.733 47.3067 125.467 45.92 125.467 44.4C125.467 42.64 125.747 41.1067 126.307 39.8C126.893 38.4667 127.68 37.3733 128.667 36.52C129.653 35.6667 130.787 35.0267 132.067 34.6C133.373 34.1733 134.747 33.96 136.187 33.96C138.107 33.96 139.587 34.3067 140.627 35C141.667 35.6933 142.187 36.5867 142.187 37.68C142.187 38.1867 142.067 38.6667 141.827 39.12C141.587 39.5467 141.307 39.92 140.987 40.24C140.533 40.0267 139.987 39.8267 139.347 39.64C138.707 39.4267 138.013 39.32 137.267 39.32ZM152.677 47.32C152.677 48.0133 152.89 48.5067 153.317 48.8C153.77 49.0933 154.397 49.24 155.197 49.24C155.597 49.24 156.01 49.2133 156.437 49.16C156.864 49.08 157.237 48.9867 157.557 48.88C157.797 49.1733 157.997 49.5067 158.157 49.88C158.344 50.2267 158.437 50.6533 158.437 51.16C158.437 52.1733 158.05 53 157.277 53.64C156.53 54.28 155.197 54.6 153.277 54.6C150.93 54.6 149.117 54.0667 147.837 53C146.584 51.9333 145.957 50.2 145.957 47.8V30.68C146.25 30.6 146.664 30.52 147.197 30.44C147.757 30.3333 148.344 30.28 148.957 30.28C150.13 30.28 151.037 30.4933 151.677 30.92C152.344 31.32 152.677 32.1867 152.677 33.52V36.08H157.917C158.077 36.3733 158.224 36.7467 158.357 37.2C158.517 37.6267 158.597 38.1067 158.597 38.64C158.597 39.5733 158.384 40.2533 157.957 40.68C157.557 41.08 157.01 41.28 156.317 41.28H152.677V47.32ZM171.938 54.64C170.365 54.64 168.898 54.4267 167.538 54C166.205 53.5467 165.031 52.88 164.018 52C163.031 51.12 162.245 50.0133 161.658 48.68C161.098 47.3467 160.818 45.7867 160.818 44C160.818 42.24 161.098 40.7333 161.658 39.48C162.245 38.2 163.005 37.16 163.938 36.36C164.871 35.5333 165.938 34.9333 167.138 34.56C168.338 34.16 169.565 33.96 170.818 33.96C172.231 33.96 173.511 34.1733 174.658 34.6C175.831 35.0267 176.831 35.6133 177.658 36.36C178.511 37.1067 179.165 38 179.618 39.04C180.098 40.08 180.338 41.2133 180.338 42.44C180.338 43.3467 180.085 44.04 179.578 44.52C179.071 45 178.365 45.3067 177.458 45.44L167.578 46.92C167.871 47.8 168.471 48.4667 169.378 48.92C170.285 49.3467 171.325 49.56 172.498 49.56C173.591 49.56 174.618 49.4267 175.578 49.16C176.565 48.8667 177.365 48.5333 177.978 48.16C178.405 48.4267 178.765 48.8 179.058 49.28C179.351 49.76 179.498 50.2667 179.498 50.8C179.498 52 178.938 52.8933 177.818 53.48C176.965 53.9333 176.005 54.24 174.938 54.4C173.871 54.56 172.871 54.64 171.938 54.64ZM170.818 38.92C170.178 38.92 169.618 39.0267 169.138 39.24C168.685 39.4533 168.311 39.7333 168.018 40.08C167.725 40.4 167.498 40.7733 167.338 41.2C167.205 41.6 167.125 42.0133 167.098 42.44L173.938 41.32C173.858 40.7867 173.565 40.2533 173.058 39.72C172.551 39.1867 171.805 38.92 170.818 38.92ZM182.771 44.28C182.771 42.52 183.038 41 183.571 39.72C184.105 38.4133 184.838 37.3333 185.771 36.48C186.731 35.6267 187.838 35 189.091 34.6C190.371 34.1733 191.745 33.96 193.211 33.96C193.745 33.96 194.265 34.0133 194.771 34.12C195.278 34.2 195.691 34.3067 196.011 34.44V27.96C196.278 27.88 196.705 27.8 197.291 27.72C197.878 27.6133 198.478 27.56 199.091 27.56C199.678 27.56 200.198 27.6 200.651 27.68C201.131 27.76 201.531 27.92 201.851 28.16C202.171 28.4 202.411 28.7333 202.571 29.16C202.731 29.56 202.811 30.0933 202.811 30.76V49.72C202.811 50.9733 202.225 51.9733 201.051 52.72C200.278 53.2267 199.278 53.6667 198.051 54.04C196.825 54.44 195.411 54.64 193.811 54.64C192.078 54.64 190.518 54.4 189.131 53.92C187.771 53.44 186.611 52.7467 185.651 51.84C184.718 50.9333 183.998 49.8533 183.491 48.6C183.011 47.32 182.771 45.88 182.771 44.28ZM194.131 39.28C192.691 39.28 191.585 39.6933 190.811 40.52C190.038 41.3467 189.651 42.6 189.651 44.28C189.651 45.9333 190.011 47.1867 190.731 48.04C191.451 48.8667 192.491 49.28 193.851 49.28C194.331 49.28 194.758 49.2133 195.131 49.08C195.531 48.92 195.838 48.7467 196.051 48.56V39.76C195.518 39.44 194.878 39.28 194.131 39.28Z" fill="white"/>
<path d="M358.5 36L348.414 46.0858C347.633 46.8668 346.367 46.8668 345.586 46.0858L335.5 36" stroke="white" stroke-width="8" stroke-linecap="round"/>
</svg>
