<svg width="80" height="98" viewBox="0 0 80 98" fill="none" xmlns="http://www.w3.org/2000/svg">
<g filter="url(#filter0_ddi_299_317)">
<path fill-rule="evenodd" clip-rule="evenodd" d="M12.6299 53.5782C11.2368 56.0862 12.2607 59.1682 14.6569 60.7862C16.2784 49.1195 35.9851 46.4788 45.6358 46.6169C42.5408 45.6601 38.6422 45.1408 33.7313 45.1408C21.469 45.1408 15.518 48.3791 12.6299 53.5782Z" fill="#F4E7D6"/>
<path fill-rule="evenodd" clip-rule="evenodd" d="M28.7164 34.5821C23.0328 23.0148 31.0846 15.0042 35.8209 12.4448C35.1426 12.3267 34.4444 12.2651 33.7316 12.2651C27.157 12.2651 21.8273 17.5041 21.8273 23.9666C21.8273 28.668 24.6479 32.7218 28.7164 34.5821Z" fill="#F4E7D6"/>
<path d="M64.9863 66.7358C58.8308 70.8642 51.3766 73.2803 43.3444 73.2803C35.312 73.2803 27.8576 70.8641 21.702 66.7356C18.9833 64.9121 17.8215 61.4387 19.4022 58.6122C22.6791 52.7529 29.4312 49.1034 43.3442 49.1034C57.2574 49.1034 64.0095 52.753 67.2863 58.6125C68.8669 61.439 67.705 64.9124 64.9863 66.7358Z" fill="#F4E7D6"/>
<path d="M43.3445 40.3118C50.804 40.3118 56.8512 34.4076 56.8512 27.1244C56.8512 19.8412 50.804 13.937 43.3445 13.937C35.8849 13.937 29.8378 19.8412 29.8378 27.1244C29.8378 34.4076 35.8849 40.3118 43.3445 40.3118Z" fill="#F4E7D6"/>
</g>
<defs>
<filter id="filter0_ddi_299_317" x="0" y="0.265137" width="80" height="97.0151" filterUnits="userSpaceOnUse" color-interpolation-filters="sRGB">
<feFlood flood-opacity="0" result="BackgroundImageFix"/>
<feColorMatrix in="SourceAlpha" type="matrix" values="0 0 0 0 0 0 0 0 0 0 0 0 0 0 0 0 0 0 127 0" result="hardAlpha"/>
<feOffset dy="12"/>
<feGaussianBlur stdDeviation="6"/>
<feComposite in2="hardAlpha" operator="out"/>
<feColorMatrix type="matrix" values="0 0 0 0 0 0 0 0 0 0 0 0 0 0 0 0 0 0 0.4 0"/>
<feBlend mode="normal" in2="BackgroundImageFix" result="effect1_dropShadow_299_317"/>
<feColorMatrix in="SourceAlpha" type="matrix" values="0 0 0 0 0 0 0 0 0 0 0 0 0 0 0 0 0 0 127 0" result="hardAlpha"/>
<feOffset/>
<feGaussianBlur stdDeviation="6"/>
<feComposite in2="hardAlpha" operator="out"/>
<feColorMatrix type="matrix" values="0 0 0 0 1 0 0 0 0 0.813839 0 0 0 0 0.58631 0 0 0 0.7 0"/>
<feBlend mode="normal" in2="effect1_dropShadow_299_317" result="effect2_dropShadow_299_317"/>
<feBlend mode="normal" in="SourceGraphic" in2="effect2_dropShadow_299_317" result="shape"/>
<feColorMatrix in="SourceAlpha" type="matrix" values="0 0 0 0 0 0 0 0 0 0 0 0 0 0 0 0 0 0 127 0" result="hardAlpha"/>
<feOffset/>
<feGaussianBlur stdDeviation="5.7"/>
<feComposite in2="hardAlpha" operator="arithmetic" k2="-1" k3="1"/>
<feColorMatrix type="matrix" values="0 0 0 0 1 0 0 0 0 0.719901 0 0 0 0 0.557738 0 0 0 1 0"/>
<feBlend mode="normal" in2="shape" result="effect3_innerShadow_299_317"/>
</filter>
</defs>
</svg>
