<svg width="79" height="89" viewBox="0 0 79 89" fill="none" xmlns="http://www.w3.org/2000/svg">
<g filter="url(#filter0_ddi_299_280)">
<path d="M58.6703 60.2169L55.7269 47.0227C55.4993 46.0025 55.8107 44.9373 56.5526 44.1982L65.998 34.7894C67.7996 32.9947 66.7479 29.9214 64.2207 29.5962L50.5339 27.8347C49.5306 27.7055 48.6556 27.0924 48.1948 26.1955L41.8498 13.8466C40.6676 11.5458 37.3302 11.6535 36.3001 14.0256L31.0521 26.1096C30.626 27.0909 29.716 27.7792 28.6524 27.9246L15.5557 29.7156C12.9848 30.0671 11.9848 33.2401 13.8928 34.9918L24.1338 44.394C24.8776 45.0769 25.2358 46.0809 25.0913 47.0781L23.1211 60.6819C22.7573 63.1937 25.4475 65.0277 27.667 63.781L39.303 57.245C40.2169 56.7316 41.3309 56.7188 42.2565 57.211L54.2282 63.5766C56.5421 64.807 59.2392 62.767 58.6703 60.2169Z" fill="#F4E7D6"/>
</g>
<defs>
<filter id="filter0_ddi_299_280" x="0.900391" y="0.182129" width="78" height="88" filterUnits="userSpaceOnUse" color-interpolation-filters="sRGB">
<feFlood flood-opacity="0" result="BackgroundImageFix"/>
<feColorMatrix in="SourceAlpha" type="matrix" values="0 0 0 0 0 0 0 0 0 0 0 0 0 0 0 0 0 0 127 0" result="hardAlpha"/>
<feOffset dy="12"/>
<feGaussianBlur stdDeviation="6"/>
<feComposite in2="hardAlpha" operator="out"/>
<feColorMatrix type="matrix" values="0 0 0 0 0 0 0 0 0 0 0 0 0 0 0 0 0 0 0.4 0"/>
<feBlend mode="normal" in2="BackgroundImageFix" result="effect1_dropShadow_299_280"/>
<feColorMatrix in="SourceAlpha" type="matrix" values="0 0 0 0 0 0 0 0 0 0 0 0 0 0 0 0 0 0 127 0" result="hardAlpha"/>
<feOffset/>
<feGaussianBlur stdDeviation="6"/>
<feComposite in2="hardAlpha" operator="out"/>
<feColorMatrix type="matrix" values="0 0 0 0 1 0 0 0 0 0.813839 0 0 0 0 0.58631 0 0 0 0.7 0"/>
<feBlend mode="normal" in2="effect1_dropShadow_299_280" result="effect2_dropShadow_299_280"/>
<feBlend mode="normal" in="SourceGraphic" in2="effect2_dropShadow_299_280" result="shape"/>
<feColorMatrix in="SourceAlpha" type="matrix" values="0 0 0 0 0 0 0 0 0 0 0 0 0 0 0 0 0 0 127 0" result="hardAlpha"/>
<feOffset/>
<feGaussianBlur stdDeviation="5.7"/>
<feComposite in2="hardAlpha" operator="arithmetic" k2="-1" k3="1"/>
<feColorMatrix type="matrix" values="0 0 0 0 1 0 0 0 0 0.719901 0 0 0 0 0.557738 0 0 0 1 0"/>
<feBlend mode="normal" in2="shape" result="effect3_innerShadow_299_280"/>
</filter>
</defs>
</svg>
