<svg width="78" height="88" viewBox="0 0 78 88" fill="none" xmlns="http://www.w3.org/2000/svg">
<g filter="url(#filter0_ddi_299_334)">
<path d="M61.6665 33.8335C64.0048 33.8335 65.9005 31.9378 65.9005 29.5994C65.9005 27.2611 64.0048 25.3654 61.6665 25.3654C59.3281 25.3654 57.4324 27.2611 57.4324 29.5994C57.4324 30.657 57.8202 31.624 58.4612 32.366C59.2275 33.253 60.3558 33.8186 61.6165 33.8332L61.6665 33.8335Z" fill="#F4E7D6"/>
<path d="M39.085 12.1821C35.9672 12.1821 33.4396 18.0783 33.4396 21.1961C33.4396 23.3916 34.6929 25.2943 36.5229 26.228C37.2919 26.6203 38.1626 26.8415 39.085 26.8415C40.0074 26.8415 40.8782 26.6203 41.6471 26.228C43.4771 25.2943 44.7304 23.3916 44.7304 21.1961C44.7304 18.0783 42.2029 12.1821 39.085 12.1821Z" fill="#F4E7D6"/>
<path d="M12.2695 29.5994C12.2695 31.9378 14.1652 33.8335 16.5036 33.8335L16.5536 33.8332C17.8142 33.8186 18.9425 33.253 19.7088 32.366C20.3498 31.624 20.7376 30.657 20.7376 29.5994C20.7376 27.2611 18.8419 25.3654 16.5036 25.3654C14.1652 25.3654 12.2695 27.2611 12.2695 29.5994Z" fill="#F4E7D6"/>
<path d="M41.4365 23.3403C41.8827 24.0543 42.3775 24.9414 42.9688 26.0015L48.0195 35.0581C48.9778 36.7762 49.4572 37.6351 50.1758 37.9517C50.5739 38.127 51.0132 38.1889 51.4443 38.1294C52.2225 38.0218 52.9204 37.3266 54.3154 35.937C56.1266 34.1329 57.3307 32.9338 58.251 32.3657C59.0173 33.2526 60.1456 33.8179 61.4062 33.8325C61.5494 34.9006 61.367 36.5963 61.0908 39.1636L60.5732 43.9751C60.4859 44.7873 60.4026 45.5878 60.3213 46.3726C59.6091 53.2479 59.0198 58.935 56.623 61.0806C53.9525 63.4709 49.9502 63.4712 41.9453 63.4712H35.8037C27.7988 63.4712 23.7965 63.4709 21.126 61.0806C18.7291 58.9351 18.1399 53.248 17.4277 46.3726C17.3464 45.5878 17.2631 44.7873 17.1758 43.9751L16.6582 39.1636C16.3821 36.5963 16.1997 34.9006 16.3428 33.8325C17.6034 33.8179 18.7318 33.2527 19.498 32.3657C20.4183 32.9338 21.6214 34.1329 23.4326 35.937C24.8276 37.3266 25.5256 38.0216 26.3037 38.1294C26.7349 38.189 27.175 38.127 27.5732 37.9517C28.2917 37.6351 28.7713 36.7761 29.7295 35.0581L34.7803 26.0015C35.3715 24.9414 35.8663 24.0543 36.3125 23.3403C37.0813 23.7325 37.9518 23.9536 38.874 23.9536C39.7964 23.9536 40.6676 23.7326 41.4365 23.3403Z" fill="#F4E7D6"/>
</g>
<defs>
<filter id="filter0_ddi_299_334" x="0.269531" y="0.182129" width="77.6309" height="87.2891" filterUnits="userSpaceOnUse" color-interpolation-filters="sRGB">
<feFlood flood-opacity="0" result="BackgroundImageFix"/>
<feColorMatrix in="SourceAlpha" type="matrix" values="0 0 0 0 0 0 0 0 0 0 0 0 0 0 0 0 0 0 127 0" result="hardAlpha"/>
<feOffset dy="12"/>
<feGaussianBlur stdDeviation="6"/>
<feComposite in2="hardAlpha" operator="out"/>
<feColorMatrix type="matrix" values="0 0 0 0 0 0 0 0 0 0 0 0 0 0 0 0 0 0 0.4 0"/>
<feBlend mode="normal" in2="BackgroundImageFix" result="effect1_dropShadow_299_334"/>
<feColorMatrix in="SourceAlpha" type="matrix" values="0 0 0 0 0 0 0 0 0 0 0 0 0 0 0 0 0 0 127 0" result="hardAlpha"/>
<feOffset/>
<feGaussianBlur stdDeviation="6"/>
<feComposite in2="hardAlpha" operator="out"/>
<feColorMatrix type="matrix" values="0 0 0 0 1 0 0 0 0 0.813839 0 0 0 0 0.58631 0 0 0 0.7 0"/>
<feBlend mode="normal" in2="effect1_dropShadow_299_334" result="effect2_dropShadow_299_334"/>
<feBlend mode="normal" in="SourceGraphic" in2="effect2_dropShadow_299_334" result="shape"/>
<feColorMatrix in="SourceAlpha" type="matrix" values="0 0 0 0 0 0 0 0 0 0 0 0 0 0 0 0 0 0 127 0" result="hardAlpha"/>
<feOffset/>
<feGaussianBlur stdDeviation="5.7"/>
<feComposite in2="hardAlpha" operator="arithmetic" k2="-1" k3="1"/>
<feColorMatrix type="matrix" values="0 0 0 0 1 0 0 0 0 0.719901 0 0 0 0 0.557738 0 0 0 1 0"/>
<feBlend mode="normal" in2="shape" result="effect3_innerShadow_299_334"/>
</filter>
</defs>
</svg>
