<svg width="72" height="85" viewBox="0 0 72 85" fill="none" xmlns="http://www.w3.org/2000/svg">
<g filter="url(#filter0_ddi_299_383)">
<path d="M34.0489 13.9267C34.5176 11.846 37.4824 11.846 37.9511 13.9267L41.4214 29.3322C41.5911 30.0856 42.1795 30.674 42.933 30.8438L58.3385 34.314C60.4191 34.7827 60.4191 37.7476 58.3385 38.2162L42.933 41.6865C42.1795 41.8562 41.5911 42.4446 41.4214 43.1981L37.9511 58.6036C37.4824 60.6843 34.5176 60.6843 34.0489 58.6036L30.5786 43.1981C30.4089 42.4446 29.8205 41.8562 29.067 41.6865L13.6615 38.2162C11.5809 37.7476 11.5809 34.7827 13.6615 34.314L29.067 30.8438C29.8205 30.674 30.4089 30.0856 30.5786 29.3322L34.0489 13.9267Z" fill="#F4E7D6"/>
</g>
<defs>
<filter id="filter0_ddi_299_383" x="0.101562" y="0.366211" width="71.7969" height="83.7979" filterUnits="userSpaceOnUse" color-interpolation-filters="sRGB">
<feFlood flood-opacity="0" result="BackgroundImageFix"/>
<feColorMatrix in="SourceAlpha" type="matrix" values="0 0 0 0 0 0 0 0 0 0 0 0 0 0 0 0 0 0 127 0" result="hardAlpha"/>
<feOffset dy="12"/>
<feGaussianBlur stdDeviation="6"/>
<feComposite in2="hardAlpha" operator="out"/>
<feColorMatrix type="matrix" values="0 0 0 0 0 0 0 0 0 0 0 0 0 0 0 0 0 0 0.4 0"/>
<feBlend mode="normal" in2="BackgroundImageFix" result="effect1_dropShadow_299_383"/>
<feColorMatrix in="SourceAlpha" type="matrix" values="0 0 0 0 0 0 0 0 0 0 0 0 0 0 0 0 0 0 127 0" result="hardAlpha"/>
<feOffset/>
<feGaussianBlur stdDeviation="6"/>
<feComposite in2="hardAlpha" operator="out"/>
<feColorMatrix type="matrix" values="0 0 0 0 1 0 0 0 0 0.813839 0 0 0 0 0.58631 0 0 0 0.7 0"/>
<feBlend mode="normal" in2="effect1_dropShadow_299_383" result="effect2_dropShadow_299_383"/>
<feBlend mode="normal" in="SourceGraphic" in2="effect2_dropShadow_299_383" result="shape"/>
<feColorMatrix in="SourceAlpha" type="matrix" values="0 0 0 0 0 0 0 0 0 0 0 0 0 0 0 0 0 0 127 0" result="hardAlpha"/>
<feOffset/>
<feGaussianBlur stdDeviation="5.7"/>
<feComposite in2="hardAlpha" operator="arithmetic" k2="-1" k3="1"/>
<feColorMatrix type="matrix" values="0 0 0 0 1 0 0 0 0 0.719901 0 0 0 0 0.557738 0 0 0 1 0"/>
<feBlend mode="normal" in2="shape" result="effect3_innerShadow_299_383"/>
</filter>
</defs>
</svg>
