<svg width="75" height="87" viewBox="0 0 75 87" fill="none" xmlns="http://www.w3.org/2000/svg">
<g filter="url(#filter0_ddi_296_241)">
<path d="M41.2121 14.8082C42.7079 13.3123 44.6738 11.4413 46.6642 12.1578C47.3583 12.4076 48.0444 12.687 48.7199 12.9966C50.8654 13.9801 51.0499 16.9635 51.4826 19.2837C51.6619 20.2455 52.1233 21.1656 52.8673 21.9097C53.6114 22.6538 54.5315 23.1151 55.4933 23.2945C57.8135 23.7271 60.7969 23.9118 61.7804 26.0572C61.9972 26.5301 62.1994 27.0084 62.3869 27.4908C63.1224 29.3832 61.4046 31.3168 59.9689 32.7525C58.0081 34.7133 58.0081 37.8923 59.9689 39.8531C61.5186 41.4027 63.5331 43.3867 62.8449 45.4673C62.5416 46.3842 62.1864 47.2876 61.7804 48.1734C60.797 50.3191 57.8136 50.5034 55.4933 50.9361C54.5315 51.1154 53.6114 51.5777 52.8673 52.3218C52.1235 53.0658 51.6619 53.9852 51.4826 54.9468C51.0499 57.2671 50.8653 60.2504 48.7199 61.2339C48.0444 61.5435 47.3583 61.8239 46.6642 62.0738C44.6738 62.7901 42.7079 60.9182 41.2121 59.4224C39.2513 57.4616 36.0723 57.4617 34.1115 59.4224C32.6157 60.9182 30.6497 62.79 28.6593 62.0738C27.9652 61.8239 27.2791 61.5435 26.6037 61.2339C24.4581 60.2504 24.2737 57.2671 23.841 54.9468C23.6616 53.9851 23.1993 53.0659 22.4552 52.3218C21.7112 51.5778 20.792 51.1154 19.8302 50.9361C17.5099 50.5034 14.5266 50.3191 13.5431 48.1734C13.1371 47.2876 12.7819 46.3842 12.4787 45.4673C11.7905 43.3867 13.805 41.4027 15.3546 39.8531C17.3154 37.8923 17.3153 34.7133 15.3546 32.7525C13.919 31.3168 12.2012 29.3832 12.9367 27.4908C13.1242 27.0084 13.3264 26.5301 13.5431 26.0572C14.5267 23.9118 17.51 23.7271 19.8302 23.2945C20.7919 23.1151 21.7112 22.6536 22.4552 21.9097C23.1993 21.1656 23.6616 20.2456 23.841 19.2837C24.2736 16.9635 24.4581 13.98 26.6037 12.9966C27.2791 12.687 27.9652 12.4076 28.6593 12.1578C30.6497 11.4414 32.6156 13.3123 34.1115 14.8082C36.0723 16.769 39.2512 16.769 41.2121 14.8082ZM37.8898 23.8775C30.8142 23.8775 25.0774 29.6134 25.0773 36.689C25.0773 43.7647 30.8141 49.5005 37.8898 49.5005C44.9653 49.5003 50.7013 43.7646 50.7013 36.689C50.7012 29.6136 44.9652 23.8777 37.8898 23.8775Z" fill="#F4E7D6"/>
</g>
<defs>
<filter id="filter0_ddi_296_241" x="0.339844" y="0" width="74.6445" height="86.2314" filterUnits="userSpaceOnUse" color-interpolation-filters="sRGB">
<feFlood flood-opacity="0" result="BackgroundImageFix"/>
<feColorMatrix in="SourceAlpha" type="matrix" values="0 0 0 0 0 0 0 0 0 0 0 0 0 0 0 0 0 0 127 0" result="hardAlpha"/>
<feOffset dy="12"/>
<feGaussianBlur stdDeviation="6"/>
<feComposite in2="hardAlpha" operator="out"/>
<feColorMatrix type="matrix" values="0 0 0 0 0 0 0 0 0 0 0 0 0 0 0 0 0 0 0.4 0"/>
<feBlend mode="normal" in2="BackgroundImageFix" result="effect1_dropShadow_296_241"/>
<feColorMatrix in="SourceAlpha" type="matrix" values="0 0 0 0 0 0 0 0 0 0 0 0 0 0 0 0 0 0 127 0" result="hardAlpha"/>
<feOffset/>
<feGaussianBlur stdDeviation="6"/>
<feComposite in2="hardAlpha" operator="out"/>
<feColorMatrix type="matrix" values="0 0 0 0 1 0 0 0 0 0.813839 0 0 0 0 0.58631 0 0 0 0.7 0"/>
<feBlend mode="normal" in2="effect1_dropShadow_296_241" result="effect2_dropShadow_296_241"/>
<feBlend mode="normal" in="SourceGraphic" in2="effect2_dropShadow_296_241" result="shape"/>
<feColorMatrix in="SourceAlpha" type="matrix" values="0 0 0 0 0 0 0 0 0 0 0 0 0 0 0 0 0 0 127 0" result="hardAlpha"/>
<feOffset/>
<feGaussianBlur stdDeviation="5.7"/>
<feComposite in2="hardAlpha" operator="arithmetic" k2="-1" k3="1"/>
<feColorMatrix type="matrix" values="0 0 0 0 1 0 0 0 0 0.719901 0 0 0 0 0.557738 0 0 0 1 0"/>
<feBlend mode="normal" in2="shape" result="effect3_innerShadow_296_241"/>
</filter>
</defs>
</svg>
