<svg width="75" height="89" viewBox="0 0 75 89" fill="none" xmlns="http://www.w3.org/2000/svg">
<g filter="url(#filter0_ddi_299_298)">
<path d="M14.0176 42.7954C13.4267 28.7138 27.717 16.556 41.5166 19.4214C53.0824 21.823 60.5873 31.8441 59.665 43.6206C58.7579 55.203 50.2123 63.761 38.6289 64.6567C25.8118 65.6478 14.5566 55.6395 14.0176 42.7954ZM38.0195 29.2212C37.1911 29.2212 36.5195 29.8928 36.5195 30.7212V42.1938C36.5194 42.37 36.4267 42.5334 36.2754 42.6235L27.9717 47.5591C27.2596 47.9824 27.0259 48.9026 27.4492 49.6147C27.8726 50.3267 28.7929 50.5614 29.5049 50.1382L37.8076 45.2026C38.8687 44.5719 39.5194 43.4283 39.5195 42.1938V30.7212C39.5195 29.8928 38.8479 29.2213 38.0195 29.2212Z" fill="#F4E7D6"/>
<path fill-rule="evenodd" clip-rule="evenodd" d="M27.0169 13.9699C27.6081 15.1069 27.3205 16.6046 26.3745 17.3152L15.6013 25.4074C14.6553 26.118 13.4091 25.7724 12.8178 24.6354C12.2265 23.4985 11.5141 21.0007 12.4602 20.2901L23.2334 12.1979C24.1794 11.4873 26.4256 12.833 27.0169 13.9699Z" fill="#F4E7D6"/>
<path fill-rule="evenodd" clip-rule="evenodd" d="M47.8305 13.9699C48.4218 12.833 50.668 11.4873 51.614 12.1979L62.3872 20.2901C63.3332 21.0007 62.6208 23.4985 62.0295 24.6354C61.4383 25.7724 60.1921 26.118 59.246 25.4074L48.4729 17.3152C47.5269 16.6046 47.2393 15.1069 47.8305 13.9699Z" fill="#F4E7D6"/>
</g>
<defs>
<filter id="filter0_ddi_299_298" x="0" y="0" width="74.8477" height="88.7246" filterUnits="userSpaceOnUse" color-interpolation-filters="sRGB">
<feFlood flood-opacity="0" result="BackgroundImageFix"/>
<feColorMatrix in="SourceAlpha" type="matrix" values="0 0 0 0 0 0 0 0 0 0 0 0 0 0 0 0 0 0 127 0" result="hardAlpha"/>
<feOffset dy="12"/>
<feGaussianBlur stdDeviation="6"/>
<feComposite in2="hardAlpha" operator="out"/>
<feColorMatrix type="matrix" values="0 0 0 0 0 0 0 0 0 0 0 0 0 0 0 0 0 0 0.4 0"/>
<feBlend mode="normal" in2="BackgroundImageFix" result="effect1_dropShadow_299_298"/>
<feColorMatrix in="SourceAlpha" type="matrix" values="0 0 0 0 0 0 0 0 0 0 0 0 0 0 0 0 0 0 127 0" result="hardAlpha"/>
<feOffset/>
<feGaussianBlur stdDeviation="6"/>
<feComposite in2="hardAlpha" operator="out"/>
<feColorMatrix type="matrix" values="0 0 0 0 1 0 0 0 0 0.813839 0 0 0 0 0.58631 0 0 0 0.7 0"/>
<feBlend mode="normal" in2="effect1_dropShadow_299_298" result="effect2_dropShadow_299_298"/>
<feBlend mode="normal" in="SourceGraphic" in2="effect2_dropShadow_299_298" result="shape"/>
<feColorMatrix in="SourceAlpha" type="matrix" values="0 0 0 0 0 0 0 0 0 0 0 0 0 0 0 0 0 0 127 0" result="hardAlpha"/>
<feOffset/>
<feGaussianBlur stdDeviation="5.7"/>
<feComposite in2="hardAlpha" operator="arithmetic" k2="-1" k3="1"/>
<feColorMatrix type="matrix" values="0 0 0 0 1 0 0 0 0 0.719901 0 0 0 0 0.557738 0 0 0 1 0"/>
<feBlend mode="normal" in2="shape" result="effect3_innerShadow_299_298"/>
</filter>
</defs>
</svg>
