<svg width="328" height="328" viewBox="0 0 328 328" fill="none" xmlns="http://www.w3.org/2000/svg">
<g filter="url(#filter0_d_286_506)">
<path d="M305.093 186.896C317.742 108.971 264.825 35.5467 186.901 22.8978C108.976 10.2488 35.5519 63.1652 22.9029 141.09C10.254 219.014 63.1703 292.439 141.095 305.087C219.019 317.736 292.444 264.82 305.093 186.896Z" fill="url(#paint0_linear_286_506)"/>
</g>
<path d="M286.112 199.072C305.501 131.631 266.548 61.2408 199.107 41.8515C131.666 22.4621 61.2762 61.4156 41.8868 128.857C22.4975 196.298 61.451 266.687 128.892 286.077C196.333 305.466 266.723 266.513 286.112 199.072Z" fill="url(#paint1_linear_286_506)"/>
<path d="M55.5137 163.146L77.1258 141.534C77.1258 141.534 72.8881 153.399 72.8881 163.146C72.8881 172.892 77.1258 184.758 77.1258 184.758L55.5137 163.146Z" fill="#FF7464"/>
<g filter="url(#filter1_d_286_506)">
<path d="M273.33 163.146L251.718 141.534C251.718 141.534 255.956 153.399 255.956 163.146C255.956 172.892 251.718 184.758 251.718 184.758L273.33 163.146Z" fill="#FF7464"/>
</g>
<path d="M163.997 50L185.609 71.6121C185.609 71.6121 173.744 67.3744 163.997 67.3744C154.251 67.3744 142.385 71.6121 142.385 71.6121L163.997 50Z" fill="#FF7464"/>
<path d="M163.997 275.02L185.609 253.407C185.609 253.407 173.744 257.645 163.997 257.645C154.251 257.645 142.385 253.407 142.385 253.407L163.997 275.02Z" fill="#FF7464"/>
<g filter="url(#filter2_i_286_506)">
<path d="M163.949 242.292C207.22 242.292 242.297 207.215 242.297 163.945C242.297 120.674 207.22 85.5967 163.949 85.5967C120.679 85.5967 85.6016 120.674 85.6016 163.945C85.6016 207.215 120.679 242.292 163.949 242.292Z" fill="#FFA69C"/>
</g>
<g filter="url(#filter3_f_286_506)">
<circle cx="163.573" cy="163.57" r="72.8879" transform="rotate(90 163.573 163.57)" fill="url(#paint2_linear_286_506)"/>
</g>
<defs>
<filter id="filter0_d_286_506" x="8.93516" y="8.9293" width="310.126" height="310.127" filterUnits="userSpaceOnUse" color-interpolation-filters="sRGB">
<feFlood flood-opacity="0" result="BackgroundImageFix"/>
<feColorMatrix in="SourceAlpha" type="matrix" values="0 0 0 0 0 0 0 0 0 0 0 0 0 0 0 0 0 0 127 0" result="hardAlpha"/>
<feOffset/>
<feGaussianBlur stdDeviation="6.05"/>
<feComposite in2="hardAlpha" operator="out"/>
<feColorMatrix type="matrix" values="0 0 0 0 0 0 0 0 0 0 0 0 0 0 0 0 0 0 0.25 0"/>
<feBlend mode="normal" in2="BackgroundImageFix" result="effect1_dropShadow_286_506"/>
<feBlend mode="normal" in="SourceGraphic" in2="effect1_dropShadow_286_506" result="shape"/>
</filter>
<filter id="filter1_d_286_506" x="247.719" y="141.534" width="29.6113" height="51.2241" filterUnits="userSpaceOnUse" color-interpolation-filters="sRGB">
<feFlood flood-opacity="0" result="BackgroundImageFix"/>
<feColorMatrix in="SourceAlpha" type="matrix" values="0 0 0 0 0 0 0 0 0 0 0 0 0 0 0 0 0 0 127 0" result="hardAlpha"/>
<feOffset dy="4"/>
<feGaussianBlur stdDeviation="2"/>
<feComposite in2="hardAlpha" operator="out"/>
<feColorMatrix type="matrix" values="0 0 0 0 1 0 0 0 0 0.923909 0 0 0 0 0.824405 0 0 0 0.25 0"/>
<feBlend mode="normal" in2="BackgroundImageFix" result="effect1_dropShadow_286_506"/>
<feBlend mode="normal" in="SourceGraphic" in2="effect1_dropShadow_286_506" result="shape"/>
</filter>
<filter id="filter2_i_286_506" x="85.6016" y="85.5967" width="156.695" height="156.696" filterUnits="userSpaceOnUse" color-interpolation-filters="sRGB">
<feFlood flood-opacity="0" result="BackgroundImageFix"/>
<feBlend mode="normal" in="SourceGraphic" in2="BackgroundImageFix" result="shape"/>
<feColorMatrix in="SourceAlpha" type="matrix" values="0 0 0 0 0 0 0 0 0 0 0 0 0 0 0 0 0 0 127 0" result="hardAlpha"/>
<feOffset/>
<feGaussianBlur stdDeviation="2"/>
<feComposite in2="hardAlpha" operator="arithmetic" k2="-1" k3="1"/>
<feColorMatrix type="matrix" values="0 0 0 0 0 0 0 0 0 0 0 0 0 0 0 0 0 0 0.25 0"/>
<feBlend mode="normal" in2="shape" result="effect1_innerShadow_286_506"/>
</filter>
<filter id="filter3_f_286_506" x="76.7855" y="76.7816" width="173.575" height="173.576" filterUnits="userSpaceOnUse" color-interpolation-filters="sRGB">
<feFlood flood-opacity="0" result="BackgroundImageFix"/>
<feBlend mode="normal" in="SourceGraphic" in2="BackgroundImageFix" result="shape"/>
<feGaussianBlur stdDeviation="6.95" result="effect1_foregroundBlur_286_506"/>
</filter>
<linearGradient id="paint0_linear_286_506" x1="62.9354" y1="265.084" x2="265.108" y2="62.9116" gradientUnits="userSpaceOnUse">
<stop stop-color="#FFA69C"/>
<stop offset="1" stop-color="#FFF3D8"/>
</linearGradient>
<linearGradient id="paint1_linear_286_506" x1="74.1738" y1="74.1421" x2="253.856" y2="253.824" gradientUnits="userSpaceOnUse">
<stop stop-color="#FFA69C"/>
<stop offset="1" stop-color="#FFF3D8"/>
</linearGradient>
<linearGradient id="paint2_linear_286_506" x1="163.573" y1="163.57" x2="236.461" y2="163.57" gradientUnits="userSpaceOnUse">
<stop stop-color="#FFA1A1" stop-opacity="0"/>
<stop offset="1" stop-color="#FF173E"/>
</linearGradient>
</defs>
</svg>
