<svg width="328" height="328" viewBox="0 0 328 328" fill="none" xmlns="http://www.w3.org/2000/svg">
<g filter="url(#filter0_d_286_516)">
<path d="M305.089 186.896C317.738 108.971 264.821 35.5467 186.897 22.8978C108.972 10.2488 35.548 63.1652 22.899 141.09C10.2501 219.014 63.1664 292.439 141.091 305.087C219.015 317.736 292.44 264.82 305.089 186.896Z" fill="url(#paint0_linear_286_516)"/>
</g>
<path d="M286.11 199.076C305.5 131.635 266.546 61.2452 199.105 41.8559C131.664 22.4665 61.2742 61.42 41.8849 128.861C22.4955 196.302 61.449 266.692 128.89 286.081C196.331 305.47 266.721 266.517 286.11 199.076Z" fill="url(#paint1_linear_286_516)"/>
<path d="M55.5098 163.15L77.1219 141.538C77.1219 141.538 72.8842 153.404 72.8842 163.15C72.8842 172.897 77.1219 184.762 77.1219 184.762L55.5098 163.15Z" fill="#FF7464"/>
<g filter="url(#filter1_d_286_516)">
<path d="M273.326 163.15L251.714 141.538C251.714 141.538 255.952 153.404 255.952 163.15C255.952 172.897 251.714 184.762 251.714 184.762L273.326 163.15Z" fill="#FF7464"/>
</g>
<path d="M163.993 50.0044L185.605 71.6165C185.605 71.6165 173.74 67.3788 163.993 67.3788C154.247 67.3788 142.381 71.6165 142.381 71.6165L163.993 50.0044Z" fill="#FF7464"/>
<path d="M163.993 275.02L185.605 253.407C185.605 253.407 173.74 257.645 163.993 257.645C154.247 257.645 142.381 253.407 142.381 253.407L163.993 275.02Z" fill="#FF7464"/>
<g filter="url(#filter2_i_286_516)">
<path d="M163.946 242.297C207.216 242.297 242.293 207.219 242.293 163.949C242.293 120.679 207.216 85.6011 163.946 85.6011C120.675 85.6011 85.5977 120.679 85.5977 163.949C85.5977 207.219 120.675 242.297 163.946 242.297Z" fill="#FFA69C"/>
</g>
<g filter="url(#filter3_f_286_516)">
<circle cx="163.571" cy="163.57" r="72.8879" transform="rotate(-180 163.571 163.57)" fill="url(#paint2_linear_286_516)"/>
</g>
<defs>
<filter id="filter0_d_286_516" x="8.93125" y="8.9293" width="310.126" height="310.127" filterUnits="userSpaceOnUse" color-interpolation-filters="sRGB">
<feFlood flood-opacity="0" result="BackgroundImageFix"/>
<feColorMatrix in="SourceAlpha" type="matrix" values="0 0 0 0 0 0 0 0 0 0 0 0 0 0 0 0 0 0 127 0" result="hardAlpha"/>
<feOffset/>
<feGaussianBlur stdDeviation="6.05"/>
<feComposite in2="hardAlpha" operator="out"/>
<feColorMatrix type="matrix" values="0 0 0 0 0 0 0 0 0 0 0 0 0 0 0 0 0 0 0.25 0"/>
<feBlend mode="normal" in2="BackgroundImageFix" result="effect1_dropShadow_286_516"/>
<feBlend mode="normal" in="SourceGraphic" in2="effect1_dropShadow_286_516" result="shape"/>
</filter>
<filter id="filter1_d_286_516" x="247.715" y="141.538" width="29.6113" height="51.2241" filterUnits="userSpaceOnUse" color-interpolation-filters="sRGB">
<feFlood flood-opacity="0" result="BackgroundImageFix"/>
<feColorMatrix in="SourceAlpha" type="matrix" values="0 0 0 0 0 0 0 0 0 0 0 0 0 0 0 0 0 0 127 0" result="hardAlpha"/>
<feOffset dy="4"/>
<feGaussianBlur stdDeviation="2"/>
<feComposite in2="hardAlpha" operator="out"/>
<feColorMatrix type="matrix" values="0 0 0 0 1 0 0 0 0 0.923909 0 0 0 0 0.824405 0 0 0 0.25 0"/>
<feBlend mode="normal" in2="BackgroundImageFix" result="effect1_dropShadow_286_516"/>
<feBlend mode="normal" in="SourceGraphic" in2="effect1_dropShadow_286_516" result="shape"/>
</filter>
<filter id="filter2_i_286_516" x="85.5977" y="85.6011" width="156.695" height="156.696" filterUnits="userSpaceOnUse" color-interpolation-filters="sRGB">
<feFlood flood-opacity="0" result="BackgroundImageFix"/>
<feBlend mode="normal" in="SourceGraphic" in2="BackgroundImageFix" result="shape"/>
<feColorMatrix in="SourceAlpha" type="matrix" values="0 0 0 0 0 0 0 0 0 0 0 0 0 0 0 0 0 0 127 0" result="hardAlpha"/>
<feOffset/>
<feGaussianBlur stdDeviation="2"/>
<feComposite in2="hardAlpha" operator="arithmetic" k2="-1" k3="1"/>
<feColorMatrix type="matrix" values="0 0 0 0 0 0 0 0 0 0 0 0 0 0 0 0 0 0 0.25 0"/>
<feBlend mode="normal" in2="shape" result="effect1_innerShadow_286_516"/>
</filter>
<filter id="filter3_f_286_516" x="76.7836" y="76.7816" width="173.575" height="173.576" filterUnits="userSpaceOnUse" color-interpolation-filters="sRGB">
<feFlood flood-opacity="0" result="BackgroundImageFix"/>
<feBlend mode="normal" in="SourceGraphic" in2="BackgroundImageFix" result="shape"/>
<feGaussianBlur stdDeviation="6.95" result="effect1_foregroundBlur_286_516"/>
</filter>
<linearGradient id="paint0_linear_286_516" x1="62.9315" y1="265.084" x2="265.104" y2="62.9116" gradientUnits="userSpaceOnUse">
<stop stop-color="#FFA69C"/>
<stop offset="1" stop-color="#FFF3D8"/>
</linearGradient>
<linearGradient id="paint1_linear_286_516" x1="74.1718" y1="74.1465" x2="253.854" y2="253.829" gradientUnits="userSpaceOnUse">
<stop stop-color="#FFA69C"/>
<stop offset="1" stop-color="#FFF3D8"/>
</linearGradient>
<linearGradient id="paint2_linear_286_516" x1="163.571" y1="163.57" x2="236.459" y2="163.57" gradientUnits="userSpaceOnUse">
<stop stop-color="#FFA1A1" stop-opacity="0"/>
<stop offset="1" stop-color="#FF173E"/>
</linearGradient>
</defs>
</svg>
